<svg xmlns="http://www.w3.org/2000/svg" xmlns:xlink="http://www.w3.org/1999/xlink" xmlns:lucid="lucid" width="900" height="620"><g transform="translate(-580 -360)" lucid:page-tab-id="0_0"><path d="M600 491.6h860v340H600z" stroke="#000" stroke-opacity="0" stroke-width="2" fill-opacity="0"/><path d="M740 873.4h600V960H740z" stroke="#000" stroke-width="2" fill="#ffbbb1"/><path d="M740 560h600v313.4H740z" stroke="#000" stroke-width="2" fill="#c1e4f7"/><path d="M740 380h600v180H740z" stroke="#000" stroke-width="2" fill="#ffeca9"/><path d="M800 500h340v220H800z" stroke="#000" stroke-width="2" fill="#c7e8ac"/><use xlink:href="#a" transform="matrix(1,0,0,1,805,505) translate(0 25.5392578125)"/><path d="M1024 454c0 3.3-26.85 6-60 6-33.13 0-60-2.7-60-6v-48c0-3.3 26.87-6 60-6 33.15 0 60 2.7 60 6z" stroke="#000" stroke-width="2" fill="#fff"/><path d="M1024 406c0 3.3-26.85 6-60 6-33.13 0-60-2.7-60-6" stroke="#000" stroke-width="2" fill="none"/><use xlink:href="#b" transform="matrix(1,0,0,1,909.0114942528737,417) translate(7.47314453125 26.5517578125)"/><path d="M879 408.57c6.08 0 11 9.6 11 21.43s-4.92 21.43-11 21.43h-88c-6.08 0-11-9.6-11-21.43s4.92-21.43 11-21.43z" stroke="#000" stroke-width="2" fill="#fff"/><path d="M879 451.43c-6.08 0-11-9.6-11-21.43s4.92-21.43 11-21.43" stroke="#000" stroke-width="2" fill="none"/><use xlink:href="#c" transform="matrix(1,0,0,1,785,413.57142857142856) translate(8.96337890625 23.3642578125)"/><path d="M1050.82 406h107.2l-12.8 48h-107.2z" stroke="#000" stroke-width="2" fill="#fff"/><use xlink:href="#d" transform="matrix(1,0,0,1,1043.0229885057474,411) translate(36.46447265625 26.3642578125)"/><path d="M1168.5 380H1340v180h-171.5z" stroke="#000" stroke-opacity="0" stroke-width="2" fill="#fff" fill-opacity="0"/><use xlink:href="#e" transform="matrix(1,0,0,1,1173.4936479128858,385) translate(40.477148437500006 93.6142578125)"/><use xlink:href="#f" transform="matrix(1,0,0,1,1173.4936479128858,385) translate(84.6509765625 93.6142578125)"/><path d="M1168.5 560H1340v200h-171.5z" stroke="#000" stroke-opacity="0" stroke-width="2" fill="#fff" fill-opacity="0"/><use xlink:href="#g" transform="matrix(1,0,0,1,1173.493647912885,565) translate(43.430273437500006 102.3642578125)"/><use xlink:href="#h" transform="matrix(1,0,0,1,1173.493647912885,565) translate(111.99375 102.3642578125)"/><path d="M1168.5 873.4H1340V960h-171.5z" stroke="#000" stroke-opacity="0" stroke-width="2" fill="#fff" fill-opacity="0"/><use xlink:href="#i" transform="matrix(1,0,0,1,1173.493647912885,878.4000000000001) translate(57.229101562500006 45.7080078125)"/><path d="M820 640h88.02v66.6H820z" stroke="#000" stroke-width="2" fill="#fff"/><use xlink:href="#j" transform="matrix(1,0,0,1,825,645) translate(15.67724609375 19.2392578125)"/><use xlink:href="#k" transform="matrix(1,0,0,1,825,645) translate(8.59765625 43.751953125)"/><path d="M920 520h88.02v66.6H920z" stroke="#000" stroke-width="2" fill="#fff"/><use xlink:href="#l" transform="matrix(1,0,0,1,925,525) translate(0.77978515625 19.2392578125)"/><use xlink:href="#m" transform="matrix(1,0,0,1,925,525) translate(21.8515625 43.751953125)"/><path d="M1020 640h88.02v66.6H1020z" stroke="#000" stroke-width="2" fill="#fff"/><use xlink:href="#n" transform="matrix(1,0,0,1,1025,645) translate(11.8408203125 19.2392578125)"/><use xlink:href="#k" transform="matrix(1,0,0,1,1025,645) translate(8.59765625 43.751953125)"/><path d="M1036 520h88v66.6h-88z" stroke="#000" stroke-width="2" fill="#fff"/><use xlink:href="#o" transform="matrix(1,0,0,1,1040.9885057471263,525) translate(19.84326171875 19.2392578125)"/><use xlink:href="#p" transform="matrix(1,0,0,1,1040.9885057471263,525) translate(0.67431640625 43.751953125)"/><path d="M964 588.6v24.7H864v7.2" stroke="#000" stroke-width="2" fill="none"/><path d="M965 588.63h-2v-1.03h2z"/><path d="M864 635.76l-4.62-14.26h9.27z" stroke="#000" stroke-width="2"/><path d="M964 588.6v24.7h100v7.2" stroke="#000" stroke-width="2" fill="none"/><path d="M965 588.63h-2v-1.03h2z"/><path d="M1064 635.76l-4.62-14.26h9.27z" stroke="#000" stroke-width="2"/><path d="M964 462v38.5" stroke="#000" stroke-width="2" fill="none"/><path d="M964 461l1-.03v1.06h-2v-1.07z"/><path d="M964 515.76l-4.62-14.26h9.27z" stroke="#000" stroke-width="2"/><path d="M820 840h88.02v66.6H820z" stroke="#000" stroke-width="2" fill="#fff"/><use xlink:href="#q" transform="matrix(1,0,0,1,825,845) translate(13.09765625 19.2392578125)"/><use xlink:href="#r" transform="matrix(1,0,0,1,825,845) translate(5.93896484375 43.751953125)"/><path d="M1020 840h88.02v66.6H1020z" stroke="#000" stroke-width="2" fill="#fff"/><use xlink:href="#q" transform="matrix(1,0,0,1,1025,845) translate(13.09765625 19.2392578125)"/><use xlink:href="#k" transform="matrix(1,0,0,1,1025,845) translate(8.59765625 43.751953125)"/><path d="M925.94 897.8h-15.92v-2h15.92zm74.56 0h-11.77v-2h11.77z"/><path d="M910.05 897.8h-1.03v-2h1.03zM1015.76 896.8l-14.26 4.64v-9.28z"/><path d="M1019 896.8l-18.5 6v-12zm-16.5 3.26l10.03-3.26-10.03-3.26z"/><use xlink:href="#s" transform="matrix(1,0,0,1,925.9388020833334,872.2873046875002) translate(0.004999999999999005 19.2392578125)"/><use xlink:href="#t" transform="matrix(1,0,0,1,925.9388020833334,872.2873046875002) translate(4.997187499999999 43.751953125)"/><path d="M865 820.5h-2v-17.6h2zm0-91.14h-2V708.6h2z"/><path d="M865 708.63h-2v-1.03h2zM864 835.76l-4.62-14.26h9.27z"/><path d="M864 839l-6-18.5h12.02zm-3.25-16.5l3.26 10.03 3.27-10.03z"/><use xlink:href="#u" transform="matrix(1,0,0,1,824.6716505028737,729.3642903645834) translate(5.177363281250003 19.2392578125)"/><use xlink:href="#v" transform="matrix(1,0,0,1,824.6716505028737,729.3642903645834) translate(0.005000000000002558 43.751953125)"/><use xlink:href="#w" transform="matrix(1,0,0,1,824.6716505028737,729.3642903645834) translate(3.1075390625000026 68.2646484375)"/><path d="M1065 820.5h-2v-17.6h2zm0-91.14h-2V708.6h2z"/><path d="M1065 708.63h-2v-1.03h2zM1064 835.76l-4.62-14.26h9.27z"/><path d="M1064 839l-6-18.5h12.02zm-3.25-16.5l3.26 10.03 3.27-10.03z"/><g><use xlink:href="#u" transform="matrix(1,0,0,1,1024.3464551903737,729.3642903645834) translate(5.502558593750003 19.2392578125)"/><use xlink:href="#x" transform="matrix(1,0,0,1,1024.3464551903737,729.3642903645834) translate(0.005000000000002558 43.751953125)"/><use xlink:href="#w" transform="matrix(1,0,0,1,1024.3464551903737,729.3642903645834) translate(3.4327343750000026 68.2646484375)"/></g><path d="M1097.95 456l-.03.16-.07.36-.1.36-.1.36-.15.35-.16.35-.2.36-.2.37-.27.38-.3.38-.35.4-.4.42-.5.45-.57.47-.7.5-.86.55-1.1.6-1.37.68-1.8.76-2.5.87-3.6 1.04-5.75 1.3-11.72 1.95-49.12 6.74-5.37 1.17-11.35 3.34-8.54 3.54-6.54 3.6-5.1 3.53-4 3.48-3.16 3.4-2.48 3.34-.03.05" stroke="#000" stroke-width="2" fill="none"/><path d="M1099 456.05l-2-.05.02-1h2z"/><path d="M964.98 515.9l-.15-15 8.84 2.8z" stroke="#000" stroke-width="2"/><path d="M835.05 453.43l.03.25.1.57.12.54.15.5.2.5.2.48.25.47.3.47.33.48.38.47.46.48.53.5.6.52.75.54.9.58 1.14.6 1.43.68 1.92.74 2.7.85 4.18 1 8.02 1.38 50.04 6.82 2.2.48 10.78 2.94 8.62 3.27 6.98 3.45 5.68 3.5 4.64 3.55 3.8 3.5 3.07 3.48 2.5 3.4.63 1.1" stroke="#000" stroke-width="2" fill="none"/><path d="M836.03 453.42l-2 .07-.03-1.07h2z"/><path d="M963.07 515.9l-8.58-12.3 8.86-2.7z" stroke="#000" stroke-width="2"/><defs><path d="M489 0H184v-1462h838v254H489v377h496v253H489V0" id="y"/><path d="M836-686c0-141-77-236-213-236-140 0-206 98-215 236h428zm223 627C946-4 838 19 666 20 308 22 92-191 92-551c0-356 187-588 529-588 314 0 504 195 501 508v148H401c5 169 104 277 279 276 158-2 261-33 379-88v236" id="z"/><path d="M618-1141c286 0 465 117 465 396V0H870l-59-152h-8C704-33 632 18 432 20 216 22 86-113 86-334c0-119 44-202 124-262 109-82 356-99 570-100 11-142-39-219-174-219-89 0-194 27-315 81l-101-206c129-67 271-101 428-101zm-71 938c137 0 235-88 233-223v-92c-190 3-382 4-381 186 0 86 49 129 148 129" id="A"/><path d="M836-831c-99-39-182-77-306-82-139-6-173 83-92 144 51 39 327 139 383 188 71 62 119 126 119 249C940-74 747 21 463 20 305 20 202 0 94-45v-252c93 45 253 94 379 94 111 0 166-32 166-96 0-68-41-76-98-109-79-46-276-119-333-167-74-61-116-125-116-252 0-368 555-367 836-224" id="B"/><path d="M498-350c-2 85 52 126 133 127 53 0 117-12 192-35v227C747 3 654 20 543 20c-247 0-350-124-350-370v-539H47v-129l168-102 88-236h195v238h313v229H498v539" id="C"/><g id="a"><use transform="matrix(0.0087890625,0,0,0.0087890625,0,0)" xlink:href="#y"/><use transform="matrix(0.0087890625,0,0,0.0087890625,9.87890625,0)" xlink:href="#z"/><use transform="matrix(0.0087890625,0,0,0.0087890625,20.513671875,0)" xlink:href="#A"/><use transform="matrix(0.0087890625,0,0,0.0087890625,31.3857421875,0)" xlink:href="#B"/><use transform="matrix(0.0087890625,0,0,0.0087890625,40.3330078125,0)" xlink:href="#C"/></g><path d="M1477 0h-168c-114-383-232-756-342-1143-19-66-26-106-27-119-15 88-39 184-70 289L584 0H416L27-1462h180l231 903c32 127 55 241 70 344 18-122 46-241 80-358l262-889h180l275 897c32 103 59 220 81 350 13-95 37-210 72-346l230-901h180" id="D"/><path d="M588-1114c260 0 384 106 385 366V0H850l-33-156h-8C708-34 639 17 442 20 231 23 94-94 94-303c0-221 177-337 531-348l186-6c11-203-40-320-233-320-91 0-195 28-310 84l-51-127c97-53 229-94 371-94zM268-301c-1 123 81 184 207 184 203 0 334-120 332-323v-99c-257 14-539-7-539 238" id="E"/><path d="M340-893c80-153 237-262 467-211l-23 154c-45-10-85-15-120-15-184-3-322 182-322 377V0H176v-1096h137l19 203h8" id="F"/><path d="M995-51C878-2 799 19 639 20c-329 2-524-221-524-559 0-326 172-577 481-577 278 0 451 210 446 493v105H287c4 242 121 392 358 393 118 0 235-25 350-74v148zM864-653c2-195-85-324-270-324-190 0-288 139-303 324h573" id="G"/><path d="M690-1114c271 2 402 123 402 399V0H926v-709c-1-177-76-266-252-266-251 0-332 135-332 402V0H176v-1556h166c-4 200 8 426-8 612h10c61-100 187-171 346-170" id="H"/><path d="M621-1116c316 0 501 239 501 567 0 339-180 575-508 569S119-212 115-549c-4-339 178-567 506-567zm-5 141c-239 0-329 168-329 426 0 255 93 430 331 430s332-174 332-430-95-426-334-426" id="I"/><path d="M563 20c-271 0-399-123-399-399v-717h168v711c1 177 76 266 252 266 250 0 331-135 331-401v-576h166V0H944l-24-147h-9C848-44 724 20 563 20" id="J"/><path d="M502-977c-130 0-238 32-238 139 0 75 39 101 95 134 33 19 97 46 192 81 130 48 217 95 263 143s69 108 69 181C883-73 695 20 449 20 304 20 190-3 109-49v-154c91 47 216 86 344 86 149 0 270-36 270-168 0-43-21-76-55-109-56-55-367-158-434-208-74-55-128-109-128-225 0-327 490-342 754-217l-59 135c-110-45-210-68-299-68" id="K"/><g id="b"><use transform="matrix(0.0087890625,0,0,0.0087890625,0,0)" xlink:href="#D"/><use transform="matrix(0.0087890625,0,0,0.0087890625,16.3037109375,0)" xlink:href="#E"/><use transform="matrix(0.0087890625,0,0,0.0087890625,26.314453125,0)" xlink:href="#F"/><use transform="matrix(0.0087890625,0,0,0.0087890625,33.3017578125,0)" xlink:href="#G"/><use transform="matrix(0.0087890625,0,0,0.0087890625,43.400390625,0)" xlink:href="#H"/><use transform="matrix(0.0087890625,0,0,0.0087890625,54.4482421875,0)" xlink:href="#I"/><use transform="matrix(0.0087890625,0,0,0.0087890625,65.3203125,0)" xlink:href="#J"/><use transform="matrix(0.0087890625,0,0,0.0087890625,76.3681640625,0)" xlink:href="#K"/><use transform="matrix(0.0087890625,0,0,0.0087890625,84.955078125,0)" xlink:href="#G"/></g><path d="M584-1331c-162 0-287 69-287 219 0 118 43 164 123 214 44 28 112 56 203 89 153 55 259 113 317 176s86 144 86 244c-1 276-228 409-520 409-173 0-307-22-400-67v-164c109 46 257 81 406 82 199 1 342-68 342-244 0-120-47-164-132-214-47-28-121-58-218-93-136-49-234-106-292-173s-87-154-87-261c-1-239 209-369 463-369 145 0 279 27 401 80l-53 148c-121-51-238-76-352-76" id="L"/><path d="M354-322c-2 123 60 204 176 205 51 1 114-10 150-20v127C647 7 557 20 506 20 294 20 188-92 188-315v-652H31v-80l157-69 70-234h96v254h318v129H354v645" id="M"/><path d="M1368-1116c259 2 372 131 371 401V0h-166v-713c0-168-66-262-230-262-221 0-303 131-303 363V0H874v-713c-1-169-66-262-231-262-235 0-301 142-301 400V0H176v-1096h135l27 150h8c56-99 174-170 324-170 171 0 283 62 336 186h8c60-108 189-187 354-186" id="N"/><g id="c"><use transform="matrix(0.0087890625,0,0,0.0087890625,0,0)" xlink:href="#L"/><use transform="matrix(0.0087890625,0,0,0.0087890625,9.87890625,0)" xlink:href="#M"/><use transform="matrix(0.0087890625,0,0,0.0087890625,16.2333984375,0)" xlink:href="#F"/><use transform="matrix(0.0087890625,0,0,0.0087890625,23.220703125,0)" xlink:href="#G"/><use transform="matrix(0.0087890625,0,0,0.0087890625,33.3193359375,0)" xlink:href="#E"/><use transform="matrix(0.0087890625,0,0,0.0087890625,43.330078125,0)" xlink:href="#N"/></g><path d="M371 0H201v-1462h815v151H371v535h606v151H371V0" id="O"/><path d="M342 0H176v-1096h166V0zm-82-1282c-61 0-98-43-98-111 0-69 36-110 98-110 59 0 98 43 98 110s-39 111-98 111" id="P"/><path d="M342 0H176v-1556h166V0" id="Q"/><g id="d"><use transform="matrix(0.0087890625,0,0,0.0087890625,0,0)" xlink:href="#O"/><use transform="matrix(0.0087890625,0,0,0.0087890625,9.2900390625,0)" xlink:href="#P"/><use transform="matrix(0.0087890625,0,0,0.0087890625,13.8427734375,0)" xlink:href="#Q"/><use transform="matrix(0.0087890625,0,0,0.0087890625,18.3955078125,0)" xlink:href="#G"/><use transform="matrix(0.0087890625,0,0,0.0087890625,28.494140625,0)" xlink:href="#K"/></g><path d="M649-1462c450-4 719 268 719 717 0 484-276 748-762 745H201v-1462h448zM578-147c400 1 610-197 610-592 1-379-192-576-570-576H371v1168h207" id="R"/><g id="e"><use transform="matrix(0.0087890625,0,0,0.0087890625,0,0)" xlink:href="#R"/><use transform="matrix(0.0087890625,0,0,0.0087890625,13.1220703125,0)" xlink:href="#E"/><use transform="matrix(0.0087890625,0,0,0.0087890625,23.1328125,0)" xlink:href="#M"/><use transform="matrix(0.0087890625,0,0,0.0087890625,29.4873046875,0)" xlink:href="#E"/></g><path d="M287-543c-1 247 91 418 323 418 91 0 185-20 281-59v147C818 1 725 20 614 20c-329 0-499-221-499-561 0-349 172-575 510-575 96 0 221 26 282 57l-51 141c-61-25-157-50-235-51-223 0-334 142-334 426" id="S"/><g id="f"><use transform="matrix(0.0087890625,0,0,0.0087890625,0,0)" xlink:href="#K"/><use transform="matrix(0.0087890625,0,0,0.0087890625,8.5869140625,0)" xlink:href="#I"/><use transform="matrix(0.0087890625,0,0,0.0087890625,19.458984375,0)" xlink:href="#J"/><use transform="matrix(0.0087890625,0,0,0.0087890625,30.5068359375,0)" xlink:href="#F"/><use transform="matrix(0.0087890625,0,0,0.0087890625,37.494140625,0)" xlink:href="#S"/><use transform="matrix(0.0087890625,0,0,0.0087890625,46.0634765625,0)" xlink:href="#G"/><use transform="matrix(0.0087890625,0,0,0.0087890625,56.162109375,0)" xlink:href="#K"/></g><g id="g"><use transform="matrix(0.0087890625,0,0,0.0087890625,0,0)" xlink:href="#O"/><use transform="matrix(0.0087890625,0,0,0.0087890625,9.2900390625,0)" xlink:href="#G"/><use transform="matrix(0.0087890625,0,0,0.0087890625,19.388671875,0)" xlink:href="#E"/><use transform="matrix(0.0087890625,0,0,0.0087890625,29.3994140625,0)" xlink:href="#M"/><use transform="matrix(0.0087890625,0,0,0.0087890625,35.75390625,0)" xlink:href="#J"/><use transform="matrix(0.0087890625,0,0,0.0087890625,46.8017578125,0)" xlink:href="#F"/><use transform="matrix(0.0087890625,0,0,0.0087890625,53.7890625,0)" xlink:href="#G"/></g><path d="M115-545c0-330 146-571 454-571 149 0 263 54 342 162h13c-20-185-8-401-11-602h166V0H944l-22-147h-9C836-36 722 20 569 20c-309 0-454-234-454-565zm172 2c0 249 78 424 303 424 257 0 327-150 323-426-4-282-68-432-325-432-220 0-301 191-301 434" id="T"/><g id="h"><use transform="matrix(0.0087890625,0,0,0.0087890625,0,0)" xlink:href="#T"/><use transform="matrix(0.0087890625,0,0,0.0087890625,11.0302734375,0)" xlink:href="#E"/><use transform="matrix(0.0087890625,0,0,0.0087890625,21.041015625,0)" xlink:href="#M"/><use transform="matrix(0.0087890625,0,0,0.0087890625,27.3955078125,0)" xlink:href="#E"/></g><path d="M1128-1036c0 321-241 464-585 461H371V0H201v-1462h379c365 0 548 142 548 426zm-176 8c0-218-150-286-391-287H371v594h153c270-3 428-62 428-307" id="U"/><path d="M694-1116c270 0 399 125 398 401V0H926v-709c-1-177-76-266-252-266-250 0-332 133-332 400V0H176v-1096h135l27 150h8c62-101 190-170 348-170" id="V"/><g id="i"><use transform="matrix(0.0087890625,0,0,0.0087890625,0,0)" xlink:href="#U"/><use transform="matrix(0.0087890625,0,0,0.0087890625,10.8369140625,0)" xlink:href="#F"/><use transform="matrix(0.0087890625,0,0,0.0087890625,17.82421875,0)" xlink:href="#I"/><use transform="matrix(0.0087890625,0,0,0.0087890625,28.6962890625,0)" xlink:href="#T"/><use transform="matrix(0.0087890625,0,0,0.0087890625,39.7265625,0)" xlink:href="#J"/><use transform="matrix(0.0087890625,0,0,0.0087890625,50.7744140625,0)" xlink:href="#S"/><use transform="matrix(0.0087890625,0,0,0.0087890625,59.34375,0)" xlink:href="#M"/><use transform="matrix(0.0087890625,0,0,0.0087890625,65.6982421875,0)" xlink:href="#P"/><use transform="matrix(0.0087890625,0,0,0.0087890625,70.2509765625,0)" xlink:href="#I"/><use transform="matrix(0.0087890625,0,0,0.0087890625,81.123046875,0)" xlink:href="#V"/></g><path d="M1214-416C1213-138 1004 0 711 0H201v-1462h413c194 0 334 29 421 87s130 150 130 275c0 188-114 295-284 324v10c222 38 333 155 333 350zm-225-667c0-194-147-232-368-232H371v479h280c219-3 338-46 338-247zm43 655c0-204-147-264-370-264H371v547h305c220-1 356-73 356-283" id="W"/><g id="j"><use transform="matrix(0.0087890625,0,0,0.0087890625,0,0)" xlink:href="#W"/><use transform="matrix(0.0087890625,0,0,0.0087890625,11.6630859375,0)" xlink:href="#E"/><use transform="matrix(0.0087890625,0,0,0.0087890625,21.673828125,0)" xlink:href="#M"/><use transform="matrix(0.0087890625,0,0,0.0087890625,28.0283203125,0)" xlink:href="#S"/><use transform="matrix(0.0087890625,0,0,0.0087890625,36.59765625,0)" xlink:href="#H"/></g><path d="M516-150c94-315 146-423 332-946h178L610 0H416L0-1096h178c98 281 253 670 330 946h8" id="X"/><path d="M125-741c0-247 161-377 414-375 57 0 109 7 155 20h379v105l-203 24c37 48 72 129 72 219 0 255-227 390-504 345-71 37-106 84-106 141 0 78 66 88 164 88h194c219-1 369 87 369 293 0 121-49 213-146 277s-239 96-426 96c-250 0-448-83-448-306C39 36 147-58 283-86c-52-23-102-79-99-152 4-104 57-143 133-192-107-42-192-164-192-311zM438-25c-143-1-242 70-239 209s131 181 290 181c139 0 242-21 309-63s101-98 101-169c0-147-88-158-262-158H438zm94-970c-158 0-243 88-243 250 0 153 93 233 246 233 162 0 243-79 243-236 0-165-82-247-246-247" id="Y"/><g id="k"><use transform="matrix(0.0087890625,0,0,0.0087890625,0,0)" xlink:href="#L"/><use transform="matrix(0.0087890625,0,0,0.0087890625,9.87890625,0)" xlink:href="#G"/><use transform="matrix(0.0087890625,0,0,0.0087890625,19.9775390625,0)" xlink:href="#F"/><use transform="matrix(0.0087890625,0,0,0.0087890625,27.3251953125,0)" xlink:href="#X"/><use transform="matrix(0.0087890625,0,0,0.0087890625,36.3427734375,0)" xlink:href="#P"/><use transform="matrix(0.0087890625,0,0,0.0087890625,40.8955078125,0)" xlink:href="#V"/><use transform="matrix(0.0087890625,0,0,0.0087890625,51.943359375,0)" xlink:href="#Y"/></g><path d="M201 0v-1462h170V0H201" id="Z"/><g id="l"><use transform="matrix(0.0087890625,0,0,0.0087890625,0,0)" xlink:href="#Z"/><use transform="matrix(0.0087890625,0,0,0.0087890625,5.0185546875,0)" xlink:href="#V"/><use transform="matrix(0.0087890625,0,0,0.0087890625,16.06640625,0)" xlink:href="#Y"/><use transform="matrix(0.0087890625,0,0,0.0087890625,25.927734375,0)" xlink:href="#G"/><use transform="matrix(0.0087890625,0,0,0.0087890625,36.0263671875,0)" xlink:href="#K"/><use transform="matrix(0.0087890625,0,0,0.0087890625,44.61328125,0)" xlink:href="#M"/><use transform="matrix(0.0087890625,0,0,0.0087890625,50.9677734375,0)" xlink:href="#P"/><use transform="matrix(0.0087890625,0,0,0.0087890625,55.5205078125,0)" xlink:href="#I"/><use transform="matrix(0.0087890625,0,0,0.0087890625,66.392578125,0)" xlink:href="#V"/></g><path d="M360-14c2 246-129 400-372 399-63 0-112-9-148-27V213c47 13 97 20 148 20 138 0 203-90 202-233v-1462h170V-14" id="aa"/><path d="M686 20c-159 0-273-61-344-161h-12L295 0H176v-1556h166c-2 198 6 423-8 606h8c77-109 192-164 344-164 310 0 455 234 455 565 0 329-147 569-455 569zm283-571c0-257-72-424-307-424-256 0-320 146-320 426s68 430 324 430c228 0 303-184 303-432" id="ab"/><g id="m"><use transform="matrix(0.0087890625,0,0,0.0087890625,0,0)" xlink:href="#aa"/><use transform="matrix(0.0087890625,0,0,0.0087890625,4.8076171875,0)" xlink:href="#I"/><use transform="matrix(0.0087890625,0,0,0.0087890625,15.6796875,0)" xlink:href="#ab"/><use transform="matrix(0.0087890625,0,0,0.0087890625,26.7099609375,0)" xlink:href="#K"/></g><path d="M801-1485c433 0 669 306 669 752S1232 20 799 20c-445 0-674-297-674-755 0-456 232-750 676-750zm0 152c-345 0-496 236-496 600 0 367 148 604 494 604 348 0 491-235 491-604 0-366-143-600-489-600" id="ac"/><g id="n"><use transform="matrix(0.0087890625,0,0,0.0087890625,0,0)" xlink:href="#ac"/><use transform="matrix(0.0087890625,0,0,0.0087890625,14.0185546875,0)" xlink:href="#V"/><use transform="matrix(0.0087890625,0,0,0.0087890625,25.06640625,0)" xlink:href="#Q"/><use transform="matrix(0.0087890625,0,0,0.0087890625,29.619140625,0)" xlink:href="#P"/><use transform="matrix(0.0087890625,0,0,0.0087890625,34.171875,0)" xlink:href="#V"/><use transform="matrix(0.0087890625,0,0,0.0087890625,45.2197265625,0)" xlink:href="#G"/></g><path d="M125-733c6-459 248-750 704-750 153 0 287 28 402 84l-72 146c-111-52-221-78-332-78-334-1-520 251-520 600 0 361 171 600 518 600 102 0 218-18 349-55v149C1073 1 948 20 799 20c-445 1-680-294-674-753" id="ad"/><g id="o"><use transform="matrix(0.0087890625,0,0,0.0087890625,0,0)" xlink:href="#ad"/><use transform="matrix(0.0087890625,0,0,0.0087890625,11.35546875,0)" xlink:href="#I"/><use transform="matrix(0.0087890625,0,0,0.0087890625,22.2275390625,0)" xlink:href="#F"/><use transform="matrix(0.0087890625,0,0,0.0087890625,29.21484375,0)" xlink:href="#G"/></g><path d="M383 324C201 116 82-188 82-561c0-378 120-688 301-901h162c-172 227-289 529-289 899 0 361 122 665 287 887H383" id="ae"/><path d="M602-1462c329 0 526 109 526 413 0 193-98 324-294 392L1231 0h-201L676-608H371V0H201v-1462h401zm350 422c0-215-129-271-360-273H371v559h233c223 0 348-78 348-286" id="af"/><path d="M526-162c88-293 120-356 326-934h178L559 152c-47 123-102 209-163 262-93 80-237 94-380 61V342c184 39 305-9 367-180L444 6 2-1096h178c103 283 263 645 338 934h8" id="ag"/><path d="M223-1462c182 213 301 524 301 901 0 373-119 679-301 885H63c166-222 287-526 287-887 0-369-117-672-289-899h162" id="ah"/><g id="p"><use transform="matrix(0.0087890625,0,0,0.0087890625,0,0)" xlink:href="#ae"/><use transform="matrix(0.0087890625,0,0,0.0087890625,5.326171875,0)" xlink:href="#af"/><use transform="matrix(0.0087890625,0,0,0.0087890625,16.453125,0)" xlink:href="#G"/><use transform="matrix(0.0087890625,0,0,0.0087890625,26.5517578125,0)" xlink:href="#Y"/><use transform="matrix(0.0087890625,0,0,0.0087890625,36.4130859375,0)" xlink:href="#P"/><use transform="matrix(0.0087890625,0,0,0.0087890625,40.9658203125,0)" xlink:href="#K"/><use transform="matrix(0.0087890625,0,0,0.0087890625,49.552734375,0)" xlink:href="#M"/><use transform="matrix(0.0087890625,0,0,0.0087890625,55.9072265625,0)" xlink:href="#F"/><use transform="matrix(0.0087890625,0,0,0.0087890625,63.2548828125,0)" xlink:href="#ag"/><use transform="matrix(0.0087890625,0,0,0.0087890625,72.3251953125,0)" xlink:href="#ah"/></g><path d="M848 0L352-1296h-8c27 395 8 875 14 1296H201v-1462h256L920-256h8l467-1206h254V0h-170c6-439-13-873 14-1294h-8L985 0H848" id="ai"/><g id="q"><use transform="matrix(0.0087890625,0,0,0.0087890625,0,0)" xlink:href="#ai"/><use transform="matrix(0.0087890625,0,0,0.0087890625,16.2509765625,0)" xlink:href="#I"/><use transform="matrix(0.0087890625,0,0,0.0087890625,27.123046875,0)" xlink:href="#T"/><use transform="matrix(0.0087890625,0,0,0.0087890625,38.1533203125,0)" xlink:href="#G"/><use transform="matrix(0.0087890625,0,0,0.0087890625,48.251953125,0)" xlink:href="#Q"/></g><path d="M651 0H481v-1311H18v-151h1096v151H651V0" id="aj"/><g id="r"><use transform="matrix(0.0087890625,0,0,0.0087890625,0,0)" xlink:href="#aj"/><use transform="matrix(0.0087890625,0,0,0.0087890625,9.0615234375,0)" xlink:href="#F"/><use transform="matrix(0.0087890625,0,0,0.0087890625,16.048828125,0)" xlink:href="#E"/><use transform="matrix(0.0087890625,0,0,0.0087890625,26.0595703125,0)" xlink:href="#P"/><use transform="matrix(0.0087890625,0,0,0.0087890625,30.6123046875,0)" xlink:href="#V"/><use transform="matrix(0.0087890625,0,0,0.0087890625,41.66015625,0)" xlink:href="#P"/><use transform="matrix(0.0087890625,0,0,0.0087890625,46.212890625,0)" xlink:href="#V"/><use transform="matrix(0.0087890625,0,0,0.0087890625,57.2607421875,0)" xlink:href="#Y"/></g><g id="s"><use transform="matrix(0.0087890625,0,0,0.0087890625,0,0)" xlink:href="#aj"/><use transform="matrix(0.0087890625,0,0,0.0087890625,9.0615234375,0)" xlink:href="#F"/><use transform="matrix(0.0087890625,0,0,0.0087890625,16.048828125,0)" xlink:href="#E"/><use transform="matrix(0.0087890625,0,0,0.0087890625,26.0595703125,0)" xlink:href="#P"/><use transform="matrix(0.0087890625,0,0,0.0087890625,30.6123046875,0)" xlink:href="#V"/><use transform="matrix(0.0087890625,0,0,0.0087890625,41.66015625,0)" xlink:href="#G"/><use transform="matrix(0.0087890625,0,0,0.0087890625,51.7587890625,0)" xlink:href="#T"/></g><g id="t"><use transform="matrix(0.0087890625,0,0,0.0087890625,0,0)" xlink:href="#ai"/><use transform="matrix(0.0087890625,0,0,0.0087890625,16.2509765625,0)" xlink:href="#I"/><use transform="matrix(0.0087890625,0,0,0.0087890625,27.123046875,0)" xlink:href="#T"/><use transform="matrix(0.0087890625,0,0,0.0087890625,38.1533203125,0)" xlink:href="#G"/><use transform="matrix(0.0087890625,0,0,0.0087890625,48.251953125,0)" xlink:href="#Q"/></g><g id="u"><use transform="matrix(0.0087890625,0,0,0.0087890625,0,0)" xlink:href="#af"/><use transform="matrix(0.0087890625,0,0,0.0087890625,11.126953125,0)" xlink:href="#G"/><use transform="matrix(0.0087890625,0,0,0.0087890625,21.2255859375,0)" xlink:href="#M"/><use transform="matrix(0.0087890625,0,0,0.0087890625,27.580078125,0)" xlink:href="#F"/><use transform="matrix(0.0087890625,0,0,0.0087890625,34.927734375,0)" xlink:href="#P"/><use transform="matrix(0.0087890625,0,0,0.0087890625,39.48046875,0)" xlink:href="#G"/><use transform="matrix(0.0087890625,0,0,0.0087890625,49.21875,0)" xlink:href="#X"/><use transform="matrix(0.0087890625,0,0,0.0087890625,58.236328125,0)" xlink:href="#G"/></g><path d="M1311 0h-170v-688H371V0H201v-1462h170v622h770v-622h170V0" id="ak"/><g id="v"><use transform="matrix(0.0087890625,0,0,0.0087890625,0,0)" xlink:href="#ak"/><use transform="matrix(0.0087890625,0,0,0.0087890625,13.2802734375,0)" xlink:href="#P"/><use transform="matrix(0.0087890625,0,0,0.0087890625,17.8330078125,0)" xlink:href="#K"/><use transform="matrix(0.0087890625,0,0,0.0087890625,26.419921875,0)" xlink:href="#M"/><use transform="matrix(0.0087890625,0,0,0.0087890625,32.7744140625,0)" xlink:href="#I"/><use transform="matrix(0.0087890625,0,0,0.0087890625,43.646484375,0)" xlink:href="#F"/><use transform="matrix(0.0087890625,0,0,0.0087890625,50.994140625,0)" xlink:href="#P"/><use transform="matrix(0.0087890625,0,0,0.0087890625,55.546875,0)" xlink:href="#S"/><use transform="matrix(0.0087890625,0,0,0.0087890625,64.1162109375,0)" xlink:href="#E"/><use transform="matrix(0.0087890625,0,0,0.0087890625,74.126953125,0)" xlink:href="#Q"/></g><g id="w"><use transform="matrix(0.0087890625,0,0,0.0087890625,0,0)" xlink:href="#O"/><use transform="matrix(0.0087890625,0,0,0.0087890625,9.2900390625,0)" xlink:href="#G"/><use transform="matrix(0.0087890625,0,0,0.0087890625,19.388671875,0)" xlink:href="#E"/><use transform="matrix(0.0087890625,0,0,0.0087890625,29.3994140625,0)" xlink:href="#M"/><use transform="matrix(0.0087890625,0,0,0.0087890625,35.75390625,0)" xlink:href="#J"/><use transform="matrix(0.0087890625,0,0,0.0087890625,46.8017578125,0)" xlink:href="#F"/><use transform="matrix(0.0087890625,0,0,0.0087890625,53.7890625,0)" xlink:href="#G"/><use transform="matrix(0.0087890625,0,0,0.0087890625,63.8876953125,0)" xlink:href="#K"/></g><path d="M84-473v-152h491v152H84" id="al"/><g id="x"><use transform="matrix(0.0087890625,0,0,0.0087890625,0,0)" xlink:href="#af"/><use transform="matrix(0.0087890625,0,0,0.0087890625,11.126953125,0)" xlink:href="#G"/><use transform="matrix(0.0087890625,0,0,0.0087890625,21.2255859375,0)" xlink:href="#E"/><use transform="matrix(0.0087890625,0,0,0.0087890625,31.236328125,0)" xlink:href="#Q"/><use transform="matrix(0.0087890625,0,0,0.0087890625,35.7890625,0)" xlink:href="#al"/><use transform="matrix(0.0087890625,0,0,0.0087890625,41.5810546875,0)" xlink:href="#M"/><use transform="matrix(0.0087890625,0,0,0.0087890625,47.935546875,0)" xlink:href="#P"/><use transform="matrix(0.0087890625,0,0,0.0087890625,52.48828125,0)" xlink:href="#N"/><use transform="matrix(0.0087890625,0,0,0.0087890625,69.2314453125,0)" xlink:href="#G"/></g></defs></g></svg>