<svg xmlns="http://www.w3.org/2000/svg" xmlns:xlink="http://www.w3.org/1999/xlink" xmlns:lucid="lucid" width="834.24" height="1200"><g transform="translate(-360 -1.4210854715202004e-14)" lucid:page-tab-id="0_0"><path d="M940 760h220v60H940z" stroke="#000" stroke-width="2" fill="#ffeca9"/><use xlink:href="#a" transform="matrix(1,0,0,1,945,765) translate(19.869000000000014 31.825)"/><use xlink:href="#b" transform="matrix(1,0,0,1,945,765) translate(65.51700000000001 31.825)"/><use xlink:href="#c" transform="matrix(1,0,0,1,945,765) translate(127.959 31.825)"/><path d="M660 760h220v60H660z" stroke="#000" stroke-width="2" fill="#ffeca9"/><use xlink:href="#a" transform="matrix(1,0,0,1,665,765) translate(8.484000000000009 31.825)"/><use xlink:href="#b" transform="matrix(1,0,0,1,665,765) translate(54.132000000000005 31.825)"/><use xlink:href="#d" transform="matrix(1,0,0,1,665,765) translate(116.574 31.825)"/><path d="M1130 692c0 4.42-35.82 8-80 8s-80-3.58-80-8v-64c0-4.42 35.82-8 80-8s80 3.58 80 8z" stroke="#000" stroke-width="2" fill="#ffbbb1"/><path d="M1130 628c0 4.42-35.82 8-80 8s-80-3.58-80-8" stroke="#000" stroke-width="2" fill="none"/><use xlink:href="#e" transform="matrix(1,0,0,1,975,641) translate(25.068000000000012 33.075)"/><use xlink:href="#f" transform="matrix(1,0,0,1,975,641) translate(70.95 33.075)"/><path d="M850 692c0 4.42-35.82 8-80 8s-80-3.58-80-8v-64c0-4.42 35.82-8 80-8s80 3.58 80 8z" stroke="#000" stroke-width="2" fill="#ffbbb1"/><path d="M850 628c0 4.42-35.82 8-80 8s-80-3.58-80-8" stroke="#000" stroke-width="2" fill="none"/><use xlink:href="#g" transform="matrix(1,0,0,1,695,641) translate(39.666000000000004 33.075)"/><path d="M1050 702v38.5" stroke="#000" stroke-width="2" fill="none"/><path d="M1050 701h1v1.03h-2v-1.06z"/><path d="M1050 755.76l-4.64-14.26h9.28z" stroke="#000" stroke-width="2"/><path d="M770 702v38.5" stroke="#000" stroke-width="2" fill="none"/><path d="M770 701h1v1.03h-2v-1.06z"/><path d="M770 755.76l-4.64-14.26h9.28z" stroke="#000" stroke-width="2"/><path d="M970 420h160v60H970z" stroke="#000" stroke-width="2" fill="#ffbbb1"/><use xlink:href="#h" transform="matrix(1,0,0,1,975,425) translate(22.845000000000006 31.825)"/><use xlink:href="#i" transform="matrix(1,0,0,1,975,425) translate(83.955 31.825)"/><path d="M1051 600.5h-2v-47.2h2zm0-89.55h-2V482h2z"/><path d="M1051 482.03h-2V481h2zM1050 615.76l-4.64-14.26h9.28z"/><path d="M1050 619l-6-18.5h12zm-3.26-16.5l3.26 10.03 3.26-10.03z"/><use xlink:href="#j" transform="matrix(1,0,0,1,966.912,510.94901172239713) translate(0 16.2)"/><use xlink:href="#k" transform="matrix(1,0,0,1,966.912,510.94901172239713) translate(15.084 16.2)"/><use xlink:href="#l" transform="matrix(1,0,0,1,966.912,510.94901172239713) translate(67.626 16.2)"/><use xlink:href="#m" transform="matrix(1,0,0,1,966.912,510.94901172239713) translate(0 37.367999999999995)"/><use xlink:href="#n" transform="matrix(1,0,0,1,966.912,510.94901172239713) translate(20.358 37.367999999999995)"/><use xlink:href="#o" transform="matrix(1,0,0,1,966.912,510.94901172239713) translate(66.24 37.367999999999995)"/><path d="M380 300h160v60H380z" stroke="#000" stroke-width="2" fill="#ffeca9"/><use xlink:href="#a" transform="matrix(1,0,0,1,385,305) translate(34.905 31.825)"/><use xlink:href="#p" transform="matrix(1,0,0,1,385,305) translate(80.553 31.825)"/><path d="M1086 260c24.3 0 44 8.95 44 20s-19.7 20-44 20H734c-24.3 0-44-8.95-44-20s19.7-20 44-20z" stroke="#000" stroke-width="2" fill="#ffbbb1"/><path d="M1086 300c-24.3 0-44-8.95-44-20s19.7-20 44-20" stroke="#000" stroke-width="2" fill="none"/><use xlink:href="#q" transform="matrix(1,0,0,1,695,265) translate(85.35400000000003 19.95)"/><use xlink:href="#r" transform="matrix(1,0,0,1,695,265) translate(132.85600000000002 19.95)"/><use xlink:href="#s" transform="matrix(1,0,0,1,695,265) translate(201.148 19.95)"/><path d="M690 420h160v60H690z" stroke="#000" stroke-width="2" fill="#ffbbb1"/><use xlink:href="#h" transform="matrix(1,0,0,1,695,425) translate(22.845000000000006 31.825)"/><use xlink:href="#i" transform="matrix(1,0,0,1,695,425) translate(83.955 31.825)"/><path d="M770 400.5V302" stroke="#000" stroke-width="2" fill="none"/><path d="M770 415.76l-4.64-14.26h9.28z" stroke="#000" stroke-width="2"/><path d="M771 302.03h-2V301h2zM771 600.5h-2v-47.64h2zm0-89.97h-2V482h2z"/><path d="M771 482.03h-2V481h2zM770 615.76l-4.64-14.26h9.28z"/><path d="M770 619l-6-18.5h12zm-3.26-16.5l3.26 10.03 3.26-10.03z"/><use xlink:href="#t" transform="matrix(1,0,0,1,685.922,510.5254674223827) translate(0 16.2)"/><use xlink:href="#k" transform="matrix(1,0,0,1,685.922,510.5254674223827) translate(17.064 16.2)"/><use xlink:href="#l" transform="matrix(1,0,0,1,685.922,510.5254674223827) translate(69.606 16.2)"/><use xlink:href="#m" transform="matrix(1,0,0,1,685.922,510.5254674223827) translate(0 37.367999999999995)"/><use xlink:href="#u" transform="matrix(1,0,0,1,685.922,510.5254674223827) translate(20.358 37.367999999999995)"/><use xlink:href="#v" transform="matrix(1,0,0,1,685.922,510.5254674223827) translate(95.18399999999998 37.367999999999995)"/><path d="M1050 302v98.5" stroke="#000" stroke-width="2" fill="none"/><path d="M1051 302.03h-2V301h2z"/><path d="M1050 415.76l-4.64-14.26h9.28z" stroke="#000" stroke-width="2"/><path d="M498.32 540h-76.64c-.88 0-1.68-.76-1.68-1.7v-5.12c0-18.18 11.92-33.43 29.52-37.7.48-.1.88-.05 1.28.17 5.92 3.2 12.48 3.2 18.4 0 .4-.22.8-.26 1.2-.17 17.68 4.27 29.6 19.52 29.6 37.7v5.13c0 .94-.8 1.7-1.68 1.7zm-74.88-3.43h73.12v-3.4c.08-16.35-10.56-30.07-26.32-34.17-3.36 1.65-6.48 2.4-10.24 2.4s-6.88-.7-10.24-2.4c-15.76 4.1-26.4 17.82-26.32 34.18z" stroke="#fff" stroke-opacity="0" fill="#232f3e"/><path d="M460 501.3c-3.67 0-6.8-.78-10.03-2.56-9.95-5.58-13.5-18.2-7.93-28.17 5.58-9.95 18.17-13.5 28.1-7.93 6.72 3.76 10.56 10.33 10.56 18.05 0 7.76-3.93 14.36-10.74 18.04-3.22 1.73-6.32 2.56-9.95 2.56zm0-37.83c-6.6-.17-12.26 3.18-15.44 8.96-4.5 8.4-1.4 18.8 6.94 23.34 5.4 2.93 11.36 2.93 16.77 0 5.7-3.1 9-8.68 8.96-15.2-.04-9.5-7.76-17.14-17.22-17.1z" stroke="#fff" stroke-opacity="0" fill="#232f3e"/><use xlink:href="#w" transform="matrix(1,0,0,1,390,549) translate(29.779000000000003 16.2)"/><use xlink:href="#x" transform="matrix(1,0,0,1,390,549) translate(75.643 16.2)"/><path d="M461 459.03h-2v-31.2h2zm0-52.36h-2V379.5h2z"/><path d="M461 460.08l-.75-.07-1.25.1V459h2zM464.64 378.5h-9.28l4.64-14.26z"/><path d="M466 379.5h-12l6-18.5zm-9.26-2h6.52L460 367.47z"/><use xlink:href="#y" transform="matrix(1,0,0,1,380.43100000000004,406.6650979565989) translate(0 16.2)"/><use xlink:href="#z" transform="matrix(1,0,0,1,380.43100000000004,406.6650979565989) translate(17.064 16.2)"/><use xlink:href="#A" transform="matrix(1,0,0,1,380.43100000000004,406.6650979565989) translate(71.082 16.2)"/><use xlink:href="#B" transform="matrix(1,0,0,1,380.43100000000004,406.6650979565989) translate(134.33399999999997 16.2)"/><path d="M722.52 402.62h-1v-1.5h1zm0-3.48h-1v-2.98h1zm0-4.96h-1v-2.98h1zm0-4.97h-1v-2.96h1zm0-4.95h-1v-2.98h1zm0-4.96h-1v-3h1zm0-4.98h-1v-2.97h1zm0-4.96h-1v-2.98h1zm0-4.96h-1v-2.98h1zm0-4.97h-1v-2.97h1zm0-4.96h-1v-2.98h1zm0-4.96h-1v-2.97h1zm0-4.96h-1v-2.97h1zm0-4.96h-1v-2.98h1zm0-4.96h-1v-2.98h1zM543 330.5h-1.5v-1h1.5zm4.95 0h-2.98v-1h2.98zm4.97 0h-2.98v-1h2.98zm4.96 0h-2.98v-1h2.98zm4.96 0h-2.98v-1h2.98zm4.97 0h-2.97v-1h2.98zm124.1 0h-3v-1h3zm4.95 0h-2.97v-1h2.97zm4.97 0h-2.98v-1h2.98zm4.96 0h-2.98v-1h2.98zm4.97 0h-2.98v-1h2.98zm4.96 0h-2.97v-1h2.98zm4.97 0h-2.98v-1h2.97zm-34.74 0h-2.96v-1h2.96zM541.5 330.5h-.5v-1h.5zM722.02 417.38l-4.64-14.26h9.27z"/><path d="M722.02 419l-5.33-16.38h10.64zm-3.95-15.38l3.95 12.14 3.94-12.14zM1017.32 402.62h-1v-1.5h1zm0-3.5h-1v-2.98h1zm0-4.97h-1v-3h1zm0-4.98h-1v-3h1zm0-4.98h-1v-3h1zm0-5h-1v-2.98h1zm0-4.98h-1v-3h1zm0-4.98h-1v-3h1zm0-4.98h-1v-3h1zm0-4.98h-1v-3h1zm0-4.98h-1v-3h1zm0-4.98h-1v-3h1zm0-4.98h-1v-3h1zm0-5h-1v-2.97h1zm0-4.97h-1v-3h1zM543 330.5h-1.5v-1h1.5zm4.98 0h-3v-1h3zm4.98 0h-3v-1h3zm4.98 0h-3v-1h3zm4.98 0h-3v-1h3zm4.98 0h-3v-1h3zm119.55 0h-3v-1h3zm4.98 0h-3v-1h3zm4.98 0h-2.98v-1h3zm5 0h-3v-1h3zm4.97 0h-2.98v-1h2.97zm5 0h-3v-1h3zm4.97 0h-3v-1h3zm4.98 0h-3v-1h3zm4.98 0h-3v-1h3zm4.98 0h-3v-1h3zm4.98 0h-3v-1h3zm4.98 0h-3v-1h3zm4.98 0h-3v-1h3zm4.98 0h-2.98v-1h2.98zm5 0h-3v-1h3zm4.97 0h-3v-1h3zm4.98 0h-3v-1h3zm4.98 0h-3v-1h3zm4.98 0h-2.98v-1h3zm5 0h-3v-1h3zm4.97 0h-3v-1h3zm4.98 0h-2.98v-1h2.98zm5 0h-3v-1h3zm4.97 0h-3v-1h3zm4.98 0h-3v-1h3zm4.98 0h-3v-1h3zm4.98 0h-3v-1h3zm4.98 0h-3v-1h3zm4.98 0h-3v-1h3zm4.98 0h-2.98v-1h2.98zm5 0h-3v-1h3zm4.97 0h-3v-1h3zm4.98 0h-3v-1h3zm4.98 0h-3v-1h3zm4.98 0h-2.98v-1h3zm5 0h-3v-1h3zm4.97 0h-3v-1h3zm4.98 0h-2.98v-1h2.98zm4.98 0h-2.98v-1h2.98zm5 0h-3v-1h3zm4.97 0h-3v-1h3zm4.98 0h-3v-1h3zm4.98 0h-3v-1h3zm4.98 0h-3v-1h3zm4.98 0h-3v-1h3zm4.98 0h-3v-1h3zm4.98 0h-2.98v-1h2.98zm5 0h-3v-1h3zm4.97 0h-3v-1h3zm4.98 0h-3v-1h3zm4.98 0h-2.98v-1h3zm5 0h-3v-1h3zm4.97 0h-3v-1h3zm4.98 0h-3v-1h3zm4.98 0h-2.98v-1h2.98zm5 0h-3v-1h3zm4.97 0h-3v-1h3zm4.98 0h-3v-1h3zm4.98 0h-3v-1h3zm4.98 0h-3v-1h3zm4.98 0h-3v-1h3zm4.98 0h-3v-1h3zm4.98 0h-2.98v-1h2.98zm4.98 0h-2.98v-1h2.98zm5 0h-3v-1h3zm4.97 0h-3v-1h3zm4.98 0h-2.98v-1h3zM541.5 330.5h-.5v-1h.5zM1016.82 417.38l-4.64-14.26h9.27z"/><path d="M1016.82 419l-5.33-16.38h10.64zm-3.95-15.38l3.95 12.14 3.94-12.14z"/><use xlink:href="#C" transform="matrix(1,0,0,1,569.7464163477518,308.832) translate(0 16.2)"/><use xlink:href="#D" transform="matrix(1,0,0,1,569.7464163477518,308.832) translate(17.064 16.2)"/><use xlink:href="#E" transform="matrix(1,0,0,1,569.7464163477518,308.832) translate(59.21999999999999 16.2)"/><use xlink:href="#F" transform="matrix(1,0,0,1,569.7464163477518,308.832) translate(95.77799999999999 16.2)"/><use xlink:href="#G" transform="matrix(1,0,0,1,569.7464163477518,308.832) translate(0 37.367999999999995)"/><use xlink:href="#H" transform="matrix(1,0,0,1,569.7464163477518,308.832) translate(51.96599999999999 37.367999999999995)"/><path d="M498.32 220h-76.64c-.88 0-1.68-.76-1.68-1.7v-5.12c0-18.18 11.92-33.43 29.52-37.7.48-.1.88-.05 1.28.17 5.92 3.2 12.48 3.2 18.4 0 .4-.22.8-.26 1.2-.17 17.68 4.27 29.6 19.52 29.6 37.7v5.13c0 .94-.8 1.7-1.68 1.7zm-74.88-3.43h73.12v-3.4c.08-16.35-10.56-30.07-26.32-34.17-3.36 1.65-6.48 2.4-10.24 2.4s-6.88-.7-10.24-2.4c-15.76 4.1-26.4 17.82-26.32 34.18z" stroke="#fff" stroke-opacity="0" fill="#232f3e"/><path d="M460 181.3c-3.67 0-6.8-.78-10.03-2.56-9.95-5.58-13.5-18.2-7.93-28.17 5.58-9.95 18.17-13.5 28.1-7.93 6.72 3.76 10.56 10.33 10.56 18.05 0 7.76-3.93 14.36-10.74 18.04-3.22 1.73-6.32 2.56-9.95 2.56zm0-37.83c-6.6-.17-12.26 3.18-15.44 8.96-4.5 8.4-1.4 18.8 6.94 23.34 5.4 2.93 11.36 2.93 16.77 0 5.7-3.1 9-8.68 8.96-15.2-.04-9.5-7.76-17.14-17.22-17.1z" stroke="#fff" stroke-opacity="0" fill="#232f3e"/><use xlink:href="#I" transform="matrix(1,0,0,1,390,229) translate(16.875 14.4)"/><use xlink:href="#J" transform="matrix(1,0,0,1,390,229) translate(55.225 14.4)"/><path d="M600 20h200v80H600z" stroke="#000" stroke-width="2" fill="#c1e4f7"/><use xlink:href="#K" transform="matrix(1,0,0,1,605,25.000000000000014) translate(67.991 20.575)"/><use xlink:href="#L" transform="matrix(1,0,0,1,605,25.000000000000014) translate(95 41.742999999999995)"/><use xlink:href="#M" transform="matrix(1,0,0,1,605,25.000000000000014) translate(8.5859375 61.107484375)"/><path d="M836.54 179v61.5h-2V181h-66v-2zM701 156.53h-2V102h2z"/><path d="M701 102.03h-2V101h2zM835.54 255.76l-4.64-14.26h9.27z"/><path d="M835.54 259l-6-18.5h12zm-3.26-16.5l3.26 10.03 3.26-10.03z"/><use xlink:href="#N" transform="matrix(1,0,0,1,631.465,156.52859138311334) translate(0 16.2)"/><use xlink:href="#O" transform="matrix(1,0,0,1,631.465,156.52859138311334) translate(17.064 16.2)"/><use xlink:href="#P" transform="matrix(1,0,0,1,631.465,156.52859138311334) translate(65.178 16.2)"/><use xlink:href="#Q" transform="matrix(1,0,0,1,631.465,156.52859138311334) translate(0 37.367999999999995)"/><use xlink:href="#R" transform="matrix(1,0,0,1,631.465,156.52859138311334) translate(19.98 37.367999999999995)"/><path d="M950 20h200v80H950z" stroke="#000" stroke-width="2" fill="#c1e4f7"/><use xlink:href="#S" transform="matrix(1,0,0,1,955,25.000000000000014) translate(23.450000000000003 40.2625)"/><use xlink:href="#T" transform="matrix(1,0,0,1,955,25.000000000000014) translate(111.38 40.2625)"/><path d="M963.72 181H911v59.5h-2V179h54.72zm87.28-30.27h-2V102h2z"/><path d="M1051 102.03h-2V101h2zM910 255.76l-4.64-14.26h9.28z"/><path d="M910 259l-6-18.5h12zm-3.26-16.5l3.26 10.03 3.26-10.03z"/><g><use xlink:href="#U" transform="matrix(1,0,0,1,963.717,150.7319957233587) translate(0 16.2)"/><use xlink:href="#V" transform="matrix(1,0,0,1,963.717,150.7319957233587) translate(17.064 16.2)"/><use xlink:href="#P" transform="matrix(1,0,0,1,963.717,150.7319957233587) translate(100.67399999999998 16.2)"/><use xlink:href="#Q" transform="matrix(1,0,0,1,963.717,150.7319957233587) translate(0 37.367999999999995)"/><use xlink:href="#R" transform="matrix(1,0,0,1,963.717,150.7319957233587) translate(19.98 37.367999999999995)"/></g><path d="M482.37 179h-2v-54.74h2zM580.5 61h-98.13v20.93h-2V59H580.5z"/><path d="M482.37 180.64l-2-1.28v-.4h2zM595.76 60l-14.26 4.64v-9.28z"/><path d="M599 60l-18.5 6V54zm-16.5 3.26L592.53 60l-10.03-3.26z"/><g><use xlink:href="#W" transform="matrix(1,0,0,1,382.0507598418557,81.92859423420754) translate(0 16.2)"/><use xlink:href="#X" transform="matrix(1,0,0,1,382.0507598418557,81.92859423420754) translate(17.064 16.2)"/><use xlink:href="#Y" transform="matrix(1,0,0,1,382.0507598418557,81.92859423420754) translate(56.44799999999999 16.2)"/><use xlink:href="#Z" transform="matrix(1,0,0,1,382.0507598418557,81.92859423420754) translate(136.368 16.2)"/><use xlink:href="#aa" transform="matrix(1,0,0,1,382.0507598418557,81.92859423420754) translate(0 37.367999999999995)"/><use xlink:href="#ab" transform="matrix(1,0,0,1,382.0507598418557,81.92859423420754) translate(33.263999999999996 37.367999999999995)"/><use xlink:href="#ac" transform="matrix(1,0,0,1,382.0507598418557,81.92859423420754) translate(92.80799999999998 37.367999999999995)"/><use xlink:href="#ad" transform="matrix(1,0,0,1,382.0507598418557,81.92859423420754) translate(127.83599999999998 37.367999999999995)"/></g><path d="M808.32 1100h-76.64c-.88 0-1.68-.76-1.68-1.7v-5.12c0-18.18 11.92-33.43 29.52-37.7.48-.1.88-.05 1.28.17 5.92 3.2 12.48 3.2 18.4 0 .4-.22.8-.26 1.2-.17 17.68 4.27 29.6 19.52 29.6 37.7v5.13c0 .94-.8 1.7-1.68 1.7zm-74.88-3.43h73.12v-3.4c.08-16.35-10.56-30.07-26.32-34.17-3.36 1.65-6.48 2.4-10.24 2.4s-6.88-.7-10.24-2.4c-15.76 4.1-26.4 17.82-26.32 34.18z" stroke="#fff" stroke-opacity="0" fill="#232f3e"/><path d="M770 1061.3c-3.67 0-6.8-.78-10.03-2.56-9.95-5.58-13.5-18.2-7.93-28.17 5.58-9.95 18.17-13.5 28.1-7.93 6.72 3.76 10.56 10.33 10.56 18.05 0 7.76-3.93 14.36-10.74 18.04-3.22 1.73-6.32 2.56-9.95 2.56zm0-37.83c-6.6-.17-12.26 3.18-15.44 8.96-4.5 8.4-1.4 18.8 6.94 23.34 5.4 2.93 11.36 2.93 16.77 0 5.7-3.1 9-8.68 8.96-15.2-.04-9.5-7.76-17.14-17.22-17.1z" stroke="#fff" stroke-opacity="0" fill="#232f3e"/><g><use xlink:href="#w" transform="matrix(1,0,0,1,700,1109) translate(1.0150000000000006 16.2)"/><use xlink:href="#ae" transform="matrix(1,0,0,1,700,1109) translate(46.879 16.2)"/><use xlink:href="#af" transform="matrix(1,0,0,1,700,1109) translate(7.558000000000007 37.367999999999995)"/><use xlink:href="#ag" transform="matrix(1,0,0,1,700,1109) translate(67.246 37.367999999999995)"/></g><path d="M380 940h260v240H380z" stroke="#000" stroke-width="2" fill="#fff"/><g><use xlink:href="#ah" transform="matrix(1,0,0,1,390,950) translate(0 22.2)"/><use xlink:href="#ai" transform="matrix(1,0,0,1,390,950) translate(63.19799999999999 22.2)"/><use xlink:href="#aj" transform="matrix(1,0,0,1,390,950) translate(0 43.367999999999995)"/><use xlink:href="#ak" transform="matrix(1,0,0,1,390,950) translate(13.932 70.536)"/><use xlink:href="#al" transform="matrix(1,0,0,1,390,950) translate(36 70.536)"/><use xlink:href="#ak" transform="matrix(1,0,0,1,390,950) translate(13.932 91.704)"/><use xlink:href="#am" transform="matrix(1,0,0,1,390,950) translate(36 91.704)"/><use xlink:href="#ak" transform="matrix(1,0,0,1,390,950) translate(13.932 112.872)"/><use xlink:href="#an" transform="matrix(1,0,0,1,390,950) translate(36 112.872)"/><use xlink:href="#ak" transform="matrix(1,0,0,1,390,950) translate(13.932 134.04)"/><use xlink:href="#ao" transform="matrix(1,0,0,1,390,950) translate(36 134.04)"/><use xlink:href="#ak" transform="matrix(1,0,0,1,390,950) translate(13.932 155.208)"/><use xlink:href="#ap" transform="matrix(1,0,0,1,390,950) translate(36 155.208)"/><use xlink:href="#ak" transform="matrix(1,0,0,1,390,950) translate(13.932 176.376)"/><use xlink:href="#aq" transform="matrix(1,0,0,1,390,950) translate(36 176.376)"/><use xlink:href="#ak" transform="matrix(1,0,0,1,390,950) translate(13.932 197.544)"/><use xlink:href="#ar" transform="matrix(1,0,0,1,390,950) translate(36 197.544)"/></g><path d="M713.98 999h-2v-92.38h2zm0-155.88h-2v-3.62h2zM717.62 838.5h-9.27l4.63-14.26z"/><path d="M719 839.5h-12.03l6-18.5zm-9.28-2h6.52l-3.26-10.03zM713.98 1000h-2v-1.03h2z"/><g><use xlink:href="#as" transform="matrix(1,0,0,1,641.4762661498208,843.1199020758255) translate(0 16.2)"/><use xlink:href="#at" transform="matrix(1,0,0,1,641.4762661498208,843.1199020758255) translate(17.064 16.2)"/><use xlink:href="#au" transform="matrix(1,0,0,1,641.4762661498208,843.1199020758255) translate(82.85399999999998 16.2)"/><use xlink:href="#av" transform="matrix(1,0,0,1,641.4762661498208,843.1199020758255) translate(0 37.367999999999995)"/><use xlink:href="#aw" transform="matrix(1,0,0,1,641.4762661498208,843.1199020758255) translate(61.27199999999999 37.367999999999995)"/><use xlink:href="#ax" transform="matrix(1,0,0,1,641.4762661498208,843.1199020758255) translate(0 58.536)"/><use xlink:href="#ay" transform="matrix(1,0,0,1,641.4762661498208,843.1199020758255) translate(59.742 58.536)"/></g><path d="M831.57 981.5h-2v-21.7h2zm0-64.03h-2V822h2z"/><path d="M831.57 822.03h-2V821h2zM830.57 996.76l-4.64-14.26h9.27z"/><path d="M830.57 1000l-6-18.5h12zm-3.26-16.5l3.27 10.03 3.26-10.03z"/><g><use xlink:href="#az" transform="matrix(1,0,0,1,830.569349533415,879.4616890550894) translate(0 17.06666666666667)"/></g><g><use xlink:href="#aA" transform="matrix(1,0,0,1,758.578349533415,917.4664543331264) translate(0 16.2)"/><use xlink:href="#aB" transform="matrix(1,0,0,1,758.578349533415,917.4664543331264) translate(17.064 16.2)"/><use xlink:href="#aC" transform="matrix(1,0,0,1,758.578349533415,917.4664543331264) translate(72.93599999999999 16.2)"/><use xlink:href="#aD" transform="matrix(1,0,0,1,758.578349533415,917.4664543331264) translate(0 37.367999999999995)"/><use xlink:href="#aE" transform="matrix(1,0,0,1,758.578349533415,917.4664543331264) translate(64.96199999999999 37.367999999999995)"/></g><path d="M1098.32 1100h-76.64c-.88 0-1.68-.76-1.68-1.7v-5.12c0-18.18 11.92-33.43 29.52-37.7.48-.1.88-.05 1.28.17 5.92 3.2 12.48 3.2 18.4 0 .4-.22.8-.26 1.2-.17 17.68 4.27 29.6 19.52 29.6 37.7v5.13c0 .94-.8 1.7-1.68 1.7zm-74.88-3.43h73.12v-3.4c.08-16.35-10.56-30.07-26.32-34.17-3.36 1.65-6.48 2.4-10.24 2.4s-6.88-.7-10.24-2.4c-15.76 4.1-26.4 17.82-26.32 34.18z" stroke="#fff" stroke-opacity="0" fill="#232f3e"/><path d="M1060 1061.3c-3.67 0-6.8-.78-10.03-2.56-9.95-5.58-13.5-18.2-7.93-28.17 5.58-9.95 18.17-13.5 28.1-7.93 6.72 3.76 10.56 10.33 10.56 18.05 0 7.76-3.93 14.36-10.74 18.04-3.22 1.73-6.32 2.56-9.95 2.56zm0-37.83c-6.6-.17-12.26 3.18-15.44 8.96-4.5 8.4-1.4 18.8 6.94 23.34 5.4 2.93 11.36 2.93 16.77 0 5.7-3.1 9-8.68 8.96-15.2-.04-9.5-7.76-17.14-17.22-17.1z" stroke="#fff" stroke-opacity="0" fill="#232f3e"/><g><use xlink:href="#w" transform="matrix(1,0,0,1,990,1109) translate(1.0150000000000006 16.2)"/><use xlink:href="#ae" transform="matrix(1,0,0,1,990,1109) translate(46.879 16.2)"/><use xlink:href="#af" transform="matrix(1,0,0,1,990,1109) translate(15.87400000000001 37.367999999999995)"/><use xlink:href="#aF" transform="matrix(1,0,0,1,990,1109) translate(75.562 37.367999999999995)"/><use xlink:href="#aG" transform="matrix(1,0,0,1,990,1109) translate(39.553 58.536)"/></g><path d="M1001 998h-2v-86.4h2zm0-149.9h-2v-9.6h2zM1004.64 837.5h-9.28l4.64-14.26z"/><path d="M1006 838.5h-12l6-18.5zm-9.26-2h6.52l-3.26-10.03zM1001 999h-2v-1.03h2z"/><g><use xlink:href="#aH" transform="matrix(1,0,0,1,929.386,848.0884126413295) translate(0 16.2)"/><use xlink:href="#at" transform="matrix(1,0,0,1,929.386,848.0884126413295) translate(26.874 16.2)"/><use xlink:href="#aI" transform="matrix(1,0,0,1,929.386,848.0884126413295) translate(92.66399999999999 16.2)"/><use xlink:href="#aJ" transform="matrix(1,0,0,1,929.386,848.0884126413295) translate(0 37.367999999999995)"/><use xlink:href="#aw" transform="matrix(1,0,0,1,929.386,848.0884126413295) translate(67.068 37.367999999999995)"/><use xlink:href="#ax" transform="matrix(1,0,0,1,929.386,848.0884126413295) translate(0 58.536)"/><use xlink:href="#ay" transform="matrix(1,0,0,1,929.386,848.0884126413295) translate(59.742 58.536)"/></g><path d="M1118.6 980.5h-2v-18.2h2zm0-60.55h-2V821h2z"/><path d="M1118.6 821.03h-2V820h2zM1117.6 995.76l-4.65-14.26h9.27z"/><path d="M1117.6 999l-6.02-18.5h12.02zm-3.27-16.5l3.26 10.03 3.25-10.03z"/><g><use xlink:href="#az" transform="matrix(1,0,0,1,1117.588083383594,878.4616890550894) translate(0 17.06666666666667)"/></g><g><use xlink:href="#aK" transform="matrix(1,0,0,1,1051.933083383594,919.9507096158785) translate(0 16.2)"/><use xlink:href="#aB" transform="matrix(1,0,0,1,1051.933083383594,919.9507096158785) translate(26.874 16.2)"/><use xlink:href="#aI" transform="matrix(1,0,0,1,1051.933083383594,919.9507096158785) translate(82.746 16.2)"/><use xlink:href="#aL" transform="matrix(1,0,0,1,1051.933083383594,919.9507096158785) translate(0 37.367999999999995)"/></g><defs><path d="M60-700h415v122H197v173h256v122H197V0H60v-700" id="aM"/><path d="M291-90c49 0 97-19 123-38l43 85c-40 32-117 57-191 57C103 14 34-89 33-250c-2-167 81-264 240-264 129 0 199 68 200 202 0 33-4 65-10 95H163c5 84 39 127 128 127zm61-208c5-67-19-112-81-112-71-1-98 47-105 112h186" id="aN"/><path d="M306-378c-38-49-172-17-221 4l-31-97c53-24 132-39 210-39 122 0 181 55 180 175-1 112-20 242 11 336H349l-21-69h-5c-28 41-74 78-147 76C81 5 23-45 23-138c0-142 140-164 291-160 5-37 4-65-8-80zM157-158c-3 37 24 59 62 59 49 0 79-27 96-55v-65c-71-4-153-3-158 61" id="aO"/><path d="M200-90c53 9 88-53 47-80-80-53-213-55-211-192 2-102 65-152 171-152 67 0 135 17 175 39l-29 94c-31-11-84-29-129-29-54 0-78 51-41 74 81 50 213 53 211 187-2 110-75 163-194 163C133 14 65-7 25-31l36-97c31 17 89 40 139 38" id="aP"/><path d="M208 14C110 12 74-35 74-138v-252H5v-110h69v-94l130-37v131h122v110H204v192c2 58 2 97 50 97 30 0 44-6 67-16l23 100c-34 16-86 31-136 31" id="aQ"/><g id="a"><use transform="matrix(0.018,0,0,0.018,0,0)" xlink:href="#aM"/><use transform="matrix(0.018,0,0,0.018,9.144,0)" xlink:href="#aN"/><use transform="matrix(0.018,0,0,0.018,18.288,0)" xlink:href="#aO"/><use transform="matrix(0.018,0,0,0.018,27.216,0)" xlink:href="#aP"/><use transform="matrix(0.018,0,0,0.018,34.812,0)" xlink:href="#aQ"/></g><path d="M71-145c69 41 291 81 291-43 0-81-98-91-160-122-80-40-153-85-159-204-10-219 276-235 440-159l-43 115c-57-35-254-76-260 33 12 78 99 90 160 122 79 41 159 84 159 200C499-50 397 11 243 14 161 16 75-5 27-28" id="aR"/><path d="M177-434c23-61 95-96 173-66l-17 122c-64-28-134-1-146 55V0H57v-500h101l15 66h4" id="aS"/><path d="M137-500c36 113 85 214 110 339h5c19-127 66-226 99-339h140L282 5h-79L-14-500h151" id="aT"/><path d="M68-500h130V0H68v-500zm62-73c-46 0-81-26-81-68s35-70 81-70c45 0 85 29 85 70 0 42-40 68-85 68" id="aU"/><path d="M338-514c121 0 155 79 155 203V0H363v-284c-1-72-12-113-77-115-52-1-86 36-99 75V0H57v-500h103l15 66h4c32-43 81-80 159-80" id="aV"/><path d="M283-512c75-1 146 12 197 30V0c1 145-82 211-224 212-78 1-132-10-176-31l27-103c36 13 74 27 129 27 98 0 121-48 117-144h-4C326-8 284 8 225 8 81 8 33-84 33-240c-1-172 82-272 250-272zM167-245c0 83 22 149 93 149 55 0 75-25 90-68v-225c-21-9-46-13-77-13-80 0-107 63-106 157" id="aW"/><g id="b"><use transform="matrix(0.018,0,0,0.018,0,0)" xlink:href="#aR"/><use transform="matrix(0.018,0,0,0.018,9.54,0)" xlink:href="#aN"/><use transform="matrix(0.018,0,0,0.018,18.683999999999997,0)" xlink:href="#aS"/><use transform="matrix(0.018,0,0,0.018,25.001999999999995,0)" xlink:href="#aT"/><use transform="matrix(0.018,0,0,0.018,33.587999999999994,0)" xlink:href="#aU"/><use transform="matrix(0.018,0,0,0.018,38.429999999999986,0)" xlink:href="#aV"/><use transform="matrix(0.018,0,0,0.018,48.239999999999995,0)" xlink:href="#aW"/></g><path d="M190-243c0 170 48 308 126 407l-89 56C82 82 14-227 98-482c29-88 73-167 132-230l84 54c-77 104-124 239-124 415" id="aX"/><path d="M335 14C121 14 41-135 38-350c-3-216 93-364 297-364 213 0 294 149 297 364 2 215-94 364-297 364zm0-606c-118 0-155 101-153 242 2 128 30 242 153 242 120 0 155-98 153-242-2-127-29-242-153-242" id="aY"/><path d="M178 14C100 13 61-20 61-100v-600h130v532c1 39 5 67 38 67 22 0 33-3 52-11l14 102c-24 12-77 25-117 24" id="aZ"/><path d="M136-249c-2-169-49-305-125-406l88-57C244-574 312-265 228-10c-29 88-73 167-132 230l-84-55C90 60 138-71 136-249" id="ba"/><g id="c"><use transform="matrix(0.018,0,0,0.018,0,0)" xlink:href="#aX"/><use transform="matrix(0.018,0,0,0.018,5.579999999999999,0)" xlink:href="#aY"/><use transform="matrix(0.018,0,0,0.018,17.639999999999997,0)" xlink:href="#aV"/><use transform="matrix(0.018,0,0,0.018,27.449999999999992,0)" xlink:href="#aZ"/><use transform="matrix(0.018,0,0,0.018,32.742,0)" xlink:href="#aU"/><use transform="matrix(0.018,0,0,0.018,37.583999999999996,0)" xlink:href="#aV"/><use transform="matrix(0.018,0,0,0.018,47.39399999999999,0)" xlink:href="#aN"/><use transform="matrix(0.018,0,0,0.018,56.30399999999999,0)" xlink:href="#ba"/></g><path d="M453-293H197V0H60v-700h137v285h256v-285h137V0H453v-293" id="bb"/><path d="M269 14C107 14 36-88 33-250c-2-161 81-264 236-264 162 0 233 102 235 264 2 161-80 264-235 264zm0-418c-78 0-104 61-102 154 1 82 21 154 102 154 80 0 101-62 101-154 0-83-21-154-101-154" id="bc"/><path d="M284-101c43 1 72-13 97-29l30 99c-37 28-97 45-160 45C91 14 37-90 33-250c-5-193 117-299 311-255 22 6 43 14 61 23l-31 106c-30-14-55-23-97-23-82 0-111 56-110 149 1 86 32 146 117 149" id="bd"/><g id="d"><use transform="matrix(0.018,0,0,0.018,0,0)" xlink:href="#aX"/><use transform="matrix(0.018,0,0,0.018,5.885999999999999,0)" xlink:href="#bb"/><use transform="matrix(0.018,0,0,0.018,17.604,0)" xlink:href="#aU"/><use transform="matrix(0.018,0,0,0.018,22.445999999999998,0)" xlink:href="#aP"/><use transform="matrix(0.018,0,0,0.018,30.041999999999998,0)" xlink:href="#aQ"/><use transform="matrix(0.018,0,0,0.018,36.233999999999995,0)" xlink:href="#bc"/><use transform="matrix(0.018,0,0,0.018,45.89999999999999,0)" xlink:href="#aS"/><use transform="matrix(0.018,0,0,0.018,52.21799999999999,0)" xlink:href="#aU"/><use transform="matrix(0.018,0,0,0.018,57.05999999999999,0)" xlink:href="#bd"/><use transform="matrix(0.018,0,0,0.018,64.85399999999998,0)" xlink:href="#aO"/><use transform="matrix(0.018,0,0,0.018,73.78199999999998,0)" xlink:href="#aZ"/><use transform="matrix(0.018,0,0,0.018,79.07399999999998,0)" xlink:href="#ba"/></g><path d="M493-515c2 111-71 179-159 201l48 37L556 0h-97L266-302l-98-15V0H85v-693c47-9 123-15 178-15 137 2 227 56 230 193zm-88 3c-1-85-69-132-167-124-24 2-50 2-70 6v258c131 10 239-16 237-140" id="be"/><path d="M293-58c43 0 98-19 119-40l30 58C404-9 338 12 270 12 112 10 51-92 49-250c-1-159 70-258 220-262 155-4 211 110 184 270H132c0 116 45 184 161 184zm88-247c1-92-30-137-111-137-89 0-129 46-137 137h248" id="bf"/><path d="M276-509c50 0 69 4 105 17v-208h80v528c1 67-1 118 10 174h-54l-20-71h-4c-25 44-78 82-147 81C97 8 50-86 49-248c-1-159 77-260 227-261zM132-248c1 104 26 190 127 190 75 0 108-41 122-107v-248c-27-20-53-26-102-26-105 0-148 72-147 191" id="bg"/><path d="M94-500h80V0H94v-500zm38-99c-31 0-55-23-55-53s24-56 55-56 58 26 58 56-28 53-58 53" id="bh"/><path d="M63-93c59 36 240 71 234-43-5-91-121-82-179-124-34-24-62-54-62-113 0-97 59-138 155-139 66-1 112 13 154 32l-19 66c-52-26-221-63-210 39 9 83 124 74 178 118 33 27 64 57 63 118-3 103-68 149-174 151C134 13 81-3 39-25" id="bi"/><g id="e"><use transform="matrix(0.018,0,0,0.018,0,0)" xlink:href="#be"/><use transform="matrix(0.018,0,0,0.018,9.846,0)" xlink:href="#bf"/><use transform="matrix(0.018,0,0,0.018,18.990000000000002,0)" xlink:href="#bg"/><use transform="matrix(0.018,0,0,0.018,28.674,0)" xlink:href="#bh"/><use transform="matrix(0.018,0,0,0.018,33.498,0)" xlink:href="#bi"/></g><path d="M378-62c56 2 101-12 135-32l20 65C494 2 428 12 359 12 150 12 58-132 56-350c-2-250 141-394 402-356 25 4 47 11 65 18l-20 73c-32-15-78-23-137-23-158 0-222 119-222 288S215-68 378-62" id="bj"/><path d="M189 12C123 10 86-25 86-100v-600h80v577c-10 72 59 74 108 54l9 63c-18 10-66 18-94 18" id="bk"/><path d="M232 12C103 12 68-68 69-198v-302h80v285c0 87 12 158 98 157 78-1 111-51 135-108v-334h80c4 166-10 350 11 500h-55l-20-79h-5c-31 50-80 91-161 91" id="bl"/><path d="M200 12C109 10 89-39 89-138v-292H11v-70h78v-99l80-23v122h136v70H169v277c1 59 6 93 57 95 38 1 55-9 84-20l18 61c-35 17-77 30-128 29" id="bm"/><path d="M152-439c26-60 97-88 178-61l-17 77c-74-29-156 5-156 73V0H77v-500h56l15 61h4" id="bn"/><g id="f"><use transform="matrix(0.018,0,0,0.018,0,0)" xlink:href="#bj"/><use transform="matrix(0.018,0,0,0.018,10.277999999999999,0)" xlink:href="#bk"/><use transform="matrix(0.018,0,0,0.018,15.533999999999999,0)" xlink:href="#bl"/><use transform="matrix(0.018,0,0,0.018,25.235999999999997,0)" xlink:href="#bi"/><use transform="matrix(0.018,0,0,0.018,32.81399999999999,0)" xlink:href="#bm"/><use transform="matrix(0.018,0,0,0.018,38.71799999999999,0)" xlink:href="#bf"/><use transform="matrix(0.018,0,0,0.018,47.86199999999999,0)" xlink:href="#bn"/></g><path d="M85-694c171-23 429-43 422 154-3 92-55 144-132 165v4c90 17 153 67 153 172C528-40 396 12 227 8 178 7 125 5 85-5v-689zm83 623c126 19 272 6 272-122 0-133-136-132-272-129v251zm251-452c4-121-140-121-251-107v238c64-1 139 3 178-24 36-24 71-50 73-107" id="bo"/><path d="M290-509c71-1 121 13 170 30V23c0 132-72 189-204 189-71 0-115-8-159-27l21-68c37 13 69 25 124 25 122 0 148-66 139-191h-4c-28 39-65 61-132 60C95 9 50-86 49-248c-1-166 78-261 241-261zM132-249c2 104 25 190 127 190 75 0 106-39 121-105v-256c-27-13-61-19-102-19-103 0-147 74-146 190" id="bp"/><path d="M212 49c178-32 301 98 492 50v72c-165 44-297-46-446-55-16 0-31 2-46 6V49zm129-37C133 12 59-139 56-350c-2-213 86-362 285-362 209 0 284 150 287 362 2 214-87 362-287 362zm0-650c-145 0-200 119-197 288 3 154 48 288 197 288 146 0 202-119 199-288-3-155-49-288-199-288" id="bq"/><path d="M104-500c49 140 107 271 148 420h5c31-148 79-280 119-420h81C396-319 339-134 276 44c-20 55-46 106-82 140-28 26-82 25-117 11l14-69c34 12 54 2 79-24 17-20 32-54 43-102L12-500h92" id="br"/><g id="g"><use transform="matrix(0.018,0,0,0.018,0,0)" xlink:href="#bo"/><use transform="matrix(0.018,0,0,0.018,10.511999999999999,0)" xlink:href="#bh"/><use transform="matrix(0.018,0,0,0.018,15.335999999999999,0)" xlink:href="#bp"/><use transform="matrix(0.018,0,0,0.018,25.001999999999995,0)" xlink:href="#bq"/><use transform="matrix(0.018,0,0,0.018,37.313999999999986,0)" xlink:href="#bl"/><use transform="matrix(0.018,0,0,0.018,47.01599999999999,0)" xlink:href="#bf"/><use transform="matrix(0.018,0,0,0.018,56.15999999999999,0)" xlink:href="#bn"/><use transform="matrix(0.018,0,0,0.018,62.27999999999999,0)" xlink:href="#br"/></g><path d="M418-194H160L90 0H8l265-711h38L577 0h-87zm-231-72h206c-37-104-80-202-104-319-21 119-66 215-102 319" id="bs"/><path d="M262 12c-51 0-69-5-105-20v208H77v-700h55l15 60h4c28-43 75-72 143-72 149 0 198 89 198 252 0 161-73 272-230 272zm147-273c-1-103-28-181-130-181-75 0-107 41-122 107v248c27 20 53 30 102 29 104-2 152-86 150-203" id="bt"/><path d="M422-354c0 120-19 253 8 356h-59l-21-70h-5C315-22 265 8 189 8 98 8 39-43 39-134c0-147 152-157 302-151 10-93 1-159-99-153-57 4-110 14-148 35l-25-60c48-30 118-45 194-45 108-1 159 51 159 154zM122-142c-2 47 40 81 89 80 67-1 109-32 130-79v-83c-95-3-214-10-219 82" id="bu"/><path d="M281-58c46 1 86-17 111-36l26 61c-37 28-94 45-157 45C104 12 53-93 49-250c-5-188 108-294 299-254 22 5 42 12 60 21l-23 69c-29-16-66-28-111-28-95 0-142 64-142 192 0 110 39 189 149 192" id="bv"/><path d="M314-512c131 0 164 78 164 210V0h-80v-285c1-91-15-157-107-157-66 0-134 50-134 109V0H77v-700h80v256h4c35-40 79-68 153-68" id="bw"/><g id="h"><use transform="matrix(0.018,0,0,0.018,0,0)" xlink:href="#bs"/><use transform="matrix(0.018,0,0,0.018,10.53,0)" xlink:href="#bt"/><use transform="matrix(0.018,0,0,0.018,20.268000000000004,0)" xlink:href="#bu"/><use transform="matrix(0.018,0,0,0.018,29.195999999999998,0)" xlink:href="#bv"/><use transform="matrix(0.018,0,0,0.018,37.313999999999986,0)" xlink:href="#bw"/><use transform="matrix(0.018,0,0,0.018,47.16,0)" xlink:href="#bf"/></g><path d="M568-442c-74 2-103 45-118 108V0h-80v-283c0-87-6-159-94-159-65 0-104 47-119 98V0H77v-500h56l15 61h4c37-41 77-74 155-73 72 1 105 26 126 83 28-48 82-81 155-83 130-3 155 82 155 212V0h-80v-301c1-83-12-143-95-141" id="bx"/><g id="i"><use transform="matrix(0.018,0,0,0.018,0,0)" xlink:href="#bo"/><use transform="matrix(0.018,0,0,0.018,10.511999999999999,0)" xlink:href="#bf"/><use transform="matrix(0.018,0,0,0.018,19.656,0)" xlink:href="#bu"/><use transform="matrix(0.018,0,0,0.018,28.583999999999996,0)" xlink:href="#bx"/></g><path d="M110 0l251-586 44-49c-100 18-230 5-344 9v-74h418v27L191 0h-81" id="by"/><path d="M106 12c-34 0-57-24-57-58 0-35 22-58 57-58s60 22 59 58c0 34-24 58-59 58" id="bz"/><g id="j"><use transform="matrix(0.018,0,0,0.018,0,0)" xlink:href="#by"/><use transform="matrix(0.018,0,0,0.018,7.829999999999999,0)" xlink:href="#bz"/></g><path d="M222-231c6 38 10 79 17 116l17-118 144-467h40l145 469c6 38 10 79 18 116l18-118 118-467h81L625 11h-46L437-458l-18-106h-5l-18 107L254 11h-46L8-700h88" id="bA"/><g id="k"><use transform="matrix(0.018,0,0,0.018,0,0)" xlink:href="#bA"/><use transform="matrix(0.018,0,0,0.018,14.165999999999999,0)" xlink:href="#bn"/><use transform="matrix(0.018,0,0,0.018,20.285999999999998,0)" xlink:href="#bh"/><use transform="matrix(0.018,0,0,0.018,25.11,0)" xlink:href="#bm"/><use transform="matrix(0.018,0,0,0.018,31.014,0)" xlink:href="#bf"/><use transform="matrix(0.018,0,0,0.018,40.15800000000001,0)" xlink:href="#bi"/></g><path d="M85-700h381v74H168v239h278v74H168V0H85v-700" id="bB"/><path d="M268 12C112 12 51-93 49-250c-1-158 69-262 219-262 156 0 217 105 219 262 1 158-69 262-219 262zm136-262c0-105-32-190-136-192-91-2-136 63-136 192 0 105 33 189 136 192 91 2 136-63 136-192" id="bC"/><path d="M401-500c47 129 107 245 140 388h2c23-142 72-259 108-388h76L559 11h-39L389-319l-19-82h-3l-20 83L221 11h-39L8-500h87l99 291c6 32 10 66 18 97 30-143 87-259 131-388h58" id="bD"/><g id="l"><use transform="matrix(0.018,0,0,0.018,0,0)" xlink:href="#bB"/><use transform="matrix(0.018,0,0,0.018,9.306,0)" xlink:href="#bf"/><use transform="matrix(0.018,0,0,0.018,18.45,0)" xlink:href="#bu"/><use transform="matrix(0.018,0,0,0.018,27.378000000000004,0)" xlink:href="#bm"/><use transform="matrix(0.018,0,0,0.018,33.48,0)" xlink:href="#bl"/><use transform="matrix(0.018,0,0,0.018,43.181999999999995,0)" xlink:href="#bn"/><use transform="matrix(0.018,0,0,0.018,49.302,0)" xlink:href="#bf"/><use transform="matrix(0.018,0,0,0.018,58.44599999999999,0)" xlink:href="#be"/><use transform="matrix(0.018,0,0,0.018,68.29199999999999,0)" xlink:href="#bC"/><use transform="matrix(0.018,0,0,0.018,77.74199999999999,0)" xlink:href="#bD"/><use transform="matrix(0.018,0,0,0.018,90.972,0)" xlink:href="#bi"/></g><g id="m"><use transform="matrix(0.018,0,0,0.018,0,0)" xlink:href="#bm"/><use transform="matrix(0.018,0,0,0.018,5.903999999999998,0)" xlink:href="#bC"/></g><g id="n"><use transform="matrix(0.018,0,0,0.018,0,0)" xlink:href="#be"/><use transform="matrix(0.018,0,0,0.018,9.846,0)" xlink:href="#bf"/><use transform="matrix(0.018,0,0,0.018,18.990000000000002,0)" xlink:href="#bg"/><use transform="matrix(0.018,0,0,0.018,28.674,0)" xlink:href="#bh"/><use transform="matrix(0.018,0,0,0.018,33.498,0)" xlink:href="#bi"/></g><path d="M203-225h-46V0H77v-700h80v426l41-14 155-212h93L293-299l-41 33 50 40L469 0h-99" id="bE"/><g id="o"><use transform="matrix(0.018,0,0,0.018,0,0)" xlink:href="#bE"/><use transform="matrix(0.018,0,0,0.018,8.19,0)" xlink:href="#bf"/><use transform="matrix(0.018,0,0,0.018,16.938,0)" xlink:href="#br"/><use transform="matrix(0.018,0,0,0.018,25.326,0)" xlink:href="#bi"/></g><path d="M376-109c57 1 96-12 130-32l28 112C494 1 420 14 351 14 136 14 41-127 38-350c-3-258 153-398 418-356 28 4 50 12 68 19l-27 116c-35-16-76-21-131-21-127 0-187 96-184 242 2 141 56 237 194 241" id="bF"/><g id="p"><use transform="matrix(0.018,0,0,0.018,0,0)" xlink:href="#bF"/><use transform="matrix(0.018,0,0,0.018,9.414,0)" xlink:href="#bc"/><use transform="matrix(0.018,0,0,0.018,19.08,0)" xlink:href="#aS"/><use transform="matrix(0.018,0,0,0.018,25.398,0)" xlink:href="#aN"/></g><path d="M215-324h-47V0H85v-700h83v326l45-14 235-312h96L310-399l-42 33 51 40L575 0H470" id="bG"/><path d="M251-636c-75-3-71 63-71 136h133v70H180V0h-80v-430H22v-70h78c-5-124 22-209 143-206 47 1 73 5 108 19l-18 67c-26-12-50-15-82-16" id="bH"/><g id="q"><use transform="matrix(0.018,0,0,0.018,0,0)" xlink:href="#bG"/><use transform="matrix(0.018,0,0,0.018,10.475999999999999,0)" xlink:href="#bu"/><use transform="matrix(0.018,0,0,0.018,19.403999999999993,0)" xlink:href="#bH"/><use transform="matrix(0.018,0,0,0.018,25.145999999999997,0)" xlink:href="#bE"/><use transform="matrix(0.018,0,0,0.018,33.768,0)" xlink:href="#bu"/></g><path d="M140-243c0 179 54 323 138 426l-51 37C82 82 14-227 98-482c29-88 73-167 132-230l48 35c-85 108-138 247-138 434" id="bI"/><g id="r"><use transform="matrix(0.018,0,0,0.018,0,0)" xlink:href="#bI"/><use transform="matrix(0.018,0,0,0.018,5.04,0)" xlink:href="#bB"/><use transform="matrix(0.018,0,0,0.018,14.346,0)" xlink:href="#bf"/><use transform="matrix(0.018,0,0,0.018,23.490000000000002,0)" xlink:href="#bu"/><use transform="matrix(0.018,0,0,0.018,32.418,0)" xlink:href="#bm"/><use transform="matrix(0.018,0,0,0.018,38.519999999999996,0)" xlink:href="#bl"/><use transform="matrix(0.018,0,0,0.018,48.221999999999994,0)" xlink:href="#bn"/><use transform="matrix(0.018,0,0,0.018,54.341999999999985,0)" xlink:href="#bf"/></g><path d="M74-100c89 50 337 72 327-78-8-132-168-134-251-198-46-36-87-77-87-158 0-190 253-210 408-146l-25 73c-38-17-105-31-168-31-104 0-173 93-107 164 94 102 313 99 313 289C484-48 386 9 246 12 162 13 95-2 46-25" id="bJ"/><path d="M140-249c0-178-54-323-138-426l51-37C198-574 266-265 182-10c-29 88-73 167-132 230L2 185C87 77 140-63 140-249" id="bK"/><g id="s"><use transform="matrix(0.018,0,0,0.018,0,0)" xlink:href="#bJ"/><use transform="matrix(0.018,0,0,0.018,9.558,0)" xlink:href="#bm"/><use transform="matrix(0.018,0,0,0.018,15.66,0)" xlink:href="#bn"/><use transform="matrix(0.018,0,0,0.018,21.78,0)" xlink:href="#bf"/><use transform="matrix(0.018,0,0,0.018,30.923999999999996,0)" xlink:href="#bu"/><use transform="matrix(0.018,0,0,0.018,39.852,0)" xlink:href="#bx"/><use transform="matrix(0.018,0,0,0.018,54.467999999999996,0)" xlink:href="#bK"/></g><path d="M291-416c125 0 204 78 201 205-4 136-75 223-213 223C131 12 60-84 60-235c0-203 77-349 202-429 41-26 86-41 134-48l17 64c-154 32-240 146-269 304 24-38 80-72 147-72zM280-58c84 0 129-59 129-145 0-94-42-143-135-143-62 0-115 38-134 78-11 116 31 210 140 210" id="bL"/><g id="t"><use transform="matrix(0.018,0,0,0.018,0,0)" xlink:href="#bL"/><use transform="matrix(0.018,0,0,0.018,9.809999999999999,0)" xlink:href="#bz"/></g><g id="u"><use transform="matrix(0.018,0,0,0.018,0,0)" xlink:href="#bo"/><use transform="matrix(0.018,0,0,0.018,10.511999999999999,0)" xlink:href="#bh"/><use transform="matrix(0.018,0,0,0.018,15.335999999999999,0)" xlink:href="#bp"/><use transform="matrix(0.018,0,0,0.018,25.001999999999995,0)" xlink:href="#bq"/><use transform="matrix(0.018,0,0,0.018,37.313999999999986,0)" xlink:href="#bl"/><use transform="matrix(0.018,0,0,0.018,47.01599999999999,0)" xlink:href="#bf"/><use transform="matrix(0.018,0,0,0.018,56.15999999999999,0)" xlink:href="#bn"/><use transform="matrix(0.018,0,0,0.018,62.27999999999999,0)" xlink:href="#br"/></g><path d="M247 9C183 10 114-8 77-29v-671h80v249h4c28-36 76-61 136-61 144 0 194 97 194 254C491-91 407 8 247 9zm161-268c-2-100-27-183-125-183-74 0-109 46-126 107v252c24 14 63 22 102 22 105 0 151-78 149-198" id="bM"/><g id="v"><use transform="matrix(0.018,0,0,0.018,0,0)" xlink:href="#bm"/><use transform="matrix(0.018,0,0,0.018,6.101999999999999,0)" xlink:href="#bu"/><use transform="matrix(0.018,0,0,0.018,15.029999999999998,0)" xlink:href="#bM"/><use transform="matrix(0.018,0,0,0.018,24.749999999999996,0)" xlink:href="#bk"/><use transform="matrix(0.018,0,0,0.018,30.005999999999997,0)" xlink:href="#bf"/><use transform="matrix(0.018,0,0,0.018,39.15,0)" xlink:href="#bi"/></g><g id="w"><use transform="matrix(0.018,0,0,0.018,0,0)" xlink:href="#bB"/><use transform="matrix(0.018,0,0,0.018,9.306,0)" xlink:href="#bf"/><use transform="matrix(0.018,0,0,0.018,18.45,0)" xlink:href="#bu"/><use transform="matrix(0.018,0,0,0.018,27.378000000000004,0)" xlink:href="#bi"/><use transform="matrix(0.018,0,0,0.018,34.956,0)" xlink:href="#bm"/></g><path d="M336-65c119-3 151-64 151-191v-444h80v467C566-76 490 8 335 9 175 10 85-60 85-217v-483h83v444c-2 124 45 193 168 191" id="bN"/><g id="x"><use transform="matrix(0.018,0,0,0.018,0,0)" xlink:href="#bN"/><use transform="matrix(0.018,0,0,0.018,11.735999999999999,0)" xlink:href="#bi"/><use transform="matrix(0.018,0,0,0.018,19.314,0)" xlink:href="#bf"/><use transform="matrix(0.018,0,0,0.018,28.458,0)" xlink:href="#bn"/></g><path d="M108-74h140v-484l10-59-40 47-110 79-38-51 220-170h36v638h137V0H108v-74" id="bO"/><g id="y"><use transform="matrix(0.018,0,0,0.018,0,0)" xlink:href="#bO"/><use transform="matrix(0.018,0,0,0.018,9.809999999999999,0)" xlink:href="#bz"/></g><g id="z"><use transform="matrix(0.018,0,0,0.018,0,0)" xlink:href="#bj"/><use transform="matrix(0.018,0,0,0.018,9.972,0)" xlink:href="#bn"/><use transform="matrix(0.018,0,0,0.018,16.092,0)" xlink:href="#bf"/><use transform="matrix(0.018,0,0,0.018,25.235999999999997,0)" xlink:href="#bu"/><use transform="matrix(0.018,0,0,0.018,34.163999999999994,0)" xlink:href="#bm"/><use transform="matrix(0.018,0,0,0.018,40.06799999999999,0)" xlink:href="#bf"/></g><g id="A"><use transform="matrix(0.018,0,0,0.018,0,0)" xlink:href="#bB"/><use transform="matrix(0.018,0,0,0.018,9.306,0)" xlink:href="#bf"/><use transform="matrix(0.018,0,0,0.018,18.45,0)" xlink:href="#bu"/><use transform="matrix(0.018,0,0,0.018,27.378000000000004,0)" xlink:href="#bm"/><use transform="matrix(0.018,0,0,0.018,33.48,0)" xlink:href="#bl"/><use transform="matrix(0.018,0,0,0.018,43.181999999999995,0)" xlink:href="#bn"/><use transform="matrix(0.018,0,0,0.018,49.302,0)" xlink:href="#bf"/></g><g id="B"><use transform="matrix(0.018,0,0,0.018,0,0)" xlink:href="#bJ"/><use transform="matrix(0.018,0,0,0.018,9.558,0)" xlink:href="#bf"/><use transform="matrix(0.018,0,0,0.018,18.701999999999998,0)" xlink:href="#bm"/></g><path d="M267-712c112 0 179 61 179 171 0 193-130 309-219 431l-49 43v4c78-19 187-8 282-11V0H62v-29c108-116 222-246 285-410 36-94 12-203-97-203-54 0-105 27-136 51l-33-57c43-37 108-64 186-64" id="bP"/><g id="C"><use transform="matrix(0.018,0,0,0.018,0,0)" xlink:href="#bP"/><use transform="matrix(0.018,0,0,0.018,9.809999999999999,0)" xlink:href="#bz"/></g><g id="D"><use transform="matrix(0.018,0,0,0.018,0,0)" xlink:href="#bJ"/><use transform="matrix(0.018,0,0,0.018,9.558,0)" xlink:href="#bm"/><use transform="matrix(0.018,0,0,0.018,15.66,0)" xlink:href="#bu"/><use transform="matrix(0.018,0,0,0.018,24.588,0)" xlink:href="#bn"/><use transform="matrix(0.018,0,0,0.018,31.247999999999998,0)" xlink:href="#bm"/></g><path d="M9 142c81 3 84-65 84-145v-497h80V27c1 123-40 197-164 183v-68zm122-741c-31 0-55-23-55-53s24-56 55-56 58 26 58 56-28 53-58 53" id="bQ"/><g id="E"><use transform="matrix(0.018,0,0,0.018,0,0)" xlink:href="#bQ"/><use transform="matrix(0.018,0,0,0.018,4.806,0)" xlink:href="#bC"/><use transform="matrix(0.018,0,0,0.018,14.454,0)" xlink:href="#bM"/><use transform="matrix(0.018,0,0,0.018,24.174,0)" xlink:href="#bi"/></g><g id="F"><use transform="matrix(0.018,0,0,0.018,0,0)" xlink:href="#bm"/><use transform="matrix(0.018,0,0,0.018,5.903999999999998,0)" xlink:href="#bC"/></g><path d="M313-512c130 0 165 79 165 210V0h-80v-285c-2-94-16-155-105-157-72-1-118 46-136 100V0H77v-500h56l15 61h4c32-42 86-73 161-73" id="bR"/><g id="G"><use transform="matrix(0.018,0,0,0.018,0,0)" xlink:href="#bh"/><use transform="matrix(0.018,0,0,0.018,4.824,0)" xlink:href="#bR"/><use transform="matrix(0.018,0,0,0.018,14.670000000000002,0)" xlink:href="#bp"/><use transform="matrix(0.018,0,0,0.018,24.336,0)" xlink:href="#bf"/><use transform="matrix(0.018,0,0,0.018,33.48,0)" xlink:href="#bi"/><use transform="matrix(0.018,0,0,0.018,41.057999999999986,0)" xlink:href="#bm"/></g><g id="H"><use transform="matrix(0.018,0,0,0.018,0,0)" xlink:href="#bH"/><use transform="matrix(0.018,0,0,0.018,5.544,0)" xlink:href="#bf"/><use transform="matrix(0.018,0,0,0.018,14.687999999999999,0)" xlink:href="#bu"/><use transform="matrix(0.018,0,0,0.018,23.616,0)" xlink:href="#bm"/><use transform="matrix(0.018,0,0,0.018,29.718000000000004,0)" xlink:href="#bl"/><use transform="matrix(0.018,0,0,0.018,39.42,0)" xlink:href="#bn"/><use transform="matrix(0.018,0,0,0.018,45.54,0)" xlink:href="#bf"/><use transform="matrix(0.018,0,0,0.018,54.684,0)" xlink:href="#bi"/></g><path d="M75-17c87 13 134-18 134-103 0-78-51-106-134-100v203zm171-102C246 5 139 7 10 0v-9l31-5v-208l-31-4v-10h107c82 0 129 35 129 117" id="bS"/><path d="M32-163c41-10 102-14 102 39v112c8 3 24-2 21 12h-45l-4-17C83 13 3 13 13-46c-2-50 45-50 92-51 4-36-5-70-42-56-6 2-12 4-16 6-4 7 0 23-15 20v-36zM42-47c0 41 41 33 63 22v-59c-34 1-63-1-63 37" id="bT"/><path d="M54-38c-1 25 24 26 44 20v12C71 10 25 9 25-35v-115H4c-2-14 14-10 21-15l18-38h11v38h38v15H54v112" id="bU"/><g id="I"><use transform="matrix(0.05,0,0,0.05,0,0)" xlink:href="#bS"/><use transform="matrix(0.05,0,0,0.05,12.950000000000001,0)" xlink:href="#bT"/><use transform="matrix(0.05,0,0,0.05,20.900000000000002,0)" xlink:href="#bU"/><use transform="matrix(0.05,0,0,0.05,25.900000000000002,0)" xlink:href="#bT"/></g><path d="M75-108c48 3 76-12 76-58s-28-57-76-54v112zm111-58c-1 60-46 78-111 74v78l37 5v9H13v-9l28-5v-208l-31-4v-10c81 1 178-14 176 70" id="bV"/><path d="M124-13C89 8 26 15 26-45v-108c-8-3-24 2-21-12h50v118c-3 37 42 32 69 25v-131l-25-4v-8h54v153c8 3 24-2 21 12h-48" id="bW"/><path d="M53-14c58 12 82-15 82-73 0-52-35-77-82-58v131zM89 4C64 4 42-2 24-9v-229l-24-4v-8h53l-1 94c48-33 114-4 114 69 0 57-23 91-77 91" id="bX"/><path d="M65-12l28 4v8H7v-8l28-4v-226l-28-4v-8h58v238" id="bY"/><path d="M47-200c-23 0-25-39 0-38 13 0 18 7 20 19-1 11-8 19-20 19zM65-12l28 4v8H8v-8l28-4v-141l-24-4v-8h53v153" id="bZ"/><path d="M41-130c7 48 86 23 86 84 0 56-69 57-112 41v-40c20 0 9 29 31 31 35 19 77-26 41-50-27-18-72-13-72-59 0-50 58-52 100-41v36c-19 1-8-25-28-25-21-7-50-1-46 23" id="ca"/><path d="M126-119c3-38-42-31-69-25v132l23 4v8H7v-8l21-4v-226l-24-4v-8h53l-1 98c31-22 99-31 99 31v109c7 3 23-1 20 12h-71v-8l22-4v-107" id="cb"/><path d="M84-170c49 0 66 33 63 87H46c-8 60 38 80 95 63v10C128-2 108 4 88 4 34 4 14-29 14-84c-1-54 22-86 70-86zm33 73c12-57-57-82-69-24-1 7-2 15-2 24h71" id="cc"/><path d="M57-145c16-10 35-24 60-25v45c-19 1-8-30-40-17l-20 6v124l29 4v8H7v-8l21-4v-141c-8-3-24 2-21-12h48" id="cd"/><g id="J"><use transform="matrix(0.05,0,0,0.05,0,0)" xlink:href="#bV"/><use transform="matrix(0.05,0,0,0.05,10,0)" xlink:href="#bW"/><use transform="matrix(0.05,0,0,0.05,19,0)" xlink:href="#bX"/><use transform="matrix(0.05,0,0,0.05,28,0)" xlink:href="#bY"/><use transform="matrix(0.05,0,0,0.05,33,0)" xlink:href="#bZ"/><use transform="matrix(0.05,0,0,0.05,38,0)" xlink:href="#ca"/><use transform="matrix(0.05,0,0,0.05,45,0)" xlink:href="#cb"/><use transform="matrix(0.05,0,0,0.05,54,0)" xlink:href="#cc"/><use transform="matrix(0.05,0,0,0.05,61.95,0)" xlink:href="#cd"/></g><path d="M43-64c61 0 69-48 69-110v-526h83v546C206-17 93 42-34-6l16-71c19 9 39 13 61 13" id="ce"/><g id="K"><use transform="matrix(0.018,0,0,0.018,0,0)" xlink:href="#ce"/><use transform="matrix(0.018,0,0,0.018,5.2379999999999995,0)" xlink:href="#bl"/><use transform="matrix(0.018,0,0,0.018,14.94,0)" xlink:href="#bt"/><use transform="matrix(0.018,0,0,0.018,24.462,0)" xlink:href="#br"/><use transform="matrix(0.018,0,0,0.018,32.85,0)" xlink:href="#bm"/><use transform="matrix(0.018,0,0,0.018,38.754,0)" xlink:href="#bf"/><use transform="matrix(0.018,0,0,0.018,47.897999999999996,0)" xlink:href="#bn"/></g><path d="M839-1335c-182-6-269 67-259 253h491v142H580V0H400v-940H138v-142h262c-15-293 132-408 418-402 94 2 200 7 281 21v145c-75-10-177-14-260-17" id="cf"/><path d="M617-1102c355 0 481 238 477 599H322c5 222 84 388 301 388 144 0 244-59 284-166l158 45C1002-72 854 20 623 20c-342 0-490-220-490-568 0-346 151-554 484-554zm291 461c-18-192-90-328-289-328-194 0-287 128-295 328h584" id="cg"/><path d="M1000-272c3 95 12 159 101 161 21 0 41-3 59-7V-6c-44 10-86 16-139 16-141 2-191-84-197-217h-6C748-76 648 20 446 20c-207 0-318-120-318-322 0-266 194-348 454-354l236-4c12-191-40-305-222-305-140 0-220 47-232 172l-188-17c33-204 181-292 423-292 255 0 401 118 401 364v466zm-683-27c0 109 63 184 175 182 166-3 259-96 306-217 24-65 20-120 20-200-232 7-501-28-501 235" id="ch"/><path d="M873-819c-18-114-119-146-250-146-163 0-245 50-245 151 0 151 170 148 294 185 182 54 388 94 388 320 0 240-189 325-439 329-245 4-410-69-454-268l159-31c24 133 136 168 295 165 144-2 270-31 270-171 0-164-195-160-331-202-167-52-350-87-350-299 0-218 173-315 413-313 220 2 373 77 412 260" id="ci"/><path d="M682 16c-209 0-323-80-324-285v-671H190v-142h170l58-282h120v282h432v142H538v652c2 114 60 155 182 155 106 0 209-16 297-34v137C921-4 806 16 682 16" id="cj"/><path d="M496 0v-299h235V0H496" id="ck"/><path d="M745-142h380V0H143v-142h422v-798H246v-142h499v940zM545-1292v-192h200v192H545" id="cl"/><path d="M706-1102c241 0 344 136 343 381V0H868v-695c1-168-57-273-220-268-190 6-283 138-283 336V0H185c-3-360 6-732-6-1082h170c4 54 7 126 8 185h3c63-121 164-204 346-205" id="cm"/><path d="M1048-32c-2 300-135 456-433 456-222-1-358-88-400-267l184-25c22 99 100 157 222 156 184-2 248-125 248-315 0-64 3-133-2-194C807-100 706-13 524-12c-306 0-381-228-381-537 0-318 85-550 400-550 164 0 271 83 325 202h3c1-60 3-134 12-185h171c-13 339-4 702-6 1050zM585-145c210-8 284-178 284-406 0-192-52-331-177-392-33-16-69-22-104-22-223 2-259 184-259 414 0 229 31 415 256 406" id="cn"/><path d="M891-1484c-201 251-362 514-362 954 0 441 161 704 362 955H701C500 176 342-90 342-532c0-440 159-704 359-952h190" id="co"/><path d="M865-914c-3-187-2-380-2-570h180v1261c0 76 1 155 6 223H877c-8-49-9-116-10-174h-5C801-44 708 26 530 26c-135 0-234-46-297-139s-95-232-95-419c0-377 131-566 392-566 176 0 271 63 335 184zm-286-51c-222 0-255 197-255 427 0 229 31 425 253 425 237 0 286-195 286-441 0-238-52-411-284-411" id="cp"/><path d="M528-1484c201 248 357 511 357 952 0 442-156 709-357 957H336C537 174 700-89 700-530c0-440-163-703-364-954h192" id="cq"/><g id="M"><use transform="matrix(0.0087890625,0,0,0.0087890625,0,0)" xlink:href="#cf"/><use transform="matrix(0.0087890625,0,0,0.0087890625,10.8017578125,0)" xlink:href="#cg"/><use transform="matrix(0.0087890625,0,0,0.0087890625,21.603515625,0)" xlink:href="#ch"/><use transform="matrix(0.0087890625,0,0,0.0087890625,32.4052734375,0)" xlink:href="#ci"/><use transform="matrix(0.0087890625,0,0,0.0087890625,43.20703125,0)" xlink:href="#cj"/><use transform="matrix(0.0087890625,0,0,0.0087890625,54.0087890625,0)" xlink:href="#ck"/><use transform="matrix(0.0087890625,0,0,0.0087890625,64.810546875,0)" xlink:href="#cl"/><use transform="matrix(0.0087890625,0,0,0.0087890625,75.6123046875,0)" xlink:href="#cm"/><use transform="matrix(0.0087890625,0,0,0.0087890625,86.4140625,0)" xlink:href="#cn"/><use transform="matrix(0.0087890625,0,0,0.0087890625,97.2158203125,0)" xlink:href="#cg"/><use transform="matrix(0.0087890625,0,0,0.0087890625,108.017578125,0)" xlink:href="#ci"/><use transform="matrix(0.0087890625,0,0,0.0087890625,118.8193359375,0)" xlink:href="#cj"/><use transform="matrix(0.0087890625,0,0,0.0087890625,129.62109375,0)" xlink:href="#co"/><use transform="matrix(0.0087890625,0,0,0.0087890625,140.4228515625,0)" xlink:href="#cp"/><use transform="matrix(0.0087890625,0,0,0.0087890625,151.224609375,0)" xlink:href="#cf"/><use transform="matrix(0.0087890625,0,0,0.0087890625,162.0263671875,0)" xlink:href="#cq"/></g><path d="M524-215H406V0h-78v-215H20v-33l332-463h54v426h118v70zm-196-70c2-102-6-213 10-300h-3l-35 68c-63 80-116 170-189 240 64-11 142-8 217-8" id="cr"/><g id="N"><use transform="matrix(0.018,0,0,0.018,0,0)" xlink:href="#cr"/><use transform="matrix(0.018,0,0,0.018,9.809999999999999,0)" xlink:href="#bz"/></g><g id="O"><use transform="matrix(0.018,0,0,0.018,0,0)" xlink:href="#bo"/><use transform="matrix(0.018,0,0,0.018,10.511999999999999,0)" xlink:href="#bu"/><use transform="matrix(0.018,0,0,0.018,19.439999999999998,0)" xlink:href="#bm"/><use transform="matrix(0.018,0,0,0.018,25.343999999999998,0)" xlink:href="#bv"/><use transform="matrix(0.018,0,0,0.018,33.461999999999996,0)" xlink:href="#bw"/></g><path d="M104-700h83V0h-83v-700" id="cs"/><g id="P"><use transform="matrix(0.018,0,0,0.018,0,0)" xlink:href="#cs"/><use transform="matrix(0.018,0,0,0.018,5.2379999999999995,0)" xlink:href="#bR"/><use transform="matrix(0.018,0,0,0.018,15.084,0)" xlink:href="#bp"/><use transform="matrix(0.018,0,0,0.018,24.749999999999996,0)" xlink:href="#bf"/><use transform="matrix(0.018,0,0,0.018,33.894,0)" xlink:href="#bi"/><use transform="matrix(0.018,0,0,0.018,41.471999999999994,0)" xlink:href="#bm"/><use transform="matrix(0.018,0,0,0.018,47.57399999999999,0)" xlink:href="#bh"/><use transform="matrix(0.018,0,0,0.018,52.39799999999999,0)" xlink:href="#bC"/><use transform="matrix(0.018,0,0,0.018,62.04599999999999,0)" xlink:href="#bR"/></g><g id="Q"><use transform="matrix(0.018,0,0,0.018,0,0)" xlink:href="#bC"/><use transform="matrix(0.018,0,0,0.018,9.432000000000002,0)" xlink:href="#bH"/></g><g id="R"><use transform="matrix(0.018,0,0,0.018,0,0)" xlink:href="#bB"/><use transform="matrix(0.018,0,0,0.018,9.306,0)" xlink:href="#bf"/><use transform="matrix(0.018,0,0,0.018,18.45,0)" xlink:href="#bu"/><use transform="matrix(0.018,0,0,0.018,27.378000000000004,0)" xlink:href="#bm"/><use transform="matrix(0.018,0,0,0.018,33.48,0)" xlink:href="#bl"/><use transform="matrix(0.018,0,0,0.018,43.181999999999995,0)" xlink:href="#bn"/><use transform="matrix(0.018,0,0,0.018,49.302,0)" xlink:href="#bf"/><use transform="matrix(0.018,0,0,0.018,58.44599999999999,0)" xlink:href="#be"/><use transform="matrix(0.018,0,0,0.018,68.29199999999999,0)" xlink:href="#bC"/><use transform="matrix(0.018,0,0,0.018,77.74199999999999,0)" xlink:href="#bD"/><use transform="matrix(0.018,0,0,0.018,90.972,0)" xlink:href="#bi"/></g><path d="M522-493c0 190-158 248-354 227V0H85v-693c48-12 110-15 169-15 155 0 268 57 268 215zm-88 0c0-134-136-157-266-137v290c139 17 266-9 266-153" id="ct"/><g id="S"><use transform="matrix(0.018,0,0,0.018,0,0)" xlink:href="#ct"/><use transform="matrix(0.018,0,0,0.018,9.431999999999999,0)" xlink:href="#bn"/><use transform="matrix(0.018,0,0,0.018,15.552,0)" xlink:href="#bC"/><use transform="matrix(0.018,0,0,0.018,25.199999999999996,0)" xlink:href="#bg"/><use transform="matrix(0.018,0,0,0.018,34.88399999999999,0)" xlink:href="#bl"/><use transform="matrix(0.018,0,0,0.018,44.58599999999999,0)" xlink:href="#bv"/><use transform="matrix(0.018,0,0,0.018,52.70399999999999,0)" xlink:href="#bm"/><use transform="matrix(0.018,0,0,0.018,58.80599999999999,0)" xlink:href="#bh"/><use transform="matrix(0.018,0,0,0.018,63.62999999999999,0)" xlink:href="#bC"/><use transform="matrix(0.018,0,0,0.018,73.27799999999999,0)" xlink:href="#bR"/></g><path d="M101-500c50 129 110 248 149 388 32-143 91-259 137-388h86L260 11h-34L9-500h92" id="cu"/><g id="T"><use transform="matrix(0.018,0,0,0.018,0,0)" xlink:href="#bJ"/><use transform="matrix(0.018,0,0,0.018,9.558,0)" xlink:href="#bf"/><use transform="matrix(0.018,0,0,0.018,18.701999999999998,0)" xlink:href="#bn"/><use transform="matrix(0.018,0,0,0.018,24.821999999999996,0)" xlink:href="#cu"/><use transform="matrix(0.018,0,0,0.018,33.498,0)" xlink:href="#bh"/><use transform="matrix(0.018,0,0,0.018,38.321999999999996,0)" xlink:href="#bv"/><use transform="matrix(0.018,0,0,0.018,46.025999999999996,0)" xlink:href="#bf"/></g><path d="M98-76c34 13 66 18 115 18 93 0 159-58 159-156 0-100-67-145-167-145l-84 5v-346h312v74H196v199c155-16 256 60 256 208C452-22 266 51 77-8" id="cv"/><g id="U"><use transform="matrix(0.018,0,0,0.018,0,0)" xlink:href="#cv"/><use transform="matrix(0.018,0,0,0.018,9.809999999999999,0)" xlink:href="#bz"/></g><g id="V"><use transform="matrix(0.018,0,0,0.018,0,0)" xlink:href="#bJ"/><use transform="matrix(0.018,0,0,0.018,9.558,0)" xlink:href="#bm"/><use transform="matrix(0.018,0,0,0.018,15.66,0)" xlink:href="#bn"/><use transform="matrix(0.018,0,0,0.018,21.78,0)" xlink:href="#bf"/><use transform="matrix(0.018,0,0,0.018,30.923999999999996,0)" xlink:href="#bu"/><use transform="matrix(0.018,0,0,0.018,39.852,0)" xlink:href="#bx"/><use transform="matrix(0.018,0,0,0.018,54.467999999999996,0)" xlink:href="#bh"/><use transform="matrix(0.018,0,0,0.018,59.291999999999994,0)" xlink:href="#bR"/><use transform="matrix(0.018,0,0,0.018,69.13799999999999,0)" xlink:href="#bp"/></g><path d="M109-84c32 15 76 27 125 26 95-3 155-52 158-145 4-123-100-148-230-138v-29l144-222 46-44c-74 17-174 8-263 10v-74h357v29L287-432c-11 11-26 18-35 31l34-7c117 7 182 75 186 195C478-16 271 53 88-13" id="cw"/><g id="W"><use transform="matrix(0.018,0,0,0.018,0,0)" xlink:href="#cw"/><use transform="matrix(0.018,0,0,0.018,9.809999999999999,0)" xlink:href="#bz"/></g><g id="X"><use transform="matrix(0.018,0,0,0.018,0,0)" xlink:href="#bN"/><use transform="matrix(0.018,0,0,0.018,11.735999999999999,0)" xlink:href="#bi"/><use transform="matrix(0.018,0,0,0.018,19.314,0)" xlink:href="#bf"/><use transform="matrix(0.018,0,0,0.018,28.458,0)" xlink:href="#bn"/></g><g id="Y"><use transform="matrix(0.018,0,0,0.018,0,0)" xlink:href="#bf"/><use transform="matrix(0.018,0,0,0.018,9.144,0)" xlink:href="#bR"/><use transform="matrix(0.018,0,0,0.018,18.990000000000002,0)" xlink:href="#bp"/><use transform="matrix(0.018,0,0,0.018,28.656,0)" xlink:href="#bh"/><use transform="matrix(0.018,0,0,0.018,33.48,0)" xlink:href="#bR"/><use transform="matrix(0.018,0,0,0.018,43.32599999999999,0)" xlink:href="#bf"/><use transform="matrix(0.018,0,0,0.018,52.27199999999999,0)" xlink:href="#bf"/><use transform="matrix(0.018,0,0,0.018,61.41599999999999,0)" xlink:href="#bn"/><use transform="matrix(0.018,0,0,0.018,67.53599999999999,0)" xlink:href="#bi"/></g><g id="Z"><use transform="matrix(0.018,0,0,0.018,0,0)" xlink:href="#bH"/><use transform="matrix(0.018,0,0,0.018,5.544,0)" xlink:href="#bf"/><use transform="matrix(0.018,0,0,0.018,14.687999999999999,0)" xlink:href="#bu"/><use transform="matrix(0.018,0,0,0.018,23.616,0)" xlink:href="#bm"/><use transform="matrix(0.018,0,0,0.018,29.718000000000004,0)" xlink:href="#bl"/><use transform="matrix(0.018,0,0,0.018,39.42,0)" xlink:href="#bn"/><use transform="matrix(0.018,0,0,0.018,45.54,0)" xlink:href="#bf"/><use transform="matrix(0.018,0,0,0.018,54.684,0)" xlink:href="#bi"/></g><g id="aa"><use transform="matrix(0.018,0,0,0.018,0,0)" xlink:href="#bu"/><use transform="matrix(0.018,0,0,0.018,8.927999999999999,0)" xlink:href="#bR"/><use transform="matrix(0.018,0,0,0.018,18.774,0)" xlink:href="#bg"/></g><g id="ab"><use transform="matrix(0.018,0,0,0.018,0,0)" xlink:href="#bh"/><use transform="matrix(0.018,0,0,0.018,4.824,0)" xlink:href="#bR"/><use transform="matrix(0.018,0,0,0.018,14.670000000000002,0)" xlink:href="#bp"/><use transform="matrix(0.018,0,0,0.018,24.336,0)" xlink:href="#bf"/><use transform="matrix(0.018,0,0,0.018,33.48,0)" xlink:href="#bi"/><use transform="matrix(0.018,0,0,0.018,41.057999999999986,0)" xlink:href="#bm"/><use transform="matrix(0.018,0,0,0.018,47.15999999999999,0)" xlink:href="#bi"/></g><g id="ac"><use transform="matrix(0.018,0,0,0.018,0,0)" xlink:href="#bh"/><use transform="matrix(0.018,0,0,0.018,4.824,0)" xlink:href="#bR"/><use transform="matrix(0.018,0,0,0.018,14.670000000000002,0)" xlink:href="#bm"/><use transform="matrix(0.018,0,0,0.018,20.573999999999998,0)" xlink:href="#bC"/></g><g id="ad"><use transform="matrix(0.018,0,0,0.018,0,0)" xlink:href="#bB"/><use transform="matrix(0.018,0,0,0.018,9.306,0)" xlink:href="#bf"/><use transform="matrix(0.018,0,0,0.018,18.45,0)" xlink:href="#bu"/><use transform="matrix(0.018,0,0,0.018,27.378000000000004,0)" xlink:href="#bi"/><use transform="matrix(0.018,0,0,0.018,34.956,0)" xlink:href="#bm"/></g><path d="M328-712l63 28L26 140l-63-28" id="cx"/><g id="ae"><use transform="matrix(0.018,0,0,0.018,0,0)" xlink:href="#bl"/><use transform="matrix(0.018,0,0,0.018,9.702,0)" xlink:href="#bi"/><use transform="matrix(0.018,0,0,0.018,17.28,0)" xlink:href="#bf"/><use transform="matrix(0.018,0,0,0.018,26.424,0)" xlink:href="#bn"/><use transform="matrix(0.018,0,0,0.018,32.544,0)" xlink:href="#cx"/><use transform="matrix(0.018,0,0,0.018,38.916,0)" xlink:href="#bi"/><use transform="matrix(0.018,0,0,0.018,46.494,0)" xlink:href="#bf"/><use transform="matrix(0.018,0,0,0.018,55.638,0)" xlink:href="#bn"/><use transform="matrix(0.018,0,0,0.018,61.757999999999996,0)" xlink:href="#cu"/><use transform="matrix(0.018,0,0,0.018,70.434,0)" xlink:href="#bh"/><use transform="matrix(0.018,0,0,0.018,75.258,0)" xlink:href="#bv"/><use transform="matrix(0.018,0,0,0.018,82.96199999999999,0)" xlink:href="#bf"/></g><g id="af"><use transform="matrix(0.018,0,0,0.018,0,0)" xlink:href="#bI"/><use transform="matrix(0.018,0,0,0.018,5.04,0)" xlink:href="#bg"/><use transform="matrix(0.018,0,0,0.018,14.724,0)" xlink:href="#bl"/><use transform="matrix(0.018,0,0,0.018,24.426000000000002,0)" xlink:href="#bn"/><use transform="matrix(0.018,0,0,0.018,30.546,0)" xlink:href="#bh"/><use transform="matrix(0.018,0,0,0.018,35.37,0)" xlink:href="#bR"/><use transform="matrix(0.018,0,0,0.018,45.215999999999994,0)" xlink:href="#bp"/></g><g id="ag"><use transform="matrix(0.018,0,0,0.018,0,0)" xlink:href="#bm"/><use transform="matrix(0.018,0,0,0.018,6.101999999999999,0)" xlink:href="#bn"/><use transform="matrix(0.018,0,0,0.018,12.221999999999998,0)" xlink:href="#bu"/><use transform="matrix(0.018,0,0,0.018,21.15,0)" xlink:href="#bh"/><use transform="matrix(0.018,0,0,0.018,25.973999999999997,0)" xlink:href="#bR"/><use transform="matrix(0.018,0,0,0.018,35.81999999999999,0)" xlink:href="#bh"/><use transform="matrix(0.018,0,0,0.018,40.64399999999999,0)" xlink:href="#bR"/><use transform="matrix(0.018,0,0,0.018,50.489999999999995,0)" xlink:href="#bp"/><use transform="matrix(0.018,0,0,0.018,60.156,0)" xlink:href="#bK"/></g><path d="M211 14C88 14 52-63 52-189v-311h130v284c2 72 6 113 71 115 52 1 83-37 98-76v-323h130c6 167-14 358 16 500h-98l-23-74h-4c-29 48-84 88-161 88" id="cy"/><g id="ah"><use transform="matrix(0.018,0,0,0.018,0,0)" xlink:href="#aM"/><use transform="matrix(0.018,0,0,0.018,9.144,0)" xlink:href="#aN"/><use transform="matrix(0.018,0,0,0.018,18.288,0)" xlink:href="#aO"/><use transform="matrix(0.018,0,0,0.018,27.216,0)" xlink:href="#aQ"/><use transform="matrix(0.018,0,0,0.018,33.498,0)" xlink:href="#cy"/><use transform="matrix(0.018,0,0,0.018,43.181999999999995,0)" xlink:href="#aS"/><use transform="matrix(0.018,0,0,0.018,49.49999999999999,0)" xlink:href="#aN"/></g><path d="M524-513c0 116-60 187-147 215l49 31L586 0H428L269-274l-72-13V0H60v-693c195-32 464-42 464 180zm-144 21c0-92-93-108-183-91v203c104 6 183-11 183-112" id="cz"/><path d="M344-585c-48-18-132-27-132 43 0 12-2 26-2 42h110v110H210V0H80v-390H11v-110h69c-6-133 36-207 156-208 53 0 98 6 133 19" id="cA"/><g id="ai"><use transform="matrix(0.018,0,0,0.018,0,0)" xlink:href="#cz"/><use transform="matrix(0.018,0,0,0.018,9.971999999999998,0)" xlink:href="#aN"/><use transform="matrix(0.018,0,0,0.018,19.116,0)" xlink:href="#cA"/><use transform="matrix(0.018,0,0,0.018,24.804,0)" xlink:href="#aN"/><use transform="matrix(0.018,0,0,0.018,33.948,0)" xlink:href="#aS"/><use transform="matrix(0.018,0,0,0.018,40.266,0)" xlink:href="#aN"/><use transform="matrix(0.018,0,0,0.018,49.41,0)" xlink:href="#aV"/><use transform="matrix(0.018,0,0,0.018,59.22,0)" xlink:href="#bd"/><use transform="matrix(0.018,0,0,0.018,66.708,0)" xlink:href="#aN"/><use transform="matrix(0.018,0,0,0.018,75.852,0)" xlink:href="#aP"/></g><path d="M226-172c-87 0-139-52-139-139 0-86 53-139 139-139 87 0 139 52 139 139s-52 139-139 139" id="cB"/><use transform="matrix(0.018,0,0,0.018,0,0)" xlink:href="#cB" id="ak"/><g id="al"><use transform="matrix(0.018,0,0,0.018,0,0)" xlink:href="#bg"/><use transform="matrix(0.018,0,0,0.018,9.684,0)" xlink:href="#bn"/><use transform="matrix(0.018,0,0,0.018,15.803999999999998,0)" xlink:href="#bh"/><use transform="matrix(0.018,0,0,0.018,20.628,0)" xlink:href="#cu"/><use transform="matrix(0.018,0,0,0.018,29.106,0)" xlink:href="#bf"/><use transform="matrix(0.018,0,0,0.018,38.25,0)" xlink:href="#bn"/><use transform="matrix(0.018,0,0,0.018,44.37,0)" xlink:href="#cx"/><use transform="matrix(0.018,0,0,0.018,50.742,0)" xlink:href="#bk"/><use transform="matrix(0.018,0,0,0.018,55.998,0)" xlink:href="#bu"/><use transform="matrix(0.018,0,0,0.018,64.926,0)" xlink:href="#bm"/><use transform="matrix(0.018,0,0,0.018,71.028,0)" xlink:href="#bh"/><use transform="matrix(0.018,0,0,0.018,75.852,0)" xlink:href="#bm"/><use transform="matrix(0.018,0,0,0.018,81.95400000000001,0)" xlink:href="#bl"/><use transform="matrix(0.018,0,0,0.018,91.656,0)" xlink:href="#bg"/><use transform="matrix(0.018,0,0,0.018,101.34,0)" xlink:href="#bf"/></g><g id="am"><use transform="matrix(0.018,0,0,0.018,0,0)" xlink:href="#bg"/><use transform="matrix(0.018,0,0,0.018,9.684,0)" xlink:href="#bn"/><use transform="matrix(0.018,0,0,0.018,15.803999999999998,0)" xlink:href="#bh"/><use transform="matrix(0.018,0,0,0.018,20.628,0)" xlink:href="#cu"/><use transform="matrix(0.018,0,0,0.018,29.106,0)" xlink:href="#bf"/><use transform="matrix(0.018,0,0,0.018,38.25,0)" xlink:href="#bn"/><use transform="matrix(0.018,0,0,0.018,44.37,0)" xlink:href="#cx"/><use transform="matrix(0.018,0,0,0.018,50.742,0)" xlink:href="#bk"/><use transform="matrix(0.018,0,0,0.018,55.998,0)" xlink:href="#bC"/><use transform="matrix(0.018,0,0,0.018,65.646,0)" xlink:href="#bR"/><use transform="matrix(0.018,0,0,0.018,75.492,0)" xlink:href="#bp"/></g><g id="an"><use transform="matrix(0.018,0,0,0.018,0,0)" xlink:href="#bg"/><use transform="matrix(0.018,0,0,0.018,9.684,0)" xlink:href="#bn"/><use transform="matrix(0.018,0,0,0.018,15.803999999999998,0)" xlink:href="#bh"/><use transform="matrix(0.018,0,0,0.018,20.628,0)" xlink:href="#cu"/><use transform="matrix(0.018,0,0,0.018,29.106,0)" xlink:href="#bf"/><use transform="matrix(0.018,0,0,0.018,38.25,0)" xlink:href="#bn"/><use transform="matrix(0.018,0,0,0.018,44.37,0)" xlink:href="#cx"/><use transform="matrix(0.018,0,0,0.018,50.742,0)" xlink:href="#bi"/><use transform="matrix(0.018,0,0,0.018,58.31999999999999,0)" xlink:href="#bt"/><use transform="matrix(0.018,0,0,0.018,68.05799999999999,0)" xlink:href="#bf"/><use transform="matrix(0.018,0,0,0.018,77.004,0)" xlink:href="#bf"/><use transform="matrix(0.018,0,0,0.018,86.14800000000001,0)" xlink:href="#bg"/></g><path d="M0 135h408v70H0v-70" id="cC"/><g id="ao"><use transform="matrix(0.018,0,0,0.018,0,0)" xlink:href="#bg"/><use transform="matrix(0.018,0,0,0.018,9.684,0)" xlink:href="#bn"/><use transform="matrix(0.018,0,0,0.018,15.803999999999998,0)" xlink:href="#bh"/><use transform="matrix(0.018,0,0,0.018,20.628,0)" xlink:href="#cu"/><use transform="matrix(0.018,0,0,0.018,29.106,0)" xlink:href="#bf"/><use transform="matrix(0.018,0,0,0.018,38.25,0)" xlink:href="#bn"/><use transform="matrix(0.018,0,0,0.018,44.37,0)" xlink:href="#cx"/><use transform="matrix(0.018,0,0,0.018,50.742,0)" xlink:href="#bu"/><use transform="matrix(0.018,0,0,0.018,59.669999999999995,0)" xlink:href="#cu"/><use transform="matrix(0.018,0,0,0.018,68.148,0)" xlink:href="#bp"/><use transform="matrix(0.018,0,0,0.018,77.814,0)" xlink:href="#cC"/><use transform="matrix(0.018,0,0,0.018,85.15799999999999,0)" xlink:href="#bm"/><use transform="matrix(0.018,0,0,0.018,91.25999999999999,0)" xlink:href="#bn"/><use transform="matrix(0.018,0,0,0.018,97.38,0)" xlink:href="#bh"/><use transform="matrix(0.018,0,0,0.018,102.204,0)" xlink:href="#bt"/><use transform="matrix(0.018,0,0,0.018,111.942,0)" xlink:href="#bi"/></g><g id="ap"><use transform="matrix(0.018,0,0,0.018,0,0)" xlink:href="#bv"/><use transform="matrix(0.018,0,0,0.018,8.117999999999999,0)" xlink:href="#bl"/><use transform="matrix(0.018,0,0,0.018,17.82,0)" xlink:href="#bi"/><use transform="matrix(0.018,0,0,0.018,25.398,0)" xlink:href="#bm"/><use transform="matrix(0.018,0,0,0.018,31.301999999999996,0)" xlink:href="#bC"/><use transform="matrix(0.018,0,0,0.018,40.95,0)" xlink:href="#bx"/><use transform="matrix(0.018,0,0,0.018,55.566,0)" xlink:href="#bf"/><use transform="matrix(0.018,0,0,0.018,64.71000000000001,0)" xlink:href="#bn"/><use transform="matrix(0.018,0,0,0.018,70.83000000000001,0)" xlink:href="#cx"/><use transform="matrix(0.018,0,0,0.018,77.20200000000001,0)" xlink:href="#bu"/><use transform="matrix(0.018,0,0,0.018,86.13000000000001,0)" xlink:href="#bp"/><use transform="matrix(0.018,0,0,0.018,95.796,0)" xlink:href="#bf"/></g><g id="aq"><use transform="matrix(0.018,0,0,0.018,0,0)" xlink:href="#bv"/><use transform="matrix(0.018,0,0,0.018,8.117999999999999,0)" xlink:href="#bl"/><use transform="matrix(0.018,0,0,0.018,17.82,0)" xlink:href="#bi"/><use transform="matrix(0.018,0,0,0.018,25.398,0)" xlink:href="#bm"/><use transform="matrix(0.018,0,0,0.018,31.301999999999996,0)" xlink:href="#bC"/><use transform="matrix(0.018,0,0,0.018,40.95,0)" xlink:href="#bx"/><use transform="matrix(0.018,0,0,0.018,55.566,0)" xlink:href="#bf"/><use transform="matrix(0.018,0,0,0.018,64.71000000000001,0)" xlink:href="#bn"/><use transform="matrix(0.018,0,0,0.018,70.83000000000001,0)" xlink:href="#cx"/><use transform="matrix(0.018,0,0,0.018,77.20200000000001,0)" xlink:href="#bm"/><use transform="matrix(0.018,0,0,0.018,83.10600000000002,0)" xlink:href="#bC"/><use transform="matrix(0.018,0,0,0.018,92.75400000000002,0)" xlink:href="#bm"/><use transform="matrix(0.018,0,0,0.018,98.85600000000002,0)" xlink:href="#bu"/><use transform="matrix(0.018,0,0,0.018,107.78400000000002,0)" xlink:href="#bk"/><use transform="matrix(0.018,0,0,0.018,113.04000000000002,0)" xlink:href="#cC"/><use transform="matrix(0.018,0,0,0.018,120.384,0)" xlink:href="#bM"/><use transform="matrix(0.018,0,0,0.018,130.104,0)" xlink:href="#bC"/><use transform="matrix(0.018,0,0,0.018,139.752,0)" xlink:href="#bC"/><use transform="matrix(0.018,0,0,0.018,149.40000000000003,0)" xlink:href="#bE"/><use transform="matrix(0.018,0,0,0.018,158.022,0)" xlink:href="#bh"/><use transform="matrix(0.018,0,0,0.018,162.84599999999998,0)" xlink:href="#bR"/><use transform="matrix(0.018,0,0,0.018,172.692,0)" xlink:href="#bp"/><use transform="matrix(0.018,0,0,0.018,182.35800000000003,0)" xlink:href="#bi"/></g><g id="ar"><use transform="matrix(0.018,0,0,0.018,0,0)" xlink:href="#bv"/><use transform="matrix(0.018,0,0,0.018,8.117999999999999,0)" xlink:href="#bl"/><use transform="matrix(0.018,0,0,0.018,17.82,0)" xlink:href="#bi"/><use transform="matrix(0.018,0,0,0.018,25.398,0)" xlink:href="#bm"/><use transform="matrix(0.018,0,0,0.018,31.301999999999996,0)" xlink:href="#bC"/><use transform="matrix(0.018,0,0,0.018,40.95,0)" xlink:href="#bx"/><use transform="matrix(0.018,0,0,0.018,55.566,0)" xlink:href="#bf"/><use transform="matrix(0.018,0,0,0.018,64.71000000000001,0)" xlink:href="#bn"/><use transform="matrix(0.018,0,0,0.018,70.83000000000001,0)" xlink:href="#cx"/><use transform="matrix(0.018,0,0,0.018,77.20200000000001,0)" xlink:href="#bg"/><use transform="matrix(0.018,0,0,0.018,86.88600000000001,0)" xlink:href="#bu"/><use transform="matrix(0.018,0,0,0.018,95.81400000000001,0)" xlink:href="#bh"/><use transform="matrix(0.018,0,0,0.018,100.638,0)" xlink:href="#bk"/><use transform="matrix(0.018,0,0,0.018,105.894,0)" xlink:href="#br"/><use transform="matrix(0.018,0,0,0.018,114.28200000000001,0)" xlink:href="#cC"/><use transform="matrix(0.018,0,0,0.018,121.626,0)" xlink:href="#bM"/><use transform="matrix(0.018,0,0,0.018,131.346,0)" xlink:href="#bC"/><use transform="matrix(0.018,0,0,0.018,140.994,0)" xlink:href="#bC"/><use transform="matrix(0.018,0,0,0.018,150.642,0)" xlink:href="#bE"/><use transform="matrix(0.018,0,0,0.018,159.264,0)" xlink:href="#bh"/><use transform="matrix(0.018,0,0,0.018,164.08800000000002,0)" xlink:href="#bR"/><use transform="matrix(0.018,0,0,0.018,173.93400000000003,0)" xlink:href="#bp"/><use transform="matrix(0.018,0,0,0.018,183.60000000000002,0)" xlink:href="#bi"/></g><path d="M267 12C147 12 68-49 68-167c0-105 58-150 136-194-61-38-120-79-120-176 0-115 77-175 194-175 108 0 183 53 183 159 0 98-45 137-112 186 65 40 128 83 128 185 0 128-81 194-210 194zm5-70c95 3 155-83 115-172-23-51-78-76-128-103-64 35-113 80-113 156S194-61 272-58zm4-584c-108-7-149 128-74 191 26 22 60 42 93 59 49-40 84-71 88-144 3-64-47-102-107-106" id="cD"/><g id="as"><use transform="matrix(0.018,0,0,0.018,0,0)" xlink:href="#cD"/><use transform="matrix(0.018,0,0,0.018,9.809999999999999,0)" xlink:href="#bz"/></g><path d="M292-509c59 0 132 14 168 31v678h-80V-50h-4c-28 40-63 63-131 62C97 10 50-87 49-248c-1-167 80-260 243-261zM132-249c2 104 25 191 127 191 75 0 106-40 121-106v-256c-25-13-59-19-102-19-104 0-147 74-146 190" id="cE"/><g id="at"><use transform="matrix(0.018,0,0,0.018,0,0)" xlink:href="#be"/><use transform="matrix(0.018,0,0,0.018,9.846,0)" xlink:href="#bf"/><use transform="matrix(0.018,0,0,0.018,18.792,0)" xlink:href="#cE"/><use transform="matrix(0.018,0,0,0.018,28.458,0)" xlink:href="#bl"/><use transform="matrix(0.018,0,0,0.018,38.16,0)" xlink:href="#bf"/><use transform="matrix(0.018,0,0,0.018,47.303999999999995,0)" xlink:href="#bi"/><use transform="matrix(0.018,0,0,0.018,54.88199999999999,0)" xlink:href="#bm"/></g><g id="au"><use transform="matrix(0.018,0,0,0.018,0,0)" xlink:href="#bm"/><use transform="matrix(0.018,0,0,0.018,6.101999999999999,0)" xlink:href="#bn"/><use transform="matrix(0.018,0,0,0.018,12.221999999999998,0)" xlink:href="#bu"/><use transform="matrix(0.018,0,0,0.018,21.15,0)" xlink:href="#bh"/><use transform="matrix(0.018,0,0,0.018,25.973999999999997,0)" xlink:href="#bR"/><use transform="matrix(0.018,0,0,0.018,35.81999999999999,0)" xlink:href="#bh"/><use transform="matrix(0.018,0,0,0.018,40.64399999999999,0)" xlink:href="#bR"/><use transform="matrix(0.018,0,0,0.018,50.489999999999995,0)" xlink:href="#bp"/></g><g id="av"><use transform="matrix(0.018,0,0,0.018,0,0)" xlink:href="#bg"/><use transform="matrix(0.018,0,0,0.018,9.684,0)" xlink:href="#bu"/><use transform="matrix(0.018,0,0,0.018,18.612,0)" xlink:href="#bm"/><use transform="matrix(0.018,0,0,0.018,24.714,0)" xlink:href="#bu"/><use transform="matrix(0.018,0,0,0.018,33.641999999999996,0)" xlink:href="#bi"/><use transform="matrix(0.018,0,0,0.018,41.22,0)" xlink:href="#bf"/><use transform="matrix(0.018,0,0,0.018,50.364,0)" xlink:href="#bm"/></g><g id="aw"><use transform="matrix(0.018,0,0,0.018,0,0)" xlink:href="#bD"/><use transform="matrix(0.018,0,0,0.018,13.229999999999999,0)" xlink:href="#bh"/><use transform="matrix(0.018,0,0,0.018,18.054,0)" xlink:href="#bm"/><use transform="matrix(0.018,0,0,0.018,24.156,0)" xlink:href="#bw"/></g><g id="ax"><use transform="matrix(0.018,0,0,0.018,0,0)" xlink:href="#cA"/><use transform="matrix(0.018,0,0,0.018,5.688,0)" xlink:href="#aN"/><use transform="matrix(0.018,0,0,0.018,14.832,0)" xlink:href="#aO"/><use transform="matrix(0.018,0,0,0.018,23.759999999999998,0)" xlink:href="#aQ"/><use transform="matrix(0.018,0,0,0.018,30.041999999999998,0)" xlink:href="#cy"/><use transform="matrix(0.018,0,0,0.018,39.726,0)" xlink:href="#aS"/><use transform="matrix(0.018,0,0,0.018,46.044,0)" xlink:href="#aN"/></g><g id="ay"><use transform="matrix(0.018,0,0,0.018,0,0)" xlink:href="#aS"/><use transform="matrix(0.018,0,0,0.018,6.318,0)" xlink:href="#aN"/><use transform="matrix(0.018,0,0,0.018,15.461999999999998,0)" xlink:href="#cA"/><use transform="matrix(0.018,0,0,0.018,21.15,0)" xlink:href="#aN"/><use transform="matrix(0.018,0,0,0.018,30.293999999999997,0)" xlink:href="#aS"/><use transform="matrix(0.018,0,0,0.018,36.611999999999995,0)" xlink:href="#aN"/><use transform="matrix(0.018,0,0,0.018,45.75599999999999,0)" xlink:href="#aV"/><use transform="matrix(0.018,0,0,0.018,55.56599999999999,0)" xlink:href="#bd"/><use transform="matrix(0.018,0,0,0.018,63.05399999999999,0)" xlink:href="#aN"/><use transform="matrix(0.018,0,0,0.018,72.198,0)" xlink:href="#aP"/></g><path d="M254-284c-125 0-202-76-202-204 0-140 75-224 217-224 143 0 218 102 216 252-3 267-106 436-336 472l-18-64c157-27 243-131 268-289-36 42-70 57-145 57zm10-358c-84-1-129 59-129 146 0 155 199 184 270 84 9-121-23-228-141-230" id="cF"/><g id="aA"><use transform="matrix(0.018,0,0,0.018,0,0)" xlink:href="#cF"/><use transform="matrix(0.018,0,0,0.018,9.809999999999999,0)" xlink:href="#bz"/></g><path d="M85-700h381v74H168v229h273v74H168v249h303V0H85v-700" id="cG"/><path d="M208-256L40-500h98c42 64 91 121 123 195 33-74 83-131 126-195h90L308-260 487 0h-95c-46-70-100-132-136-212-37 80-92 142-139 212H28" id="cH"/><g id="aB"><use transform="matrix(0.018,0,0,0.018,0,0)" xlink:href="#cG"/><use transform="matrix(0.018,0,0,0.018,9.648,0)" xlink:href="#cH"/><use transform="matrix(0.018,0,0,0.018,18.918,0)" xlink:href="#bt"/><use transform="matrix(0.018,0,0,0.018,28.656,0)" xlink:href="#bC"/><use transform="matrix(0.018,0,0,0.018,38.304,0)" xlink:href="#bn"/><use transform="matrix(0.018,0,0,0.018,44.964,0)" xlink:href="#bm"/></g><g id="aC"><use transform="matrix(0.018,0,0,0.018,0,0)" xlink:href="#bw"/><use transform="matrix(0.018,0,0,0.018,9.846,0)" xlink:href="#bh"/><use transform="matrix(0.018,0,0,0.018,14.670000000000002,0)" xlink:href="#bi"/><use transform="matrix(0.018,0,0,0.018,22.247999999999998,0)" xlink:href="#bm"/><use transform="matrix(0.018,0,0,0.018,28.151999999999997,0)" xlink:href="#bC"/><use transform="matrix(0.018,0,0,0.018,37.8,0)" xlink:href="#bn"/><use transform="matrix(0.018,0,0,0.018,43.919999999999995,0)" xlink:href="#bh"/><use transform="matrix(0.018,0,0,0.018,48.744,0)" xlink:href="#bv"/><use transform="matrix(0.018,0,0,0.018,56.861999999999995,0)" xlink:href="#bu"/><use transform="matrix(0.018,0,0,0.018,65.78999999999999,0)" xlink:href="#bk"/></g><g id="aD"><use transform="matrix(0.018,0,0,0.018,0,0)" xlink:href="#bm"/><use transform="matrix(0.018,0,0,0.018,6.101999999999999,0)" xlink:href="#bn"/><use transform="matrix(0.018,0,0,0.018,12.221999999999998,0)" xlink:href="#bu"/><use transform="matrix(0.018,0,0,0.018,21.15,0)" xlink:href="#bh"/><use transform="matrix(0.018,0,0,0.018,25.973999999999997,0)" xlink:href="#bR"/><use transform="matrix(0.018,0,0,0.018,35.81999999999999,0)" xlink:href="#bh"/><use transform="matrix(0.018,0,0,0.018,40.64399999999999,0)" xlink:href="#bR"/><use transform="matrix(0.018,0,0,0.018,50.489999999999995,0)" xlink:href="#bp"/></g><g id="aE"><use transform="matrix(0.018,0,0,0.018,0,0)" xlink:href="#bg"/><use transform="matrix(0.018,0,0,0.018,9.684,0)" xlink:href="#bu"/><use transform="matrix(0.018,0,0,0.018,18.612,0)" xlink:href="#bm"/><use transform="matrix(0.018,0,0,0.018,24.714,0)" xlink:href="#bu"/><use transform="matrix(0.018,0,0,0.018,33.641999999999996,0)" xlink:href="#bi"/><use transform="matrix(0.018,0,0,0.018,41.22,0)" xlink:href="#bf"/><use transform="matrix(0.018,0,0,0.018,50.364,0)" xlink:href="#bm"/></g><g id="aF"><use transform="matrix(0.018,0,0,0.018,0,0)" xlink:href="#bC"/><use transform="matrix(0.018,0,0,0.018,9.648,0)" xlink:href="#bR"/><use transform="matrix(0.018,0,0,0.018,19.494,0)" xlink:href="#bk"/><use transform="matrix(0.018,0,0,0.018,24.749999999999996,0)" xlink:href="#bh"/><use transform="matrix(0.018,0,0,0.018,29.573999999999998,0)" xlink:href="#bR"/><use transform="matrix(0.018,0,0,0.018,39.42,0)" xlink:href="#bf"/></g><g id="aG"><use transform="matrix(0.018,0,0,0.018,0,0)" xlink:href="#bi"/><use transform="matrix(0.018,0,0,0.018,7.577999999999999,0)" xlink:href="#bf"/><use transform="matrix(0.018,0,0,0.018,16.722,0)" xlink:href="#bn"/><use transform="matrix(0.018,0,0,0.018,22.842,0)" xlink:href="#cu"/><use transform="matrix(0.018,0,0,0.018,31.518,0)" xlink:href="#bh"/><use transform="matrix(0.018,0,0,0.018,36.342,0)" xlink:href="#bR"/><use transform="matrix(0.018,0,0,0.018,46.188,0)" xlink:href="#bp"/><use transform="matrix(0.018,0,0,0.018,55.854,0)" xlink:href="#bK"/></g><path d="M272 12C91 12 43-150 43-350c0-120 20-210 59-271s95-91 170-91c188 0 230 150 230 362 0 120-19 210-58 271s-97 91-172 91zm147-362c0-142-13-292-147-292-50 0-90 22-110 71C106-435 89-59 272-58c51 0 88-23 112-70s35-121 35-222" id="cI"/><g id="aH"><use transform="matrix(0.018,0,0,0.018,0,0)" xlink:href="#bO"/><use transform="matrix(0.018,0,0,0.018,9.809999999999999,0)" xlink:href="#cI"/><use transform="matrix(0.018,0,0,0.018,19.619999999999997,0)" xlink:href="#bz"/></g><g id="aI"><use transform="matrix(0.018,0,0,0.018,0,0)" xlink:href="#bC"/><use transform="matrix(0.018,0,0,0.018,9.648,0)" xlink:href="#bR"/><use transform="matrix(0.018,0,0,0.018,19.494,0)" xlink:href="#bk"/><use transform="matrix(0.018,0,0,0.018,24.749999999999996,0)" xlink:href="#bh"/><use transform="matrix(0.018,0,0,0.018,29.573999999999998,0)" xlink:href="#bR"/><use transform="matrix(0.018,0,0,0.018,39.42,0)" xlink:href="#bf"/></g><g id="aJ"><use transform="matrix(0.018,0,0,0.018,0,0)" xlink:href="#bH"/><use transform="matrix(0.018,0,0,0.018,5.544,0)" xlink:href="#bf"/><use transform="matrix(0.018,0,0,0.018,14.687999999999999,0)" xlink:href="#bu"/><use transform="matrix(0.018,0,0,0.018,23.616,0)" xlink:href="#bm"/><use transform="matrix(0.018,0,0,0.018,29.718000000000004,0)" xlink:href="#bl"/><use transform="matrix(0.018,0,0,0.018,39.42,0)" xlink:href="#bn"/><use transform="matrix(0.018,0,0,0.018,45.54,0)" xlink:href="#bf"/><use transform="matrix(0.018,0,0,0.018,54.684,0)" xlink:href="#bi"/></g><g id="aK"><use transform="matrix(0.018,0,0,0.018,0,0)" xlink:href="#bO"/><use transform="matrix(0.018,0,0,0.018,9.809999999999999,0)" xlink:href="#bO"/><use transform="matrix(0.018,0,0,0.018,19.619999999999997,0)" xlink:href="#bz"/></g><g id="aL"><use transform="matrix(0.018,0,0,0.018,0,0)" xlink:href="#bH"/><use transform="matrix(0.018,0,0,0.018,5.544,0)" xlink:href="#bf"/><use transform="matrix(0.018,0,0,0.018,14.687999999999999,0)" xlink:href="#bu"/><use transform="matrix(0.018,0,0,0.018,23.616,0)" xlink:href="#bm"/><use transform="matrix(0.018,0,0,0.018,29.718000000000004,0)" xlink:href="#bl"/><use transform="matrix(0.018,0,0,0.018,39.42,0)" xlink:href="#bn"/><use transform="matrix(0.018,0,0,0.018,45.54,0)" xlink:href="#bf"/><use transform="matrix(0.018,0,0,0.018,54.684,0)" xlink:href="#bi"/></g></defs></g></svg>