<svg xmlns="http://www.w3.org/2000/svg" xmlns:xlink="http://www.w3.org/1999/xlink" xmlns:lucid="lucid" width="900" height="360"><g transform="translate(-340 -360)" lucid:page-tab-id="0_0"><path d="M360 380h860v320H360z" stroke="#000" stroke-opacity="0" stroke-width="2" fill-opacity="0"/><path d="M500 540h580v160H500z" stroke="#000" stroke-width="2" fill="#c1e4f7"/><path d="M500 380h580v160H500z" stroke="#000" stroke-width="2" fill="#ffeca9"/><path d="M660 520h200v40H660z" stroke="#000" stroke-width="2" fill="#fff"/><use xlink:href="#a" transform="matrix(1,0,0,1,665,525) translate(71.4267578125 21.1142578125)"/><path d="M820 453c0 3.87-26.86 7-60 7s-60-3.13-60-7v-56c0-3.87 26.86-7 60-7s60 3.13 60 7z" stroke="#000" stroke-width="2" fill="#fff"/><path d="M820 397c0 3.87-26.86 7-60 7s-60-3.13-60-7" stroke="#000" stroke-width="2" fill="none"/><use xlink:href="#b" transform="matrix(1,0,0,1,705,409) translate(7.47314453125 30.7392578125)"/><path d="M666 415c7.73 0 14 8.95 14 20s-6.27 20-14 20H554c-7.73 0-14-8.95-14-20s6.27-20 14-20z" stroke="#000" stroke-width="2" fill="#fff"/><path d="M666 455c-7.73 0-14-8.95-14-20s6.27-20 14-20" stroke="#000" stroke-width="2" fill="none"/><use xlink:href="#c" transform="matrix(1,0,0,1,545,420) translate(20.96337890625 21.1142578125)"/><path d="M870.67 415H960l-10.67 40H860z" stroke="#000" stroke-width="2" fill="#fff"/><use xlink:href="#d" transform="matrix(1,0,0,1,865.0000000000001,420) translate(26.464472656250003 21.1142578125)"/><path d="M760 462v38.5" stroke="#000" stroke-width="2" fill="none"/><path d="M760 461l1-.03v1.06h-2v-1.07z"/><path d="M760 515.76l-4.64-14.26h9.28z" stroke="#000" stroke-width="2"/><path d="M610 457v33h91.33v10.5" stroke="#000" stroke-width="2" fill="none"/><path d="M611 457.03h-2V456h2z"/><path d="M701.33 515.76l-4.63-14.26h9.27z" stroke="#000" stroke-width="2"/><path d="M660 620h80v60h-80z" stroke="#000" stroke-width="2" fill="#fff"/><use xlink:href="#e" transform="matrix(1,0,0,1,665,625) translate(14.169921875 19.2392578125)"/><use xlink:href="#f" transform="matrix(1,0,0,1,665,625) translate(8.59765625 43.751953125)"/><path d="M780 620h80v60h-80z" stroke="#000" stroke-width="2" fill="#fff"/><use xlink:href="#g" transform="matrix(1,0,0,1,785.0000000000001,625) translate(11.779296875 19.2392578125)"/><use xlink:href="#f" transform="matrix(1,0,0,1,785.0000000000001,625) translate(8.59765625 43.751953125)"/><path d="M698.67 562v38.5" stroke="#000" stroke-width="2" fill="none"/><path d="M699.67 562.03h-2V561h2z"/><path d="M698.67 615.76l-4.64-14.26h9.27z" stroke="#000" stroke-width="2"/><path d="M820 562v38.5" stroke="#000" stroke-width="2" fill="none"/><path d="M821 562.03h-2V561h2z"/><path d="M820 615.76l-4.64-14.26h9.28z" stroke="#000" stroke-width="2"/><path d="M910 457v30.5h-91.33v13" stroke="#000" stroke-width="2" fill="none"/><path d="M911 457.03h-2V456h2z"/><path d="M818.67 515.76l-4.64-14.26h9.27z" stroke="#000" stroke-width="2"/><path d="M940 380h140v160H940z" stroke="#000" stroke-opacity="0" stroke-width="2" fill="#fff" fill-opacity="0"/><use xlink:href="#h" transform="matrix(1,0,0,1,945,385) translate(40.179296875000006 80.1767578125)"/><use xlink:href="#i" transform="matrix(1,0,0,1,945,385) translate(79.99375 80.1767578125)"/><path d="M940 540h140v160H940z" stroke="#000" stroke-opacity="0" stroke-width="2" fill="#fff" fill-opacity="0"/><g><use xlink:href="#j" transform="matrix(1,0,0,1,945,545) translate(11.430273437500006 80.1767578125)"/><use xlink:href="#i" transform="matrix(1,0,0,1,945,545) translate(79.99375 80.1767578125)"/></g><defs><path d="M489 0H184v-1462h838v254H489v377h496v253H489V0" id="k"/><path d="M836-686c0-141-77-236-213-236-140 0-206 98-215 236h428zm223 627C946-4 838 19 666 20 308 22 92-191 92-551c0-356 187-588 529-588 314 0 504 195 501 508v148H401c5 169 104 277 279 276 158-2 261-33 379-88v236" id="l"/><path d="M618-1141c286 0 465 117 465 396V0H870l-59-152h-8C704-33 632 18 432 20 216 22 86-113 86-334c0-119 44-202 124-262 109-82 356-99 570-100 11-142-39-219-174-219-89 0-194 27-315 81l-101-206c129-67 271-101 428-101zm-71 938c137 0 235-88 233-223v-92c-190 3-382 4-381 186 0 86 49 129 148 129" id="m"/><path d="M836-831c-99-39-182-77-306-82-139-6-173 83-92 144 51 39 327 139 383 188 71 62 119 126 119 249C940-74 747 21 463 20 305 20 202 0 94-45v-252c93 45 253 94 379 94 111 0 166-32 166-96 0-68-41-76-98-109-79-46-276-119-333-167-74-61-116-125-116-252 0-368 555-367 836-224" id="n"/><path d="M498-350c-2 85 52 126 133 127 53 0 117-12 192-35v227C747 3 654 20 543 20c-247 0-350-124-350-370v-539H47v-129l168-102 88-236h195v238h313v229H498v539" id="o"/><g id="a"><use transform="matrix(0.0087890625,0,0,0.0087890625,0,0)" xlink:href="#k"/><use transform="matrix(0.0087890625,0,0,0.0087890625,9.87890625,0)" xlink:href="#l"/><use transform="matrix(0.0087890625,0,0,0.0087890625,20.513671875,0)" xlink:href="#m"/><use transform="matrix(0.0087890625,0,0,0.0087890625,31.3857421875,0)" xlink:href="#n"/><use transform="matrix(0.0087890625,0,0,0.0087890625,40.3330078125,0)" xlink:href="#o"/></g><path d="M1477 0h-168c-114-383-232-756-342-1143-19-66-26-106-27-119-15 88-39 184-70 289L584 0H416L27-1462h180l231 903c32 127 55 241 70 344 18-122 46-241 80-358l262-889h180l275 897c32 103 59 220 81 350 13-95 37-210 72-346l230-901h180" id="p"/><path d="M588-1114c260 0 384 106 385 366V0H850l-33-156h-8C708-34 639 17 442 20 231 23 94-94 94-303c0-221 177-337 531-348l186-6c11-203-40-320-233-320-91 0-195 28-310 84l-51-127c97-53 229-94 371-94zM268-301c-1 123 81 184 207 184 203 0 334-120 332-323v-99c-257 14-539-7-539 238" id="q"/><path d="M340-893c80-153 237-262 467-211l-23 154c-45-10-85-15-120-15-184-3-322 182-322 377V0H176v-1096h137l19 203h8" id="r"/><path d="M995-51C878-2 799 19 639 20c-329 2-524-221-524-559 0-326 172-577 481-577 278 0 451 210 446 493v105H287c4 242 121 392 358 393 118 0 235-25 350-74v148zM864-653c2-195-85-324-270-324-190 0-288 139-303 324h573" id="s"/><path d="M690-1114c271 2 402 123 402 399V0H926v-709c-1-177-76-266-252-266-251 0-332 135-332 402V0H176v-1556h166c-4 200 8 426-8 612h10c61-100 187-171 346-170" id="t"/><path d="M621-1116c316 0 501 239 501 567 0 339-180 575-508 569S119-212 115-549c-4-339 178-567 506-567zm-5 141c-239 0-329 168-329 426 0 255 93 430 331 430s332-174 332-430-95-426-334-426" id="u"/><path d="M563 20c-271 0-399-123-399-399v-717h168v711c1 177 76 266 252 266 250 0 331-135 331-401v-576h166V0H944l-24-147h-9C848-44 724 20 563 20" id="v"/><path d="M502-977c-130 0-238 32-238 139 0 75 39 101 95 134 33 19 97 46 192 81 130 48 217 95 263 143s69 108 69 181C883-73 695 20 449 20 304 20 190-3 109-49v-154c91 47 216 86 344 86 149 0 270-36 270-168 0-43-21-76-55-109-56-55-367-158-434-208-74-55-128-109-128-225 0-327 490-342 754-217l-59 135c-110-45-210-68-299-68" id="w"/><g id="b"><use transform="matrix(0.0087890625,0,0,0.0087890625,0,0)" xlink:href="#p"/><use transform="matrix(0.0087890625,0,0,0.0087890625,16.3037109375,0)" xlink:href="#q"/><use transform="matrix(0.0087890625,0,0,0.0087890625,26.314453125,0)" xlink:href="#r"/><use transform="matrix(0.0087890625,0,0,0.0087890625,33.3017578125,0)" xlink:href="#s"/><use transform="matrix(0.0087890625,0,0,0.0087890625,43.400390625,0)" xlink:href="#t"/><use transform="matrix(0.0087890625,0,0,0.0087890625,54.4482421875,0)" xlink:href="#u"/><use transform="matrix(0.0087890625,0,0,0.0087890625,65.3203125,0)" xlink:href="#v"/><use transform="matrix(0.0087890625,0,0,0.0087890625,76.3681640625,0)" xlink:href="#w"/><use transform="matrix(0.0087890625,0,0,0.0087890625,84.955078125,0)" xlink:href="#s"/></g><path d="M584-1331c-162 0-287 69-287 219 0 118 43 164 123 214 44 28 112 56 203 89 153 55 259 113 317 176s86 144 86 244c-1 276-228 409-520 409-173 0-307-22-400-67v-164c109 46 257 81 406 82 199 1 342-68 342-244 0-120-47-164-132-214-47-28-121-58-218-93-136-49-234-106-292-173s-87-154-87-261c-1-239 209-369 463-369 145 0 279 27 401 80l-53 148c-121-51-238-76-352-76" id="x"/><path d="M354-322c-2 123 60 204 176 205 51 1 114-10 150-20v127C647 7 557 20 506 20 294 20 188-92 188-315v-652H31v-80l157-69 70-234h96v254h318v129H354v645" id="y"/><path d="M1368-1116c259 2 372 131 371 401V0h-166v-713c0-168-66-262-230-262-221 0-303 131-303 363V0H874v-713c-1-169-66-262-231-262-235 0-301 142-301 400V0H176v-1096h135l27 150h8c56-99 174-170 324-170 171 0 283 62 336 186h8c60-108 189-187 354-186" id="z"/><g id="c"><use transform="matrix(0.0087890625,0,0,0.0087890625,0,0)" xlink:href="#x"/><use transform="matrix(0.0087890625,0,0,0.0087890625,9.87890625,0)" xlink:href="#y"/><use transform="matrix(0.0087890625,0,0,0.0087890625,16.2333984375,0)" xlink:href="#r"/><use transform="matrix(0.0087890625,0,0,0.0087890625,23.220703125,0)" xlink:href="#s"/><use transform="matrix(0.0087890625,0,0,0.0087890625,33.3193359375,0)" xlink:href="#q"/><use transform="matrix(0.0087890625,0,0,0.0087890625,43.330078125,0)" xlink:href="#z"/></g><path d="M371 0H201v-1462h815v151H371v535h606v151H371V0" id="A"/><path d="M342 0H176v-1096h166V0zm-82-1282c-61 0-98-43-98-111 0-69 36-110 98-110 59 0 98 43 98 110s-39 111-98 111" id="B"/><path d="M342 0H176v-1556h166V0" id="C"/><g id="d"><use transform="matrix(0.0087890625,0,0,0.0087890625,0,0)" xlink:href="#A"/><use transform="matrix(0.0087890625,0,0,0.0087890625,9.2900390625,0)" xlink:href="#B"/><use transform="matrix(0.0087890625,0,0,0.0087890625,13.8427734375,0)" xlink:href="#C"/><use transform="matrix(0.0087890625,0,0,0.0087890625,18.3955078125,0)" xlink:href="#s"/><use transform="matrix(0.0087890625,0,0,0.0087890625,28.494140625,0)" xlink:href="#w"/></g><path d="M651 0H481v-1311H18v-151h1096v151H651V0" id="D"/><path d="M694-1116c270 0 399 125 398 401V0H926v-709c-1-177-76-266-252-266-250 0-332 133-332 400V0H176v-1096h135l27 150h8c62-101 190-170 348-170" id="E"/><g id="e"><use transform="matrix(0.0087890625,0,0,0.0087890625,0,0)" xlink:href="#D"/><use transform="matrix(0.0087890625,0,0,0.0087890625,9.0615234375,0)" xlink:href="#r"/><use transform="matrix(0.0087890625,0,0,0.0087890625,16.048828125,0)" xlink:href="#q"/><use transform="matrix(0.0087890625,0,0,0.0087890625,26.0595703125,0)" xlink:href="#B"/><use transform="matrix(0.0087890625,0,0,0.0087890625,30.6123046875,0)" xlink:href="#E"/></g><path d="M848 0L352-1296h-8c27 395 8 875 14 1296H201v-1462h256L920-256h8l467-1206h254V0h-170c6-439-13-873 14-1294h-8L985 0H848" id="F"/><path d="M115-545c0-330 146-571 454-571 149 0 263 54 342 162h13c-20-185-8-401-11-602h166V0H944l-22-147h-9C836-36 722 20 569 20c-309 0-454-234-454-565zm172 2c0 249 78 424 303 424 257 0 327-150 323-426-4-282-68-432-325-432-220 0-301 191-301 434" id="G"/><g id="f"><use transform="matrix(0.0087890625,0,0,0.0087890625,0,0)" xlink:href="#F"/><use transform="matrix(0.0087890625,0,0,0.0087890625,16.2509765625,0)" xlink:href="#u"/><use transform="matrix(0.0087890625,0,0,0.0087890625,27.123046875,0)" xlink:href="#G"/><use transform="matrix(0.0087890625,0,0,0.0087890625,38.1533203125,0)" xlink:href="#s"/><use transform="matrix(0.0087890625,0,0,0.0087890625,48.251953125,0)" xlink:href="#C"/></g><path d="M516-150c94-315 146-423 332-946h178L610 0H416L0-1096h178c98 281 253 670 330 946h8" id="H"/><g id="g"><use transform="matrix(0.0087890625,0,0,0.0087890625,0,0)" xlink:href="#x"/><use transform="matrix(0.0087890625,0,0,0.0087890625,9.87890625,0)" xlink:href="#s"/><use transform="matrix(0.0087890625,0,0,0.0087890625,19.9775390625,0)" xlink:href="#r"/><use transform="matrix(0.0087890625,0,0,0.0087890625,27.3251953125,0)" xlink:href="#H"/><use transform="matrix(0.0087890625,0,0,0.0087890625,36.3427734375,0)" xlink:href="#s"/></g><path d="M602-1462c329 0 526 109 526 413 0 193-98 324-294 392L1231 0h-201L676-608H371V0H201v-1462h401zm350 422c0-215-129-271-360-273H371v559h233c223 0 348-78 348-286" id="I"/><path d="M1169-178c39-215 75-309 230-918h172L1268 0h-197c-99-332-184-548-272-911h-8C712-564 610-319 514 0H322L23-1096h174c71 275 124 485 161 629s59 241 64 291h8c76-328 186-611 279-920h180l196 629c37 115 63 211 76 289h8" id="J"/><g id="h"><use transform="matrix(0.0087890625,0,0,0.0087890625,0,0)" xlink:href="#I"/><use transform="matrix(0.0087890625,0,0,0.0087890625,11.126953125,0)" xlink:href="#q"/><use transform="matrix(0.0087890625,0,0,0.0087890625,21.1376953125,0)" xlink:href="#J"/></g><g id="i"><use transform="matrix(0.0087890625,0,0,0.0087890625,0,0)" xlink:href="#G"/><use transform="matrix(0.0087890625,0,0,0.0087890625,11.0302734375,0)" xlink:href="#q"/><use transform="matrix(0.0087890625,0,0,0.0087890625,21.041015625,0)" xlink:href="#y"/><use transform="matrix(0.0087890625,0,0,0.0087890625,27.3955078125,0)" xlink:href="#q"/></g><g id="j"><use transform="matrix(0.0087890625,0,0,0.0087890625,0,0)" xlink:href="#A"/><use transform="matrix(0.0087890625,0,0,0.0087890625,9.2900390625,0)" xlink:href="#s"/><use transform="matrix(0.0087890625,0,0,0.0087890625,19.388671875,0)" xlink:href="#q"/><use transform="matrix(0.0087890625,0,0,0.0087890625,29.3994140625,0)" xlink:href="#y"/><use transform="matrix(0.0087890625,0,0,0.0087890625,35.75390625,0)" xlink:href="#v"/><use transform="matrix(0.0087890625,0,0,0.0087890625,46.8017578125,0)" xlink:href="#r"/><use transform="matrix(0.0087890625,0,0,0.0087890625,53.7890625,0)" xlink:href="#s"/></g></defs></g></svg>