    <svg width="167" height="56" viewBox="0 0 167 56" fill="none" xmlns="http://www.w3.org/2000/svg">
<g clip-path="url(#clip0_4688_32443)">
<path d="M78.6387 42.6243C78.6387 44.6538 76.9936 46.2992 74.9641 46.2992H72.4522V43.4301H72.3626C72.0936 43.8185 71.7349 44.222 71.2866 44.6402C70.8681 45.0289 70.3603 45.3876 69.7624 45.7164C69.1947 46.0449 68.5521 46.3139 67.8348 46.5234C67.1473 46.7325 66.43 46.8368 65.683 46.8368C64.0691 46.8368 62.6048 46.5678 61.2897 46.0299C59.9746 45.4622 58.8391 44.685 57.8827 43.6988C56.9563 42.6827 56.239 41.4874 55.7309 40.1128C55.2227 38.7378 54.9688 37.2286 54.9688 35.585C54.9688 34.0608 55.1929 32.6112 55.6412 31.2362C56.1192 29.8318 56.777 28.5912 57.6137 27.5153C58.4805 26.4396 59.5263 25.5879 60.7517 24.9602C61.9772 24.3028 63.3669 23.974 64.9209 23.974C66.3257 23.974 67.6257 24.1981 68.821 24.6464C70.0465 25.0649 71.0474 25.7971 71.8246 26.8433H71.9143V16.0827C71.9143 14.0533 73.5594 12.4082 75.5888 12.4082H78.6387V42.6243ZM72.4522 35.4053C72.4522 33.7617 71.9742 32.4319 71.0177 31.4155C70.0913 30.3995 68.7762 29.8913 67.0727 29.8913C65.3692 29.8913 64.0394 30.3995 63.0829 31.4155C62.1565 32.4319 61.6932 33.7617 61.6932 35.4053C61.6932 37.0493 62.1565 38.3791 63.0829 39.3951C64.0394 40.4115 65.3692 40.9197 67.0727 40.9197C68.7762 40.9197 70.0913 40.4115 71.0177 39.3951C71.9742 38.3791 72.4522 37.0493 72.4522 35.4053Z" fill="#DC244C"/>
<path d="M82.9893 28.1863C82.9893 26.1571 84.6344 24.512 86.6639 24.512H89.7137V28.0085H89.8034C90.5207 26.6638 91.3724 25.6626 92.3587 25.0051C93.3449 24.3177 94.5851 23.974 96.0795 23.974C96.4679 23.974 96.8563 23.989 97.2451 24.0188C97.6335 24.0487 97.9921 24.1085 98.321 24.1982V30.3398C97.8426 30.1902 97.3645 30.0855 96.8864 30.0256C96.4381 29.9359 95.9597 29.8911 95.4519 29.8911C94.1665 29.8911 93.1505 30.0704 92.4035 30.4291C91.6561 30.7877 91.0733 31.2959 90.6552 31.9533C90.2664 32.5809 90.0125 33.343 89.8931 34.2396C89.7733 35.1365 89.7137 36.1224 89.7137 37.1983V42.6241C89.7137 44.6536 88.0686 46.299 86.0392 46.299H82.9893V28.1863Z" fill="#DC244C"/>
<path d="M114.631 43.565H114.541C113.794 44.7306 112.793 45.5673 111.538 46.0754C110.312 46.5833 109.012 46.8372 107.637 46.8372C106.621 46.8372 105.635 46.688 104.679 46.3893C103.752 46.1203 102.93 45.7017 102.213 45.134C101.496 44.5659 100.928 43.8637 100.51 43.0267C100.091 42.19 99.8819 41.2188 99.8819 40.1131C99.8819 38.8579 100.106 37.7967 100.554 36.9303C101.033 36.0634 101.66 35.3462 102.437 34.7784C103.244 34.2104 104.156 33.7771 105.172 33.4784C106.188 33.1495 107.234 32.9103 108.31 32.7607C109.416 32.6116 110.506 32.5219 111.582 32.4918C112.688 32.462 113.704 32.4473 114.631 32.4473C114.631 31.2516 114.198 30.3102 113.331 29.6227C112.494 28.9054 111.493 28.5468 110.327 28.5468C109.222 28.5468 108.205 28.786 107.279 29.2641C106.382 29.7127 105.575 30.3403 104.858 31.1469L101.272 27.4709C102.527 26.3055 103.992 25.4388 105.665 24.871C107.339 24.2732 109.072 23.9744 110.865 23.9744C112.838 23.9744 114.451 24.2284 115.707 24.7365C116.992 25.2146 118.008 25.9319 118.755 26.8881C119.532 27.8446 120.07 29.0252 120.369 30.4296C120.668 31.8046 120.817 33.4034 120.817 35.2264V42.6251C120.817 44.6541 119.172 46.2996 117.143 46.2996H114.631V43.565ZM112.972 36.7506C112.464 36.7506 111.822 36.7807 111.044 36.8402C110.297 36.8704 109.565 36.9898 108.848 37.1989C108.161 37.4083 107.563 37.7221 107.055 38.1403C106.577 38.5588 106.337 39.1416 106.337 39.889C106.337 40.6959 106.681 41.2934 107.368 41.6818C108.056 42.0706 108.773 42.2646 109.52 42.2646C110.178 42.2646 110.806 42.1749 111.403 41.9956C112.031 41.8163 112.584 41.5624 113.062 41.2335C113.54 40.905 113.914 40.4865 114.183 39.9783C114.482 39.4705 114.631 38.8726 114.631 38.1855V36.7506H112.972Z" fill="#DC244C"/>
<path d="M125.485 28.1863C125.485 26.1571 127.13 24.512 129.16 24.512H131.941V27.4705H132.03C132.24 27.0524 132.538 26.6339 132.927 26.2155C133.315 25.7971 133.779 25.4235 134.317 25.0947C134.855 24.766 135.467 24.497 136.155 24.2878C136.842 24.0786 137.589 23.974 138.396 23.974C140.1 23.974 141.474 24.243 142.521 24.7809C143.566 25.289 144.373 26.0063 144.941 26.9326C145.539 27.8593 145.942 28.9499 146.152 30.2051C146.361 31.4603 146.466 32.8203 146.466 34.2849V42.6243C146.466 44.6538 144.82 46.2992 142.791 46.2992H139.741V35.6295C139.741 35.0019 139.711 34.3595 139.651 33.7018C139.621 33.0147 139.487 32.3871 139.248 31.8193C139.039 31.2512 138.695 30.7879 138.217 30.4293C137.769 30.0706 137.111 29.8913 136.244 29.8913C135.378 29.8913 134.675 30.0559 134.137 30.3844C133.6 30.6835 133.181 31.1017 132.882 31.6397C132.613 32.1478 132.434 32.7306 132.344 33.388C132.255 34.0457 132.21 34.7329 132.21 35.4501V42.6243C132.21 44.6538 130.565 46.2992 128.535 46.2992H125.485V28.1863Z" fill="#DC244C"/>
<path d="M166.515 26.2168C166.515 28.246 164.87 29.8911 162.841 29.8911H160.598V37.1538C160.598 37.7513 160.628 38.3043 160.687 38.8122C160.747 39.2906 160.882 39.7088 161.091 40.0674C161.3 40.426 161.614 40.7101 162.032 40.9195C162.481 41.0988 163.063 41.1881 163.781 41.1881C164.139 41.1881 164.603 41.1584 165.17 41.0985C165.768 41.0088 166.217 40.8299 166.515 40.5609V43.7666C166.515 45.2051 165.614 46.5434 164.184 46.7021C163.377 46.7918 162.585 46.8366 161.808 46.8366C160.673 46.8366 159.627 46.7172 158.67 46.478C157.714 46.2392 156.877 45.8654 156.16 45.3576C155.442 44.8197 154.875 44.1322 154.456 43.2951C154.068 42.4584 153.873 41.4424 153.873 40.2471V29.8911H149.57V28.1861C149.57 26.1569 151.215 24.5118 153.244 24.5118H153.873V21.7309C153.873 19.7015 155.519 18.0563 157.548 18.0563H160.598V24.5118H166.515V26.2168Z" fill="#DC244C"/>
<path fill-rule="evenodd" clip-rule="evenodd" d="M38.6234 51.4767L37.5067 20.6899L35.4844 12.5732L48.9828 14.0022V51.2437L40.7371 56.0026L38.6234 51.4767Z" fill="#24386C"/>
<path fill-rule="evenodd" clip-rule="evenodd" d="M48.9815 14L40.7359 18.7622L23.7198 15.0296L3.80271 23.139L0.484375 14L12.6067 7L24.7327 0L36.8553 7L48.9815 14Z" fill="#7589BE"/>
<path fill-rule="evenodd" clip-rule="evenodd" d="M0.484375 13.9994L8.73004 18.7616L13.5099 32.9769L29.6488 45.89L24.733 55.9994L12.6071 48.999L0.484375 41.999V13.9994Z" fill="#B2BFE8"/>
<path fill-rule="evenodd" clip-rule="evenodd" d="M30.201 38.4209L24.7344 46.4799V56.0006L32.4913 51.525L36.4881 45.5569" fill="#24386C"/>
<path fill-rule="evenodd" clip-rule="evenodd" d="M24.7368 36.9622L16.9766 23.5262L18.6481 19.0731L25.0025 15.9922L32.4904 23.5265L24.7368 36.9622Z" fill="#7589BE"/>
<path fill-rule="evenodd" clip-rule="evenodd" d="M16.9756 23.5254L24.7326 28.001V36.9595L17.5584 37.2682L13.2188 31.727L16.9756 23.5254Z" fill="#B2BFE8"/>
<path fill-rule="evenodd" clip-rule="evenodd" d="M24.7344 27.9996L32.4913 23.5244L37.7705 32.3147L31.382 37.5931L24.7344 36.9585V27.9996Z" fill="#24386C"/>
<path fill-rule="evenodd" clip-rule="evenodd" d="M32.49 51.524L40.7357 56V18.7622L32.7326 14.1433L24.7331 9.52441L16.7299 14.1433L8.73047 18.7622V37.2411L16.7299 41.86L24.7331 46.4793L32.49 41.9996V51.524ZM32.49 32.4789L24.7331 36.9582L16.9761 32.4789V23.524L24.7331 19.0448L32.49 23.524V32.4789Z" fill="#DC244C"/>
<path d="M24.7361 46.4828V36.9606L17.0195 32.5195V42.0259L24.7361 46.4828Z" fill="url(#paint0_linear_4688_32443)"/>
</g>
<defs>
<linearGradient id="paint0_linear_4688_32443" x1="23.3133" y1="38.7809" x2="15.6239" y2="38.7809" gradientUnits="userSpaceOnUse">
<stop stop-color="#FF3364"/>
<stop offset="1" stop-color="#C91540" stop-opacity="0"/>
</linearGradient>
<clipPath id="clip0_4688_32443">
<rect width="166.03" height="56" fill="white" transform="translate(0.484375)"/>
</clipPath>
</defs>
</svg>
