<svg xmlns="http://www.w3.org/2000/svg" width="120" height="60"><style><![CDATA[.B{fill:#3b2d55}.C{fill:#57d1e5}.D{stroke:#3b2d55}.E{stroke-width:1.26}.F{stroke-linejoin:round}.G{stroke-linecap:round}]]></style><path d="M43.356 27.77c0-.704.83-.953 1.41-.953.497 0 1.16.207 1.492.622l1.41-1.533c-.787-.704-1.823-.994-2.86-.994-1.865 0-3.605 1.036-3.605 3.066 0 3.15 4.392 2.196 4.392 3.936 0 .663-.746.994-1.45.994s-1.367-.33-1.823-.87l-1.41 1.575c.87.83 1.947 1.16 3.15 1.16 1.947 0 3.605-.994 3.605-3.108 0-3.273-4.31-2.155-4.31-3.895m10.94 2.072c0-1.74 1.16-3.025 2.735-3.025.787 0 1.367.3 1.782.787l1.575-1.326c-.787-.994-2.113-1.367-3.15-1.367-2.942 0-5.055 1.906-5.055 4.93s2.113 4.93 5.055 4.93c1.284 0 2.6-.497 3.398-1.616l-1.74-1.284c-.414.622-1.12.994-1.947.994-1.492 0-2.652-1.284-2.652-3.025m15.29.704l3.522-5.386h-2.445l-2.113 3.522-1.99-3.522h-2.57l3.522 5.386v4.02h2.072zm7.707 3.978h5.884V32.62h-3.812V25.16H77.29zm10.566 0h5.884V32.62H89.93V25.16h-2.072zm19.39 0l-4.102-9.406h-1.7l-4.06 9.406h2.28l.787-1.99.663-1.74 1.16-2.9 1.16 2.9.704 1.74.83 1.99z" fill="#372950"/><path d="M114.624 34.98c.912-.33 1.367-1.326 1.036-2.237s-1.326-1.367-2.237-1.036-1.367 1.326-1.036 2.237c.3.912 1.326 1.367 2.237 1.036" fill="#b194c5"/><g transform="matrix(.473574 0 0 .473574 8.245872 13.692264)"><g class="C"><path d="M15.3 63.5c.4 2.1-.9 4.1-3 4.6-2.1.4-4.1-.9-4.6-3C7.7 65.1.6 31.8.6 25 .6 10.8 11.9.7 27.8.7S55 10.7 55 24.9c0 6.8-7.1 40.1-7.1 40.1-.4 2.1-2.4 3.5-4.5 3.1s-3.5-2.4-3.1-4.5" class="D E F G"/><path d="M46.2 54l-1.9 10.8c-.3 2.1-2.3 3.6-4.4 3.3s-3.6-2.3-3.3-4.4"/></g><path d="M46.6 54l-.9 5.7-.5 2.8L45 64l-.3 1.5c-.7 2.4-3.2 3.7-5.6 3-1-.3-1.8-.9-2.4-1.7-.6-.9-.9-2.1-.7-3.2 0-.3.4-.6.7-.5.3 0 .6.4.5.7-.2 1.7.9 3.2 2.6 3.5 1.6.3 3.3-.6 3.8-2.2.1-.3.2-.9.3-1.3l.3-1.4.5-2.8 1.1-5.6a.55.55 0 0 1 .5-.3c.2 0 .3.2.3.3z" class="B"/><circle r="12.1" cy="22.4" cx="18.6" fill="#fff" class="D E F"/><path d="M21.1 14.4c-2.1.4-2.5 5-1.3 6.3.8.8 2.5 1.1 2.5 1.7s-1.7.9-2.5 1.7c-1.3 1.3-.8 5.9 1.3 6.3 2.5.5 6.3-2.5 6.3-8s-3.8-8.5-6.3-8z" class="B"/><g fill="#fff" class="D F G"><path d="M12.8 38.7c.4 1.3 1.7 3.3 3.4 2.9.8-.2 1.3-1.3 1.3-2.9" stroke-width="1.05"/><path d="M23.6 37.9c.4 1.7.8 2.9 2.1 2.9s2.9-1.7 2.5-4.6" class="E"/></g><path d="M10.3 37.8c8.1 1.2 16.3-.8 23-5.4.3-.1.7 0 .8.3.1.2.1.5-.1.7-7 4.8-15.5 6.7-23.9 5.5-.3-.1-.4-.4-.3-.7.2-.3.3-.4.5-.4zm24-3.5a2.66 2.66 0 0 0-2.3-2.1c-.3.1-.7-.1-.7-.5-.1-.3.1-.7.5-.7h.4c1.6.3 2.8 1.6 3 3.2 0 .2-.2.4-.4.4-.3.1-.5-.1-.5-.3z" class="B"/><path d="M19 63.7c.3 2.1-1.1 4.1-3.3 4.4-2.1.3-4.1-1.1-4.4-3.3L9.5 54" class="C"/><path d="M19.7 63.6c.3 2.5-1.5 4.7-3.9 5-2.2.3-4.2-1.1-4.8-3.1l-.3-1.5-.6-4.2c-.5-2-.8-3.9-1.1-5.8 0-.2.2-.4.4-.4s.4.1.4.3l1.1 5.6.9 4.2.3 1.3c.5 1.6 2.1 2.6 3.8 2.2 1.6-.4 2.7-1.9 2.5-3.5 0-.3.2-.7.5-.7.4-.1.7.2.8.6z" class="B"/><path d="M24.6 63.9c.1 2.1-1.5 4-3.7 4.1-2 .1-3.8-1.4-4-3.4l-1.2-10.8" class="C"/><path d="M25.3 63.9c.1 2.5-1.8 4.6-4.3 4.7-2.2.1-4.1-1.3-4.6-3.4-.1-.5-.2-1-.2-1.5l-.1-1.4-.3-2.8-.5-5.7c0-.2.2-.4.4-.4s.4.1.4.3l1.2 8.5.2 1.4c.1.5.1 1 .2 1.3.4 1.6 2 2.7 3.6 2.4a3.44 3.44 0 0 0 2.8-3.4c0-.3.3-.6.7-.6.2.1.4.3.5.6z" class="B"/><path d="M39.9 53.7l-1.2 10.9c-.2 2.1-2 3.7-4.2 3.5-2.1-.2-3.7-2-3.5-4.2" class="C"/><path d="M40.4 53.7l-.5 5.7-.3 2.8-.1 1.4c0 .5-.1 1-.2 1.5-.3 1.1-.9 2-1.9 2.7-2.1 1.4-4.8.9-6.2-1.2-.6-.8-.8-1.8-.8-2.8.1-.3.4-.6.7-.5.3 0 .5.3.5.6-.1 1.7 1.1 3.1 2.8 3.4 1.6.2 3.2-.8 3.6-2.4l.2-1.3.6-4.2.8-5.7c.1-.2.3-.4.5-.3.1 0 .2.1.3.3z" class="B"/><path d="M32 53.3l-.3 10.9c0 2.1-1.7 3.9-3.9 3.9-2.1 0-3.9-1.7-3.9-3.9l-.3-10.9" class="C"/><path d="M32.4 53.4l-.1 8.4v2.1c0 .8-.1 1.6-.5 2.3-1.1 2.2-3.9 3.1-6.1 1.9-1.2-.6-2.1-1.8-2.3-3.1-.1-.4-.1-.8-.1-1.2v-2.1l-.1-8.4c0-.2.2-.4.4-.4s.4.2.4.4l.5 10.5c0 .3 0 .6.1.9l.3.8c.9 1.6 2.8 2.2 4.4 1.3.6-.3 1-.8 1.3-1.3l.3-.8c.1-.3.1-.6.1-.9l.5-10.5c0-.2.2-.4.4-.4.4 0 .5.2.5.5z" class="B"/></g></svg>