<?xml version="1.0" encoding="UTF-8"?> <svg xmlns="http://www.w3.org/2000/svg" xmlns:xlink="http://www.w3.org/1999/xlink" xmlns:lucid="lucid" width="1095.14" height="627.81"><g transform="translate(-390.22222222222223 -212.19322759567763)" lucid:page-tab-id="czuzoAE7o0FE"><path d="M0 0h1760v1360H0z" fill="#fff"></path><path d="M420 684c0-2.2 1.8-4 4-4h1032c2.2 0 4 1.8 4 4v132c0 2.2-1.8 4-4 4H424c-2.2 0-4-1.8-4-4z" stroke="#5e5e5e" stroke-width="3" fill="#ec3b26" fill-opacity=".47"></path><use xlink:href="#a" transform="matrix(1,0,0,1,432,692) translate(422.25925925925924 65.20833333333333)"></use><use xlink:href="#b" transform="matrix(1,0,0,1,432,692) translate(525.7407407407406 65.20833333333333)"></use><path d="M636.7 677.5h-2v-3.98h2zm0-11.95h-2v-7.97h2zm0-15.93h-2v-7.97h2zm0-15.94h-2V632h2zm0-49.68h-2v-6.08h2zm0-14.05h-2v-7.97h2zm0-15.93h-2v-7.97h2zm0-15.94h-2v-7.96h2zm0-15.93h-2v-7.97h2zm0-15.93h-2v-7.97h2zm0-15.94h-2v-7.96h2zm0-15.93h-2v-7.96h2zm0-15.93h-2v-7.97h2zm0-15.93h-2v-4h2zM640.34 437.5h-9.27l4.64-14.26z" fill="#5e5e5e"></path><path d="M641.72 438.5H629.7l6-18.5zm-9.27-2h6.52l-3.26-10.03zM636.7 678.5h-2v-1.03h2z" fill="#5e5e5e"></path><use xlink:href="#c" transform="matrix(1,0,0,1,557.4031151596945,584) translate(0.0049999999999954525 16)"></use><use xlink:href="#d" transform="matrix(1,0,0,1,557.4031151596945,584) translate(50.004999999999995 16)"></use><use xlink:href="#e" transform="matrix(1,0,0,1,557.4031151596945,584) translate(117.72722222222222 16)"></use><use xlink:href="#f" transform="matrix(1,0,0,1,557.4031151596945,584) translate(31.199444444444445 40)"></use><use xlink:href="#g" transform="matrix(1,0,0,1,557.4031151596945,584) translate(60.032777777777774 40)"></use><path d="M746.7 677.5h-2v-3.98h2zm0-11.95h-2v-7.97h2zm0-15.93h-2v-7.97h2zm0-15.94h-2v-7.96h2zm0-15.93h-2v-7.97h2zm0-15.93h-2v-7.97h2zm0-15.94h-2v-7.96h2zm0-15.93h-2v-7.97h2zm0-15.93h-2v-7.35h2zm0-55.35h-2v-.42h2zm0-8.4h-2v-7.95h2zm0-15.92h-2v-7.96h2zm0-15.93h-2v-7.97h2zm0-15.93h-2v-4h2zM750.32 437.5h-9.27l4.64-14.26z" fill="#5e5e5e"></path><path d="M751.7 438.5h-12.03l6.02-18.5zm-9.27-2h6.5l-3.24-10.03zM746.7 678.5h-2v-1.03h2z" fill="#5e5e5e"></path><use xlink:href="#c" transform="matrix(1,0,0,1,667.3798487836956,498.66666666666663) translate(0.0049999999999954525 16)"></use><use xlink:href="#d" transform="matrix(1,0,0,1,667.3798487836956,498.66666666666663) translate(50.004999999999995 16)"></use><use xlink:href="#e" transform="matrix(1,0,0,1,667.3798487836956,498.66666666666663) translate(117.72722222222222 16)"></use><use xlink:href="#f" transform="matrix(1,0,0,1,667.3798487836956,498.66666666666663) translate(34.477222222222224 40)"></use><use xlink:href="#h" transform="matrix(1,0,0,1,667.3798487836956,498.66666666666663) translate(63.31055555555555 40)"></use><path d="M970.73 677.5h-2v-3.98h2zm0-11.95h-2v-7.97h2zm0-15.93h-2v-7.97h2zm0-15.94h-2v-7.96h2zm0-15.93h-2v-7.97h2zm0-15.93h-2v-7.97h2zm0-15.94h-2v-7.96h2zm0-15.93h-2v-7.97h2zm0-15.93h-2v-7.97h2zm0-15.94h-2v-3.4h2zm0-51.4h-2v-4.36h2zm0-12.33h-2v-7.96h2zm0-15.93h-2v-7.97h2zm0-15.93h-2v-4h2zM974.37 437.5h-9.27l4.63-14.26z" fill="#5e5e5e"></path><path d="M975.74 438.5h-12.02l6-18.5zm-9.27-2H973l-3.27-10.03zM970.73 678.5h-2v-1.03h2z" fill="#5e5e5e"></path><use xlink:href="#i" transform="matrix(1,0,0,1,882.621441649799,486.6666666666667) translate(12.754999999999995 16)"></use><use xlink:href="#j" transform="matrix(1,0,0,1,882.621441649799,486.6666666666667) translate(99.31055555555557 16)"></use><use xlink:href="#k" transform="matrix(1,0,0,1,882.621441649799,486.6666666666667) translate(0.0049999999999954525 40)"></use><use xlink:href="#l" transform="matrix(1,0,0,1,882.621441649799,486.6666666666667) translate(63.28277777777778 40)"></use><use xlink:href="#m" transform="matrix(1,0,0,1,882.621441649799,486.6666666666667) translate(92.11611111111111 40)"></use><path d="M1242.43 660h-2v-4h2zm0-11.95h-2v-7.97h2zm0-15.94h-2v-7.95h2zm0-15.92h-2v-7.96h2zm0-15.93h-2v-7.97h2zm0-15.93h-2v-7.97h2zm0-15.94h-2v-7.96h2zm0-15.93h-2v-7.97h2zm0-15.93h-2v-7.97h2zm0-15.94h-2v-7.96h2zm0-63.73h-2v-7.97h2zm0-15.93h-2v-7.97h2zm0-15.94h-2V421h2z" fill="#5e5e5e"></path><path d="M1242.43 421.03h-2V420h2zM1241.43 675.26L1236.8 661h9.27z" fill="#5e5e5e"></path><path d="M1241.43 678.5l-6-18.5h12zm-3.26-16.5l3.26 10.03 3.26-10.03z" fill="#5e5e5e"></path><use xlink:href="#n" transform="matrix(1,0,0,1,1159.0980656770134,464.22058099458394) translate(0.0049999999999954525 16)"></use><use xlink:href="#d" transform="matrix(1,0,0,1,1159.0980656770134,464.22058099458394) translate(54.727222222222224 16)"></use><use xlink:href="#o" transform="matrix(1,0,0,1,1159.0980656770134,464.22058099458394) translate(122.44944444444445 16)"></use><use xlink:href="#p" transform="matrix(1,0,0,1,1159.0980656770134,464.22058099458394) translate(5.75500000000001 40)"></use><use xlink:href="#q" transform="matrix(1,0,0,1,1159.0980656770134,464.22058099458394) translate(11.310555555555565 40)"></use><use xlink:href="#r" transform="matrix(1,0,0,1,1159.0980656770134,464.22058099458394) translate(33.53277777777779 40)"></use><use xlink:href="#s" transform="matrix(1,0,0,1,1159.0980656770134,464.22058099458394) translate(102.31055555555555 40)"></use><path d="M602.1 285c0 22.1-27.33 40-61.05 40S480 307.1 480 285s27.33-40 61.05-40 61.06 17.9 61.06 40z" stroke="#000" stroke-opacity="0" stroke-width="3" fill="#e5e5e5"></path><use xlink:href="#t" transform="matrix(1,0,0,1,485,250) translate(20.47222222222223 27)"></use><use xlink:href="#u" transform="matrix(1,0,0,1,485,250) translate(-1.1388888888888715 51)"></use><path d="M822.1 285c0 24.85-27.33 45-61.05 45S700 309.85 700 285s27.33-45 61.05-45 61.06 20.15 61.06 45z" stroke="#000" stroke-opacity="0" stroke-width="3" fill="#e5e5e5"></path><use xlink:href="#v" transform="matrix(1,0,0,1,705,245) translate(27.69444444444445 20.000000000000007)"></use><use xlink:href="#w" transform="matrix(1,0,0,1,705,245) translate(7.750000000000007 44)"></use><use xlink:href="#x" transform="matrix(1,0,0,1,705,245) translate(90.86111111111111 44)"></use><use xlink:href="#y" transform="matrix(1,0,0,1,705,245) translate(6.055555555555557 68)"></use><path d="M1162.1 285c0 22.1-27.33 40-61.05 40S1040 307.1 1040 285s27.33-40 61.05-40 61.06 17.9 61.06 40z" stroke="#000" stroke-opacity="0" stroke-width="3" fill="#e5e5e5"></path><use xlink:href="#z" transform="matrix(1,0,0,1,1045,250) translate(7.7222222222222285 40.0625)"></use><path d="M1460 285c0 22.1-27.33 40-61.05 40s-61.06-17.9-61.06-40 27.33-40 61.05-40 61.05 17.9 61.05 40z" stroke="#000" stroke-opacity="0" stroke-width="3" fill="#e5e5e5"></path><use xlink:href="#A" transform="matrix(1,0,0,1,1342.8947368421052,250) translate(5.027777777777786 40.0625)"></use><path d="M823.1 285h198.4" stroke="#5e5e5e" stroke-width="2" fill="none"></path><path d="M823.13 286h-1.07l.05-1v-.5l-.03-.5h1.06z" fill="#5e5e5e"></path><path d="M1036.76 285l-14.26 4.64v-9.28z" stroke="#5e5e5e" stroke-width="2" fill="#5e5e5e"></path><path d="M1163.1 285h156.3" stroke="#5e5e5e" stroke-width="2" fill="none"></path><path d="M1163.13 286h-1.07l.05-1v-.4l-.03-.6h1.06z" fill="#5e5e5e"></path><path d="M1334.66 285l-14.27 4.64v-9.28z" stroke="#5e5e5e" stroke-width="2" fill="#5e5e5e"></path><path d="M423.5 420h437.83M423.55 420h-2.05M861.28 420h2.05" stroke="#0c7cba" stroke-width="4" fill="none"></path><use xlink:href="#B" transform="matrix(1,0,0,1,433.0277777777967,392) translate(0 16)"></use><use xlink:href="#C" transform="matrix(1,0,0,1,433.0277777777967,392) translate(48.777777777777786 16)"></use><use xlink:href="#D" transform="matrix(1,0,0,1,433.0277777777967,392) translate(139.72222222222223 16)"></use><use xlink:href="#E" transform="matrix(1,0,0,1,433.0277777777967,392) translate(150.83333333333334 16)"></use><use xlink:href="#F" transform="matrix(1,0,0,1,433.0277777777967,392) translate(199.61111111111114 16)"></use><use xlink:href="#D" transform="matrix(1,0,0,1,433.0277777777967,392) translate(288.33333333333337 16)"></use><use xlink:href="#G" transform="matrix(1,0,0,1,433.0277777777967,392) translate(299.44444444444446 16)"></use><use xlink:href="#H" transform="matrix(1,0,0,1,433.0277777777967,392) translate(333.3888888888889 16)"></use><path d="M882 420h428.67M882.05 420H880M1310.62 420h2.05" stroke="#de5f85" stroke-width="4" fill="none"></path><use xlink:href="#I" transform="matrix(1,0,0,1,947.2222222222224,392) translate(0 16)"></use><use xlink:href="#J" transform="matrix(1,0,0,1,947.2222222222224,392) translate(103.11111111111113 16)"></use><use xlink:href="#K" transform="matrix(1,0,0,1,947.2222222222224,392) translate(179.7777777777778 16)"></use><path d="M481 660h-2v-4h2zm0-11.95h-2v-7.97h2zm0-15.94h-2v-7.95h2zm0-15.92h-2v-7.96h2zm0-15.93h-2v-7.97h2zm0-15.93h-2v-7.97h2zm0-15.94h-2v-7.96h2zm0-63.73h-2v-7.97h2zm0-15.93h-2v-7.97h2zm0-15.94h-2v-7.96h2zm0-15.93h-2v-7.97h2zm0-15.93h-2v-7.97h2zm0-15.94h-2V421h2z" fill="#5e5e5e"></path><path d="M481 421.03h-2V420h2zM480 675.26L475.36 661h9.28z" fill="#5e5e5e"></path><path d="M480 678.5l-6-18.5h12zm-3.26-16.5l3.26 10.03 3.26-10.03z" fill="#5e5e5e"></path><g><use xlink:href="#L" transform="matrix(1,0,0,1,401.22222222222223,505.33333333333337) translate(0 16)"></use><use xlink:href="#M" transform="matrix(1,0,0,1,401.22222222222223,505.33333333333337) translate(63.22222222222223 16)"></use><use xlink:href="#N" transform="matrix(1,0,0,1,401.22222222222223,505.33333333333337) translate(102.11111111111111 16)"></use><use xlink:href="#p" transform="matrix(1,0,0,1,401.22222222222223,505.33333333333337) translate(0 40)"></use><use xlink:href="#O" transform="matrix(1,0,0,1,401.22222222222223,505.33333333333337) translate(5.555555555555555 40)"></use><use xlink:href="#P" transform="matrix(1,0,0,1,401.22222222222223,505.33333333333337) translate(33.333333333333336 40)"></use><use xlink:href="#Q" transform="matrix(1,0,0,1,401.22222222222223,505.33333333333337) translate(75.5 40)"></use></g><path d="M500 677.5h-2v-3.98h2zm0-11.95h-2v-7.97h2zm0-15.93h-2v-7.97h2zm0-15.94h-2v-7.96h2zm0-15.93h-2v-7.97h2zm0-15.93h-2v-7.97h2zm0-15.94h-2v-7.96h2zm0-15.93h-2v-7.97h2zm0-15.93h-2v-.7h2zm0-48.7h-2v-7.07h2zm0-15.04h-2v-7.96h2zm0-15.93h-2v-7.96h2zm0-15.93h-2v-7.97h2zm0-15.93h-2v-4h2zM503.64 437.5h-9.28l4.64-14.26z" fill="#5e5e5e"></path><path d="M505 438.5h-12l6-18.5zm-9.26-2h6.52L499 426.47zM500 678.5h-2v-1.03h2zM1108.72 660h-2v-4h2zm0-11.95h-2v-7.97h2zm0-15.94h-2v-7.95h2zm0-15.92h-2v-7.96h2zm0-63.73h-2v-7.97h2zm0-15.93h-2v-7.97h2zm0-15.94h-2v-7.96h2zm0-15.93h-2v-7.97h2zm0-15.93h-2v-7.97h2zm0-15.94h-2v-7.96h2zm0-15.93h-2v-7.97h2zm0-15.93h-2v-7.97h2zm0-15.94h-2V421h2z" fill="#5e5e5e"></path><path d="M1108.72 421.03h-2V420h2zM1107.72 675.26l-4.64-14.26h9.27z" fill="#5e5e5e"></path><path d="M1107.72 678.5l-6-18.5h12zm-3.26-16.5l3.26 10.03 3.26-10.03z" fill="#5e5e5e"></path><g><use xlink:href="#R" transform="matrix(1,0,0,1,1015.6081681222317,558.6666666666666) translate(1.0605555555555526 16)"></use><use xlink:href="#S" transform="matrix(1,0,0,1,1015.6081681222317,558.6666666666666) translate(39.94944444444444 16)"></use><use xlink:href="#T" transform="matrix(1,0,0,1,1015.6081681222317,558.6666666666666) translate(105.44944444444444 16)"></use><use xlink:href="#U" transform="matrix(1,0,0,1,1015.6081681222317,558.6666666666666) translate(0.0049999999999954525 40)"></use><use xlink:href="#V" transform="matrix(1,0,0,1,1015.6081681222317,558.6666666666666) translate(97.61611111111111 40)"></use></g><path d="M1400.88 677.5h-2v-3.98h2zm0-11.95h-2v-7.97h2zm0-15.93h-2v-7.97h2zm0-15.94h-2v-7.96h2zm0-85.68h-2v-1.95h2zm0-9.92h-2v-7.96h2zm0-15.93h-2v-7.97h2zm0-15.93h-2v-7.97h2zm0-15.94h-2v-7.96h2zm0-15.93h-2v-7.96h2zm0-15.93h-2v-7.97h2zm0-15.93h-2v-4h2zM1404.52 437.5h-9.27l4.63-14.26z" fill="#5e5e5e"></path><path d="M1405.9 438.5h-12.03l6-18.5zm-9.27-2h6.5l-3.25-10.03zM1400.88 678.5h-2v-1.03h2z" fill="#5e5e5e"></path><g><use xlink:href="#W" transform="matrix(1,0,0,1,1342.2177185193443,548) translate(10.004999999999995 16)"></use><use xlink:href="#X" transform="matrix(1,0,0,1,1342.2177185193443,548) translate(82.06055555555555 16)"></use><use xlink:href="#Y" transform="matrix(1,0,0,1,1342.2177185193443,548) translate(0.005000000000002558 40)"></use><use xlink:href="#Z" transform="matrix(1,0,0,1,1342.2177185193443,548) translate(38.78277777777778 40)"></use><use xlink:href="#aa" transform="matrix(1,0,0,1,1342.2177185193443,548) translate(57.67166666666667 40)"></use><use xlink:href="#p" transform="matrix(1,0,0,1,1342.2177185193443,548) translate(26.588333333333324 64)"></use><use xlink:href="#s" transform="matrix(1,0,0,1,1342.2177185193443,548) translate(32.14388888888888 64)"></use></g><path d="M1341.33 420h115.17M1341.38 420h-2.05M1456.45 420h2.05" stroke="#0c7cba" stroke-width="4" fill="none"></path><g><use xlink:href="#ab" transform="matrix(1,0,0,1,1333.4722222222226,392.0000000000002) translate(0 16)"></use><use xlink:href="#ac" transform="matrix(1,0,0,1,1333.4722222222226,392.0000000000002) translate(33.27777777777778 16)"></use><use xlink:href="#ad" transform="matrix(1,0,0,1,1333.4722222222226,392.0000000000002) translate(44.388888888888886 16)"></use><use xlink:href="#D" transform="matrix(1,0,0,1,1333.4722222222226,392.0000000000002) translate(77.66666666666666 16)"></use><use xlink:href="#ae" transform="matrix(1,0,0,1,1333.4722222222226,392.0000000000002) translate(88.77777777777777 16)"></use></g><path d="M714.35 254.75l-1.68-1.9-2.5-2.57-2.65-2.5-2.8-2.44-2.95-2.36-3.1-2.28-3.24-2.17-3.38-2.07-3.52-1.96-3.63-1.82-3.74-1.7-3.83-1.52-3.9-1.38-3.97-1.22-4-1.04-4-.87-3.98-.7-3.96-.5-3.9-.36-3.86-.2H642l-3.68.13-3.57.28-3.47.43-3.34.56-3.24.66-3.1.78-3 .9-2.9.98-2.76 1.08-2.65 1.17-2.56 1.25-2.45 1.33-2.36 1.4-2.25 1.5-2.17 1.54-2.08 1.62-2 1.7-.67.64" stroke="#5e5e5e" stroke-width="2" fill="none"></path><path d="M715.78 254.84l-1.52 1.3-.67-.75 1.48-1.34z" fill="#5e5e5e"></path><path d="M584.2 252.98l5.4-14 7.2 5.83z" stroke="#5e5e5e" stroke-width="2" fill="#5e5e5e"></path><path d="M574.4 319.54l.58 1.35 1.03 2.17 1.1 2.1 1.18 2.02 1.25 1.95 1.32 1.9 1.4 1.83 1.47 1.78 1.56 1.73 1.65 1.66 1.74 1.63 1.83 1.56 1.93 1.53 2.05 1.47 2.15 1.43 2.28 1.37 2.4 1.32 2.56 1.24 2.68 1.2 2.83 1.1 3 1.04 3.15.95 3.32.84 3.5.74 3.64.62 3.83.48 4 .32 4.12.17 4.26-.02 4.37-.2 4.45-.37 4.5-.57 4.55-.77 4.52-.97 4.48-1.17 4.4-1.34 4.3-1.52 4.18-1.66 4.02-1.8 3.85-1.9 3.66-2.03 3.48-2.13 3.3-2.2 3.1-2.25 2.9-2.3 1.86-1.62" stroke="#5e5e5e" stroke-width="2" fill="none"></path><path d="M575.34 319.18l-1.84.77-.4-.96 1.84-.75z" fill="#5e5e5e"></path><path d="M718.32 321.02l-6.14 13.68-6.87-6.23z" stroke="#5e5e5e" stroke-width="2" fill="#5e5e5e"></path><defs><path fill="#333" d="M76-208v77h127v40H76V0H24v-248h183v40H76" id="af"></path><path fill="#333" d="M185-48c-13 30-37 53-82 52C43 2 14-33 14-96s30-98 90-98c62 0 83 45 84 108H66c0 31 8 55 39 56 18 0 30-7 34-22zm-45-69c5-46-57-63-70-21-2 6-4 13-4 21h74" id="ag"></path><path fill="#333" d="M133-34C117-15 103 5 69 4 32 3 11-16 11-54c-1-60 55-63 116-61 1-26-3-47-28-47-18 1-26 9-28 27l-52-2c7-38 36-58 82-57s74 22 75 68l1 82c-1 14 12 18 25 15v27c-30 8-71 5-69-32zm-48 3c29 0 43-24 42-57-32 0-66-3-65 30 0 17 8 27 23 27" id="ah"></path><path fill="#333" d="M115-3C79 11 28 4 28-45v-112H4v-33h27l15-45h31v45h36v33H77v99c-1 23 16 31 38 25v30" id="ai"></path><path fill="#333" d="M85 4C-2 5 27-109 22-190h50c7 57-23 150 33 157 60-5 35-97 40-157h50l1 190h-47c-2-12 1-28-3-38-12 25-28 42-61 42" id="aj"></path><path fill="#333" d="M135-150c-39-12-60 13-60 57V0H25l-1-190h47c2 13-1 29 3 40 6-28 27-53 61-41v41" id="ak"></path><g id="a"><use transform="matrix(0.07407407407407407,0,0,0.07407407407407407,0,0)" xlink:href="#af"></use><use transform="matrix(0.07407407407407407,0,0,0.07407407407407407,16.22222222222222,0)" xlink:href="#ag"></use><use transform="matrix(0.07407407407407407,0,0,0.07407407407407407,31.037037037037035,0)" xlink:href="#ah"></use><use transform="matrix(0.07407407407407407,0,0,0.07407407407407407,45.85185185185185,0)" xlink:href="#ai"></use><use transform="matrix(0.07407407407407407,0,0,0.07407407407407407,54.666666666666664,0)" xlink:href="#aj"></use><use transform="matrix(0.07407407407407407,0,0,0.07407407407407407,70.88888888888889,0)" xlink:href="#ak"></use><use transform="matrix(0.07407407407407407,0,0,0.07407407407407407,81.25925925925925,0)" xlink:href="#ag"></use></g><path fill="#333" d="M169-182c-1-43-94-46-97-3 18 66 151 10 154 114 3 95-165 93-204 36-6-8-10-19-12-30l50-8c3 46 112 56 116 5-17-69-150-10-154-114-4-87 153-88 188-35 5 8 8 18 10 28" id="al"></path><path fill="#333" d="M110-194c64 0 96 36 96 99 0 64-35 99-97 99-61 0-95-36-95-99 0-62 34-99 96-99zm-1 164c35 0 45-28 45-65 0-40-10-65-43-65-34 0-45 26-45 65 0 36 10 65 43 65" id="am"></path><g id="b"><use transform="matrix(0.07407407407407407,0,0,0.07407407407407407,0,0)" xlink:href="#al"></use><use transform="matrix(0.07407407407407407,0,0,0.07407407407407407,17.77777777777778,0)" xlink:href="#ai"></use><use transform="matrix(0.07407407407407407,0,0,0.07407407407407407,26.592592592592595,0)" xlink:href="#am"></use><use transform="matrix(0.07407407407407407,0,0,0.07407407407407407,42.814814814814824,0)" xlink:href="#ak"></use><use transform="matrix(0.07407407407407407,0,0,0.07407407407407407,53.18518518518519,0)" xlink:href="#ag"></use></g><path fill="#333" d="M30 0v-248h33v221h125V0H30" id="an"></path><path fill="#333" d="M100-194c62-1 85 37 85 99 1 63-27 99-86 99S16-35 15-95c0-66 28-99 85-99zM99-20c44 1 53-31 53-75 0-43-8-75-51-75s-53 32-53 75 10 74 51 75" id="ao"></path><path fill="#333" d="M141-36C126-15 110 5 73 4 37 3 15-17 15-53c-1-64 63-63 125-63 3-35-9-54-41-54-24 1-41 7-42 31l-33-3c5-37 33-52 76-52 45 0 72 20 72 64v82c-1 20 7 32 28 27v20c-31 9-61-2-59-35zM48-53c0 20 12 33 32 33 41-3 63-29 60-74-43 2-92-5-92 41" id="ap"></path><path fill="#333" d="M85-194c31 0 48 13 60 33l-1-100h32l1 261h-30c-2-10 0-23-3-31C134-8 116 4 85 4 32 4 16-35 15-94c0-66 23-100 70-100zm9 24c-40 0-46 34-46 75 0 40 6 74 45 74 42 0 51-32 51-76 0-42-9-74-50-73" id="aq"></path><g id="c"><use transform="matrix(0.05555555555555555,0,0,0.05555555555555555,0,0)" xlink:href="#an"></use><use transform="matrix(0.05555555555555555,0,0,0.05555555555555555,11.11111111111111,0)" xlink:href="#ao"></use><use transform="matrix(0.05555555555555555,0,0,0.05555555555555555,22.22222222222222,0)" xlink:href="#ap"></use><use transform="matrix(0.05555555555555555,0,0,0.05555555555555555,33.33333333333333,0)" xlink:href="#aq"></use></g><path fill="#333" d="M101-234c-31-9-42 10-38 44h38v23H63V0H32v-167H5v-23h27c-7-52 17-82 69-68v24" id="ar"></path><path fill="#333" d="M100-194c63 0 86 42 84 106H49c0 40 14 67 53 68 26 1 43-12 49-29l28 8c-11 28-37 45-77 45C44 4 14-33 15-96c1-61 26-98 85-98zm52 81c6-60-76-77-97-28-3 7-6 17-6 28h103" id="as"></path><path fill="#333" d="M59-47c-2 24 18 29 38 22v24C64 9 27 4 27-40v-127H5v-23h24l9-43h21v43h35v23H59v120" id="at"></path><path fill="#333" d="M84 4C-5 8 30-112 23-190h32v120c0 31 7 50 39 49 72-2 45-101 50-169h31l1 190h-30c-1-10 1-25-2-33-11 22-28 36-60 37" id="au"></path><path fill="#333" d="M114-163C36-179 61-72 57 0H25l-1-190h30c1 12-1 29 2 39 6-27 23-49 58-41v29" id="av"></path><g id="d"><use transform="matrix(0.05555555555555555,0,0,0.05555555555555555,0,0)" xlink:href="#ar"></use><use transform="matrix(0.05555555555555555,0,0,0.05555555555555555,5.555555555555555,0)" xlink:href="#as"></use><use transform="matrix(0.05555555555555555,0,0,0.05555555555555555,16.666666666666664,0)" xlink:href="#ap"></use><use transform="matrix(0.05555555555555555,0,0,0.05555555555555555,27.777777777777775,0)" xlink:href="#at"></use><use transform="matrix(0.05555555555555555,0,0,0.05555555555555555,33.33333333333333,0)" xlink:href="#au"></use><use transform="matrix(0.05555555555555555,0,0,0.05555555555555555,44.44444444444444,0)" xlink:href="#av"></use><use transform="matrix(0.05555555555555555,0,0,0.05555555555555555,51.05555555555556,0)" xlink:href="#as"></use></g><g id="e"><use transform="matrix(0.05555555555555555,0,0,0.05555555555555555,0,0)" xlink:href="#aq"></use><use transform="matrix(0.05555555555555555,0,0,0.05555555555555555,11.11111111111111,0)" xlink:href="#ap"></use><use transform="matrix(0.05555555555555555,0,0,0.05555555555555555,22.22222222222222,0)" xlink:href="#at"></use><use transform="matrix(0.05555555555555555,0,0,0.05555555555555555,27.77777777777778,0)" xlink:href="#ap"></use></g><g id="f"><use transform="matrix(0.05555555555555555,0,0,0.05555555555555555,0,0)" xlink:href="#ar"></use><use transform="matrix(0.05555555555555555,0,0,0.05555555555555555,5.555555555555555,0)" xlink:href="#ao"></use><use transform="matrix(0.05555555555555555,0,0,0.05555555555555555,16.666666666666664,0)" xlink:href="#av"></use></g><path fill="#333" d="M24-231v-30h32v30H24zM24 0v-190h32V0H24" id="aw"></path><path fill="#333" d="M117-194c89-4 53 116 60 194h-32v-121c0-31-8-49-39-48C34-167 62-67 57 0H25l-1-190h30c1 10-1 24 2 32 11-22 29-35 61-36" id="ax"></path><path fill="#333" d="M177-190C167-65 218 103 67 71c-23-6-38-20-44-43l32-5c15 47 100 32 89-28v-30C133-14 115 1 83 1 29 1 15-40 15-95c0-56 16-97 71-98 29-1 48 16 59 35 1-10 0-23 2-32h30zM94-22c36 0 50-32 50-73 0-42-14-75-50-75-39 0-46 34-46 75s6 73 46 73" id="ay"></path><g id="g"><use transform="matrix(0.05555555555555555,0,0,0.05555555555555555,0,0)" xlink:href="#at"></use><use transform="matrix(0.05555555555555555,0,0,0.05555555555555555,5.555555555555555,0)" xlink:href="#av"></use><use transform="matrix(0.05555555555555555,0,0,0.05555555555555555,12.166666666666666,0)" xlink:href="#ap"></use><use transform="matrix(0.05555555555555555,0,0,0.05555555555555555,23.27777777777778,0)" xlink:href="#aw"></use><use transform="matrix(0.05555555555555555,0,0,0.05555555555555555,27.666666666666668,0)" xlink:href="#ax"></use><use transform="matrix(0.05555555555555555,0,0,0.05555555555555555,38.77777777777778,0)" xlink:href="#aw"></use><use transform="matrix(0.05555555555555555,0,0,0.05555555555555555,43.166666666666664,0)" xlink:href="#ax"></use><use transform="matrix(0.05555555555555555,0,0,0.05555555555555555,54.27777777777777,0)" xlink:href="#ay"></use></g><path fill="#333" d="M135-143c-3-34-86-38-87 0 15 53 115 12 119 90S17 21 10-45l28-5c4 36 97 45 98 0-10-56-113-15-118-90-4-57 82-63 122-42 12 7 21 19 24 35" id="az"></path><g id="h"><use transform="matrix(0.05555555555555555,0,0,0.05555555555555555,0,0)" xlink:href="#at"></use><use transform="matrix(0.05555555555555555,0,0,0.05555555555555555,5.555555555555555,0)" xlink:href="#as"></use><use transform="matrix(0.05555555555555555,0,0,0.05555555555555555,16.666666666666664,0)" xlink:href="#az"></use><use transform="matrix(0.05555555555555555,0,0,0.05555555555555555,26.666666666666664,0)" xlink:href="#at"></use><use transform="matrix(0.05555555555555555,0,0,0.05555555555555555,32.22222222222222,0)" xlink:href="#aw"></use><use transform="matrix(0.05555555555555555,0,0,0.05555555555555555,36.61111111111111,0)" xlink:href="#ax"></use><use transform="matrix(0.05555555555555555,0,0,0.05555555555555555,47.722222222222214,0)" xlink:href="#ay"></use></g><path fill="#333" d="M212-179c-10-28-35-45-73-45-59 0-87 40-87 99 0 60 29 101 89 101 43 0 62-24 78-52l27 14C228-24 195 4 139 4 59 4 22-46 18-125c-6-104 99-153 187-111 19 9 31 26 39 46" id="aA"></path><path fill="#333" d="M210-169c-67 3-38 105-44 169h-31v-121c0-29-5-50-35-48C34-165 62-65 56 0H25l-1-190h30c1 10-1 24 2 32 10-44 99-50 107 0 11-21 27-35 58-36 85-2 47 119 55 194h-31v-121c0-29-5-49-35-48" id="aB"></path><path fill="#333" d="M115-194c55 1 70 41 70 98S169 2 115 4C84 4 66-9 55-30l1 105H24l-1-265h31l2 30c10-21 28-34 59-34zm-8 174c40 0 45-34 45-75s-6-73-45-74c-42 0-51 32-51 76 0 43 10 73 51 73" id="aC"></path><g id="i"><use transform="matrix(0.05555555555555555,0,0,0.05555555555555555,0,0)" xlink:href="#aA"></use><use transform="matrix(0.05555555555555555,0,0,0.05555555555555555,14.388888888888888,0)" xlink:href="#ao"></use><use transform="matrix(0.05555555555555555,0,0,0.05555555555555555,25.5,0)" xlink:href="#aB"></use><use transform="matrix(0.05555555555555555,0,0,0.05555555555555555,42.111111111111114,0)" xlink:href="#aC"></use><use transform="matrix(0.05555555555555555,0,0,0.05555555555555555,53.22222222222223,0)" xlink:href="#au"></use><use transform="matrix(0.05555555555555555,0,0,0.05555555555555555,64.33333333333334,0)" xlink:href="#at"></use><use transform="matrix(0.05555555555555555,0,0,0.05555555555555555,69.8888888888889,0)" xlink:href="#as"></use></g><g id="j"><use transform="matrix(0.05555555555555555,0,0,0.05555555555555555,0,0)" xlink:href="#ar"></use><use transform="matrix(0.05555555555555555,0,0,0.05555555555555555,5.555555555555555,0)" xlink:href="#as"></use><use transform="matrix(0.05555555555555555,0,0,0.05555555555555555,16.666666666666664,0)" xlink:href="#ap"></use><use transform="matrix(0.05555555555555555,0,0,0.05555555555555555,27.777777777777775,0)" xlink:href="#at"></use><use transform="matrix(0.05555555555555555,0,0,0.05555555555555555,33.33333333333333,0)" xlink:href="#au"></use><use transform="matrix(0.05555555555555555,0,0,0.05555555555555555,44.44444444444444,0)" xlink:href="#av"></use><use transform="matrix(0.05555555555555555,0,0,0.05555555555555555,51.05555555555556,0)" xlink:href="#as"></use></g><path fill="#333" d="M108 0H70L1-190h34L89-25l56-165h34" id="aD"></path><path fill="#333" d="M24 0v-261h32V0H24" id="aE"></path><g id="k"><use transform="matrix(0.05555555555555555,0,0,0.05555555555555555,0,0)" xlink:href="#aD"></use><use transform="matrix(0.05555555555555555,0,0,0.05555555555555555,10,0)" xlink:href="#ap"></use><use transform="matrix(0.05555555555555555,0,0,0.05555555555555555,21.11111111111111,0)" xlink:href="#aE"></use><use transform="matrix(0.05555555555555555,0,0,0.05555555555555555,25.5,0)" xlink:href="#au"></use><use transform="matrix(0.05555555555555555,0,0,0.05555555555555555,36.611111111111114,0)" xlink:href="#as"></use><use transform="matrix(0.05555555555555555,0,0,0.05555555555555555,47.72222222222223,0)" xlink:href="#az"></use></g><g id="l"><use transform="matrix(0.05555555555555555,0,0,0.05555555555555555,0,0)" xlink:href="#ar"></use><use transform="matrix(0.05555555555555555,0,0,0.05555555555555555,5.555555555555555,0)" xlink:href="#ao"></use><use transform="matrix(0.05555555555555555,0,0,0.05555555555555555,16.666666666666664,0)" xlink:href="#av"></use></g><path fill="#333" d="M96-169c-40 0-48 33-48 73s9 75 48 75c24 0 41-14 43-38l32 2c-6 37-31 61-74 61-59 0-76-41-82-99-10-93 101-131 147-64 4 7 5 14 7 22l-32 3c-4-21-16-35-41-35" id="aF"></path><g id="m"><use transform="matrix(0.05555555555555555,0,0,0.05555555555555555,0,0)" xlink:href="#aw"></use><use transform="matrix(0.05555555555555555,0,0,0.05555555555555555,4.388888888888888,0)" xlink:href="#ax"></use><use transform="matrix(0.05555555555555555,0,0,0.05555555555555555,15.5,0)" xlink:href="#ar"></use><use transform="matrix(0.05555555555555555,0,0,0.05555555555555555,21.055555555555557,0)" xlink:href="#as"></use><use transform="matrix(0.05555555555555555,0,0,0.05555555555555555,32.16666666666667,0)" xlink:href="#av"></use><use transform="matrix(0.05555555555555555,0,0,0.05555555555555555,38.777777777777786,0)" xlink:href="#as"></use><use transform="matrix(0.05555555555555555,0,0,0.05555555555555555,49.8888888888889,0)" xlink:href="#ax"></use><use transform="matrix(0.05555555555555555,0,0,0.05555555555555555,61.00000000000001,0)" xlink:href="#aF"></use><use transform="matrix(0.05555555555555555,0,0,0.05555555555555555,71.00000000000001,0)" xlink:href="#as"></use></g><path fill="#333" d="M127-220V0H93v-220H8v-28h204v28h-85" id="aG"></path><path fill="#333" d="M143 0L79-87 56-68V0H24v-261h32v163l83-92h37l-77 82L181 0h-38" id="aH"></path><g id="n"><use transform="matrix(0.05555555555555555,0,0,0.05555555555555555,0,0)" xlink:href="#aG"></use><use transform="matrix(0.05555555555555555,0,0,0.05555555555555555,11.444444444444445,0)" xlink:href="#av"></use><use transform="matrix(0.05555555555555555,0,0,0.05555555555555555,18.055555555555557,0)" xlink:href="#ap"></use><use transform="matrix(0.05555555555555555,0,0,0.05555555555555555,29.166666666666664,0)" xlink:href="#aF"></use><use transform="matrix(0.05555555555555555,0,0,0.05555555555555555,39.16666666666667,0)" xlink:href="#aH"></use></g><g id="o"><use transform="matrix(0.05555555555555555,0,0,0.05555555555555555,0,0)" xlink:href="#az"></use><use transform="matrix(0.05555555555555555,0,0,0.05555555555555555,10,0)" xlink:href="#at"></use><use transform="matrix(0.05555555555555555,0,0,0.05555555555555555,15.555555555555555,0)" xlink:href="#ap"></use><use transform="matrix(0.05555555555555555,0,0,0.05555555555555555,26.666666666666664,0)" xlink:href="#at"></use><use transform="matrix(0.05555555555555555,0,0,0.05555555555555555,32.22222222222222,0)" xlink:href="#az"></use></g><g id="q"><use transform="matrix(0.05555555555555555,0,0,0.05555555555555555,0,0)" xlink:href="#at"></use><use transform="matrix(0.05555555555555555,0,0,0.05555555555555555,5.555555555555555,0)" xlink:href="#ao"></use></g><path fill="#333" d="M179-190L93 31C79 59 56 82 12 73V49c39 6 53-20 64-50L1-190h34L92-34l54-156h33" id="aI"></path><g id="r"><use transform="matrix(0.05555555555555555,0,0,0.05555555555555555,0,0)" xlink:href="#aw"></use><use transform="matrix(0.05555555555555555,0,0,0.05555555555555555,4.388888888888888,0)" xlink:href="#aq"></use><use transform="matrix(0.05555555555555555,0,0,0.05555555555555555,15.5,0)" xlink:href="#as"></use><use transform="matrix(0.05555555555555555,0,0,0.05555555555555555,26.61111111111111,0)" xlink:href="#ax"></use><use transform="matrix(0.05555555555555555,0,0,0.05555555555555555,37.72222222222222,0)" xlink:href="#at"></use><use transform="matrix(0.05555555555555555,0,0,0.05555555555555555,43.27777777777778,0)" xlink:href="#aw"></use><use transform="matrix(0.05555555555555555,0,0,0.05555555555555555,47.666666666666664,0)" xlink:href="#ar"></use><use transform="matrix(0.05555555555555555,0,0,0.05555555555555555,53.22222222222222,0)" xlink:href="#aI"></use></g><g id="s"><use transform="matrix(0.05555555555555555,0,0,0.05555555555555555,0,0)" xlink:href="#aw"></use><use transform="matrix(0.05555555555555555,0,0,0.05555555555555555,4.388888888888888,0)" xlink:href="#az"></use><use transform="matrix(0.05555555555555555,0,0,0.05555555555555555,14.388888888888888,0)" xlink:href="#az"></use><use transform="matrix(0.05555555555555555,0,0,0.05555555555555555,24.38888888888889,0)" xlink:href="#au"></use><use transform="matrix(0.05555555555555555,0,0,0.05555555555555555,35.5,0)" xlink:href="#as"></use><use transform="matrix(0.05555555555555555,0,0,0.05555555555555555,46.611111111111114,0)" xlink:href="#az"></use></g><g id="t"><use transform="matrix(0.055555555555555546,0,0,0.055555555555555546,0,0)" xlink:href="#af"></use><use transform="matrix(0.055555555555555546,0,0,0.055555555555555546,12.166666666666664,0)" xlink:href="#ag"></use><use transform="matrix(0.055555555555555546,0,0,0.055555555555555546,23.27777777777777,0)" xlink:href="#ah"></use><use transform="matrix(0.055555555555555546,0,0,0.055555555555555546,34.38888888888888,0)" xlink:href="#ai"></use><use transform="matrix(0.055555555555555546,0,0,0.055555555555555546,40.999999999999986,0)" xlink:href="#aj"></use><use transform="matrix(0.055555555555555546,0,0,0.055555555555555546,53.16666666666665,0)" xlink:href="#ak"></use><use transform="matrix(0.055555555555555546,0,0,0.055555555555555546,60.944444444444436,0)" xlink:href="#ag"></use></g><path fill="#333" d="M24 0v-248h195v40H76v63h132v40H76v65h150V0H24" id="aJ"></path><path fill="#333" d="M135-194c87-1 58 113 63 194h-50c-7-57 23-157-34-157-59 0-34 97-39 157H25l-1-190h47c2 12-1 28 3 38 12-26 28-41 61-42" id="aK"></path><path fill="#333" d="M195-6C206 82 75 100 31 46c-4-6-6-13-8-21l49-6c3 16 16 24 34 25 40 0 42-37 40-79-11 22-30 35-61 35-53 0-70-43-70-97 0-56 18-96 73-97 30 0 46 14 59 34l2-30h47zm-90-29c32 0 41-27 41-63 0-35-9-62-40-62-32 0-39 29-40 63 0 36 9 62 39 62" id="aL"></path><path fill="#333" d="M25-224v-37h50v37H25zM25 0v-190h50V0H25" id="aM"></path><g id="u"><use transform="matrix(0.055555555555555546,0,0,0.055555555555555546,0,0)" xlink:href="#aJ"></use><use transform="matrix(0.055555555555555546,0,0,0.055555555555555546,13.33333333333333,0)" xlink:href="#aK"></use><use transform="matrix(0.055555555555555546,0,0,0.055555555555555546,25.499999999999993,0)" xlink:href="#aL"></use><use transform="matrix(0.055555555555555546,0,0,0.055555555555555546,37.66666666666666,0)" xlink:href="#aM"></use><use transform="matrix(0.055555555555555546,0,0,0.055555555555555546,43.222222222222214,0)" xlink:href="#aK"></use><use transform="matrix(0.055555555555555546,0,0,0.055555555555555546,55.38888888888888,0)" xlink:href="#ag"></use><use transform="matrix(0.055555555555555546,0,0,0.055555555555555546,66.49999999999999,0)" xlink:href="#ag"></use><use transform="matrix(0.055555555555555546,0,0,0.055555555555555546,77.6111111111111,0)" xlink:href="#ak"></use><use transform="matrix(0.055555555555555546,0,0,0.055555555555555546,85.38888888888887,0)" xlink:href="#aM"></use><use transform="matrix(0.055555555555555546,0,0,0.055555555555555546,90.94444444444443,0)" xlink:href="#aK"></use><use transform="matrix(0.055555555555555546,0,0,0.055555555555555546,103.11111111111109,0)" xlink:href="#aL"></use></g><path fill="#333" d="M230 0l2-204L168 0h-37L68-204 70 0H24v-248h70l56 185 57-185h69V0h-46" id="aN"></path><path fill="#333" d="M88-194c31-1 46 15 58 34l-1-101h50l1 261h-48c-2-10 0-23-3-31C134-8 116 4 84 4 32 4 16-41 15-95c0-56 19-97 73-99zm17 164c33 0 40-30 41-66 1-37-9-64-41-64s-38 30-39 65c0 43 13 65 39 65" id="aO"></path><path fill="#333" d="M25 0v-261h50V0H25" id="aP"></path><g id="v"><use transform="matrix(0.055555555555555546,0,0,0.055555555555555546,0,0)" xlink:href="#aN"></use><use transform="matrix(0.055555555555555546,0,0,0.055555555555555546,16.611111111111107,0)" xlink:href="#am"></use><use transform="matrix(0.055555555555555546,0,0,0.055555555555555546,28.77777777777777,0)" xlink:href="#aO"></use><use transform="matrix(0.055555555555555546,0,0,0.055555555555555546,40.944444444444436,0)" xlink:href="#ag"></use><use transform="matrix(0.055555555555555546,0,0,0.055555555555555546,52.05555555555554,0)" xlink:href="#aP"></use></g><path fill="#333" d="M136-208V0H84v-208H4v-40h212v40h-80" id="aQ"></path><g id="w"><use transform="matrix(0.055555555555555546,0,0,0.055555555555555546,0,0)" xlink:href="#aQ"></use><use transform="matrix(0.055555555555555546,0,0,0.055555555555555546,11.055555555555554,0)" xlink:href="#ak"></use><use transform="matrix(0.055555555555555546,0,0,0.055555555555555546,18.83333333333333,0)" xlink:href="#ah"></use><use transform="matrix(0.055555555555555546,0,0,0.055555555555555546,29.944444444444432,0)" xlink:href="#aM"></use><use transform="matrix(0.055555555555555546,0,0,0.055555555555555546,35.49999999999999,0)" xlink:href="#aK"></use><use transform="matrix(0.055555555555555546,0,0,0.055555555555555546,47.66666666666666,0)" xlink:href="#aM"></use><use transform="matrix(0.055555555555555546,0,0,0.055555555555555546,53.222222222222214,0)" xlink:href="#aK"></use><use transform="matrix(0.055555555555555546,0,0,0.055555555555555546,65.38888888888889,0)" xlink:href="#aL"></use></g><path fill="#333" d="M168-19C124 19 11 11 16-68c3-43 29-60 59-75-25-44-12-111 53-106 37 3 64 15 64 52 0 43-40 52-69 68 12 22 27 41 43 59 14-19 21-38 28-64l37 13c-8 29-19 52-34 74 12 10 32 16 52 10v35c-28 11-65-2-81-17zm-58-139c19-9 43-14 43-39 0-14-10-22-25-22-34 0-33 41-18 61zM60-68c-3 40 55 47 79 25-18-20-34-42-48-67-18 8-30 20-31 42" id="aR"></path><use transform="matrix(0.055555555555555546,0,0,0.055555555555555546,0,0)" xlink:href="#aR" id="x"></use><path fill="#333" d="M128 0H69L1-190h53L99-40l48-150h52" id="aS"></path><g id="y"><use transform="matrix(0.055555555555555546,0,0,0.055555555555555546,0,0)" xlink:href="#aJ"></use><use transform="matrix(0.055555555555555546,0,0,0.055555555555555546,13.33333333333333,0)" xlink:href="#aS"></use><use transform="matrix(0.055555555555555546,0,0,0.055555555555555546,24.44444444444444,0)" xlink:href="#ah"></use><use transform="matrix(0.055555555555555546,0,0,0.055555555555555546,35.55555555555555,0)" xlink:href="#aP"></use><use transform="matrix(0.055555555555555546,0,0,0.055555555555555546,41.11111111111111,0)" xlink:href="#aj"></use><use transform="matrix(0.055555555555555546,0,0,0.055555555555555546,53.27777777777777,0)" xlink:href="#ah"></use><use transform="matrix(0.055555555555555546,0,0,0.055555555555555546,64.38888888888889,0)" xlink:href="#ai"></use><use transform="matrix(0.055555555555555546,0,0,0.055555555555555546,71,0)" xlink:href="#aM"></use><use transform="matrix(0.055555555555555546,0,0,0.055555555555555546,76.55555555555556,0)" xlink:href="#am"></use><use transform="matrix(0.055555555555555546,0,0,0.055555555555555546,88.72222222222223,0)" xlink:href="#aK"></use></g><path fill="#333" d="M24-248c93 1 206-16 204 79-1 75-69 88-152 82V0H24v-248zm52 121c47 0 100 7 100-41 0-47-54-39-100-39v80" id="aT"></path><path fill="#333" d="M190-63c-7 42-38 67-86 67-59 0-84-38-90-98-12-110 154-137 174-36l-49 2c-2-19-15-32-35-32-30 0-35 28-38 64-6 74 65 87 74 30" id="aU"></path><g id="z"><use transform="matrix(0.055555555555555546,0,0,0.055555555555555546,0,0)" xlink:href="#aT"></use><use transform="matrix(0.055555555555555546,0,0,0.055555555555555546,13.33333333333333,0)" xlink:href="#ak"></use><use transform="matrix(0.055555555555555546,0,0,0.055555555555555546,21.111111111111107,0)" xlink:href="#ag"></use><use transform="matrix(0.055555555555555546,0,0,0.055555555555555546,32.222222222222214,0)" xlink:href="#aO"></use><use transform="matrix(0.055555555555555546,0,0,0.055555555555555546,44.38888888888888,0)" xlink:href="#aM"></use><use transform="matrix(0.055555555555555546,0,0,0.055555555555555546,49.944444444444436,0)" xlink:href="#aU"></use><use transform="matrix(0.055555555555555546,0,0,0.055555555555555546,61.05555555555554,0)" xlink:href="#ai"></use><use transform="matrix(0.055555555555555546,0,0,0.055555555555555546,67.66666666666666,0)" xlink:href="#aM"></use><use transform="matrix(0.055555555555555546,0,0,0.055555555555555546,73.22222222222221,0)" xlink:href="#am"></use><use transform="matrix(0.055555555555555546,0,0,0.055555555555555546,85.38888888888889,0)" xlink:href="#aK"></use></g><g id="A"><use transform="matrix(0.055555555555555546,0,0,0.055555555555555546,0,0)" xlink:href="#aN"></use><use transform="matrix(0.055555555555555546,0,0,0.055555555555555546,16.611111111111107,0)" xlink:href="#am"></use><use transform="matrix(0.055555555555555546,0,0,0.055555555555555546,28.77777777777777,0)" xlink:href="#aK"></use><use transform="matrix(0.055555555555555546,0,0,0.055555555555555546,40.944444444444436,0)" xlink:href="#aM"></use><use transform="matrix(0.055555555555555546,0,0,0.055555555555555546,46.49999999999999,0)" xlink:href="#ai"></use><use transform="matrix(0.055555555555555546,0,0,0.055555555555555546,53.1111111111111,0)" xlink:href="#am"></use><use transform="matrix(0.055555555555555546,0,0,0.055555555555555546,65.27777777777777,0)" xlink:href="#ak"></use><use transform="matrix(0.055555555555555546,0,0,0.055555555555555546,73.05555555555554,0)" xlink:href="#aM"></use><use transform="matrix(0.055555555555555546,0,0,0.055555555555555546,78.6111111111111,0)" xlink:href="#aK"></use><use transform="matrix(0.055555555555555546,0,0,0.055555555555555546,90.77777777777777,0)" xlink:href="#aL"></use></g><path fill="#0c7cba" d="M24-248c120-7 223 5 221 122C244-46 201 0 124 0H24v-248zM76-40c74 7 117-18 117-86 0-67-45-88-117-82v168" id="aV"></path><path fill="#0c7cba" d="M133-34C117-15 103 5 69 4 32 3 11-16 11-54c-1-60 55-63 116-61 1-26-3-47-28-47-18 1-26 9-28 27l-52-2c7-38 36-58 82-57s74 22 75 68l1 82c-1 14 12 18 25 15v27c-30 8-71 5-69-32zm-48 3c29 0 43-24 42-57-32 0-66-3-65 30 0 17 8 27 23 27" id="aW"></path><path fill="#0c7cba" d="M115-3C79 11 28 4 28-45v-112H4v-33h27l15-45h31v45h36v33H77v99c-1 23 16 31 38 25v30" id="aX"></path><g id="B"><use transform="matrix(0.05555555555555555,0,0,0.05555555555555555,0,0)" xlink:href="#aV"></use><use transform="matrix(0.05555555555555555,0,0,0.05555555555555555,14.388888888888888,0)" xlink:href="#aW"></use><use transform="matrix(0.05555555555555555,0,0,0.05555555555555555,25.5,0)" xlink:href="#aX"></use><use transform="matrix(0.05555555555555555,0,0,0.05555555555555555,32.111111111111114,0)" xlink:href="#aW"></use></g><path fill="#0c7cba" d="M24 0v-248h195v40H76v63h132v40H76v65h150V0H24" id="aY"></path><path fill="#0c7cba" d="M135-194c87-1 58 113 63 194h-50c-7-57 23-157-34-157-59 0-34 97-39 157H25l-1-190h47c2 12-1 28 3 38 12-26 28-41 61-42" id="aZ"></path><path fill="#0c7cba" d="M195-6C206 82 75 100 31 46c-4-6-6-13-8-21l49-6c3 16 16 24 34 25 40 0 42-37 40-79-11 22-30 35-61 35-53 0-70-43-70-97 0-56 18-96 73-97 30 0 46 14 59 34l2-30h47zm-90-29c32 0 41-27 41-63 0-35-9-62-40-62-32 0-39 29-40 63 0 36 9 62 39 62" id="ba"></path><path fill="#0c7cba" d="M25-224v-37h50v37H25zM25 0v-190h50V0H25" id="bb"></path><path fill="#0c7cba" d="M185-48c-13 30-37 53-82 52C43 2 14-33 14-96s30-98 90-98c62 0 83 45 84 108H66c0 31 8 55 39 56 18 0 30-7 34-22zm-45-69c5-46-57-63-70-21-2 6-4 13-4 21h74" id="bc"></path><path fill="#0c7cba" d="M135-150c-39-12-60 13-60 57V0H25l-1-190h47c2 13-1 29 3 40 6-28 27-53 61-41v41" id="bd"></path><g id="C"><use transform="matrix(0.05555555555555555,0,0,0.05555555555555555,0,0)" xlink:href="#aY"></use><use transform="matrix(0.05555555555555555,0,0,0.05555555555555555,13.333333333333332,0)" xlink:href="#aZ"></use><use transform="matrix(0.05555555555555555,0,0,0.05555555555555555,25.5,0)" xlink:href="#ba"></use><use transform="matrix(0.05555555555555555,0,0,0.05555555555555555,37.666666666666664,0)" xlink:href="#bb"></use><use transform="matrix(0.05555555555555555,0,0,0.05555555555555555,43.22222222222222,0)" xlink:href="#aZ"></use><use transform="matrix(0.05555555555555555,0,0,0.05555555555555555,55.388888888888886,0)" xlink:href="#bc"></use><use transform="matrix(0.05555555555555555,0,0,0.05555555555555555,66.5,0)" xlink:href="#bc"></use><use transform="matrix(0.05555555555555555,0,0,0.05555555555555555,77.61111111111111,0)" xlink:href="#bd"></use></g><path fill="#0c7cba" d="M4 7l51-268h42L46 7H4" id="be"></path><use transform="matrix(0.05555555555555555,0,0,0.05555555555555555,0,0)" xlink:href="#be" id="D"></use><g id="E"><use transform="matrix(0.05555555555555555,0,0,0.05555555555555555,0,0)" xlink:href="#aV"></use><use transform="matrix(0.05555555555555555,0,0,0.05555555555555555,14.388888888888888,0)" xlink:href="#aW"></use><use transform="matrix(0.05555555555555555,0,0,0.05555555555555555,25.5,0)" xlink:href="#aX"></use><use transform="matrix(0.05555555555555555,0,0,0.05555555555555555,32.111111111111114,0)" xlink:href="#aW"></use></g><path fill="#0c7cba" d="M169-182c-1-43-94-46-97-3 18 66 151 10 154 114 3 95-165 93-204 36-6-8-10-19-12-30l50-8c3 46 112 56 116 5-17-69-150-10-154-114-4-87 153-88 188-35 5 8 8 18 10 28" id="bf"></path><path fill="#0c7cba" d="M190-63c-7 42-38 67-86 67-59 0-84-38-90-98-12-110 154-137 174-36l-49 2c-2-19-15-32-35-32-30 0-35 28-38 64-6 74 65 87 74 30" id="bg"></path><path fill="#0c7cba" d="M137-138c1-29-70-34-71-4 15 46 118 7 119 86 1 83-164 76-172 9l43-7c4 19 20 25 44 25 33 8 57-30 24-41C81-84 22-81 20-136c-2-80 154-74 161-7" id="bh"></path><g id="F"><use transform="matrix(0.05555555555555555,0,0,0.05555555555555555,0,0)" xlink:href="#bf"></use><use transform="matrix(0.05555555555555555,0,0,0.05555555555555555,13.333333333333332,0)" xlink:href="#bg"></use><use transform="matrix(0.05555555555555555,0,0,0.05555555555555555,24.444444444444443,0)" xlink:href="#bb"></use><use transform="matrix(0.05555555555555555,0,0,0.05555555555555555,30,0)" xlink:href="#bc"></use><use transform="matrix(0.05555555555555555,0,0,0.05555555555555555,41.111111111111114,0)" xlink:href="#aZ"></use><use transform="matrix(0.05555555555555555,0,0,0.05555555555555555,53.27777777777778,0)" xlink:href="#aX"></use><use transform="matrix(0.05555555555555555,0,0,0.05555555555555555,59.888888888888886,0)" xlink:href="#bb"></use><use transform="matrix(0.05555555555555555,0,0,0.05555555555555555,65.44444444444444,0)" xlink:href="#bh"></use><use transform="matrix(0.05555555555555555,0,0,0.05555555555555555,76.55555555555556,0)" xlink:href="#aX"></use></g><path fill="#0c7cba" d="M230 0l2-204L168 0h-37L68-204 70 0H24v-248h70l56 185 57-185h69V0h-46" id="bi"></path><path fill="#0c7cba" d="M24 0v-248h52v208h133V0H24" id="bj"></path><g id="G"><use transform="matrix(0.05555555555555555,0,0,0.05555555555555555,0,0)" xlink:href="#bi"></use><use transform="matrix(0.05555555555555555,0,0,0.05555555555555555,16.61111111111111,0)" xlink:href="#bj"></use></g><g id="H"><use transform="matrix(0.05555555555555555,0,0,0.05555555555555555,0,0)" xlink:href="#aY"></use><use transform="matrix(0.05555555555555555,0,0,0.05555555555555555,13.333333333333332,0)" xlink:href="#aZ"></use><use transform="matrix(0.05555555555555555,0,0,0.05555555555555555,25.5,0)" xlink:href="#ba"></use><use transform="matrix(0.05555555555555555,0,0,0.05555555555555555,37.666666666666664,0)" xlink:href="#bb"></use><use transform="matrix(0.05555555555555555,0,0,0.05555555555555555,43.22222222222222,0)" xlink:href="#aZ"></use><use transform="matrix(0.05555555555555555,0,0,0.05555555555555555,55.388888888888886,0)" xlink:href="#bc"></use><use transform="matrix(0.05555555555555555,0,0,0.05555555555555555,66.5,0)" xlink:href="#bc"></use><use transform="matrix(0.05555555555555555,0,0,0.05555555555555555,77.61111111111111,0)" xlink:href="#bd"></use></g><path fill="#de5f85" d="M24-248c93 1 206-16 204 79-1 75-69 88-152 82V0H24v-248zm52 121c47 0 100 7 100-41 0-47-54-39-100-39v80" id="bk"></path><path fill="#de5f85" d="M135-150c-39-12-60 13-60 57V0H25l-1-190h47c2 13-1 29 3 40 6-28 27-53 61-41v41" id="bl"></path><path fill="#de5f85" d="M185-48c-13 30-37 53-82 52C43 2 14-33 14-96s30-98 90-98c62 0 83 45 84 108H66c0 31 8 55 39 56 18 0 30-7 34-22zm-45-69c5-46-57-63-70-21-2 6-4 13-4 21h74" id="bm"></path><path fill="#de5f85" d="M88-194c31-1 46 15 58 34l-1-101h50l1 261h-48c-2-10 0-23-3-31C134-8 116 4 84 4 32 4 16-41 15-95c0-56 19-97 73-99zm17 164c33 0 40-30 41-66 1-37-9-64-41-64s-38 30-39 65c0 43 13 65 39 65" id="bn"></path><path fill="#de5f85" d="M25-224v-37h50v37H25zM25 0v-190h50V0H25" id="bo"></path><path fill="#de5f85" d="M190-63c-7 42-38 67-86 67-59 0-84-38-90-98-12-110 154-137 174-36l-49 2c-2-19-15-32-35-32-30 0-35 28-38 64-6 74 65 87 74 30" id="bp"></path><path fill="#de5f85" d="M115-3C79 11 28 4 28-45v-112H4v-33h27l15-45h31v45h36v33H77v99c-1 23 16 31 38 25v30" id="bq"></path><path fill="#de5f85" d="M110-194c64 0 96 36 96 99 0 64-35 99-97 99-61 0-95-36-95-99 0-62 34-99 96-99zm-1 164c35 0 45-28 45-65 0-40-10-65-43-65-34 0-45 26-45 65 0 36 10 65 43 65" id="br"></path><path fill="#de5f85" d="M135-194c87-1 58 113 63 194h-50c-7-57 23-157-34-157-59 0-34 97-39 157H25l-1-190h47c2 12-1 28 3 38 12-26 28-41 61-42" id="bs"></path><g id="I"><use transform="matrix(0.05555555555555555,0,0,0.05555555555555555,0,0)" xlink:href="#bk"></use><use transform="matrix(0.05555555555555555,0,0,0.05555555555555555,13.333333333333332,0)" xlink:href="#bl"></use><use transform="matrix(0.05555555555555555,0,0,0.05555555555555555,21.11111111111111,0)" xlink:href="#bm"></use><use transform="matrix(0.05555555555555555,0,0,0.05555555555555555,32.22222222222222,0)" xlink:href="#bn"></use><use transform="matrix(0.05555555555555555,0,0,0.05555555555555555,44.388888888888886,0)" xlink:href="#bo"></use><use transform="matrix(0.05555555555555555,0,0,0.05555555555555555,49.94444444444444,0)" xlink:href="#bp"></use><use transform="matrix(0.05555555555555555,0,0,0.05555555555555555,61.05555555555555,0)" xlink:href="#bq"></use><use transform="matrix(0.05555555555555555,0,0,0.05555555555555555,67.66666666666667,0)" xlink:href="#bo"></use><use transform="matrix(0.05555555555555555,0,0,0.05555555555555555,73.22222222222223,0)" xlink:href="#br"></use><use transform="matrix(0.05555555555555555,0,0,0.05555555555555555,85.3888888888889,0)" xlink:href="#bs"></use></g><path fill="#de5f85" d="M169-182c-1-43-94-46-97-3 18 66 151 10 154 114 3 95-165 93-204 36-6-8-10-19-12-30l50-8c3 46 112 56 116 5-17-69-150-10-154-114-4-87 153-88 188-35 5 8 8 18 10 28" id="bt"></path><path fill="#de5f85" d="M128 0H69L1-190h53L99-40l48-150h52" id="bu"></path><g id="J"><use transform="matrix(0.05555555555555555,0,0,0.05555555555555555,0,0)" xlink:href="#bt"></use><use transform="matrix(0.05555555555555555,0,0,0.05555555555555555,13.333333333333332,0)" xlink:href="#bm"></use><use transform="matrix(0.05555555555555555,0,0,0.05555555555555555,24.444444444444443,0)" xlink:href="#bl"></use><use transform="matrix(0.05555555555555555,0,0,0.05555555555555555,32.22222222222222,0)" xlink:href="#bu"></use><use transform="matrix(0.05555555555555555,0,0,0.05555555555555555,43.33333333333333,0)" xlink:href="#bo"></use><use transform="matrix(0.05555555555555555,0,0,0.05555555555555555,48.888888888888886,0)" xlink:href="#bp"></use><use transform="matrix(0.05555555555555555,0,0,0.05555555555555555,60,0)" xlink:href="#bm"></use></g><path fill="#de5f85" d="M67-93c0 74 22 123 53 168H70C40 30 18-18 18-93s22-123 52-168h50c-32 44-53 94-53 168" id="bv"></path><path fill="#de5f85" d="M85 4C-2 5 27-109 22-190h50c7 57-23 150 33 157 60-5 35-97 40-157h50l1 190h-47c-2-12 1-28-3-38-12 25-28 42-61 42" id="bw"></path><path fill="#de5f85" d="M102-93c0 74-22 123-52 168H0C30 29 54-18 53-93c0-74-22-123-53-168h50c30 45 52 94 52 168" id="bx"></path><g id="K"><use transform="matrix(0.05555555555555555,0,0,0.05555555555555555,0,0)" xlink:href="#bv"></use><use transform="matrix(0.05555555555555555,0,0,0.05555555555555555,6.611111111111111,0)" xlink:href="#bk"></use><use transform="matrix(0.05555555555555555,0,0,0.05555555555555555,19.944444444444443,0)" xlink:href="#bl"></use><use transform="matrix(0.05555555555555555,0,0,0.05555555555555555,27.72222222222222,0)" xlink:href="#br"></use><use transform="matrix(0.05555555555555555,0,0,0.05555555555555555,39.888888888888886,0)" xlink:href="#bn"></use><use transform="matrix(0.05555555555555555,0,0,0.05555555555555555,52.05555555555555,0)" xlink:href="#bw"></use><use transform="matrix(0.05555555555555555,0,0,0.05555555555555555,64.22222222222221,0)" xlink:href="#bp"></use><use transform="matrix(0.05555555555555555,0,0,0.05555555555555555,75.33333333333333,0)" xlink:href="#bq"></use><use transform="matrix(0.05555555555555555,0,0,0.05555555555555555,81.94444444444444,0)" xlink:href="#bo"></use><use transform="matrix(0.05555555555555555,0,0,0.05555555555555555,87.5,0)" xlink:href="#br"></use><use transform="matrix(0.05555555555555555,0,0,0.05555555555555555,99.66666666666667,0)" xlink:href="#bs"></use><use transform="matrix(0.05555555555555555,0,0,0.05555555555555555,111.83333333333334,0)" xlink:href="#bx"></use></g><path fill="#333" d="M30-248c118-7 216 8 213 122C240-48 200 0 122 0H30v-248zM63-27c89 8 146-16 146-99s-60-101-146-95v194" id="by"></path><g id="L"><use transform="matrix(0.05555555555555555,0,0,0.05555555555555555,0,0)" xlink:href="#by"></use><use transform="matrix(0.05555555555555555,0,0,0.05555555555555555,14.388888888888888,0)" xlink:href="#as"></use><use transform="matrix(0.05555555555555555,0,0,0.05555555555555555,25.5,0)" xlink:href="#ar"></use><use transform="matrix(0.05555555555555555,0,0,0.05555555555555555,31.05555555555556,0)" xlink:href="#aw"></use><use transform="matrix(0.05555555555555555,0,0,0.05555555555555555,35.44444444444444,0)" xlink:href="#ax"></use><use transform="matrix(0.05555555555555555,0,0,0.05555555555555555,46.55555555555556,0)" xlink:href="#as"></use></g><g id="M"><use transform="matrix(0.05555555555555555,0,0,0.05555555555555555,0,0)" xlink:href="#ap"></use><use transform="matrix(0.05555555555555555,0,0,0.05555555555555555,11.11111111111111,0)" xlink:href="#ax"></use><use transform="matrix(0.05555555555555555,0,0,0.05555555555555555,22.22222222222222,0)" xlink:href="#aq"></use></g><g id="N"><use transform="matrix(0.05555555555555555,0,0,0.05555555555555555,0,0)" xlink:href="#aw"></use><use transform="matrix(0.05555555555555555,0,0,0.05555555555555555,4.388888888888888,0)" xlink:href="#at"></use><use transform="matrix(0.05555555555555555,0,0,0.05555555555555555,9.944444444444443,0)" xlink:href="#as"></use><use transform="matrix(0.05555555555555555,0,0,0.05555555555555555,21.055555555555554,0)" xlink:href="#av"></use><use transform="matrix(0.05555555555555555,0,0,0.05555555555555555,27.666666666666664,0)" xlink:href="#ap"></use><use transform="matrix(0.05555555555555555,0,0,0.05555555555555555,38.77777777777777,0)" xlink:href="#at"></use><use transform="matrix(0.05555555555555555,0,0,0.05555555555555555,44.33333333333333,0)" xlink:href="#as"></use></g><g id="O"><use transform="matrix(0.05555555555555555,0,0,0.05555555555555555,0,0)" xlink:href="#ao"></use><use transform="matrix(0.05555555555555555,0,0,0.05555555555555555,11.11111111111111,0)" xlink:href="#ax"></use></g><path fill="#333" d="M206 0h-36l-40-164L89 0H53L-1-190h32L70-26l43-164h34l41 164 42-164h31" id="bz"></path><g id="P"><use transform="matrix(0.05555555555555555,0,0,0.05555555555555555,0,0)" xlink:href="#ax"></use><use transform="matrix(0.05555555555555555,0,0,0.05555555555555555,11.11111111111111,0)" xlink:href="#as"></use><use transform="matrix(0.05555555555555555,0,0,0.05555555555555555,22.22222222222222,0)" xlink:href="#bz"></use></g><g id="Q"><use transform="matrix(0.05555555555555555,0,0,0.05555555555555555,0,0)" xlink:href="#ar"></use><use transform="matrix(0.05555555555555555,0,0,0.05555555555555555,5.555555555555555,0)" xlink:href="#as"></use><use transform="matrix(0.05555555555555555,0,0,0.05555555555555555,16.666666666666664,0)" xlink:href="#ap"></use><use transform="matrix(0.05555555555555555,0,0,0.05555555555555555,27.777777777777775,0)" xlink:href="#at"></use><use transform="matrix(0.05555555555555555,0,0,0.05555555555555555,33.33333333333333,0)" xlink:href="#au"></use><use transform="matrix(0.05555555555555555,0,0,0.05555555555555555,44.44444444444444,0)" xlink:href="#av"></use><use transform="matrix(0.05555555555555555,0,0,0.05555555555555555,51.05555555555556,0)" xlink:href="#as"></use><use transform="matrix(0.05555555555555555,0,0,0.05555555555555555,62.16666666666668,0)" xlink:href="#az"></use></g><g id="R"><use transform="matrix(0.05555555555555555,0,0,0.05555555555555555,0,0)" xlink:href="#an"></use><use transform="matrix(0.05555555555555555,0,0,0.05555555555555555,11.11111111111111,0)" xlink:href="#ao"></use><use transform="matrix(0.05555555555555555,0,0,0.05555555555555555,22.22222222222222,0)" xlink:href="#ay"></use></g><g id="S"><use transform="matrix(0.05555555555555555,0,0,0.05555555555555555,0,0)" xlink:href="#az"></use><use transform="matrix(0.05555555555555555,0,0,0.05555555555555555,10,0)" xlink:href="#as"></use><use transform="matrix(0.05555555555555555,0,0,0.05555555555555555,21.11111111111111,0)" xlink:href="#av"></use><use transform="matrix(0.05555555555555555,0,0,0.05555555555555555,27.72222222222222,0)" xlink:href="#aD"></use><use transform="matrix(0.05555555555555555,0,0,0.05555555555555555,37.72222222222222,0)" xlink:href="#as"></use><use transform="matrix(0.05555555555555555,0,0,0.05555555555555555,48.83333333333333,0)" xlink:href="#aq"></use></g><path fill="#333" d="M68-38c1 34 0 65-14 84H32c9-13 17-26 17-46H33v-38h35" id="bA"></path><g id="T"><use transform="matrix(0.05555555555555555,0,0,0.05555555555555555,0,0)" xlink:href="#ar"></use><use transform="matrix(0.05555555555555555,0,0,0.05555555555555555,5.555555555555555,0)" xlink:href="#as"></use><use transform="matrix(0.05555555555555555,0,0,0.05555555555555555,16.666666666666664,0)" xlink:href="#ap"></use><use transform="matrix(0.05555555555555555,0,0,0.05555555555555555,27.777777777777775,0)" xlink:href="#at"></use><use transform="matrix(0.05555555555555555,0,0,0.05555555555555555,33.33333333333333,0)" xlink:href="#au"></use><use transform="matrix(0.05555555555555555,0,0,0.05555555555555555,44.44444444444444,0)" xlink:href="#av"></use><use transform="matrix(0.05555555555555555,0,0,0.05555555555555555,51.05555555555556,0)" xlink:href="#as"></use><use transform="matrix(0.05555555555555555,0,0,0.05555555555555555,62.16666666666668,0)" xlink:href="#az"></use><use transform="matrix(0.05555555555555555,0,0,0.05555555555555555,72.16666666666667,0)" xlink:href="#bA"></use></g><g id="U"><use transform="matrix(0.05555555555555555,0,0,0.05555555555555555,0,0)" xlink:href="#aC"></use><use transform="matrix(0.05555555555555555,0,0,0.05555555555555555,11.11111111111111,0)" xlink:href="#av"></use><use transform="matrix(0.05555555555555555,0,0,0.05555555555555555,17.72222222222222,0)" xlink:href="#as"></use><use transform="matrix(0.05555555555555555,0,0,0.05555555555555555,28.833333333333332,0)" xlink:href="#aq"></use><use transform="matrix(0.05555555555555555,0,0,0.05555555555555555,39.94444444444444,0)" xlink:href="#aw"></use><use transform="matrix(0.05555555555555555,0,0,0.05555555555555555,44.33333333333333,0)" xlink:href="#aF"></use><use transform="matrix(0.05555555555555555,0,0,0.05555555555555555,54.33333333333333,0)" xlink:href="#at"></use><use transform="matrix(0.05555555555555555,0,0,0.05555555555555555,59.888888888888886,0)" xlink:href="#aw"></use><use transform="matrix(0.05555555555555555,0,0,0.05555555555555555,64.27777777777777,0)" xlink:href="#ao"></use><use transform="matrix(0.05555555555555555,0,0,0.05555555555555555,75.38888888888889,0)" xlink:href="#ax"></use><use transform="matrix(0.05555555555555555,0,0,0.05555555555555555,86.5,0)" xlink:href="#bA"></use></g><g id="V"><use transform="matrix(0.05555555555555555,0,0,0.05555555555555555,0,0)" xlink:href="#ao"></use><use transform="matrix(0.05555555555555555,0,0,0.05555555555555555,11.11111111111111,0)" xlink:href="#au"></use><use transform="matrix(0.05555555555555555,0,0,0.05555555555555555,22.22222222222222,0)" xlink:href="#at"></use><use transform="matrix(0.05555555555555555,0,0,0.05555555555555555,27.77777777777778,0)" xlink:href="#aF"></use><use transform="matrix(0.05555555555555555,0,0,0.05555555555555555,37.77777777777778,0)" xlink:href="#ao"></use><use transform="matrix(0.05555555555555555,0,0,0.05555555555555555,48.888888888888886,0)" xlink:href="#aB"></use><use transform="matrix(0.05555555555555555,0,0,0.05555555555555555,65.5,0)" xlink:href="#as"></use><use transform="matrix(0.05555555555555555,0,0,0.05555555555555555,76.61111111111111,0)" xlink:href="#az"></use></g><path fill="#333" d="M240 0l2-218c-23 76-54 145-80 218h-23L58-218 59 0H30v-248h44l77 211c21-75 51-140 76-211h43V0h-30" id="bB"></path><g id="W"><use transform="matrix(0.05555555555555555,0,0,0.05555555555555555,0,0)" xlink:href="#bB"></use><use transform="matrix(0.05555555555555555,0,0,0.05555555555555555,16.61111111111111,0)" xlink:href="#ao"></use><use transform="matrix(0.05555555555555555,0,0,0.05555555555555555,27.72222222222222,0)" xlink:href="#ax"></use><use transform="matrix(0.05555555555555555,0,0,0.05555555555555555,38.83333333333333,0)" xlink:href="#aw"></use><use transform="matrix(0.05555555555555555,0,0,0.05555555555555555,43.222222222222214,0)" xlink:href="#at"></use><use transform="matrix(0.05555555555555555,0,0,0.05555555555555555,48.77777777777777,0)" xlink:href="#ao"></use><use transform="matrix(0.05555555555555555,0,0,0.05555555555555555,59.888888888888886,0)" xlink:href="#av"></use></g><g id="X"><use transform="matrix(0.05555555555555555,0,0,0.05555555555555555,0,0)" xlink:href="#ar"></use><use transform="matrix(0.05555555555555555,0,0,0.05555555555555555,5.555555555555555,0)" xlink:href="#ao"></use><use transform="matrix(0.05555555555555555,0,0,0.05555555555555555,16.666666666666664,0)" xlink:href="#av"></use></g><g id="Y"><use transform="matrix(0.05555555555555555,0,0,0.05555555555555555,0,0)" xlink:href="#aq"></use><use transform="matrix(0.05555555555555555,0,0,0.05555555555555555,11.11111111111111,0)" xlink:href="#av"></use><use transform="matrix(0.05555555555555555,0,0,0.05555555555555555,17.72222222222222,0)" xlink:href="#aw"></use><use transform="matrix(0.05555555555555555,0,0,0.05555555555555555,22.11111111111111,0)" xlink:href="#ar"></use><use transform="matrix(0.05555555555555555,0,0,0.05555555555555555,27.666666666666664,0)" xlink:href="#at"></use></g><path fill="#333" d="M234-2c-28 10-62 0-77-18C117 19 8 12 13-65c3-43 29-61 60-76-25-40-17-114 47-108 35 3 59 15 59 50 0 44-40 53-71 69 14 26 32 50 51 72 14-21 24-43 30-72l26 8c-9 33-21 57-38 82 13 13 33 22 57 15v23zM97-151c25-10 52-18 56-48-1-18-13-29-33-29-42 0-39 50-23 77zM42-66c-3 51 71 58 98 28-20-24-41-51-56-80-23 10-40 24-42 52" id="bC"></path><use transform="matrix(0.05555555555555555,0,0,0.05555555555555555,0,0)" xlink:href="#bC" id="Z"></use><path fill="#333" d="M145-31C134-9 116 4 85 4 32 4 16-35 15-94c0-59 17-99 70-100 32-1 48 14 60 33 0-11-1-24 2-32h30l-1 268h-32zM93-21c41 0 51-33 51-76s-8-73-50-73c-40 0-46 35-46 75s5 74 45 74" id="bD"></path><g id="aa"><use transform="matrix(0.05555555555555555,0,0,0.05555555555555555,0,0)" xlink:href="#bD"></use><use transform="matrix(0.05555555555555555,0,0,0.05555555555555555,11.11111111111111,0)" xlink:href="#au"></use><use transform="matrix(0.05555555555555555,0,0,0.05555555555555555,22.22222222222222,0)" xlink:href="#ap"></use><use transform="matrix(0.05555555555555555,0,0,0.05555555555555555,33.33333333333333,0)" xlink:href="#aE"></use><use transform="matrix(0.05555555555555555,0,0,0.05555555555555555,37.722222222222214,0)" xlink:href="#aw"></use><use transform="matrix(0.05555555555555555,0,0,0.05555555555555555,42.1111111111111,0)" xlink:href="#at"></use><use transform="matrix(0.05555555555555555,0,0,0.05555555555555555,47.66666666666666,0)" xlink:href="#aI"></use></g><g id="ab"><use transform="matrix(0.05555555555555555,0,0,0.05555555555555555,0,0)" xlink:href="#aV"></use><use transform="matrix(0.05555555555555555,0,0,0.05555555555555555,14.388888888888888,0)" xlink:href="#aY"></use></g><use transform="matrix(0.05555555555555555,0,0,0.05555555555555555,0,0)" xlink:href="#be" id="ac"></use><g id="ad"><use transform="matrix(0.05555555555555555,0,0,0.05555555555555555,0,0)" xlink:href="#aV"></use><use transform="matrix(0.05555555555555555,0,0,0.05555555555555555,14.388888888888888,0)" xlink:href="#bf"></use></g><g id="ae"><use transform="matrix(0.05555555555555555,0,0,0.05555555555555555,0,0)" xlink:href="#bi"></use><use transform="matrix(0.05555555555555555,0,0,0.05555555555555555,16.61111111111111,0)" xlink:href="#bj"></use><use transform="matrix(0.05555555555555555,0,0,0.05555555555555555,28.777777777777775,0)" xlink:href="#aY"></use></g></defs></g></svg> 