<?xml version="1.0" encoding="UTF-8"?> <svg xmlns="http://www.w3.org/2000/svg" xmlns:xlink="http://www.w3.org/1999/xlink" xmlns:lucid="lucid" width="1242" height="500"><g transform="translate(-440 -340)" lucid:page-tab-id="bSwFSa_0CIwG"><path d="M0 0h1760v1360H0z" fill="#fff"></path><path d="M1240 644.33c0-2.2 1.8-4 4-4h412c2.2 0 4 1.8 4 4v112c0 2.2-1.8 4-4 4h-412c-2.2 0-4-1.8-4-4z" fill-opacity="0"></path><path d="M1242.3 641.04l1.7-.7h1.5m2.02 0h3m2.02 0h3.02m2 0h3.02m2 0h3.02m2 0h3.03m2 0h3.02m2 0h3.03m2 0h3.02m2 0h3.03m2 0h3.02m2 0h3.03m2 0h3.02m2 0h3.02m2 0h3.03m2 0h3.02m2 0h3.03m2 0h3.02m2 0h3.03m2 0h3.02m2 0h3.03m2 0h3.02m2 0h3.02m2 0h3.03m2 0h3.02m2 0h3.02m2 0h3.02m2 0h3.03m2 0h3.02m2 0h3m2.02 0h3.02m2 0h3.02m2 0h3.03m2 0h3m2.02 0h3.02m2 0h3.02m2 0h3.03m2 0h3m2.02 0h3m2.02 0h3.02m2 0h3.02m2 0h3.03m2.02 0h3m2.02 0h3.02m2 0h3.02m2 0h3.02m2 0h3.03m2 0h3.02m2 0h3.03m2 0h3.02m2 0h3.03m2 0h3.02m2 0h3.03m2 0h3.02m2 0h3.02m2 0h3.03m2 0h3.02m2 0h3.03m2 0h3.02m2 0h3.03m2 0h3.02m2 0h3.03m2 0h3.02m2 0h3.02m2 0h3.03m2 0h3.02m2 0h3.02m2 0h3.02m2 0h3.03m2 0h3.02m2 0h3m2.02 0h3.02m2 0h3.02m2 0h3.03m2 0h3m2.02 0h3.02m2 0h3.02m2 0h3.03m2 0h3m2.02 0h3m2.02 0h3.02m2 0h3.02m2 0h1.52l1.7.7m1.6 1.6l.7 1.7v1.52m0 2.04v3.05m0 2.04v3.04m0 2.04v3.05m0 2.04v3.05m0 2.04v3.06m0 2.03v3.06m0 2.04v3.06m0 2.03v3.06m0 2.02v3.06m0 2.04v3.05m0 2.04v3.06m0 2.04v3.05m0 2.04v3.04m0 2.04v3.05m0 2.04v3.05m0 2.04v3.06m0 2.03v3.06m0 2.04v3.06m0 2.03v3.06m0 2.02v3.06m0 2.04v3.05m0 2.04v1.53l-.7 1.7m-1.6 1.6l-1.7.7h-1.5m-2.02 0h-3m-2.02 0h-3.02m-2 0h-3.02m-2 0h-3.02m-2 0h-3.03m-2 0h-3.02m-2 0h-3.03m-2 0h-3.02m-2 0h-3.03m-2 0h-3.02m-2 0h-3.03m-2 0h-3.02m-2 0h-3.02m-2 0h-3.03m-2 0h-3.02m-2 0h-3.03m-2 0h-3.02m-2 0h-3.03m-2 0h-3.02m-2 0H1554m-2 0h-3.02m-2 0h-3.02m-2 0h-3.03m-2 0h-3.02m-2 0h-3.02m-2 0h-3.02m-2 0h-3.03m-2 0h-3.02m-2 0h-3m-2.02 0h-3.02m-2 0h-3.02m-2 0h-3.03m-2 0h-3m-2.02 0h-3.02m-2 0h-3.02m-2 0h-3.03m-2 0h-3m-2.02 0h-3m-2.02 0h-3.02m-2 0h-3.02m-2 0h-3.03m-2.02 0h-3m-2.02 0h-3.02m-2 0h-3.02m-2 0h-3.02m-2 0h-3.03m-2 0h-3.02m-2 0h-3.03m-2 0h-3.02m-2 0h-3.03m-2 0h-3.02m-2 0h-3.03m-2 0h-3.02m-2 0h-3.02m-2 0h-3.03m-2 0h-3.02m-2 0h-3.03m-2 0h-3.02m-2 0h-3.03m-2 0h-3.02m-2 0H1348m-2 0h-3.02m-2 0h-3.02m-2 0h-3.03m-2 0h-3.02m-2 0h-3.02m-2 0h-3.02m-2 0h-3.03m-2 0h-3.02m-2 0h-3m-2.02 0h-3.02m-2 0h-3.02m-2 0h-3.03m-2 0h-3m-2.02 0h-3.02m-2 0h-3.02m-2 0h-3.03m-2 0h-3m-2.02 0h-3m-2.02 0h-3.02m-2 0h-3.02m-2 0H1244l-1.7-.7m-1.6-1.6l-.7-1.7v-1.52m0-2.03v-3.05m0-2.04v-3.06m0-2.03v-3.07m0-2.03v-3.06m0-2.03v-3.05m0-2.03v-3.06m0-2.04v-3.05m0-2.04v-3.05m0-2.04V709m0-2.05v-3.05m0-2.04v-3.05m0-2.03v-3.05m0-2.04v-3.06m0-2.03v-3.07m0-2.03v-3.06m0-2.03v-3.05m0-2.03v-3.06m0-2.04v-3.05m0-2.04v-3.05m0-2.04V653m0-2.05v-3.05m0-2.04v-1.53l.7-1.7" stroke="#333" fill="none"></path><path d="M580 364c0-2.2 1.8-4 4-4h612c2.2 0 4 1.8 4 4v452c0 2.2-1.8 4-4 4H584c-2.2 0-4-1.8-4-4z" stroke="#999" stroke-width="2" fill="#ec3b26" fill-opacity=".05"></path><use xlink:href="#a" transform="matrix(1,0,0,1,592,372) translate(227.04938271604937 17.77777777777778)"></use><use xlink:href="#b" transform="matrix(1,0,0,1,592,372) translate(313.28395061728395 17.77777777777778)"></use><path d="M550 756c0 4.97-20.15 9-45 9s-45-4.03-45-9v-72c0-4.97 20.15-9 45-9s45 4.03 45 9z" stroke="#5e5e5e" stroke-width="2" fill="#fff"></path><path d="M550 684c0 4.97-20.15 9-45 9s-45-4.03-45-9" stroke="#5e5e5e" stroke-width="2" fill="none"></path><use xlink:href="#c" transform="matrix(1,0,0,1,465,698) translate(14.944444444444443 23.875)"></use><use xlink:href="#d" transform="matrix(1,0,0,1,465,698) translate(10.527777777777779 47.875)"></use><path d="M606.92 464c0-2.2 1.8-4 4-4h174.3c2.22 0 4 1.8 4 4v292c0 2.2-1.78 4-4 4h-174.3c-2.2 0-4-1.8-4-4z" stroke="#ccc" fill-opacity="0"></path><use xlink:href="#e" transform="matrix(1,0,0,1,618.9230769230769,472) translate(23.851851851851855 17.77777777777778)"></use><path d="M789.23 464c0-2.2 1.8-4 4-4h174.3c2.22 0 4 1.8 4 4v292c0 2.2-1.78 4-4 4h-174.3c-2.2 0-4-1.8-4-4z" stroke="#ccc" fill-opacity="0"></path><use xlink:href="#f" transform="matrix(1,0,0,1,801.2307692307692,472) translate(40.641975308641975 17.77777777777778)"></use><path d="M971.54 464c0-2.2 1.8-4 4-4h195.08c2.2 0 4 1.8 4 4v292c0 2.2-1.8 4-4 4H975.54c-2.2 0-4-1.8-4-4z" stroke="#ccc" fill-opacity="0"></path><use xlink:href="#g" transform="matrix(1,0,0,1,983.5384615384613,472) translate(52.40740740740741 17.77777777777778)"></use><use xlink:href="#h" transform="matrix(1,0,0,1,983.5384615384613,472) translate(90 44.44444444444444)"></use><use xlink:href="#i" transform="matrix(1,0,0,1,983.5384615384613,472) translate(90 71.11111111111111)"></use><path d="M1338.98 486c0-3.3 2.68-6 6-6h234.14c3.32 0 6 2.7 6 6v97.33c0 3.32-2.68 6-6 6h-234.14c-3.32 0-6-2.68-6-6z" stroke="#000" stroke-opacity="0" stroke-width="3" fill="#fff"></path><use xlink:href="#j" transform="matrix(1,0,0,1,1350.9751907425323,492.00000000000006) translate(33.94444444444446 34.8125)"></use><use xlink:href="#k" transform="matrix(1,0,0,1,1350.9751907425323,492.00000000000006) translate(148.05555555555554 34.8125)"></use><use xlink:href="#l" transform="matrix(1,0,0,1,1350.9751907425323,492.00000000000006) translate(11.722222222222229 58.8125)"></use><use xlink:href="#m" transform="matrix(1,0,0,1,1350.9751907425323,492.00000000000006) translate(50.611111111111114 58.8125)"></use><use xlink:href="#n" transform="matrix(1,0,0,1,1350.9751907425323,492.00000000000006) translate(133.83333333333331 58.8125)"></use><path d="M552 719.97l12.05-.32 9.36-.8 8.1-1.2 33.17-6.5 3.93-.33" stroke="#5e5e5e" stroke-width="2" fill="none"></path><path d="M552.05 720.97L551 721v-2l1-.03z" fill="#5e5e5e"></path><path d="M633.84 710.14l-14.04 5.27-.42-9.25z" stroke="#5e5e5e" stroke-width="2" fill="#5e5e5e"></path><path d="M552 613.78l10.84.3 8.68.74 7.33 1.07 7.87 1.62 22.5 5.34 7.33 1.07 2.05.18" stroke="#5e5e5e" stroke-width="2" fill="none"></path><path d="M552.05 612.78l-.05 2-1.07-.03.07-1-.04-1z" fill="#5e5e5e"></path><path d="M633.84 624.84l-14.47 3.94.45-9.26z" stroke="#5e5e5e" stroke-width="2" fill="#5e5e5e"></path><path d="M1005.08 604c0-2.2 1.8-4 4-4h128c2.2 0 4 1.8 4 4v69.33c0 2.2-1.8 4-4 4h-128c-2.2 0-4-1.8-4-4z" stroke="#5e5e5e" stroke-width="2" fill="#99d5ca"></path><use xlink:href="#o" transform="matrix(1,0,0,1,1017.0769230769229,612) translate(3.2777777777777715 16)"></use><use xlink:href="#p" transform="matrix(1,0,0,1,1017.0769230769229,612) translate(13.861111111111107 40)"></use><path d="M943.75 708c0 6.63-28.37 12-63.37 12s-63.36-5.37-63.36-12v-96c0-6.63 28.37-12 63.36-12 35 0 63.37 5.37 63.37 12z" stroke="#5e5e5e" stroke-width="2" fill="#fff"></path><path d="M943.75 612c0 6.63-28.37 12-63.37 12s-63.36-5.37-63.36-12" stroke="#5e5e5e" stroke-width="2" fill="none"></path><use xlink:href="#q" transform="matrix(1,0,0,1,822.0175679385761,629) translate(-0.8888888888888999 35)"></use><use xlink:href="#r" transform="matrix(1,0,0,1,822.0175679385761,629) translate(29.638888888888886 59)"></use><path d="M541 580c4.97 0 9 15.1 9 33.75 0 18.64-4.03 33.75-9 33.75h-72c-4.97 0-9-15.1-9-33.75 0-18.64 4.03-33.75 9-33.75z" stroke="#5e5e5e" stroke-width="2" fill="#fff"></path><path d="M541 647.5c-4.97 0-9-15.1-9-33.75 0-18.64 4.03-33.75 9-33.75" stroke="#5e5e5e" stroke-width="2" fill="none"></path><use xlink:href="#s" transform="matrix(1,0,0,1,465,585) translate(-0.6666666666666643 21)"></use><use xlink:href="#d" transform="matrix(1,0,0,1,465,585) translate(1.5277777777777786 45)"></use><path d="M746.08 590c6.62 0 12 15.67 12 35s-5.38 35-12 35h-96c-6.63 0-12-15.67-12-35s5.37-35 12-35z" stroke="#5e5e5e" stroke-width="2" fill="#ffdba9"></path><path d="M746.08 660c-6.63 0-12-15.67-12-35s5.37-35 12-35" stroke="#5e5e5e" stroke-width="2" fill="none"></path><use xlink:href="#s" transform="matrix(1,0,0,1,643.0769230769231,595) translate(10.833333333333336 16)"></use><use xlink:href="#t" transform="matrix(1,0,0,1,643.0769230769231,595) translate(0.8611111111111072 40)"></use><path d="M746.08 675c6.62 0 12 15.67 12 35s-5.38 35-12 35h-96c-6.63 0-12-15.67-12-35s5.37-35 12-35z" stroke="#5e5e5e" stroke-width="2" fill="#f9d2de"></path><path d="M746.08 745c-6.63 0-12-15.67-12-35s5.37-35 12-35" stroke="#5e5e5e" stroke-width="2" fill="none"></path><use xlink:href="#c" transform="matrix(1,0,0,1,643.0769230769231,680) translate(17.444444444444443 16)"></use><use xlink:href="#t" transform="matrix(1,0,0,1,643.0769230769231,680) translate(0.8611111111111072 40)"></use><path d="M760.08 625.04l1.7.08 2.45.32 2.24.5 2.12.67 2.04.87 2.05 1.07 2.1 1.35 2.26 1.75 2.62 2.44 3.7 4.1 12.04 14.7 2.62 2.43.86.67" stroke="#5e5e5e" stroke-width="2" fill="none"></path><path d="M760.15 624.05l-.1 2-1.04-.05.08-1-.07-1z" fill="#5e5e5e"></path><path d="M812.96 660.9l-15-.32 3.06-8.75z" stroke="#5e5e5e" stroke-width="2" fill="#5e5e5e"></path><path d="M760.08 709.96l1.7-.08 2.43-.32 2.25-.5 2.1-.67 2.06-.86 2.05-1.07 2.1-1.35 2.26-1.75 2.62-2.43 3.64-4.05 12.22-14.95 2.6-2.43.83-.64" stroke="#5e5e5e" stroke-width="2" fill="none"></path><path d="M760.15 710.95L759 711l.08-1-.07-1 1.06-.04z" fill="#5e5e5e"></path><path d="M812.96 673.96l-11.93 9.1-3.06-8.76z" stroke="#5e5e5e" stroke-width="2" fill="#5e5e5e"></path><path d="M1337.98 534.67H986c-3.3 0-6 2.68-6 6v71.97c0 3.08 2.5 5.58 5.58 5.58" stroke="#5e5e5e" stroke-width="2" fill="none"></path><path d="M1338.98 535.67h-1.03v-2h1.03z" fill="#5e5e5e"></path><path d="M1000.84 618.22l-14.26 4.63v-9.27z" stroke="#5e5e5e" stroke-width="2" fill="#5e5e5e"></path><path d="M945.75 660H964c3.3 0 6 2.7 6 6v28.33c0 3.32 2.7 6 6 6h245" stroke="#5e5e5e" stroke-width="2" fill="none"></path><path d="M945.78 661h-1.03v-2h1.03z" fill="#5e5e5e"></path><path d="M1236.26 700.33l-14.26 4.64v-9.27z" stroke="#5e5e5e" stroke-width="2" fill="#5e5e5e"></path><path d="M1143.08 638.67H1154c3.3 0 6 2.68 6 6v35.17c0 3.3 2.7 6 6 6h55" stroke="#5e5e5e" stroke-width="2" fill="none"></path><path d="M1143.1 639.67h-1.02v-2h1.02z" fill="#5e5e5e"></path><path d="M1236.26 685.84l-14.26 4.64v-9.28z" stroke="#5e5e5e" stroke-width="2" fill="#5e5e5e"></path><path d="M946.75 660c0 .55-.45 1-1 1s-1-.45-1-1 .45-1 1-1 1 .45 1 1zm3.85 0c0 .55-.45 1-1 1s-1-.45-1-1 .45-1 1-1 1 .45 1 1zm3.85 0c0 .55-.45 1-1 1-.56 0-1-.45-1-1s.44-1 1-1c.55 0 1 .45 1 1zm3.84 0c0 .55-.46 1-1 1-.56 0-1-.45-1-1s.44-1 1-1c.54 0 1 .45 1 1zm3.84 0c0 .55-.45 1-1 1s-1-.45-1-1 .45-1 1-1 1 .45 1 1zm3.85 0c0 .55-.46 1-1 1-.57 0-1-.45-1-1s.43-1 1-1c.54 0 1 .45 1 1zm3.83 0c0 .55-.44 1-1 1-.55 0-1-.45-1-1s.45-1 1-1c.56 0 1 .45 1 1zm5.94 2.33c0 .56-.45 1-1 1s-1-.44-1-1c0-.55.45-1 1-1s1 .45 1 1zm3.6 0c0 .56-.45 1-1 1s-1-.44-1-1c0-.55.45-1 1-1s1 .45 1 1zm3.6 0c0 .56-.44 1-1 1-.55 0-1-.44-1-1 0-.55.45-1 1-1 .56 0 1 .45 1 1zm3.6 0c0 .56-.44 1-1 1-.55 0-1-.44-1-1 0-.55.45-1 1-1 .56 0 1 .45 1 1z" fill="#5e5e5e"></path><path d="M945.78 661h-1.03v-2h1.03z" fill="#5e5e5e"></path><path d="M1000.84 662.33l-14.26 4.64v-9.27z" stroke="#5e5e5e" stroke-width="2" fill="#5e5e5e"></path><path d="M1246 640.67c0-3.32 2.7-6 6-6h383.9c3.3 0 6 2.68 6 6V760c0 3.3-2.7 6-6 6H1252c-3.3 0-6-2.7-6-6z" fill="none"></path><g><use xlink:href="#u" transform="matrix(1,0,0,1,1246,634.6666666666666) translate(0 31.99609375)"></use><use xlink:href="#v" transform="matrix(1,0,0,1,1246,634.6666666666666) translate(18 51.99609375)"></use><use xlink:href="#w" transform="matrix(1,0,0,1,1246,634.6666666666666) translate(18 71.99609375)"></use><use xlink:href="#x" transform="matrix(1,0,0,1,1246,634.6666666666666) translate(18 91.99609375)"></use><use xlink:href="#y" transform="matrix(1,0,0,1,1246,634.6666666666666) translate(0 111.99609375)"></use></g><path d="M1291.64 610.67c0-3.32 2.7-6 6-6h304.72c3.3 0 6 2.68 6 6v48c0 3.3-2.7 6-6 6h-304.72c-3.3 0-6-2.7-6-6z" fill="none"></path><g><use xlink:href="#z" transform="matrix(1,0,0,1,1291.6396948119486,604.6666666666667) translate(89.19444444444444 22)"></use><use xlink:href="#A" transform="matrix(1,0,0,1,1291.6396948119486,604.6666666666667) translate(166.80555555555554 22)"></use><use xlink:href="#B" transform="matrix(1,0,0,1,1291.6396948119486,604.6666666666667) translate(158.5 46)"></use></g><defs><path fill="#333" d="M76-208v77h127v40H76V0H24v-248h183v40H76" id="C"></path><path fill="#333" d="M185-48c-13 30-37 53-82 52C43 2 14-33 14-96s30-98 90-98c62 0 83 45 84 108H66c0 31 8 55 39 56 18 0 30-7 34-22zm-45-69c5-46-57-63-70-21-2 6-4 13-4 21h74" id="D"></path><path fill="#333" d="M133-34C117-15 103 5 69 4 32 3 11-16 11-54c-1-60 55-63 116-61 1-26-3-47-28-47-18 1-26 9-28 27l-52-2c7-38 36-58 82-57s74 22 75 68l1 82c-1 14 12 18 25 15v27c-30 8-71 5-69-32zm-48 3c29 0 43-24 42-57-32 0-66-3-65 30 0 17 8 27 23 27" id="E"></path><path fill="#333" d="M115-3C79 11 28 4 28-45v-112H4v-33h27l15-45h31v45h36v33H77v99c-1 23 16 31 38 25v30" id="F"></path><path fill="#333" d="M85 4C-2 5 27-109 22-190h50c7 57-23 150 33 157 60-5 35-97 40-157h50l1 190h-47c-2-12 1-28-3-38-12 25-28 42-61 42" id="G"></path><path fill="#333" d="M135-150c-39-12-60 13-60 57V0H25l-1-190h47c2 13-1 29 3 40 6-28 27-53 61-41v41" id="H"></path><g id="a"><use transform="matrix(0.06172839506172839,0,0,0.06172839506172839,0,0)" xlink:href="#C"></use><use transform="matrix(0.06172839506172839,0,0,0.06172839506172839,13.518518518518517,0)" xlink:href="#D"></use><use transform="matrix(0.06172839506172839,0,0,0.06172839506172839,25.864197530864196,0)" xlink:href="#E"></use><use transform="matrix(0.06172839506172839,0,0,0.06172839506172839,38.20987654320987,0)" xlink:href="#F"></use><use transform="matrix(0.06172839506172839,0,0,0.06172839506172839,45.55555555555555,0)" xlink:href="#G"></use><use transform="matrix(0.06172839506172839,0,0,0.06172839506172839,59.07407407407407,0)" xlink:href="#H"></use><use transform="matrix(0.06172839506172839,0,0,0.06172839506172839,67.71604938271605,0)" xlink:href="#D"></use></g><path fill="#333" d="M169-182c-1-43-94-46-97-3 18 66 151 10 154 114 3 95-165 93-204 36-6-8-10-19-12-30l50-8c3 46 112 56 116 5-17-69-150-10-154-114-4-87 153-88 188-35 5 8 8 18 10 28" id="I"></path><path fill="#333" d="M110-194c64 0 96 36 96 99 0 64-35 99-97 99-61 0-95-36-95-99 0-62 34-99 96-99zm-1 164c35 0 45-28 45-65 0-40-10-65-43-65-34 0-45 26-45 65 0 36 10 65 43 65" id="J"></path><g id="b"><use transform="matrix(0.06172839506172839,0,0,0.06172839506172839,0,0)" xlink:href="#I"></use><use transform="matrix(0.06172839506172839,0,0,0.06172839506172839,14.814814814814813,0)" xlink:href="#F"></use><use transform="matrix(0.06172839506172839,0,0,0.06172839506172839,22.160493827160494,0)" xlink:href="#J"></use><use transform="matrix(0.06172839506172839,0,0,0.06172839506172839,35.67901234567901,0)" xlink:href="#H"></use><use transform="matrix(0.06172839506172839,0,0,0.06172839506172839,44.32098765432099,0)" xlink:href="#D"></use></g><path fill="#333" d="M160-131c35 5 61 23 61 61C221 17 115-2 30 0v-248c76 3 177-17 177 60 0 33-19 50-47 57zm-97-11c50-1 110 9 110-42 0-47-63-36-110-37v79zm0 115c55-2 124 14 124-45 0-56-70-42-124-44v89" id="K"></path><path fill="#333" d="M141-36C126-15 110 5 73 4 37 3 15-17 15-53c-1-64 63-63 125-63 3-35-9-54-41-54-24 1-41 7-42 31l-33-3c5-37 33-52 76-52 45 0 72 20 72 64v82c-1 20 7 32 28 27v20c-31 9-61-2-59-35zM48-53c0 20 12 33 32 33 41-3 63-29 60-74-43 2-92-5-92 41" id="L"></path><path fill="#333" d="M59-47c-2 24 18 29 38 22v24C64 9 27 4 27-40v-127H5v-23h24l9-43h21v43h35v23H59v120" id="M"></path><path fill="#333" d="M96-169c-40 0-48 33-48 73s9 75 48 75c24 0 41-14 43-38l32 2c-6 37-31 61-74 61-59 0-76-41-82-99-10-93 101-131 147-64 4 7 5 14 7 22l-32 3c-4-21-16-35-41-35" id="N"></path><path fill="#333" d="M106-169C34-169 62-67 57 0H25v-261h32l-1 103c12-21 28-36 61-36 89 0 53 116 60 194h-32v-121c2-32-8-49-39-48" id="O"></path><g id="c"><use transform="matrix(0.05555555555555555,0,0,0.05555555555555555,0,0)" xlink:href="#K"></use><use transform="matrix(0.05555555555555555,0,0,0.05555555555555555,13.333333333333332,0)" xlink:href="#L"></use><use transform="matrix(0.05555555555555555,0,0,0.05555555555555555,24.444444444444443,0)" xlink:href="#M"></use><use transform="matrix(0.05555555555555555,0,0,0.05555555555555555,30,0)" xlink:href="#N"></use><use transform="matrix(0.05555555555555555,0,0,0.05555555555555555,40,0)" xlink:href="#O"></use></g><path fill="#333" d="M135-143c-3-34-86-38-87 0 15 53 115 12 119 90S17 21 10-45l28-5c4 36 97 45 98 0-10-56-113-15-118-90-4-57 82-63 122-42 12 7 21 19 24 35" id="P"></path><path fill="#333" d="M100-194c62-1 85 37 85 99 1 63-27 99-86 99S16-35 15-95c0-66 28-99 85-99zM99-20c44 1 53-31 53-75 0-43-8-75-51-75s-53 32-53 75 10 74 51 75" id="Q"></path><path fill="#333" d="M84 4C-5 8 30-112 23-190h32v120c0 31 7 50 39 49 72-2 45-101 50-169h31l1 190h-30c-1-10 1-25-2-33-11 22-28 36-60 37" id="R"></path><path fill="#333" d="M114-163C36-179 61-72 57 0H25l-1-190h30c1 12-1 29 2 39 6-27 23-49 58-41v29" id="S"></path><path fill="#333" d="M100-194c63 0 86 42 84 106H49c0 40 14 67 53 68 26 1 43-12 49-29l28 8c-11 28-37 45-77 45C44 4 14-33 15-96c1-61 26-98 85-98zm52 81c6-60-76-77-97-28-3 7-6 17-6 28h103" id="T"></path><g id="d"><use transform="matrix(0.05555555555555555,0,0,0.05555555555555555,0,0)" xlink:href="#P"></use><use transform="matrix(0.05555555555555555,0,0,0.05555555555555555,10,0)" xlink:href="#Q"></use><use transform="matrix(0.05555555555555555,0,0,0.05555555555555555,21.11111111111111,0)" xlink:href="#R"></use><use transform="matrix(0.05555555555555555,0,0,0.05555555555555555,32.22222222222222,0)" xlink:href="#S"></use><use transform="matrix(0.05555555555555555,0,0,0.05555555555555555,38.83333333333333,0)" xlink:href="#N"></use><use transform="matrix(0.05555555555555555,0,0,0.05555555555555555,48.83333333333333,0)" xlink:href="#T"></use></g><path fill="#333" d="M127-220V0H93v-220H8v-28h204v28h-85" id="U"></path><path fill="#333" d="M117-194c89-4 53 116 60 194h-32v-121c0-31-8-49-39-48C34-167 62-67 57 0H25l-1-190h30c1 10-1 24 2 32 11-22 29-35 61-36" id="V"></path><path fill="#333" d="M101-234c-31-9-42 10-38 44h38v23H63V0H32v-167H5v-23h27c-7-52 17-82 69-68v24" id="W"></path><path fill="#333" d="M210-169c-67 3-38 105-44 169h-31v-121c0-29-5-50-35-48C34-165 62-65 56 0H25l-1-190h30c1 10-1 24 2 32 10-44 99-50 107 0 11-21 27-35 58-36 85-2 47 119 55 194h-31v-121c0-29-5-49-35-48" id="X"></path><g id="e"><use transform="matrix(0.06172839506172839,0,0,0.06172839506172839,0,0)" xlink:href="#U"></use><use transform="matrix(0.06172839506172839,0,0,0.06172839506172839,12.716049382716047,0)" xlink:href="#S"></use><use transform="matrix(0.06172839506172839,0,0,0.06172839506172839,20.061728395061728,0)" xlink:href="#L"></use><use transform="matrix(0.06172839506172839,0,0,0.06172839506172839,32.407407407407405,0)" xlink:href="#V"></use><use transform="matrix(0.06172839506172839,0,0,0.06172839506172839,44.75308641975308,0)" xlink:href="#P"></use><use transform="matrix(0.06172839506172839,0,0,0.06172839506172839,55.86419753086419,0)" xlink:href="#W"></use><use transform="matrix(0.06172839506172839,0,0,0.06172839506172839,62.03703703703703,0)" xlink:href="#Q"></use><use transform="matrix(0.06172839506172839,0,0,0.06172839506172839,74.38271604938271,0)" xlink:href="#S"></use><use transform="matrix(0.06172839506172839,0,0,0.06172839506172839,81.72839506172839,0)" xlink:href="#X"></use><use transform="matrix(0.06172839506172839,0,0,0.06172839506172839,100.18518518518518,0)" xlink:href="#P"></use></g><path fill="#333" d="M185-189c-5-48-123-54-124 2 14 75 158 14 163 119 3 78-121 87-175 55-17-10-28-26-33-46l33-7c5 56 141 63 141-1 0-78-155-14-162-118-5-82 145-84 179-34 5 7 8 16 11 25" id="Y"></path><path fill="#333" d="M177-190C167-65 218 103 67 71c-23-6-38-20-44-43l32-5c15 47 100 32 89-28v-30C133-14 115 1 83 1 29 1 15-40 15-95c0-56 16-97 71-98 29-1 48 16 59 35 1-10 0-23 2-32h30zM94-22c36 0 50-32 50-73 0-42-14-75-50-75-39 0-46 34-46 75s6 73 46 73" id="Z"></path><g id="f"><use transform="matrix(0.06172839506172839,0,0,0.06172839506172839,0,0)" xlink:href="#Y"></use><use transform="matrix(0.06172839506172839,0,0,0.06172839506172839,14.814814814814813,0)" xlink:href="#M"></use><use transform="matrix(0.06172839506172839,0,0,0.06172839506172839,20.98765432098765,0)" xlink:href="#Q"></use><use transform="matrix(0.06172839506172839,0,0,0.06172839506172839,33.33333333333333,0)" xlink:href="#S"></use><use transform="matrix(0.06172839506172839,0,0,0.06172839506172839,40.679012345679006,0)" xlink:href="#L"></use><use transform="matrix(0.06172839506172839,0,0,0.06172839506172839,53.02469135802468,0)" xlink:href="#Z"></use><use transform="matrix(0.06172839506172839,0,0,0.06172839506172839,65.37037037037037,0)" xlink:href="#T"></use></g><path fill="#333" d="M108 0H70L1-190h34L89-25l56-165h34" id="aa"></path><path fill="#333" d="M24-231v-30h32v30H24zM24 0v-190h32V0H24" id="ab"></path><g id="g"><use transform="matrix(0.06172839506172839,0,0,0.06172839506172839,0,0)" xlink:href="#Y"></use><use transform="matrix(0.06172839506172839,0,0,0.06172839506172839,14.814814814814813,0)" xlink:href="#T"></use><use transform="matrix(0.06172839506172839,0,0,0.06172839506172839,27.160493827160494,0)" xlink:href="#S"></use><use transform="matrix(0.06172839506172839,0,0,0.06172839506172839,34.50617283950617,0)" xlink:href="#aa"></use><use transform="matrix(0.06172839506172839,0,0,0.06172839506172839,45.61728395061728,0)" xlink:href="#ab"></use><use transform="matrix(0.06172839506172839,0,0,0.06172839506172839,50.49382716049382,0)" xlink:href="#V"></use><use transform="matrix(0.06172839506172839,0,0,0.06172839506172839,62.8395061728395,0)" xlink:href="#Z"></use></g><path fill="#333" d="M199 0l-22-63H83L61 0H9l90-248h61L250 0h-51zm-33-102l-36-108c-10 38-24 72-36 108h72" id="ac"></path><path fill="#333" d="M135-194c53 0 70 44 70 98 0 56-19 98-73 100-31 1-45-17-59-34 3 33 2 69 2 105H25l-1-265h48c2 10 0 23 3 31 11-24 29-35 60-35zM114-30c33 0 39-31 40-66 0-38-9-64-40-64-56 0-55 130 0 130" id="ad"></path><path fill="#333" d="M25 0v-261h50V0H25" id="ae"></path><path fill="#333" d="M25-224v-37h50v37H25zM25 0v-190h50V0H25" id="af"></path><path fill="#333" d="M190-63c-7 42-38 67-86 67-59 0-84-38-90-98-12-110 154-137 174-36l-49 2c-2-19-15-32-35-32-30 0-35 28-38 64-6 74 65 87 74 30" id="ag"></path><path fill="#333" d="M135-194c87-1 58 113 63 194h-50c-7-57 23-157-34-157-59 0-34 97-39 157H25l-1-190h47c2 12-1 28 3 38 12-26 28-41 61-42" id="ah"></path><g id="j"><use transform="matrix(0.055555555555555546,0,0,0.055555555555555546,0,0)" xlink:href="#ac"></use><use transform="matrix(0.055555555555555546,0,0,0.055555555555555546,14.388888888888886,0)" xlink:href="#ad"></use><use transform="matrix(0.055555555555555546,0,0,0.055555555555555546,26.55555555555555,0)" xlink:href="#ad"></use><use transform="matrix(0.055555555555555546,0,0,0.055555555555555546,38.722222222222214,0)" xlink:href="#ae"></use><use transform="matrix(0.055555555555555546,0,0,0.055555555555555546,44.27777777777777,0)" xlink:href="#af"></use><use transform="matrix(0.055555555555555546,0,0,0.055555555555555546,49.83333333333333,0)" xlink:href="#ag"></use><use transform="matrix(0.055555555555555546,0,0,0.055555555555555546,60.944444444444436,0)" xlink:href="#E"></use><use transform="matrix(0.055555555555555546,0,0,0.055555555555555546,72.05555555555554,0)" xlink:href="#F"></use><use transform="matrix(0.055555555555555546,0,0,0.055555555555555546,78.66666666666666,0)" xlink:href="#af"></use><use transform="matrix(0.055555555555555546,0,0,0.055555555555555546,84.22222222222221,0)" xlink:href="#J"></use><use transform="matrix(0.055555555555555546,0,0,0.055555555555555546,96.38888888888889,0)" xlink:href="#ah"></use></g><path fill="#333" d="M88-194c31-1 46 15 58 34l-1-101h50l1 261h-48c-2-10 0-23-3-31C134-8 116 4 84 4 32 4 16-41 15-95c0-56 19-97 73-99zm17 164c33 0 40-30 41-66 1-37-9-64-41-64s-38 30-39 65c0 43 13 65 39 65" id="ai"></path><g id="k"><use transform="matrix(0.055555555555555546,0,0,0.055555555555555546,0,0)" xlink:href="#ai"></use><use transform="matrix(0.055555555555555546,0,0,0.055555555555555546,12.166666666666664,0)" xlink:href="#E"></use><use transform="matrix(0.055555555555555546,0,0,0.055555555555555546,23.27777777777777,0)" xlink:href="#F"></use><use transform="matrix(0.055555555555555546,0,0,0.055555555555555546,29.888888888888882,0)" xlink:href="#E"></use></g><path fill="#333" d="M33 0v-38h34V0H33" id="aj"></path><g id="l"><use transform="matrix(0.055555555555555546,0,0,0.055555555555555546,0,0)" xlink:href="#T"></use><use transform="matrix(0.055555555555555546,0,0,0.055555555555555546,11.111111111111109,0)" xlink:href="#aj"></use><use transform="matrix(0.055555555555555546,0,0,0.055555555555555546,16.666666666666664,0)" xlink:href="#Z"></use><use transform="matrix(0.055555555555555546,0,0,0.055555555555555546,27.77777777777777,0)" xlink:href="#aj"></use></g><path fill="#333" d="M54 8c-6 25-1 50 32 44l-5 23C4 86 23 3 35-54c0-20-11-27-31-28l4-22c93-3 3-173 138-157l-4 23c-85-8-22 124-103 145C80-84 62-28 54 8" id="ak"></path><path fill="#333" d="M67 3c-93-2-31-127-26-193h32L48-50c-3 39 53 32 70 12 30-34 30-101 43-152h32L157 0h-30c1-10 6-24 4-33-14 20-29 37-64 36" id="al"></path><path fill="#333" d="M55-144c13 50 104 24 104 88C159 21 15 23 1-39l26-10c6 40 102 42 102-4-13-50-104-23-104-87 0-71 143-71 148-8l-29 4c-5-35-85-37-89 0" id="am"></path><path fill="#333" d="M111-194c62-3 86 47 72 106H45c-7 38 6 69 45 68 27-1 43-14 53-32l24 11C152-15 129 4 87 4 38 3 12-23 12-71c0-70 32-119 99-123zm44 81c14-66-71-72-95-28-4 8-8 17-11 28h106" id="an"></path><path fill="#333" d="M66-151c12-25 30-51 66-40l-6 26C45-176 58-65 38 0H6l36-190h30" id="ao"></path><path fill="#333" d="M-28 44V31h207v13H-28" id="ap"></path><path fill="#333" d="M50-231l6-30h32l-6 30H50zM6 0l37-190h31L37 0H6" id="aq"></path><path fill="#333" d="M67-162c32-53 139-36 121 50C175-51 163 2 97 4 68 4 52-11 42-31 38 6 28 39 22 75H-9l50-265h29c-1 10 0 20-3 28zm89 36c0-26-10-43-35-43-54 0-67 50-69 103-1 29 14 45 42 46 53 0 62-58 62-106" id="ar"></path><path fill="#333" d="M44-154l7-36h35l-8 36H44zM14 0l7-36h35L49 0H14" id="as"></path><g id="m"><use transform="matrix(0.055555555555555546,0,0,0.055555555555555546,0,0)" xlink:href="#ak"></use><use transform="matrix(0.055555555555555546,0,0,0.055555555555555546,6.666666666666665,0)" xlink:href="#al"></use><use transform="matrix(0.055555555555555546,0,0,0.055555555555555546,17.777777777777775,0)" xlink:href="#am"></use><use transform="matrix(0.055555555555555546,0,0,0.055555555555555546,27.77777777777777,0)" xlink:href="#an"></use><use transform="matrix(0.055555555555555546,0,0,0.055555555555555546,38.88888888888888,0)" xlink:href="#ao"></use><use transform="matrix(0.055555555555555546,0,0,0.055555555555555546,45.499999999999986,0)" xlink:href="#ap"></use><use transform="matrix(0.055555555555555546,0,0,0.055555555555555546,56.61111111111109,0)" xlink:href="#aq"></use><use transform="matrix(0.055555555555555546,0,0,0.055555555555555546,60.99999999999998,0)" xlink:href="#ar"></use><use transform="matrix(0.055555555555555546,0,0,0.055555555555555546,72.11111111111109,0)" xlink:href="#as"></use></g><path fill="#333" d="M123-170H98l11-78h32zm-65 0H33l11-78h32" id="at"></path><path fill="#333" d="M124 0L87-78 21 0h-35l86-98-46-92h33l34 74 61-74h37l-83 92 50 98h-34" id="au"></path><path fill="#333" d="M14 0l8-38h34L48 0H14" id="av"></path><path fill="#333" d="M65-194c6-26 0-49-32-44l4-23c79-12 59 72 46 129 1 20 12 27 32 28l-5 22C18-77 106 91-28 75l4-23C62 61-3-72 79-93c-41-8-21-66-14-101" id="aw"></path><g id="n"><use transform="matrix(0.055555555555555546,0,0,0.055555555555555546,0,0)" xlink:href="#at"></use><use transform="matrix(0.055555555555555546,0,0,0.055555555555555546,7.0555555555555545,0)" xlink:href="#au"></use><use transform="matrix(0.055555555555555546,0,0,0.055555555555555546,17.055555555555554,0)" xlink:href="#av"></use><use transform="matrix(0.055555555555555546,0,0,0.055555555555555546,22.611111111111107,0)" xlink:href="#au"></use><use transform="matrix(0.055555555555555546,0,0,0.055555555555555546,32.61111111111111,0)" xlink:href="#av"></use><use transform="matrix(0.055555555555555546,0,0,0.055555555555555546,38.166666666666664,0)" xlink:href="#au"></use><use transform="matrix(0.055555555555555546,0,0,0.055555555555555546,48.166666666666664,0)" xlink:href="#av"></use><use transform="matrix(0.055555555555555546,0,0,0.055555555555555546,53.72222222222222,0)" xlink:href="#au"></use><use transform="matrix(0.055555555555555546,0,0,0.055555555555555546,63.72222222222222,0)" xlink:href="#at"></use><use transform="matrix(0.055555555555555546,0,0,0.055555555555555546,70.77777777777777,0)" xlink:href="#aw"></use></g><path fill="#333" d="M140-251c81 0 123 46 123 126C263-46 219 4 140 4 59 4 17-45 17-125s42-126 123-126zm0 227c63 0 89-41 89-101s-29-99-89-99c-61 0-89 39-89 99S79-25 140-24" id="ax"></path><path fill="#333" d="M16-82v-28h88v28H16" id="ay"></path><path fill="#333" d="M85-194c31 0 48 13 60 33l-1-100h32l1 261h-30c-2-10 0-23-3-31C134-8 116 4 85 4 32 4 16-35 15-94c0-66 23-100 70-100zm9 24c-40 0-46 34-46 75 0 40 6 74 45 74 42 0 51-32 51-76 0-42-9-74-50-73" id="az"></path><g id="o"><use transform="matrix(0.05555555555555555,0,0,0.05555555555555555,0,0)" xlink:href="#ax"></use><use transform="matrix(0.05555555555555555,0,0,0.05555555555555555,15.555555555555555,0)" xlink:href="#V"></use><use transform="matrix(0.05555555555555555,0,0,0.05555555555555555,26.666666666666664,0)" xlink:href="#ay"></use><use transform="matrix(0.05555555555555555,0,0,0.05555555555555555,33.27777777777777,0)" xlink:href="#az"></use><use transform="matrix(0.05555555555555555,0,0,0.05555555555555555,44.388888888888886,0)" xlink:href="#T"></use><use transform="matrix(0.05555555555555555,0,0,0.05555555555555555,55.5,0)" xlink:href="#X"></use><use transform="matrix(0.05555555555555555,0,0,0.05555555555555555,72.11111111111111,0)" xlink:href="#L"></use><use transform="matrix(0.05555555555555555,0,0,0.05555555555555555,83.22222222222223,0)" xlink:href="#V"></use><use transform="matrix(0.05555555555555555,0,0,0.05555555555555555,94.33333333333334,0)" xlink:href="#az"></use></g><g id="p"><use transform="matrix(0.05555555555555555,0,0,0.05555555555555555,0,0)" xlink:href="#M"></use><use transform="matrix(0.05555555555555555,0,0,0.05555555555555555,5.555555555555555,0)" xlink:href="#S"></use><use transform="matrix(0.05555555555555555,0,0,0.05555555555555555,12.166666666666666,0)" xlink:href="#L"></use><use transform="matrix(0.05555555555555555,0,0,0.05555555555555555,23.27777777777778,0)" xlink:href="#V"></use><use transform="matrix(0.05555555555555555,0,0,0.05555555555555555,34.388888888888886,0)" xlink:href="#P"></use><use transform="matrix(0.05555555555555555,0,0,0.05555555555555555,44.388888888888886,0)" xlink:href="#W"></use><use transform="matrix(0.05555555555555555,0,0,0.05555555555555555,49.94444444444444,0)" xlink:href="#Q"></use><use transform="matrix(0.05555555555555555,0,0,0.05555555555555555,61.05555555555555,0)" xlink:href="#S"></use><use transform="matrix(0.05555555555555555,0,0,0.05555555555555555,67.66666666666667,0)" xlink:href="#X"></use></g><path fill="#333" d="M30-248c87 1 191-15 191 75 0 78-77 80-158 76V0H30v-248zm33 125c57 0 124 11 124-50 0-59-68-47-124-48v98" id="aA"></path><path fill="#333" d="M115-194c55 1 70 41 70 98S169 2 115 4C84 4 66-9 55-30l1 105H24l-1-265h31l2 30c10-21 28-34 59-34zm-8 174c40 0 45-34 45-75s-6-73-45-74c-42 0-51 32-51 76 0 43 10 73 51 73" id="aB"></path><g id="q"><use transform="matrix(0.05555555555555555,0,0,0.05555555555555555,0,0)" xlink:href="#aA"></use><use transform="matrix(0.05555555555555555,0,0,0.05555555555555555,13.333333333333332,0)" xlink:href="#S"></use><use transform="matrix(0.05555555555555555,0,0,0.05555555555555555,19.944444444444443,0)" xlink:href="#T"></use><use transform="matrix(0.05555555555555555,0,0,0.05555555555555555,31.055555555555554,0)" xlink:href="#N"></use><use transform="matrix(0.05555555555555555,0,0,0.05555555555555555,41.05555555555556,0)" xlink:href="#Q"></use><use transform="matrix(0.05555555555555555,0,0,0.05555555555555555,52.16666666666667,0)" xlink:href="#X"></use><use transform="matrix(0.05555555555555555,0,0,0.05555555555555555,68.77777777777779,0)" xlink:href="#aB"></use><use transform="matrix(0.05555555555555555,0,0,0.05555555555555555,79.8888888888889,0)" xlink:href="#R"></use><use transform="matrix(0.05555555555555555,0,0,0.05555555555555555,91.00000000000001,0)" xlink:href="#M"></use><use transform="matrix(0.05555555555555555,0,0,0.05555555555555555,96.55555555555557,0)" xlink:href="#T"></use><use transform="matrix(0.05555555555555555,0,0,0.05555555555555555,107.66666666666669,0)" xlink:href="#az"></use></g><path fill="#333" d="M24 0v-261h32V0H24" id="aC"></path><g id="r"><use transform="matrix(0.05555555555555555,0,0,0.05555555555555555,0,0)" xlink:href="#aa"></use><use transform="matrix(0.05555555555555555,0,0,0.05555555555555555,10,0)" xlink:href="#L"></use><use transform="matrix(0.05555555555555555,0,0,0.05555555555555555,21.11111111111111,0)" xlink:href="#aC"></use><use transform="matrix(0.05555555555555555,0,0,0.05555555555555555,25.5,0)" xlink:href="#R"></use><use transform="matrix(0.05555555555555555,0,0,0.05555555555555555,36.611111111111114,0)" xlink:href="#T"></use><use transform="matrix(0.05555555555555555,0,0,0.05555555555555555,47.72222222222223,0)" xlink:href="#P"></use></g><g id="s"><use transform="matrix(0.05555555555555555,0,0,0.05555555555555555,0,0)" xlink:href="#Y"></use><use transform="matrix(0.05555555555555555,0,0,0.05555555555555555,13.333333333333332,0)" xlink:href="#M"></use><use transform="matrix(0.05555555555555555,0,0,0.05555555555555555,18.888888888888886,0)" xlink:href="#S"></use><use transform="matrix(0.05555555555555555,0,0,0.05555555555555555,25.499999999999996,0)" xlink:href="#T"></use><use transform="matrix(0.05555555555555555,0,0,0.05555555555555555,36.61111111111111,0)" xlink:href="#L"></use><use transform="matrix(0.05555555555555555,0,0,0.05555555555555555,47.722222222222214,0)" xlink:href="#X"></use></g><g id="t"><use transform="matrix(0.05555555555555555,0,0,0.05555555555555555,0,0)" xlink:href="#M"></use><use transform="matrix(0.05555555555555555,0,0,0.05555555555555555,5.555555555555555,0)" xlink:href="#S"></use><use transform="matrix(0.05555555555555555,0,0,0.05555555555555555,12.166666666666666,0)" xlink:href="#L"></use><use transform="matrix(0.05555555555555555,0,0,0.05555555555555555,23.27777777777778,0)" xlink:href="#V"></use><use transform="matrix(0.05555555555555555,0,0,0.05555555555555555,34.388888888888886,0)" xlink:href="#P"></use><use transform="matrix(0.05555555555555555,0,0,0.05555555555555555,44.388888888888886,0)" xlink:href="#W"></use><use transform="matrix(0.05555555555555555,0,0,0.05555555555555555,49.94444444444444,0)" xlink:href="#Q"></use><use transform="matrix(0.05555555555555555,0,0,0.05555555555555555,61.05555555555555,0)" xlink:href="#S"></use><use transform="matrix(0.05555555555555555,0,0,0.05555555555555555,67.66666666666667,0)" xlink:href="#X"></use></g><path d="M677 91c1 136 41 195 171 195h213v139H796c-186-8-294-116-294-303v-351c-3-164-120-222-275-232v-137c155-10 275-69 275-231v-352c6-189 106-303 294-303h265v139H848c-126-3-171 67-171 195v346c-5 158-108 234-231 274 128 36 231 115 231 274V91" id="aD"></path><use transform="matrix(0.009765625,0,0,0.009765625,0,0)" xlink:href="#aD" id="u"></use><path d="M908-845H766l-40-639h224zm-449 0H318l-41-639h224" id="aE"></path><path fill="#ef8d22" d="M794-190h353V0H118v-190h395v-702H223v-190h571v892zM513-1277v-207h281v207H513" id="aF"></path><path fill="#ef8d22" d="M711 13c-250 0-386-99-385-349l2-556H161v-190h181l88-282h176v282h385v190H606v530c-10 130 45 186 174 184 91-2 176-11 255-27v186C933-1 833 13 711 13" id="aG"></path><path fill="#ef8d22" d="M1113-274C1038-96 884 20 626 20c-352 0-526-209-526-566 0-358 185-556 530-556 358 0 496 251 499 615H395c5 180 68 319 245 319 102 0 186-45 208-129zM857-663c-6-177-128-307-315-247-94 30-141 121-145 247h460" id="aH"></path><path fill="#ef8d22" d="M934-1102c199 0 220 177 220 381V0H926c-2-260 10-533-4-785-4-72-14-138-83-138-34 0-61 27-81 81s-29 134-29 241V0H501c-2-260 9-533-5-785-4-72-13-138-82-138-46 0-65 47-80 93-21 67-30 155-30 248V0H75c-3-360 6-732-6-1082h209c6 50 3 123 8 175 36-100 83-195 216-195 135 0 166 79 196 196 42-105 93-196 236-196" id="aI"></path><path fill="#ef8d22" d="M-5 220v-96h1238v96H-5" id="aJ"></path><path fill="#ef8d22" d="M1109-360C1066-122 902 20 624 20c-347 0-514-209-514-555 0-353 168-567 518-567 270 0 425 136 473 361l-283 14c-16-106-75-183-196-182-75 0-130 31-165 93s-52 152-52 270c0 249 74 374 221 374 120 0 188-82 201-201" id="aK"></path><path fill="#ef8d22" d="M794-190h353V0H118v-190h395v-1104H223v-190h571v1294" id="aL"></path><path fill="#ef8d22" d="M864 0L575-490l-121 84V0H173v-1484h281v850l386-448h302L762-660 1171 0H864" id="aM"></path><path fill="#ef8d22" d="M622-916c-112 2-200 14-200 111 0 90 89 101 168 121 234 58 514 77 514 368C1104-4 751 54 434 5 267-21 161-112 121-270l247-37c24 111 113 145 252 141 114-3 226-12 226-124 0-101-103-113-192-134-225-54-490-76-490-351 0-247 201-328 458-328 245 0 413 88 457 292l-249 26c-16-98-92-133-208-131" id="aN"></path><path fill="#ef8d22" d="M775-193C708-75 621 20 439 20 226 20 106-93 106-306c0-251 170-341 417-346l223-4c4-143-12-264-148-264-103 0-141 58-150 153l-293-14c37-219 194-321 455-321 263 0 418 130 417 390v392c1 84 5 161 89 160 21 0 42-2 62-6v152c-57 15-108 27-180 26-145 0-202-73-217-205h-6zm-256 17c168 0 234-139 227-325-166 4-347-25-347 173 0 94 33 152 120 152" id="aO"></path><path fill="#ef8d22" d="M426-814c58-49 145-93 255-90 282 8 442 169 442 450 0 312-203 474-522 474-288 0-453-130-497-372l281-23c24 104 89 172 219 172 153 0 230-91 230-245 0-144-78-226-224-229-94-2-148 42-191 91H145l49-763h847v209H449" id="aP"></path><path fill="#ef8d22" d="M768-1103c247 0 336 167 336 416V0H824v-619c-3-164-24-273-171-273-164 0-229 142-229 312V0H143c-4-359 9-736-8-1082h268c7 63 12 146 13 215h4c67-145 160-236 348-236" id="aQ"></path><path d="M496 0v-299h235V0H496zm0-783v-299h235v299H496" id="aR"></path><path d="M672-881c271 0 424 163 424 435 0 291-160 466-455 466-367 0-490-287-490-662 0-324 85-568 293-680 129-70 351-59 460 16 73 50 125 123 153 223l-172 31c-31-108-107-172-232-172-259 0-316 252-323 529 59-113 178-186 342-186zm-37 756c186 0 278-124 278-313s-96-304-284-304c-163 0-281 93-281 261 0 157 65 270 168 327 35 19 75 29 119 29" id="aS"></path><path d="M259 363l169-662h265L382 363H259" id="aT"></path><g id="v"><use transform="matrix(0.009765625,0,0,0.009765625,0,0)" xlink:href="#aE"></use><use transform="matrix(0.009765625,0,0,0.009765625,12.001953125,0)" xlink:href="#aF"></use><use transform="matrix(0.009765625,0,0,0.009765625,24.00390625,0)" xlink:href="#aG"></use><use transform="matrix(0.009765625,0,0,0.009765625,36.005859375,0)" xlink:href="#aH"></use><use transform="matrix(0.009765625,0,0,0.009765625,48.0078125,0)" xlink:href="#aI"></use><use transform="matrix(0.009765625,0,0,0.009765625,60.009765625,0)" xlink:href="#aJ"></use><use transform="matrix(0.009765625,0,0,0.009765625,72.01171875,0)" xlink:href="#aK"></use><use transform="matrix(0.009765625,0,0,0.009765625,84.013671875,0)" xlink:href="#aL"></use><use transform="matrix(0.009765625,0,0,0.009765625,96.015625,0)" xlink:href="#aF"></use><use transform="matrix(0.009765625,0,0,0.009765625,108.017578125,0)" xlink:href="#aK"></use><use transform="matrix(0.009765625,0,0,0.009765625,120.01953125,0)" xlink:href="#aM"></use><use transform="matrix(0.009765625,0,0,0.009765625,132.021484375,0)" xlink:href="#aN"></use><use transform="matrix(0.009765625,0,0,0.009765625,144.0234375,0)" xlink:href="#aJ"></use><use transform="matrix(0.009765625,0,0,0.009765625,156.025390625,0)" xlink:href="#aL"></use><use transform="matrix(0.009765625,0,0,0.009765625,168.02734375,0)" xlink:href="#aO"></use><use transform="matrix(0.009765625,0,0,0.009765625,180.029296875,0)" xlink:href="#aN"></use><use transform="matrix(0.009765625,0,0,0.009765625,192.03125,0)" xlink:href="#aG"></use><use transform="matrix(0.009765625,0,0,0.009765625,204.033203125,0)" xlink:href="#aJ"></use><use transform="matrix(0.009765625,0,0,0.009765625,216.03515625,0)" xlink:href="#aP"></use><use transform="matrix(0.009765625,0,0,0.009765625,228.037109375,0)" xlink:href="#aJ"></use><use transform="matrix(0.009765625,0,0,0.009765625,240.0390625,0)" xlink:href="#aI"></use><use transform="matrix(0.009765625,0,0,0.009765625,252.041015625,0)" xlink:href="#aF"></use><use transform="matrix(0.009765625,0,0,0.009765625,264.04296875,0)" xlink:href="#aQ"></use><use transform="matrix(0.009765625,0,0,0.009765625,276.044921875,0)" xlink:href="#aN"></use><use transform="matrix(0.009765625,0,0,0.009765625,288.046875,0)" xlink:href="#aE"></use><use transform="matrix(0.009765625,0,0,0.009765625,300.048828125,0)" xlink:href="#aR"></use><use transform="matrix(0.009765625,0,0,0.009765625,312.05078125,0)" xlink:href="#aS"></use><use transform="matrix(0.009765625,0,0,0.009765625,324.052734375,0)" xlink:href="#aT"></use></g><path fill="#19967d" d="M471 20c-247 0-336-169-336-415v-687h281v607c4 148 31 285 172 285 152 0 207-150 207-312v-580h281c4 359-9 736 8 1082H816c-7-63-11-146-12-215h-5C736-76 644 20 471 20" id="aU"></path><path fill="#19967d" d="M622-916c-112 2-200 14-200 111 0 90 89 101 168 121 234 58 514 77 514 368C1104-4 751 54 434 5 267-21 161-112 121-270l247-37c24 111 113 145 252 141 114-3 226-12 226-124 0-101-103-113-192-134-225-54-490-76-490-351 0-247 201-328 458-328 245 0 413 88 457 292l-249 26c-16-98-92-133-208-131" id="aV"></path><path fill="#19967d" d="M1113-274C1038-96 884 20 626 20c-352 0-526-209-526-566 0-358 185-556 530-556 358 0 496 251 499 615H395c5 180 68 319 245 319 102 0 186-45 208-129zM857-663c-6-177-128-307-315-247-94 30-141 121-145 247h460" id="aW"></path><path fill="#19967d" d="M875-1102c70 0 148 7 206 17v237c-110-17-267-37-359 15-123 69-192 207-192 395V0H250c-10-367 32-789-52-1082h271c19 69 36 149 46 228h4c52-151 151-250 356-248" id="aX"></path><path fill="#19967d" d="M-5 220v-96h1238v96H-5" id="aY"></path><path fill="#19967d" d="M1109-360C1066-122 902 20 624 20c-347 0-514-209-514-555 0-353 168-567 518-567 270 0 425 136 473 361l-283 14c-16-106-75-183-196-182-75 0-130 31-165 93s-52 152-52 270c0 249 74 374 221 374 120 0 188-82 201-201" id="aZ"></path><path fill="#19967d" d="M768-1103c247 0 336 167 336 416V0H824v-619c-3-164-24-273-171-273-164 0-229 142-229 312V0H143c-4-359 9-736-8-1082h268c7 63 12 146 13 215h4c67-145 160-236 348-236" id="ba"></path><path fill="#19967d" d="M711 13c-250 0-386-99-385-349l2-556H161v-190h181l88-282h176v282h385v190H606v530c-10 130 45 186 174 184 91-2 176-11 255-27v186C933-1 833 13 711 13" id="bb"></path><path fill="#19967d" d="M794-190h353V0H118v-190h395v-1104H223v-190h571v1294" id="bc"></path><path fill="#19967d" d="M616-1102c361 0 521 202 521 560 0 354-171 562-527 562C259 20 92-192 92-542c0-351 169-560 524-560zm-9 930c200-2 236-165 236-370 0-199-27-367-223-367-195 0-233 146-233 367 0 129 18 223 55 282s92 88 165 88" id="bd"></path><path fill="#19967d" d="M775-193C708-75 621 20 439 20 226 20 106-93 106-306c0-251 170-341 417-346l223-4c4-143-12-264-148-264-103 0-141 58-150 153l-293-14c37-219 194-321 455-321 263 0 418 130 417 390v392c1 84 5 161 89 160 21 0 42-2 62-6v152c-57 15-108 27-180 26-145 0-202-73-217-205h-6zm-256 17c168 0 234-139 227-325-166 4-347-25-347 173 0 94 33 152 120 152" id="be"></path><path fill="#19967d" d="M794-190h353V0H118v-190h395v-702H223v-190h571v892zM513-1277v-207h281v207H513" id="bf"></path><path d="M604-135c236 0 291-142 291-376v-838h190v859c5 340-142 510-480 510-326 0-463-164-463-492v-877h191v851c-3 222 46 363 271 363" id="bg"></path><path d="M614-1226c-167 1-283 53-283 213 0 183 186 193 334 234 230 63 463 120 463 409 0 286-219 387-518 390C309 23 131-98 79-338l185-37c34 165 149 248 351 246 184-2 324-58 324-238 0-203-207-221-372-266-210-57-422-111-422-377 0-267 201-356 470-360 279-5 430 101 480 324l-188 33c-28-141-121-215-293-213" id="bh"></path><path d="M-5 220v-96h1238v96H-5" id="bi"></path><path d="M912-211c-10-84-18-177-18-274v-864h172V0H836L316-1130c7 79 16 167 16 254V0H162v-1349h222" id="bj"></path><path d="M708-584V0H520v-584L36-1349h205l374 611 372-611h205" id="bk"></path><g id="w"><use transform="matrix(0.009765625,0,0,0.009765625,0,0)" xlink:href="#aE"></use><use transform="matrix(0.009765625,0,0,0.009765625,12.001953125,0)" xlink:href="#aU"></use><use transform="matrix(0.009765625,0,0,0.009765625,24.00390625,0)" xlink:href="#aV"></use><use transform="matrix(0.009765625,0,0,0.009765625,36.005859375,0)" xlink:href="#aW"></use><use transform="matrix(0.009765625,0,0,0.009765625,48.0078125,0)" xlink:href="#aX"></use><use transform="matrix(0.009765625,0,0,0.009765625,60.009765625,0)" xlink:href="#aY"></use><use transform="matrix(0.009765625,0,0,0.009765625,72.01171875,0)" xlink:href="#aZ"></use><use transform="matrix(0.009765625,0,0,0.009765625,84.013671875,0)" xlink:href="#aU"></use><use transform="matrix(0.009765625,0,0,0.009765625,96.015625,0)" xlink:href="#aX"></use><use transform="matrix(0.009765625,0,0,0.009765625,108.017578125,0)" xlink:href="#aX"></use><use transform="matrix(0.009765625,0,0,0.009765625,120.01953125,0)" xlink:href="#aW"></use><use transform="matrix(0.009765625,0,0,0.009765625,132.021484375,0)" xlink:href="#ba"></use><use transform="matrix(0.009765625,0,0,0.009765625,144.0234375,0)" xlink:href="#bb"></use><use transform="matrix(0.009765625,0,0,0.009765625,156.025390625,0)" xlink:href="#aY"></use><use transform="matrix(0.009765625,0,0,0.009765625,168.02734375,0)" xlink:href="#bc"></use><use transform="matrix(0.009765625,0,0,0.009765625,180.029296875,0)" xlink:href="#bd"></use><use transform="matrix(0.009765625,0,0,0.009765625,192.03125,0)" xlink:href="#aZ"></use><use transform="matrix(0.009765625,0,0,0.009765625,204.033203125,0)" xlink:href="#be"></use><use transform="matrix(0.009765625,0,0,0.009765625,216.03515625,0)" xlink:href="#bb"></use><use transform="matrix(0.009765625,0,0,0.009765625,228.037109375,0)" xlink:href="#bf"></use><use transform="matrix(0.009765625,0,0,0.009765625,240.0390625,0)" xlink:href="#bd"></use><use transform="matrix(0.009765625,0,0,0.009765625,252.041015625,0)" xlink:href="#ba"></use><use transform="matrix(0.009765625,0,0,0.009765625,264.04296875,0)" xlink:href="#aE"></use><use transform="matrix(0.009765625,0,0,0.009765625,276.044921875,0)" xlink:href="#aR"></use><use transform="matrix(0.009765625,0,0,0.009765625,288.046875,0)" xlink:href="#aE"></use><use transform="matrix(0.009765625,0,0,0.009765625,300.048828125,0)" xlink:href="#bg"></use><use transform="matrix(0.009765625,0,0,0.009765625,312.05078125,0)" xlink:href="#bh"></use><use transform="matrix(0.009765625,0,0,0.009765625,324.052734375,0)" xlink:href="#bi"></use><use transform="matrix(0.009765625,0,0,0.009765625,336.0546875,0)" xlink:href="#bj"></use><use transform="matrix(0.009765625,0,0,0.009765625,348.056640625,0)" xlink:href="#bk"></use><use transform="matrix(0.009765625,0,0,0.009765625,360.05859375,0)" xlink:href="#aE"></use><use transform="matrix(0.009765625,0,0,0.009765625,372.060546875,0)" xlink:href="#aT"></use></g><path fill="#de5f85" d="M471 20c-247 0-336-169-336-415v-687h281v607c4 148 31 285 172 285 152 0 207-150 207-312v-580h281c4 359-9 736 8 1082H816c-7-63-11-146-12-215h-5C736-76 644 20 471 20" id="bl"></path><path fill="#de5f85" d="M622-916c-112 2-200 14-200 111 0 90 89 101 168 121 234 58 514 77 514 368C1104-4 751 54 434 5 267-21 161-112 121-270l247-37c24 111 113 145 252 141 114-3 226-12 226-124 0-101-103-113-192-134-225-54-490-76-490-351 0-247 201-328 458-328 245 0 413 88 457 292l-249 26c-16-98-92-133-208-131" id="bm"></path><path fill="#de5f85" d="M1113-274C1038-96 884 20 626 20c-352 0-526-209-526-566 0-358 185-556 530-556 358 0 496 251 499 615H395c5 180 68 319 245 319 102 0 186-45 208-129zM857-663c-6-177-128-307-315-247-94 30-141 121-145 247h460" id="bn"></path><path fill="#de5f85" d="M875-1102c70 0 148 7 206 17v237c-110-17-267-37-359 15-123 69-192 207-192 395V0H250c-10-367 32-789-52-1082h271c19 69 36 149 46 228h4c52-151 151-250 356-248" id="bo"></path><path fill="#de5f85" d="M-5 220v-96h1238v96H-5" id="bp"></path><path fill="#de5f85" d="M427-171c3 195 2 397 2 596H148V-846c1-83-4-168-8-236h272c10 49 14 118 15 176h4c59-114 151-197 316-197 291 0 385 259 385 560 0 243-65 433-220 521-50 28-109 42-176 42-162-2-253-78-309-191zm69-661c-91 113-92 463-1 586 46 62 145 101 225 54 96-57 118-191 119-351 0-123-18-215-53-276-46-82-128-115-220-74-25 12-48 33-70 61" id="bq"></path><path fill="#de5f85" d="M768-1103c247 0 336 167 336 416V0H824v-619c-3-164-24-273-171-273-164 0-229 142-229 312V0H143c-4-359 9-736-8-1082h268c7 63 12 146 13 215h4c67-145 160-236 348-236" id="br"></path><path fill="#de5f85" d="M802-909c-3-189-2-383-2-575h281v1248c-1 83 4 168 8 236H817c-9-50-14-117-15-176h-4C735-49 651 20 482 20 191 20 97-238 97-539c0-243 66-432 221-519 50-28 108-42 175-42 162 2 253 78 309 191zm-70 658c91-113 93-462 2-584-46-61-145-100-224-53-96 56-119 190-120 349 0 123 17 214 52 275 46 82 130 115 222 74 25-12 46-33 68-61" id="bs"></path><path fill="#de5f85" d="M794-190h353V0H118v-190h395v-1104H223v-190h571v1294" id="bt"></path><path fill="#de5f85" d="M775-193C708-75 621 20 439 20 226 20 106-93 106-306c0-251 170-341 417-346l223-4c4-143-12-264-148-264-103 0-141 58-150 153l-293-14c37-219 194-321 455-321 263 0 418 130 417 390v392c1 84 5 161 89 160 21 0 42-2 62-6v152c-57 15-108 27-180 26-145 0-202-73-217-205h-6zm-256 17c168 0 234-139 227-325-166 4-347-25-347 173 0 94 33 152 120 152" id="bu"></path><path fill="#de5f85" d="M711 13c-250 0-386-99-385-349l2-556H161v-190h181l88-282h176v282h385v190H606v530c-10 130 45 186 174 184 91-2 176-11 255-27v186C933-1 833 13 711 13" id="bv"></path><path fill="#de5f85" d="M788-691c191 26 337 112 337 315 0 286-214 399-510 399-306 0-483-128-522-391l286-25c18 124 91 190 235 188 132-2 223-58 223-188 0-176-191-182-378-179v-227c176 5 345-9 345-176 0-115-82-171-200-171s-198 55-206 169l-281-20c34-252 213-373 492-373 224 0 381 74 451 224 20 43 29 89 29 136 0 195-130 279-301 315v4" id="bw"></path><path fill="#de5f85" d="M117-675c0-408 109-695 502-695 384 0 492 295 492 695 0 326-84 561-303 658-117 51-277 52-394 1-217-95-297-335-297-659zm591 451c148-93 132-449 108-680-15-138-53-246-199-246-150 0-193 107-207 248-22 230-40 585 106 678 50 32 141 32 192 0zM506-555v-249h215v249H506" id="bx"></path><path fill="#de5f85" d="M143 212c82 12 185 12 233-31 50-45 83-117 110-192L38-1082h297c100 284 211 557 291 861 72-305 176-578 270-861h294L742 57c-80 192-156 368-417 368-60 0-131-4-182-13V212" id="by"></path><path d="M558-647c-214-53-428-110-428-376 0-239 192-311 428-323v-130h128v130c251 5 384 114 433 321l-174 33c-27-133-107-212-259-221v426c233 57 464 118 464 407 0 258-203 345-464 360v161H558V-20C281-27 115-149 66-379l170-37c31 161 136 250 322 258v-489zm0-568c-146 8-256 54-256 197 0 156 132 181 256 216v-413zM686-156c160-12 292-63 292-227 0-177-151-205-292-244v471" id="bz"></path><path d="M148-1120c216-7 379-89 463-229h166v1204h353V0H157v-145h439v-1021c-79 124-254 184-448 194v-148" id="bA"></path><path d="M496 0v-299h235V0H496" id="bB"></path><path d="M1065-1013c47 164 49 500-1 665C999-130 875 20 611 20c-377 0-484-300-487-695-2-245 41-425 141-551 77-98 191-144 352-144 261 0 386 140 448 357zM741-155c199-92 203-504 159-785-26-168-96-284-283-284-281 0-308 256-311 549-2 181 18 324 80 428 46 77 115 118 227 120 47 0 90-10 128-28zM496-555v-249h235v249H496" id="bC"></path><g id="x"><use transform="matrix(0.009765625,0,0,0.009765625,0,0)" xlink:href="#aE"></use><use transform="matrix(0.009765625,0,0,0.009765625,12.001953125,0)" xlink:href="#bl"></use><use transform="matrix(0.009765625,0,0,0.009765625,24.00390625,0)" xlink:href="#bm"></use><use transform="matrix(0.009765625,0,0,0.009765625,36.005859375,0)" xlink:href="#bn"></use><use transform="matrix(0.009765625,0,0,0.009765625,48.0078125,0)" xlink:href="#bo"></use><use transform="matrix(0.009765625,0,0,0.009765625,60.009765625,0)" xlink:href="#bp"></use><use transform="matrix(0.009765625,0,0,0.009765625,72.01171875,0)" xlink:href="#bm"></use><use transform="matrix(0.009765625,0,0,0.009765625,84.013671875,0)" xlink:href="#bq"></use><use transform="matrix(0.009765625,0,0,0.009765625,96.015625,0)" xlink:href="#bn"></use><use transform="matrix(0.009765625,0,0,0.009765625,108.017578125,0)" xlink:href="#br"></use><use transform="matrix(0.009765625,0,0,0.009765625,120.01953125,0)" xlink:href="#bs"></use><use transform="matrix(0.009765625,0,0,0.009765625,132.021484375,0)" xlink:href="#bp"></use><use transform="matrix(0.009765625,0,0,0.009765625,144.0234375,0)" xlink:href="#bt"></use><use transform="matrix(0.009765625,0,0,0.009765625,156.025390625,0)" xlink:href="#bu"></use><use transform="matrix(0.009765625,0,0,0.009765625,168.02734375,0)" xlink:href="#bm"></use><use transform="matrix(0.009765625,0,0,0.009765625,180.029296875,0)" xlink:href="#bv"></use><use transform="matrix(0.009765625,0,0,0.009765625,192.03125,0)" xlink:href="#bp"></use><use transform="matrix(0.009765625,0,0,0.009765625,204.033203125,0)" xlink:href="#bw"></use><use transform="matrix(0.009765625,0,0,0.009765625,216.03515625,0)" xlink:href="#bx"></use><use transform="matrix(0.009765625,0,0,0.009765625,228.037109375,0)" xlink:href="#bp"></use><use transform="matrix(0.009765625,0,0,0.009765625,240.0390625,0)" xlink:href="#bs"></use><use transform="matrix(0.009765625,0,0,0.009765625,252.041015625,0)" xlink:href="#bu"></use><use transform="matrix(0.009765625,0,0,0.009765625,264.04296875,0)" xlink:href="#by"></use><use transform="matrix(0.009765625,0,0,0.009765625,276.044921875,0)" xlink:href="#bm"></use><use transform="matrix(0.009765625,0,0,0.009765625,288.046875,0)" xlink:href="#aE"></use><use transform="matrix(0.009765625,0,0,0.009765625,300.048828125,0)" xlink:href="#aR"></use><use transform="matrix(0.009765625,0,0,0.009765625,312.05078125,0)" xlink:href="#aE"></use><use transform="matrix(0.009765625,0,0,0.009765625,324.052734375,0)" xlink:href="#bz"></use><use transform="matrix(0.009765625,0,0,0.009765625,336.0546875,0)" xlink:href="#bA"></use><use transform="matrix(0.009765625,0,0,0.009765625,348.056640625,0)" xlink:href="#bB"></use><use transform="matrix(0.009765625,0,0,0.009765625,360.05859375,0)" xlink:href="#bA"></use><use transform="matrix(0.009765625,0,0,0.009765625,372.060546875,0)" xlink:href="#bC"></use><use transform="matrix(0.009765625,0,0,0.009765625,384.0625,0)" xlink:href="#aE"></use></g><path d="M726 122c-7 187-108 303-294 303H167V286h213c129-2 172-59 172-195v-347c5-160 106-236 230-276-125-36-230-116-230-272v-346c2-128-45-195-172-195H167v-139h265c187 7 294 114 294 303v352c4 162 120 221 275 231v137c-155 10-275 68-275 232v351" id="bD"></path><use transform="matrix(0.009765625,0,0,0.009765625,0,0)" xlink:href="#bD" id="y"></use><g id="z"><use transform="matrix(0.05555555555555555,0,0,0.05555555555555555,0,0)" xlink:href="#C"></use><use transform="matrix(0.05555555555555555,0,0,0.05555555555555555,12.166666666666666,0)" xlink:href="#D"></use><use transform="matrix(0.05555555555555555,0,0,0.05555555555555555,23.27777777777778,0)" xlink:href="#E"></use><use transform="matrix(0.05555555555555555,0,0,0.05555555555555555,34.388888888888886,0)" xlink:href="#F"></use><use transform="matrix(0.05555555555555555,0,0,0.05555555555555555,41,0)" xlink:href="#G"></use><use transform="matrix(0.05555555555555555,0,0,0.05555555555555555,53.166666666666664,0)" xlink:href="#H"></use><use transform="matrix(0.05555555555555555,0,0,0.05555555555555555,60.94444444444444,0)" xlink:href="#D"></use></g><path fill="#333" d="M147 0H94L2-248h55l64 206c17-72 42-137 63-206h54" id="bE"></path><g id="A"><use transform="matrix(0.05555555555555555,0,0,0.05555555555555555,0,0)" xlink:href="#bE"></use><use transform="matrix(0.05555555555555555,0,0,0.05555555555555555,12.222222222222221,0)" xlink:href="#D"></use><use transform="matrix(0.05555555555555555,0,0,0.05555555555555555,23.333333333333332,0)" xlink:href="#ag"></use><use transform="matrix(0.05555555555555555,0,0,0.05555555555555555,34.44444444444444,0)" xlink:href="#F"></use><use transform="matrix(0.05555555555555555,0,0,0.05555555555555555,41.05555555555556,0)" xlink:href="#J"></use><use transform="matrix(0.05555555555555555,0,0,0.05555555555555555,53.22222222222222,0)" xlink:href="#H"></use></g></defs></g></svg> 