<?xml version="1.0" encoding="UTF-8"?> <svg xmlns="http://www.w3.org/2000/svg" xmlns:xlink="http://www.w3.org/1999/xlink" xmlns:lucid="lucid" width="1324.54" height="880"><g transform="translate(-135.45675726409343 -280.0000000000001)" lucid:page-tab-id="r5NFld7dhoJU"><path d="M0 0h1760v1360H0z" fill="#fff"></path><path d="M520 984c0-2.2 1.8-4 4-4h672c2.2 0 4 1.8 4 4v152c0 2.2-1.8 4-4 4H524c-2.2 0-4-1.8-4-4z" fill-opacity="0"></path><path d="M531.02 980h6.02m4 0h6.03m4 0h6.03m4 0h6.03m4 0h6.03m4 0h6.03m4 0h6.02m4 0h6.03m4 0h6.03m4 0h6.03m4.02 0h6.02m4 0h6.03m4 0h6.03m4 0h6.03m4 0h6.03m4 0h6.03m4 0h6.02m4 0h6.03m4 0h6.03m4 0h6.03m4.02 0h6.02m4 0h6.03m4 0h6.03m4 0h6.03m4 0h6.03m4 0h6.03m4 0h6m4.03 0h6m4.03 0h6m4.03 0h6m4.02 0h6m4.03 0h6m4.03 0h6m4.03 0h6.02m4.02 0h6m4.03 0h6m4.03 0h6m4.03 0h6m4.03 0h6m4.03 0h6m4 0h6.03m4 0h6.03m4 0h6.03m4 0h6.02m4 0h6.03m4 0h6.03m4 0h6.03m4.02 0h6.02m4 0h6.03m4 0h6.03m4 0h6.03m4 0h6.03m4 0h6.03m4 0h6.02m4 0h6.03m4 0h6.03m4 0h6.03m4.02 0h6.02m4 0h6.03m4 0h6.03m4 0h6.03m4 0h6.03m4 0h6.03m4 0h6.02m4 0h6.03m4 0h6.03m4 0h3.02l2.83 1.17L1200 984v3.04m0 4.05v6.07m0 4.06v6.08m0 4.06v6.08m0 4.05v6.07m0 4.06v6.08m0 4.06v6.08m0 4.05v6.07m0 4.06v6.08m0 4.06v6.08m0 4.05v6.07m0 4.06v6.08m0 4.06v6.08m0 4.05v6.07m0 4.06v6.08m0 4.06v3.04l-1.17 2.83-2.83 1.17h-3m-4.02 0h-6.02m-4 0h-6.03m-4 0h-6.03m-4 0h-6.03m-4 0h-6.03m-4 0h-6.03m-4 0h-6.02m-4 0h-6.03m-4 0h-6.03m-4 0h-6.03m-4.02 0h-6.02m-4 0h-6.03m-4 0h-6.03m-4 0h-6.03m-4 0h-6.03m-4 0h-6.03m-4 0h-6.02m-4 0h-6.03m-4 0h-6.03m-4 0h-6.03m-4.02 0h-6.02m-4 0h-6.03m-4 0h-6.03m-4 0h-6.03m-4 0h-6.03m-4 0h-6.03m-4 0h-6m-4.03 0h-6m-4.03 0h-6m-4.03 0h-6m-4.02 0h-6m-4.03 0h-6m-4.03 0h-6m-4.03 0h-6.02m-4.02 0h-6m-4.03 0h-6m-4.03 0h-6m-4.03 0h-6m-4.03 0h-6m-4.03 0h-6m-4 0h-6.03m-4 0h-6.03m-4 0h-6.03m-4 0h-6.02m-4 0h-6.03m-4 0h-6.03m-4 0h-6.03m-4.02 0h-6.02m-4 0h-6.03m-4 0h-6.03m-4 0h-6.03m-4 0h-6.03m-4 0h-6.03m-4 0h-6.02m-4 0h-6.03m-4 0h-6.03m-4 0h-6.03m-4.02 0h-6.02m-4 0h-6.03m-4 0h-6.03m-4 0h-6.03m-4 0h-6.03m-4 0h-6.03m-4 0h-6.02m-4 0h-6.03m-4 0H531m-4 0H524l-2.83-1.17L520 1136v-3.04m0-4.05v-6.07m0-4.06v-6.08m0-4.06v-6.08m0-4.05v-6.07m0-4.06v-6.08m0-4.06v-6.08m0-4.05v-6.07m0-4.06v-6.08m0-4.06v-6.08m0-4.05v-6.07m0-4.06v-6.08m0-4.06v-6.08m0-4.05v-6.07m0-4.06v-6.08m0-4.06V984l1.17-2.83L524 980h3" stroke="#333" stroke-width="2" fill="none"></path><path d="M1220.1 1024.56c0-3.32 2.7-6 6-6h176.5c3.3 0 6 2.68 6 6v48c0 3.3-2.7 6-6 6h-176.5c-3.3 0-6-2.7-6-6z" fill="none"></path><use xlink:href="#a" transform="matrix(1,0,0,1,1220.110339506173,1018.5555555555557) translate(47.104938271604944 19.555555555555557)"></use><use xlink:href="#b" transform="matrix(1,0,0,1,1220.110339506173,1018.5555555555557) translate(34.84876543209877 48.88888888888889)"></use><use xlink:href="#c" transform="matrix(1,0,0,1,1220.110339506173,1018.5555555555557) translate(42.3858024691358 78.22222222222223)"></use><use xlink:href="#d" transform="matrix(1,0,0,1,1220.110339506173,1018.5555555555557) translate(55.18518518518519 107.55555555555556)"></use><path d="M440 826c0-3.3 2.7-6 6-6h228c3.3 0 6 2.7 6 6v48c0 3.3-2.7 6-6 6H446c-3.3 0-6-2.7-6-6z" fill="none"></path><use xlink:href="#e" transform="matrix(1,0,0,1,440,820) translate(74.54012345679013 20.22222222222222)"></use><use xlink:href="#f" transform="matrix(1,0,0,1,440,820) translate(52.87962962962963 49.55555555555556)"></use><use xlink:href="#g" transform="matrix(1,0,0,1,440,820) translate(139.5895061728395 49.55555555555556)"></use><path d="M771 518.9c0-3.32 2.68-6 6-6h388c3.3 0 6 2.68 6 6V638.2c0 3.32-2.7 6-6 6H777c-3.32 0-6-2.68-6-6z" fill="none"></path><use xlink:href="#h" transform="matrix(1,0,0,1,770.9923791672707,512.8888888888889) translate(0 24.439670138888893)"></use><use xlink:href="#i" transform="matrix(1,0,0,1,770.9923791672707,512.8888888888889) translate(18 48.884114583333336)"></use><use xlink:href="#j" transform="matrix(1,0,0,1,770.9923791672707,512.8888888888889) translate(18 73.32855902777777)"></use><use xlink:href="#k" transform="matrix(1,0,0,1,770.9923791672707,512.8888888888889) translate(18 97.77300347222223)"></use><use xlink:href="#l" transform="matrix(1,0,0,1,770.9923791672707,512.8888888888889) translate(0 122.21744791666666)"></use><path d="M500.5 1060h-66.52c-3.32 0-6-2.7-6-6v-73.44c0-3.3-2.7-6-6-6h-84.02" stroke="#5e5e5e" stroke-width="2" fill="none"></path><path d="M515.76 1060l-14.26 4.64v-9.28z" stroke="#5e5e5e" stroke-width="2" fill="#5e5e5e"></path><path d="M337.98 975.56h-1.02v-2h1.02z" fill="#5e5e5e"></path><use xlink:href="#m" transform="matrix(1,0,0,1,338.57343258300466,946.563274443187) translate(0 16)"></use><use xlink:href="#n" transform="matrix(1,0,0,1,338.57343258300466,946.563274443187) translate(73.11111111111111 16)"></use><path d="M727.14 578.58l-389.18.58" stroke="#5e5e5e" stroke-width="2" fill="none"></path><path d="M742.4 578.56l-14.25 4.66-.02-9.27z" stroke="#5e5e5e" stroke-width="2" fill="#5e5e5e"></path><path d="M337.98 580.16h-1.02v-2h1.02z" fill="#5e5e5e"></path><use xlink:href="#o" transform="matrix(1,0,0,1,342.9063098862655,551.08797441491) translate(0 16)"></use><use xlink:href="#p" transform="matrix(1,0,0,1,342.9063098862655,551.08797441491) translate(48.777777777777786 16)"></use><path d="M744.54 804c0-2.2 1.8-4 4-4h442.8c2.2 0 4 1.8 4 4v151.56c0 2.2-1.8 4-4 4h-442.8c-2.2 0-4-1.8-4-4z" stroke="#000" stroke-opacity="0" stroke-width="3" fill="#e5e5e5"></path><use xlink:href="#q" transform="matrix(1,0,0,1,756.5432427359066,812) translate(0 19.55078125)"></use><use xlink:href="#r" transform="matrix(1,0,0,1,756.5432427359066,812) translate(254.7081163194445 19.55078125)"></use><use xlink:href="#s" transform="matrix(1,0,0,1,756.5432427359066,812) translate(36.01 42.21788194444444)"></use><use xlink:href="#t" transform="matrix(1,0,0,1,756.5432427359066,812) translate(36.01 64.44010416666666)"></use><use xlink:href="#u" transform="matrix(1,0,0,1,756.5432427359066,812) translate(72.01 64.44010416666666)"></use><use xlink:href="#v" transform="matrix(1,0,0,1,756.5432427359066,812) translate(108.01 64.44010416666666)"></use><use xlink:href="#w" transform="matrix(1,0,0,1,756.5432427359066,812) translate(161.3520138888889 64.44010416666666)"></use><use xlink:href="#x" transform="matrix(1,0,0,1,756.5432427359066,812) translate(0 86.66232638888889)"></use><use xlink:href="#u" transform="matrix(1,0,0,1,756.5432427359066,812) translate(36.01 86.66232638888889)"></use><use xlink:href="#v" transform="matrix(1,0,0,1,756.5432427359066,812) translate(72.01 86.66232638888889)"></use><use xlink:href="#y" transform="matrix(1,0,0,1,756.5432427359066,812) translate(144.01 86.66232638888889)"></use><use xlink:href="#z" transform="matrix(1,0,0,1,756.5432427359066,812) translate(157.34550347222222 86.66232638888889)"></use><use xlink:href="#A" transform="matrix(1,0,0,1,756.5432427359066,812) translate(36.01 108.88454861111111)"></use><use xlink:href="#B" transform="matrix(1,0,0,1,756.5432427359066,812) translate(36.01 131.10677083333334)"></use><path d="M744.54 304c0-2.2 1.8-4 4-4h442.8c2.2 0 4 1.8 4 4v173.78c0 2.2-1.8 4-4 4h-442.8c-2.2 0-4-1.8-4-4z" stroke="#000" stroke-opacity="0" stroke-width="3" fill="#e5e5e5"></path><use xlink:href="#C" transform="matrix(1,0,0,1,756.5432427359066,312.0000000000001) translate(0 19.55078125)"></use><use xlink:href="#r" transform="matrix(1,0,0,1,756.5432427359066,312.0000000000001) translate(268.04361979166674 19.55078125)"></use><use xlink:href="#s" transform="matrix(1,0,0,1,756.5432427359066,312.0000000000001) translate(36.01 42.21788194444444)"></use><use xlink:href="#t" transform="matrix(1,0,0,1,756.5432427359066,312.0000000000001) translate(36.01 64.44010416666666)"></use><use xlink:href="#u" transform="matrix(1,0,0,1,756.5432427359066,312.0000000000001) translate(72.01 64.44010416666666)"></use><use xlink:href="#v" transform="matrix(1,0,0,1,756.5432427359066,312.0000000000001) translate(108.01 64.44010416666666)"></use><use xlink:href="#w" transform="matrix(1,0,0,1,756.5432427359066,312.0000000000001) translate(161.3520138888889 64.44010416666666)"></use><use xlink:href="#x" transform="matrix(1,0,0,1,756.5432427359066,312.0000000000001) translate(0 86.66232638888889)"></use><use xlink:href="#u" transform="matrix(1,0,0,1,756.5432427359066,312.0000000000001) translate(36.01 86.66232638888889)"></use><use xlink:href="#v" transform="matrix(1,0,0,1,756.5432427359066,312.0000000000001) translate(72.01 86.66232638888889)"></use><use xlink:href="#y" transform="matrix(1,0,0,1,756.5432427359066,312.0000000000001) translate(144.01 86.66232638888889)"></use><use xlink:href="#D" transform="matrix(1,0,0,1,756.5432427359066,312.0000000000001) translate(157.34550347222222 86.66232638888889)"></use><use xlink:href="#E" transform="matrix(1,0,0,1,756.5432427359066,312.0000000000001) translate(36.01 108.88454861111111)"></use><use xlink:href="#F" transform="matrix(1,0,0,1,756.5432427359066,312.0000000000001) translate(36.01 131.10677083333334)"></use><use xlink:href="#G" transform="matrix(1,0,0,1,756.5432427359066,312.0000000000001) translate(72.01 131.10677083333334)"></use><use xlink:href="#G" transform="matrix(1,0,0,1,756.5432427359066,312.0000000000001) translate(108.01 131.10677083333334)"></use><use xlink:href="#H" transform="matrix(1,0,0,1,756.5432427359066,312.0000000000001) translate(144.01 131.10677083333334)"></use><use xlink:href="#I" transform="matrix(1,0,0,1,756.5432427359066,312.0000000000001) translate(170.68100694444445 131.10677083333334)"></use><use xlink:href="#B" transform="matrix(1,0,0,1,756.5432427359066,312.0000000000001) translate(36.01 153.32899305555557)"></use><path d="M536.82 1000h82.7v40h-82.7zM619.53 1000h81.42v40h-81.42zM700.95 1000h71.73v40h-71.73z" fill="#e5e5e5"></path><path d="M772.68 1000h145.28v40H772.68zM917.96 1000h102v40h-102zM1019.96 1000h163.22v40h-163.22z" fill="#e5e5e5"></path><path d="M536.82 1040h82.7v40h-82.7zM619.53 1040h81.42v40h-81.42zM700.95 1040h71.73v40h-71.73z" fill="#fff"></path><path d="M772.68 1040h145.28v40H772.68zM917.96 1040h102v40h-102zM1019.96 1040h163.22v40h-163.22zM536.82 1080h82.7v40h-82.7zM619.53 1080h81.42v40h-81.42zM700.95 1080h71.73v40h-71.73z" fill="#fff"></path><path d="M772.68 1080h145.28v40H772.68zM917.96 1080h102v40h-102zM1019.96 1080h163.22v40h-163.22z" fill="#fff"></path><path d="M536.82 1000v40M619.53 1000v40M700.95 1000v40M772.68 1000v40M917.96 1000v40M1019.96 1000v40M1183.18 1000v40M536.82 1040v40M619.53 1040v40M700.95 1040v40M772.68 1040v40M917.96 1040v40M1019.96 1040v40M1183.18 1040v40M536.82 1080v40M619.53 1080v40M700.95 1080v40M772.68 1080v40M917.96 1080v40M1019.96 1080v40M1183.18 1080v40M536.82 1000h82.7M619.53 1000h81.42M700.95 1000h71.73M772.68 1000h145.28M917.96 1000h102M1019.96 1000h163.22M536.82 1040h82.7M619.53 1040h81.42M700.95 1040h71.73M772.68 1040h145.28M917.96 1040h102M1019.96 1040h163.22M536.82 1080h82.7M536.82 1120h82.7M619.53 1080h81.42M619.53 1120h81.42M700.95 1080h71.73M700.95 1120h71.73M772.68 1080h145.28M772.68 1120h145.28M917.96 1080h102M917.96 1120h102M1019.96 1080h163.22M1019.96 1120h163.22" stroke="#5e5e5e" fill="none"></path><g><use xlink:href="#J" transform="matrix(1,0,0,1,541.8179012345679,1005) translate(0.1419753086419746 19.444444444444443)"></use></g><g><use xlink:href="#K" transform="matrix(1,0,0,1,624.533950617284,1005) translate(0.29012345679012697 19.444444444444443)"></use></g><g><use xlink:href="#L" transform="matrix(1,0,0,1,705.9537037037037,1005) translate(10.074074074074076 19.444444444444443)"></use></g><g><use xlink:href="#M" transform="matrix(1,0,0,1,777.6820987654321,1005) translate(0 19)"></use></g><g><use xlink:href="#N" transform="matrix(1,0,0,1,922.9598765432099,1005) translate(0 19)"></use></g><g><use xlink:href="#O" transform="matrix(1,0,0,1,1024.95987654321,1005) translate(0 19)"></use></g><g><use xlink:href="#P" transform="matrix(1,0,0,1,541.8179012345679,1045) translate(30.32716049382716 19.444444444444443)"></use></g><g><use xlink:href="#Q" transform="matrix(1,0,0,1,624.533950617284,1045) translate(23.654320987654323 19.444444444444443)"></use></g><g><use xlink:href="#R" transform="matrix(1,0,0,1,705.9537037037037,1045) translate(6.3086419753086425 19.444444444444443)"></use></g><g><use xlink:href="#S" transform="matrix(1,0,0,1,777.6820987654321,1045) translate(61.82716049382716 19.444444444444443)"></use></g><g><use xlink:href="#T" transform="matrix(1,0,0,1,922.9598765432099,1045) translate(18.22222222222222 19.444444444444443)"></use></g><g><use xlink:href="#U" transform="matrix(1,0,0,1,1024.95987654321,1045) translate(64.65432098765432 19.444444444444443)"></use></g><g><use xlink:href="#V" transform="matrix(1,0,0,1,541.8179012345679,1085) translate(30.32716049382716 19.444444444444443)"></use></g><g><use xlink:href="#W" transform="matrix(1,0,0,1,624.533950617284,1085) translate(23.654320987654323 19.444444444444443)"></use></g><g><use xlink:href="#X" transform="matrix(1,0,0,1,705.9537037037037,1085) translate(0.13580246913580396 19.444444444444443)"></use></g><g><use xlink:href="#Y" transform="matrix(1,0,0,1,777.6820987654321,1085) translate(61.82716049382716 19.444444444444443)"></use></g><g><use xlink:href="#Z" transform="matrix(1,0,0,1,922.9598765432099,1085) translate(12.04938271604938 19.444444444444443)"></use></g><g><use xlink:href="#aa" transform="matrix(1,0,0,1,1024.95987654321,1085) translate(49.22222222222223 19.444444444444443)"></use></g><path d="M1188.7 554.56c0-3.32 2.68-6 6-6H1434c3.3 0 6 2.68 6 6v48c0 3.3-2.7 6-6 6h-239.3c-3.32 0-6-2.7-6-6z" fill="none"></path><g><use xlink:href="#ab" transform="matrix(1,0,0,1,1188.6975308641977,548.5555555555554) translate(41.293209876543216 19.555555555555557)"></use><use xlink:href="#ac" transform="matrix(1,0,0,1,1188.6975308641977,548.5555555555554) translate(136.15123456790124 19.555555555555557)"></use><use xlink:href="#ad" transform="matrix(1,0,0,1,1188.6975308641977,548.5555555555554) translate(50.73148148148148 48.88888888888889)"></use><use xlink:href="#ae" transform="matrix(1,0,0,1,1188.6975308641977,548.5555555555554) translate(123.92901234567901 48.88888888888889)"></use><use xlink:href="#af" transform="matrix(1,0,0,1,1188.6975308641977,548.5555555555554) translate(60.984567901234556 78.22222222222223)"></use></g><path d="M360 314c0-3.3 2.7-6 6-6h348c3.3 0 6 2.7 6 6v68c0 3.3-2.7 6-6 6H366c-3.3 0-6-2.7-6-6z" fill="none"></path><g><use xlink:href="#e" transform="matrix(1,0,0,1,360,308) translate(134.54012345679013 19.555555555555557)"></use><use xlink:href="#ag" transform="matrix(1,0,0,1,360,308) translate(101.98148148148147 48.88888888888889)"></use><use xlink:href="#ah" transform="matrix(1,0,0,1,360,308) translate(108.7716049382716 48.88888888888889)"></use><use xlink:href="#ai" transform="matrix(1,0,0,1,360,308) translate(191.54320987654322 48.88888888888889)"></use><use xlink:href="#aj" transform="matrix(1,0,0,1,360,308) translate(112.20061728395062 78.22222222222223)"></use><use xlink:href="#ak" transform="matrix(1,0,0,1,360,308) translate(147.44135802469137 78.22222222222223)"></use></g><path d="M155.46 304c0-2.2 1.8-4 4-4h172c2.2 0 4 1.8 4 4v770.56c0 2.2-1.8 4-4 4h-172c-2.2 0-4-1.8-4-4z" stroke="#5e5e5e" stroke-width="3" fill="#ec3b26" fill-opacity=".47"></path><g><use xlink:href="#al" transform="matrix(1,0,0,1,167.45675726409343,312.0000000000001) translate(29.185185185185198 387.0364583333333)"></use></g><path d="M746.64 502.56c0-2.2 1.8-4 4-4h440.7c2.2 0 4 1.8 4 4v152c0 2.2-1.8 4-4 4h-440.7c-2.2 0-4-1.8-4-4z" fill-opacity="0"></path><path d="M757.65 498.56h6m4.02 0h6m4.02 0h6m4 0h6m4.02 0h6m4 0h6.02m4 0h6.02m4 0h6.02m4 0h6m4.02 0h6m4 0h6.02m4 0h6.02m4 0h6m4.02 0h6m4.02 0h6m4 0h6.02m4 0h6.02m4 0h6m4.02 0h6m4.02 0h6m4 0H964m4 0H974m4 0h6m4.02 0h6m4.02 0h6m4 0h6.02m4 0h6.02m4 0h6m4.02 0h6m4 0h6.02m4 0h6.02m4 0h6.02m4 0h6m4.02 0h6m4 0h6.02m4 0h6.02m4 0h6m4.02 0h6m4.02 0h6m4 0h6.02m4 0h6.02m4 0h6m4.02 0h6m4.02 0h3l2.83 1.17 1.17 2.83v3.04m0 4.05v6.08m0 4.05v6.08m0 4.06V536m0 4.05v6.08m0 4.05v6.08m0 4.06v6.08m0 4.05v6.08m0 4.05v6.08m0 4.06v6.08m0 4.05v6.08m0 4.05v6.08m0 4.06v6.08m0 4.05v6.08m0 4.05v6.08m0 4.06v3.04l-1.17 2.82-2.83 1.18h-3m-4 0h-6.02m-4 0h-6.02m-4 0h-6m-4.02 0h-6m-4 0h-6.02m-4 0h-6.02m-4 0h-6m-4.02 0h-6m-4.02 0h-6m-4 0h-6.02m-4 0h-6.02m-4 0h-6m-4.02 0h-6m-4.02 0h-6m-4 0h-6.02m-4 0h-6.02m-4 0h-6m-4.02 0h-6m-4.02 0h-6m-4 0H988m-4 0H978m-4 0h-6m-4.02 0h-6m-4 0h-6.02m-4 0h-6.02m-4 0h-6.02m-4 0h-6m-4.02 0h-6m-4 0h-6.02m-4 0h-6.02m-4 0h-6.02m-4 0h-6m-4.02 0h-6m-4 0h-6.02m-4 0h-6.02m-4 0h-6m-4.02 0h-6m-4.02 0h-6m-4 0h-6.02m-4 0h-6.02m-4 0h-6m-4.02 0h-6m-4.02 0h-6m-4 0h-3.02l-2.82-1.18-1.18-2.82v-3.04m0-4.06v-6.08m0-4.05v-6.08m0-4.05v-6.08m0-4.06v-6.08m0-4.05v-6.08m0-4.05v-6.08m0-4.06v-6.08m0-4.05v-6.08m0-4.05v-6.08m0-4.06v-6.08m0-4.05v-6.08m0-4.05v-6.08m0-4.06v-6.08m0-4.05v-6.08m0-4.05v-3.04l1.18-2.83 2.82-1.17h3" stroke="#333" stroke-width="2" fill="none"></path><path d="M743.54 390.9l-388.08 1.54" stroke="#5e5e5e" stroke-width="2" fill="none"></path><path d="M744.54 391.9h-1.02v-2h1.02z" fill="#5e5e5e"></path><path d="M340.2 392.5l14.24-4.7.04 9.28z" stroke="#5e5e5e" stroke-width="2" fill="#5e5e5e"></path><path d="M743.54 879.78l-388.08-1" stroke="#5e5e5e" stroke-width="2" fill="none"></path><path d="M744.54 878.78v2h-1.02v-2z" fill="#5e5e5e"></path><path d="M340.2 878.75l14.27-4.6-.02 9.27z" stroke="#5e5e5e" stroke-width="2" fill="#5e5e5e"></path><defs><path fill="#333" d="M136-208V0H84v-208H4v-40h212v40h-80" id="am"></path><path fill="#333" d="M135-150c-39-12-60 13-60 57V0H25l-1-190h47c2 13-1 29 3 40 6-28 27-53 61-41v41" id="an"></path><path fill="#333" d="M133-34C117-15 103 5 69 4 32 3 11-16 11-54c-1-60 55-63 116-61 1-26-3-47-28-47-18 1-26 9-28 27l-52-2c7-38 36-58 82-57s74 22 75 68l1 82c-1 14 12 18 25 15v27c-30 8-71 5-69-32zm-48 3c29 0 43-24 42-57-32 0-66-3-65 30 0 17 8 27 23 27" id="ao"></path><path fill="#333" d="M25-224v-37h50v37H25zM25 0v-190h50V0H25" id="ap"></path><path fill="#333" d="M135-194c87-1 58 113 63 194h-50c-7-57 23-157-34-157-59 0-34 97-39 157H25l-1-190h47c2 12-1 28 3 38 12-26 28-41 61-42" id="aq"></path><path fill="#333" d="M195-6C206 82 75 100 31 46c-4-6-6-13-8-21l49-6c3 16 16 24 34 25 40 0 42-37 40-79-11 22-30 35-61 35-53 0-70-43-70-97 0-56 18-96 73-97 30 0 46 14 59 34l2-30h47zm-90-29c32 0 41-27 41-63 0-35-9-62-40-62-32 0-39 29-40 63 0 36 9 62 39 62" id="ar"></path><g id="a"><use transform="matrix(0.06790123456790123,0,0,0.06790123456790123,0,0)" xlink:href="#am"></use><use transform="matrix(0.06790123456790123,0,0,0.06790123456790123,13.512345679012345,0)" xlink:href="#an"></use><use transform="matrix(0.06790123456790123,0,0,0.06790123456790123,23.018518518518515,0)" xlink:href="#ao"></use><use transform="matrix(0.06790123456790123,0,0,0.06790123456790123,36.598765432098766,0)" xlink:href="#ap"></use><use transform="matrix(0.06790123456790123,0,0,0.06790123456790123,43.388888888888886,0)" xlink:href="#aq"></use><use transform="matrix(0.06790123456790123,0,0,0.06790123456790123,58.25925925925926,0)" xlink:href="#ap"></use><use transform="matrix(0.06790123456790123,0,0,0.06790123456790123,65.04938271604938,0)" xlink:href="#aq"></use><use transform="matrix(0.06790123456790123,0,0,0.06790123456790123,79.91975308641975,0)" xlink:href="#ar"></use></g><path fill="#333" d="M24-248c120-7 223 5 221 122C244-46 201 0 124 0H24v-248zM76-40c74 7 117-18 117-86 0-67-45-88-117-82v168" id="as"></path><path fill="#333" d="M115-3C79 11 28 4 28-45v-112H4v-33h27l15-45h31v45h36v33H77v99c-1 23 16 31 38 25v30" id="at"></path><path fill="#333" d="M121-226c-27-7-43 5-38 36h38v33H83V0H34v-157H6v-33h28c-9-59 32-81 87-68v32" id="au"></path><path fill="#333" d="M220-157c-53 9-28 100-34 157h-49v-107c1-27-5-49-29-50C55-147 81-57 75 0H25l-1-190h47c2 12-1 28 3 38 10-53 101-56 108 0 13-22 24-43 59-42 82 1 51 116 57 194h-49v-107c-1-25-5-48-29-50" id="av"></path><path fill="#333" d="M185-48c-13 30-37 53-82 52C43 2 14-33 14-96s30-98 90-98c62 0 83 45 84 108H66c0 31 8 55 39 56 18 0 30-7 34-22zm-45-69c5-46-57-63-70-21-2 6-4 13-4 21h74" id="aw"></path><g id="b"><use transform="matrix(0.06790123456790123,0,0,0.06790123456790123,0,0)" xlink:href="#as"></use><use transform="matrix(0.06790123456790123,0,0,0.06790123456790123,17.586419753086417,0)" xlink:href="#ao"></use><use transform="matrix(0.06790123456790123,0,0,0.06790123456790123,31.166666666666664,0)" xlink:href="#at"></use><use transform="matrix(0.06790123456790123,0,0,0.06790123456790123,39.24691358024691,0)" xlink:href="#ao"></use><use transform="matrix(0.06790123456790123,0,0,0.06790123456790123,52.82716049382716,0)" xlink:href="#au"></use><use transform="matrix(0.06790123456790123,0,0,0.06790123456790123,60.907407407407405,0)" xlink:href="#an"></use><use transform="matrix(0.06790123456790123,0,0,0.06790123456790123,70.41358024691358,0)" xlink:href="#ao"></use><use transform="matrix(0.06790123456790123,0,0,0.06790123456790123,83.99382716049382,0)" xlink:href="#av"></use><use transform="matrix(0.06790123456790123,0,0,0.06790123456790123,105.72222222222221,0)" xlink:href="#aw"></use></g><path fill="#333" d="M87 75C49 33 22-17 22-94c0-76 28-126 65-167h31c-38 41-64 92-64 168S80 34 118 75H87" id="ax"></path><path fill="#333" d="M106-169C34-169 62-67 57 0H25v-261h32l-1 103c12-21 28-36 61-36 89 0 53 116 60 194h-32v-121c2-32-8-49-39-48" id="ay"></path><path fill="#333" d="M24-231v-30h32v30H24zM24 0v-190h32V0H24" id="az"></path><path fill="#333" d="M135-143c-3-34-86-38-87 0 15 53 115 12 119 90S17 21 10-45l28-5c4 36 97 45 98 0-10-56-113-15-118-90-4-57 82-63 122-42 12 7 21 19 24 35" id="aA"></path><path fill="#333" d="M59-47c-2 24 18 29 38 22v24C64 9 27 4 27-40v-127H5v-23h24l9-43h21v43h35v23H59v120" id="aB"></path><path fill="#333" d="M100-194c62-1 85 37 85 99 1 63-27 99-86 99S16-35 15-95c0-66 28-99 85-99zM99-20c44 1 53-31 53-75 0-43-8-75-51-75s-53 32-53 75 10 74 51 75" id="aC"></path><path fill="#333" d="M114-163C36-179 61-72 57 0H25l-1-190h30c1 12-1 29 2 39 6-27 23-49 58-41v29" id="aD"></path><path fill="#333" d="M96-169c-40 0-48 33-48 73s9 75 48 75c24 0 41-14 43-38l32 2c-6 37-31 61-74 61-59 0-76-41-82-99-10-93 101-131 147-64 4 7 5 14 7 22l-32 3c-4-21-16-35-41-35" id="aE"></path><path fill="#333" d="M141-36C126-15 110 5 73 4 37 3 15-17 15-53c-1-64 63-63 125-63 3-35-9-54-41-54-24 1-41 7-42 31l-33-3c5-37 33-52 76-52 45 0 72 20 72 64v82c-1 20 7 32 28 27v20c-31 9-61-2-59-35zM48-53c0 20 12 33 32 33 41-3 63-29 60-74-43 2-92-5-92 41" id="aF"></path><path fill="#333" d="M24 0v-261h32V0H24" id="aG"></path><g id="c"><use transform="matrix(0.06790123456790123,0,0,0.06790123456790123,0,0)" xlink:href="#ax"></use><use transform="matrix(0.06790123456790123,0,0,0.06790123456790123,8.080246913580247,0)" xlink:href="#ay"></use><use transform="matrix(0.06790123456790123,0,0,0.06790123456790123,21.660493827160494,0)" xlink:href="#az"></use><use transform="matrix(0.06790123456790123,0,0,0.06790123456790123,27.02469135802469,0)" xlink:href="#aA"></use><use transform="matrix(0.06790123456790123,0,0,0.06790123456790123,39.24691358024691,0)" xlink:href="#aB"></use><use transform="matrix(0.06790123456790123,0,0,0.06790123456790123,46.03703703703703,0)" xlink:href="#aC"></use><use transform="matrix(0.06790123456790123,0,0,0.06790123456790123,59.617283950617285,0)" xlink:href="#aD"></use><use transform="matrix(0.06790123456790123,0,0,0.06790123456790123,67.69753086419753,0)" xlink:href="#az"></use><use transform="matrix(0.06790123456790123,0,0,0.06790123456790123,73.06172839506173,0)" xlink:href="#aE"></use><use transform="matrix(0.06790123456790123,0,0,0.06790123456790123,85.28395061728395,0)" xlink:href="#aF"></use><use transform="matrix(0.06790123456790123,0,0,0.06790123456790123,98.8641975308642,0)" xlink:href="#aG"></use></g><path fill="#333" d="M108 0H70L1-190h34L89-25l56-165h34" id="aH"></path><path fill="#333" d="M84 4C-5 8 30-112 23-190h32v120c0 31 7 50 39 49 72-2 45-101 50-169h31l1 190h-30c-1-10 1-25-2-33-11 22-28 36-60 37" id="aI"></path><path fill="#333" d="M100-194c63 0 86 42 84 106H49c0 40 14 67 53 68 26 1 43-12 49-29l28 8c-11 28-37 45-77 45C44 4 14-33 15-96c1-61 26-98 85-98zm52 81c6-60-76-77-97-28-3 7-6 17-6 28h103" id="aJ"></path><path fill="#333" d="M33-261c38 41 65 92 65 168S71 34 33 75H2C39 34 66-17 66-93S39-220 2-261h31" id="aK"></path><g id="d"><use transform="matrix(0.06790123456790123,0,0,0.06790123456790123,0,0)" xlink:href="#aH"></use><use transform="matrix(0.06790123456790123,0,0,0.06790123456790123,12.222222222222221,0)" xlink:href="#aF"></use><use transform="matrix(0.06790123456790123,0,0,0.06790123456790123,25.80246913580247,0)" xlink:href="#aG"></use><use transform="matrix(0.06790123456790123,0,0,0.06790123456790123,31.166666666666664,0)" xlink:href="#aI"></use><use transform="matrix(0.06790123456790123,0,0,0.06790123456790123,44.74691358024691,0)" xlink:href="#aJ"></use><use transform="matrix(0.06790123456790123,0,0,0.06790123456790123,58.32716049382716,0)" xlink:href="#aA"></use><use transform="matrix(0.06790123456790123,0,0,0.06790123456790123,70.54938271604938,0)" xlink:href="#aK"></use></g><path fill="#333" d="M233-177c-1 41-23 64-60 70L243 0h-38l-65-103H63V0H30v-248c88 3 205-21 203 71zM63-129c60-2 137 13 137-47 0-61-80-42-137-45v92" id="aL"></path><path fill="#333" d="M145-31C134-9 116 4 85 4 32 4 16-35 15-94c0-59 17-99 70-100 32-1 48 14 60 33 0-11-1-24 2-32h30l-1 268h-32zM93-21c41 0 51-33 51-76s-8-73-50-73c-40 0-46 35-46 75s5 74 45 74" id="aM"></path><g id="e"><use transform="matrix(0.06790123456790123,0,0,0.06790123456790123,0,0)" xlink:href="#aL"></use><use transform="matrix(0.06790123456790123,0,0,0.06790123456790123,17.586419753086417,0)" xlink:href="#aJ"></use><use transform="matrix(0.06790123456790123,0,0,0.06790123456790123,31.166666666666664,0)" xlink:href="#aM"></use><use transform="matrix(0.06790123456790123,0,0,0.06790123456790123,44.74691358024691,0)" xlink:href="#aI"></use><use transform="matrix(0.06790123456790123,0,0,0.06790123456790123,58.32716049382716,0)" xlink:href="#aJ"></use><use transform="matrix(0.06790123456790123,0,0,0.06790123456790123,71.9074074074074,0)" xlink:href="#aA"></use><use transform="matrix(0.06790123456790123,0,0,0.06790123456790123,84.12962962962962,0)" xlink:href="#aB"></use></g><path fill="#333" d="M117-194c89-4 53 116 60 194h-32v-121c0-31-8-49-39-48C34-167 62-67 57 0H25l-1-190h30c1 10-1 24 2 32 11-22 29-35 61-36" id="aN"></path><path fill="#333" d="M177-190C167-65 218 103 67 71c-23-6-38-20-44-43l32-5c15 47 100 32 89-28v-30C133-14 115 1 83 1 29 1 15-40 15-95c0-56 16-97 71-98 29-1 48 16 59 35 1-10 0-23 2-32h30zM94-22c36 0 50-32 50-73 0-42-14-75-50-75-39 0-46 34-46 75s6 73 46 73" id="aO"></path><g id="f"><use transform="matrix(0.06790123456790123,0,0,0.06790123456790123,0,0)" xlink:href="#aB"></use><use transform="matrix(0.06790123456790123,0,0,0.06790123456790123,6.790123456790123,0)" xlink:href="#aD"></use><use transform="matrix(0.06790123456790123,0,0,0.06790123456790123,14.87037037037037,0)" xlink:href="#aF"></use><use transform="matrix(0.06790123456790123,0,0,0.06790123456790123,28.450617283950617,0)" xlink:href="#az"></use><use transform="matrix(0.06790123456790123,0,0,0.06790123456790123,33.81481481481482,0)" xlink:href="#aN"></use><use transform="matrix(0.06790123456790123,0,0,0.06790123456790123,47.39506172839506,0)" xlink:href="#az"></use><use transform="matrix(0.06790123456790123,0,0,0.06790123456790123,52.75925925925926,0)" xlink:href="#aN"></use><use transform="matrix(0.06790123456790123,0,0,0.06790123456790123,66.3395061728395,0)" xlink:href="#aO"></use></g><path fill="#333" d="M85-194c31 0 48 13 60 33l-1-100h32l1 261h-30c-2-10 0-23-3-31C134-8 116 4 85 4 32 4 16-35 15-94c0-66 23-100 70-100zm9 24c-40 0-46 34-46 75 0 40 6 74 45 74 42 0 51-32 51-76 0-42-9-74-50-73" id="aP"></path><g id="g"><use transform="matrix(0.06790123456790123,0,0,0.06790123456790123,0,0)" xlink:href="#aP"></use><use transform="matrix(0.06790123456790123,0,0,0.06790123456790123,13.580246913580247,0)" xlink:href="#aF"></use><use transform="matrix(0.06790123456790123,0,0,0.06790123456790123,27.160493827160494,0)" xlink:href="#aB"></use><use transform="matrix(0.06790123456790123,0,0,0.06790123456790123,33.95061728395062,0)" xlink:href="#aF"></use></g><path d="M677 91c1 136 41 195 171 195h213v139H796c-186-8-294-116-294-303v-351c-3-164-120-222-275-232v-137c155-10 275-69 275-231v-352c6-189 106-303 294-303h265v139H848c-126-3-171 67-171 195v346c-5 158-108 234-231 274 128 36 231 115 231 274V91" id="aQ"></path><use transform="matrix(0.011935763888888888,0,0,0.011935763888888888,0,0)" xlink:href="#aQ" id="h"></use><path d="M908-845H766l-40-639h224zm-449 0H318l-41-639h224" id="aR"></path><path d="M745-142h380V0H143v-142h422v-798H246v-142h499v940zM545-1292v-192h200v192H545" id="aS"></path><path d="M682 16c-209 0-323-80-324-285v-671H190v-142h170l58-282h120v282h432v142H538v652c2 114 60 155 182 155 106 0 209-16 297-34v137C921-4 806 16 682 16" id="aT"></path><path d="M617-1102c355 0 481 238 477 599H322c5 222 84 388 301 388 144 0 244-59 284-166l158 45C1002-72 854 20 623 20c-342 0-490-220-490-568 0-346 151-554 484-554zm291 461c-18-192-90-328-289-328-194 0-287 128-295 328h584" id="aU"></path><path d="M904-1102c199 0 220 177 220 381V0H956v-686c-3-114 0-215-60-264-70-33-125-4-158 71-26 56-39 140-39 252V0H531v-686c-3-114-1-215-61-264-78-41-136 24-157 84-24 69-39 159-39 259V0H105c-3-360 6-732-6-1082h149c6 50 3 123 8 175 36-100 83-195 216-195 135 0 166 79 196 196 42-105 93-196 236-196" id="aV"></path><path d="M-5 220v-96h1238v96H-5" id="aW"></path><path d="M631 20c-350 0-501-215-501-562 0-355 162-560 502-560 250 0 399 118 446 323l-192 14c-23-124-109-196-262-196-242 0-305 171-305 415 1 245 61 427 304 427 151 0 248-77 267-215l190 12C1039-107 883 20 631 20" id="aX"></path><path d="M736-142h380V0H134v-142h422v-1200H267v-142h469v1342" id="aY"></path><path d="M914 0L548-499l-132 98V0H236v-1484h180v927l475-525h211L663-617 1125 0H914" id="aZ"></path><path d="M873-819c-18-114-119-146-250-146-163 0-245 50-245 151 0 151 170 148 294 185 182 54 388 94 388 320 0 240-189 325-439 329-245 4-410-69-454-268l159-31c24 133 136 168 295 165 144-2 270-31 270-171 0-164-195-160-331-202-167-52-350-87-350-299 0-218 173-315 413-313 220 2 373 77 412 260" id="ba"></path><path d="M1069-1210C890-948 720-664 634-316c-25 105-38 210-38 316H408c9-385 153-667 302-925 57-98 120-190 185-279H158v-145h911v139" id="bb"></path><path d="M865-914c-3-187-2-380-2-570h180v1261c0 76 1 155 6 223H877c-8-49-9-116-10-174h-5C801-44 708 26 530 26c-135 0-234-46-297-139s-95-232-95-419c0-377 131-566 392-566 176 0 271 63 335 184zm-286-51c-222 0-255 197-255 427 0 229 31 425 253 425 237 0 286-195 286-441 0-238-52-411-284-411" id="bc"></path><path d="M496 0v-299h235V0H496zm0-783v-299h235v299H496" id="bd"></path><path d="M672-881c271 0 424 163 424 435 0 291-160 466-455 466-367 0-490-287-490-662 0-324 85-568 293-680 129-70 351-59 460 16 73 50 125 123 153 223l-172 31c-31-108-107-172-232-172-259 0-316 252-323 529 59-113 178-186 342-186zm-37 756c186 0 278-124 278-313s-96-304-284-304c-163 0-281 93-281 261 0 157 65 270 168 327 35 19 75 29 119 29" id="be"></path><path d="M259 363l169-662h265L382 363H259" id="bf"></path><g id="i"><use transform="matrix(0.011935763888888888,0,0,0.011935763888888888,0,0)" xlink:href="#aR"></use><use transform="matrix(0.011935763888888888,0,0,0.011935763888888888,14.669053819444443,0)" xlink:href="#aS"></use><use transform="matrix(0.011935763888888888,0,0,0.011935763888888888,29.338107638888886,0)" xlink:href="#aT"></use><use transform="matrix(0.011935763888888888,0,0,0.011935763888888888,44.00716145833333,0)" xlink:href="#aU"></use><use transform="matrix(0.011935763888888888,0,0,0.011935763888888888,58.67621527777777,0)" xlink:href="#aV"></use><use transform="matrix(0.011935763888888888,0,0,0.011935763888888888,73.34526909722221,0)" xlink:href="#aW"></use><use transform="matrix(0.011935763888888888,0,0,0.011935763888888888,88.01432291666666,0)" xlink:href="#aX"></use><use transform="matrix(0.011935763888888888,0,0,0.011935763888888888,102.6833767361111,0)" xlink:href="#aY"></use><use transform="matrix(0.011935763888888888,0,0,0.011935763888888888,117.35243055555554,0)" xlink:href="#aS"></use><use transform="matrix(0.011935763888888888,0,0,0.011935763888888888,132.021484375,0)" xlink:href="#aX"></use><use transform="matrix(0.011935763888888888,0,0,0.011935763888888888,146.69053819444446,0)" xlink:href="#aZ"></use><use transform="matrix(0.011935763888888888,0,0,0.011935763888888888,161.3595920138889,0)" xlink:href="#ba"></use><use transform="matrix(0.011935763888888888,0,0,0.011935763888888888,176.02864583333337,0)" xlink:href="#aW"></use><use transform="matrix(0.011935763888888888,0,0,0.011935763888888888,190.69769965277783,0)" xlink:href="#aY"></use><use transform="matrix(0.011935763888888888,0,0,0.011935763888888888,205.36675347222229,0)" xlink:href="#bb"></use><use transform="matrix(0.011935763888888888,0,0,0.011935763888888888,220.03580729166674,0)" xlink:href="#bc"></use><use transform="matrix(0.011935763888888888,0,0,0.011935763888888888,234.70486111111117,0)" xlink:href="#aR"></use><use transform="matrix(0.011935763888888888,0,0,0.011935763888888888,249.37391493055566,0)" xlink:href="#bd"></use><use transform="matrix(0.011935763888888888,0,0,0.011935763888888888,264.0429687500001,0)" xlink:href="#be"></use><use transform="matrix(0.011935763888888888,0,0,0.011935763888888888,278.71202256944457,0)" xlink:href="#bf"></use></g><path d="M698-1104c312 3 392 244 392 558 0 315-82 566-392 566-169 0-277-65-331-184h-5c8 188 2 394 4 589H185V-858c0-76-1-156-6-224h175c6 52 9 120 10 178h4c58-122 150-202 330-200zm-49 991c225 0 255-203 255-433 0-225-32-419-253-419-236 0-285 192-285 441 0 237 53 411 283 411" id="bg"></path><path d="M839-1102c70 0 148 7 206 17v167c-112-18-268-36-363 15-129 69-208 203-208 395V0H294c-10-367 32-789-52-1082h171c21 75 41 161 48 250h5c67-152 152-270 373-270" id="bh"></path><path d="M558-647c-214-53-428-110-428-376 0-239 192-311 428-323v-130h128v130c251 5 384 114 433 321l-174 33c-27-133-107-212-259-221v426c233 57 464 118 464 407 0 258-203 345-464 360v161H558V-20C281-27 115-149 66-379l170-37c31 161 136 250 322 258v-489zm0-568c-146 8-256 54-256 197 0 156 132 181 256 216v-413zM686-156c160-12 292-63 292-227 0-177-151-205-292-244v471" id="bi"></path><path d="M611-1370c266 0 451 106 451 368 0 147-77 243-154 327-132 144-316 255-451 395-42 44-75 87-96 134h723V0H144v-117c124-264 387-411 582-603 73-72 151-147 151-271 0-161-104-231-266-231-163 0-249 90-268 238l-184-17c35-233 185-369 452-369" id="bj"></path><path d="M353-779c69-51 166-92 291-90 218 3 357 100 423 255 21 52 32 109 32 170 0 305-189 464-500 464-268 0-424-116-471-335l182-21c35 130 124 212 293 209 198-4 309-114 309-313 0-182-118-282-305-282-120 0-198 45-262 101H169l47-728h801v145H382" id="bk"></path><path d="M496 0v-299h235V0H496" id="bl"></path><path d="M148-1120c216-7 379-89 463-229h166v1204h353V0H157v-145h439v-1021c-79 124-254 184-448 194v-148" id="bm"></path><g id="j"><use transform="matrix(0.011935763888888888,0,0,0.011935763888888888,0,0)" xlink:href="#aR"></use><use transform="matrix(0.011935763888888888,0,0,0.011935763888888888,14.669053819444443,0)" xlink:href="#aS"></use><use transform="matrix(0.011935763888888888,0,0,0.011935763888888888,29.338107638888886,0)" xlink:href="#aT"></use><use transform="matrix(0.011935763888888888,0,0,0.011935763888888888,44.00716145833333,0)" xlink:href="#aU"></use><use transform="matrix(0.011935763888888888,0,0,0.011935763888888888,58.67621527777777,0)" xlink:href="#aV"></use><use transform="matrix(0.011935763888888888,0,0,0.011935763888888888,73.34526909722221,0)" xlink:href="#aW"></use><use transform="matrix(0.011935763888888888,0,0,0.011935763888888888,88.01432291666666,0)" xlink:href="#bg"></use><use transform="matrix(0.011935763888888888,0,0,0.011935763888888888,102.6833767361111,0)" xlink:href="#bh"></use><use transform="matrix(0.011935763888888888,0,0,0.011935763888888888,117.35243055555554,0)" xlink:href="#aS"></use><use transform="matrix(0.011935763888888888,0,0,0.011935763888888888,132.021484375,0)" xlink:href="#aX"></use><use transform="matrix(0.011935763888888888,0,0,0.011935763888888888,146.69053819444446,0)" xlink:href="#aU"></use><use transform="matrix(0.011935763888888888,0,0,0.011935763888888888,161.3595920138889,0)" xlink:href="#aR"></use><use transform="matrix(0.011935763888888888,0,0,0.011935763888888888,176.02864583333337,0)" xlink:href="#bd"></use><use transform="matrix(0.011935763888888888,0,0,0.011935763888888888,190.69769965277783,0)" xlink:href="#aR"></use><use transform="matrix(0.011935763888888888,0,0,0.011935763888888888,205.36675347222229,0)" xlink:href="#bi"></use><use transform="matrix(0.011935763888888888,0,0,0.011935763888888888,220.03580729166674,0)" xlink:href="#bj"></use><use transform="matrix(0.011935763888888888,0,0,0.011935763888888888,234.70486111111117,0)" xlink:href="#bk"></use><use transform="matrix(0.011935763888888888,0,0,0.011935763888888888,249.37391493055566,0)" xlink:href="#bl"></use><use transform="matrix(0.011935763888888888,0,0,0.011935763888888888,264.0429687500001,0)" xlink:href="#bm"></use><use transform="matrix(0.011935763888888888,0,0,0.011935763888888888,278.71202256944457,0)" xlink:href="#bj"></use><use transform="matrix(0.011935763888888888,0,0,0.011935763888888888,293.381076388889,0)" xlink:href="#aR"></use><use transform="matrix(0.011935763888888888,0,0,0.011935763888888888,308.0501302083335,0)" xlink:href="#bf"></use></g><path d="M528 20c-247 0-343-132-343-381v-721h180v686c-4 177 45 284 224 277 194-8 279-136 279-336v-627h181c3 360-6 732 6 1082H885c-4-54-7-126-8-185h-3C809-64 714 20 528 20" id="bn"></path><path d="M706-1102c241 0 344 136 343 381V0H868v-695c1-168-57-273-220-268-190 6-283 138-283 336V0H185c-3-360 6-732-6-1082h170c4 54 7 126 8 185h3c63-121 164-204 346-205" id="bo"></path><path d="M1060-1016c0 191-128 285-295 323v4c154 18 262 91 313 209 14 35 21 72 21 110 0 277-194 390-478 390-292 0-457-129-493-382l186-17c24 161 121 250 307 250 172 1 298-80 291-247-8-208-220-239-446-233v-156c217 9 409-34 409-232 0-152-102-225-264-225-159 0-264 88-278 233l-181-14c33-239 196-367 461-367 264 0 447 102 447 354" id="bp"></path><path d="M1065-1013c47 164 49 500-1 665C999-130 875 20 611 20c-377 0-484-300-487-695-2-245 41-425 141-551 77-98 191-144 352-144 261 0 386 140 448 357zM741-155c199-92 203-504 159-785-26-168-96-284-283-284-281 0-308 256-311 549-2 181 18 324 80 428 46 77 115 118 227 120 47 0 90-10 128-28zM496-555v-249h235v249H496" id="bq"></path><g id="k"><use transform="matrix(0.011935763888888888,0,0,0.011935763888888888,0,0)" xlink:href="#aR"></use><use transform="matrix(0.011935763888888888,0,0,0.011935763888888888,14.669053819444443,0)" xlink:href="#bn"></use><use transform="matrix(0.011935763888888888,0,0,0.011935763888888888,29.338107638888886,0)" xlink:href="#ba"></use><use transform="matrix(0.011935763888888888,0,0,0.011935763888888888,44.00716145833333,0)" xlink:href="#aU"></use><use transform="matrix(0.011935763888888888,0,0,0.011935763888888888,58.67621527777777,0)" xlink:href="#bh"></use><use transform="matrix(0.011935763888888888,0,0,0.011935763888888888,73.34526909722221,0)" xlink:href="#aW"></use><use transform="matrix(0.011935763888888888,0,0,0.011935763888888888,88.01432291666666,0)" xlink:href="#ba"></use><use transform="matrix(0.011935763888888888,0,0,0.011935763888888888,102.6833767361111,0)" xlink:href="#bg"></use><use transform="matrix(0.011935763888888888,0,0,0.011935763888888888,117.35243055555554,0)" xlink:href="#aU"></use><use transform="matrix(0.011935763888888888,0,0,0.011935763888888888,132.021484375,0)" xlink:href="#bo"></use><use transform="matrix(0.011935763888888888,0,0,0.011935763888888888,146.69053819444446,0)" xlink:href="#bc"></use><use transform="matrix(0.011935763888888888,0,0,0.011935763888888888,161.3595920138889,0)" xlink:href="#aW"></use><use transform="matrix(0.011935763888888888,0,0,0.011935763888888888,176.02864583333337,0)" xlink:href="#aY"></use><use transform="matrix(0.011935763888888888,0,0,0.011935763888888888,190.69769965277783,0)" xlink:href="#bp"></use><use transform="matrix(0.011935763888888888,0,0,0.011935763888888888,205.36675347222229,0)" xlink:href="#bq"></use><use transform="matrix(0.011935763888888888,0,0,0.011935763888888888,220.03580729166674,0)" xlink:href="#bc"></use><use transform="matrix(0.011935763888888888,0,0,0.011935763888888888,234.70486111111117,0)" xlink:href="#aR"></use><use transform="matrix(0.011935763888888888,0,0,0.011935763888888888,249.37391493055566,0)" xlink:href="#bd"></use><use transform="matrix(0.011935763888888888,0,0,0.011935763888888888,264.0429687500001,0)" xlink:href="#aR"></use><use transform="matrix(0.011935763888888888,0,0,0.011935763888888888,278.71202256944457,0)" xlink:href="#bi"></use><use transform="matrix(0.011935763888888888,0,0,0.011935763888888888,293.381076388889,0)" xlink:href="#bm"></use><use transform="matrix(0.011935763888888888,0,0,0.011935763888888888,308.0501302083335,0)" xlink:href="#bj"></use><use transform="matrix(0.011935763888888888,0,0,0.011935763888888888,322.71918402777794,0)" xlink:href="#bl"></use><use transform="matrix(0.011935763888888888,0,0,0.011935763888888888,337.3882378472224,0)" xlink:href="#bm"></use><use transform="matrix(0.011935763888888888,0,0,0.011935763888888888,352.05729166666686,0)" xlink:href="#bq"></use><use transform="matrix(0.011935763888888888,0,0,0.011935763888888888,366.7263454861113,0)" xlink:href="#aR"></use></g><path d="M726 122c-7 187-108 303-294 303H167V286h213c129-2 172-59 172-195v-347c5-160 106-236 230-276-125-36-230-116-230-272v-346c2-128-45-195-172-195H167v-139h265c187 7 294 114 294 303v352c4 162 120 221 275 231v137c-155 10-275 68-275 232v351" id="br"></path><use transform="matrix(0.011935763888888888,0,0,0.011935763888888888,0,0)" xlink:href="#br" id="l"></use><path fill="#333" d="M24-248c93 1 206-16 204 79-1 75-69 88-152 82V0H24v-248zm52 121c47 0 100 7 100-41 0-47-54-39-100-39v80" id="bs"></path><path fill="#333" d="M123 10C108 53 80 86 19 72V37c35 8 53-11 59-39L3-190h52l48 148c12-52 28-100 44-148h51" id="bt"></path><path fill="#333" d="M114-157C55-157 80-60 75 0H25v-261h50l-1 109c12-26 28-41 61-42 86-1 58 113 63 194h-50c-7-57 23-157-34-157" id="bu"></path><path fill="#333" d="M110-194c64 0 96 36 96 99 0 64-35 99-97 99-61 0-95-36-95-99 0-62 34-99 96-99zm-1 164c35 0 45-28 45-65 0-40-10-65-43-65-34 0-45 26-45 65 0 36 10 65 43 65" id="bv"></path><g id="m"><use transform="matrix(0.05555555555555555,0,0,0.05555555555555555,0,0)" xlink:href="#bs"></use><use transform="matrix(0.05555555555555555,0,0,0.05555555555555555,13.333333333333332,0)" xlink:href="#bt"></use><use transform="matrix(0.05555555555555555,0,0,0.05555555555555555,24.444444444444443,0)" xlink:href="#at"></use><use transform="matrix(0.05555555555555555,0,0,0.05555555555555555,31.055555555555554,0)" xlink:href="#bu"></use><use transform="matrix(0.05555555555555555,0,0,0.05555555555555555,43.22222222222222,0)" xlink:href="#bv"></use><use transform="matrix(0.05555555555555555,0,0,0.05555555555555555,55.388888888888886,0)" xlink:href="#aq"></use></g><path fill="#333" d="M169-182c-1-43-94-46-97-3 18 66 151 10 154 114 3 95-165 93-204 36-6-8-10-19-12-30l50-8c3 46 112 56 116 5-17-69-150-10-154-114-4-87 153-88 188-35 5 8 8 18 10 28" id="bw"></path><path fill="#333" d="M195 0l-88-114-31 24V0H24v-248h52v113l112-113h60L142-143 257 0h-62" id="bx"></path><g id="n"><use transform="matrix(0.05555555555555555,0,0,0.05555555555555555,0,0)" xlink:href="#bw"></use><use transform="matrix(0.05555555555555555,0,0,0.05555555555555555,13.333333333333332,0)" xlink:href="#as"></use><use transform="matrix(0.05555555555555555,0,0,0.05555555555555555,27.72222222222222,0)" xlink:href="#bx"></use></g><path fill="#333" d="M240-174c0 40-23 61-54 70L253 0h-59l-57-94H76V0H24v-248c93 4 217-23 216 74zM76-134c48-2 112 12 112-38 0-48-66-32-112-35v73" id="by"></path><path fill="#333" d="M137-138c1-29-70-34-71-4 15 46 118 7 119 86 1 83-164 76-172 9l43-7c4 19 20 25 44 25 33 8 57-30 24-41C81-84 22-81 20-136c-2-80 154-74 161-7" id="bz"></path><g id="o"><use transform="matrix(0.05555555555555555,0,0,0.05555555555555555,0,0)" xlink:href="#by"></use><use transform="matrix(0.05555555555555555,0,0,0.05555555555555555,14.388888888888888,0)" xlink:href="#aw"></use><use transform="matrix(0.05555555555555555,0,0,0.05555555555555555,25.5,0)" xlink:href="#bz"></use><use transform="matrix(0.05555555555555555,0,0,0.05555555555555555,36.611111111111114,0)" xlink:href="#at"></use></g><path fill="#333" d="M199 0l-22-63H83L61 0H9l90-248h61L250 0h-51zm-33-102l-36-108c-10 38-24 72-36 108h72" id="bA"></path><path fill="#333" d="M24 0v-248h52V0H24" id="bB"></path><g id="p"><use transform="matrix(0.05555555555555555,0,0,0.05555555555555555,0,0)" xlink:href="#bA"></use><use transform="matrix(0.05555555555555555,0,0,0.05555555555555555,14.388888888888888,0)" xlink:href="#bs"></use><use transform="matrix(0.05555555555555555,0,0,0.05555555555555555,27.72222222222222,0)" xlink:href="#bB"></use></g><path fill="#333" d="M496 0v-299h235V0H496" id="bC"></path><path fill="#333" d="M1048-32c-2 300-135 456-433 456-222-1-358-88-400-267l184-25c22 99 100 157 222 156 184-2 248-125 248-315 0-64 3-133-2-194C807-100 706-13 524-12c-306 0-381-228-381-537 0-318 85-550 400-550 164 0 271 83 325 202h3c1-60 3-134 12-185h171c-13 339-4 702-6 1050zM585-145c210-8 284-178 284-406 0-192-52-331-177-392-33-16-69-22-104-22-223 2-259 184-259 414 0 229 31 415 256 406" id="bD"></path><path fill="#333" d="M617-1102c355 0 481 238 477 599H322c5 222 84 388 301 388 144 0 244-59 284-166l158 45C1002-72 854 20 623 20c-342 0-490-220-490-568 0-346 151-554 484-554zm291 461c-18-192-90-328-289-328-194 0-287 128-295 328h584" id="bE"></path><path fill="#333" d="M682 16c-209 0-323-80-324-285v-671H190v-142h170l58-282h120v282h432v142H538v652c2 114 60 155 182 155 106 0 209-16 297-34v137C921-4 806 16 682 16" id="bF"></path><path fill="#333" d="M-5 220v-96h1238v96H-5" id="bG"></path><path fill="#333" d="M839-1102c70 0 148 7 206 17v167c-112-18-268-36-363 15-129 69-208 203-208 395V0H294c-10-367 32-789-52-1082h171c21 75 41 161 48 250h5c67-152 152-270 373-270" id="bH"></path><path fill="#333" d="M1000-272c3 95 12 159 101 161 21 0 41-3 59-7V-6c-44 10-86 16-139 16-141 2-191-84-197-217h-6C748-76 648 20 446 20c-207 0-318-120-318-322 0-266 194-348 454-354l236-4c12-191-40-305-222-305-140 0-220 47-232 172l-188-17c33-204 181-292 423-292 255 0 401 118 401 364v466zm-683-27c0 109 63 184 175 182 166-3 259-96 306-217 24-65 20-120 20-200-232 7-501-28-501 235" id="bI"></path><path fill="#333" d="M745-142h380V0H143v-142h422v-798H246v-142h499v940zM545-1292v-192h200v192H545" id="bJ"></path><path fill="#333" d="M706-1102c241 0 344 136 343 381V0H868v-695c1-168-57-273-220-268-190 6-283 138-283 336V0H185c-3-360 6-732-6-1082h170c4 54 7 126 8 185h3c63-121 164-204 346-205" id="bK"></path><path fill="#333" d="M865-914c-3-187-2-380-2-570h180v1261c0 76 1 155 6 223H877c-8-49-9-116-10-174h-5C801-44 708 26 530 26c-135 0-234-46-297-139s-95-232-95-419c0-377 131-566 392-566 176 0 271 63 335 184zm-286-51c-222 0-255 197-255 427 0 229 31 425 253 425 237 0 286-195 286-441 0-238-52-411-284-411" id="bL"></path><g id="q"><use transform="matrix(0.011935763888888888,0,0,0.011935763888888888,0,0)" xlink:href="#bC"></use><use transform="matrix(0.010850694444444444,0,0,0.010850694444444444,14.669053819444443,0)" xlink:href="#bD"></use><use transform="matrix(0.010850694444444444,0,0,0.010850694444444444,28.004557291666668,0)" xlink:href="#bE"></use><use transform="matrix(0.010850694444444444,0,0,0.010850694444444444,41.340060763888886,0)" xlink:href="#bF"></use><use transform="matrix(0.010850694444444444,0,0,0.010850694444444444,54.67556423611111,0)" xlink:href="#bG"></use><use transform="matrix(0.010850694444444444,0,0,0.010850694444444444,68.01106770833333,0)" xlink:href="#bF"></use><use transform="matrix(0.010850694444444444,0,0,0.010850694444444444,81.34657118055554,0)" xlink:href="#bH"></use><use transform="matrix(0.010850694444444444,0,0,0.010850694444444444,94.68207465277777,0)" xlink:href="#bI"></use><use transform="matrix(0.010850694444444444,0,0,0.010850694444444444,108.01757812499999,0)" xlink:href="#bJ"></use><use transform="matrix(0.010850694444444444,0,0,0.010850694444444444,121.35308159722223,0)" xlink:href="#bK"></use><use transform="matrix(0.010850694444444444,0,0,0.010850694444444444,134.68858506944446,0)" xlink:href="#bJ"></use><use transform="matrix(0.010850694444444444,0,0,0.010850694444444444,148.02408854166669,0)" xlink:href="#bK"></use><use transform="matrix(0.010850694444444444,0,0,0.010850694444444444,161.3595920138889,0)" xlink:href="#bD"></use><use transform="matrix(0.010850694444444444,0,0,0.010850694444444444,174.69509548611114,0)" xlink:href="#bG"></use><use transform="matrix(0.010850694444444444,0,0,0.010850694444444444,188.03059895833337,0)" xlink:href="#bL"></use><use transform="matrix(0.010850694444444444,0,0,0.010850694444444444,201.3661024305556,0)" xlink:href="#bI"></use><use transform="matrix(0.010850694444444444,0,0,0.010850694444444444,214.70160590277783,0)" xlink:href="#bF"></use><use transform="matrix(0.010850694444444444,0,0,0.010850694444444444,228.03710937500006,0)" xlink:href="#bI"></use></g><path fill="#333" d="M891-1484c-201 251-362 514-362 954 0 441 161 704 362 955H701C500 176 342-90 342-532c0-440 159-704 359-952h190" id="bM"></path><use transform="matrix(0.010850694444444444,0,0,0.010850694444444444,0,0)" xlink:href="#bM" id="r"></use><path fill="#333" d="M839-1335c-182-6-269 67-259 253h491v142H580V0H400v-940H138v-142h262c-15-293 132-408 418-402 94 2 200 7 281 21v145c-75-10-177-14-260-17" id="bN"></path><path fill="#333" d="M528 20c-247 0-343-132-343-381v-721h180v686c-4 177 45 284 224 277 194-8 279-136 279-336v-627h181c3 360-6 732 6 1082H885c-4-54-7-126-8-185h-3C809-64 714 20 528 20" id="bO"></path><path fill="#333" d="M873-819c-18-114-119-146-250-146-163 0-245 50-245 151 0 151 170 148 294 185 182 54 388 94 388 320 0 240-189 325-439 329-245 4-410-69-454-268l159-31c24 133 136 168 295 165 144-2 270-31 270-171 0-164-195-160-331-202-167-52-350-87-350-299 0-218 173-315 413-313 220 2 373 77 412 260" id="bP"></path><path fill="#333" d="M116-856v-148h995v148H116zm0 512v-148h995v148H116" id="bQ"></path><path fill="#c92d39" d="M373 425v-1909h602v190H639V234h336v191H373" id="bR"></path><path fill="#c92d39" d="M942-844H743l-37-641h275zm-456 0H287l-37-641h273" id="bS"></path><path fill="#c92d39" d="M794-190h353V0H118v-190h395v-702H223v-190h571v892zM513-1277v-207h281v207H513" id="bT"></path><path fill="#c92d39" d="M711 13c-250 0-386-99-385-349l2-556H161v-190h181l88-282h176v282h385v190H606v530c-10 130 45 186 174 184 91-2 176-11 255-27v186C933-1 833 13 711 13" id="bU"></path><path fill="#c92d39" d="M1113-274C1038-96 884 20 626 20c-352 0-526-209-526-566 0-358 185-556 530-556 358 0 496 251 499 615H395c5 180 68 319 245 319 102 0 186-45 208-129zM857-663c-6-177-128-307-315-247-94 30-141 121-145 247h460" id="bV"></path><path fill="#c92d39" d="M934-1102c199 0 220 177 220 381V0H926c-2-260 10-533-4-785-4-72-14-138-83-138-34 0-61 27-81 81s-29 134-29 241V0H501c-2-260 9-533-5-785-4-72-13-138-82-138-46 0-65 47-80 93-21 67-30 155-30 248V0H75c-3-360 6-732-6-1082h209c6 50 3 123 8 175 36-100 83-195 216-195 135 0 166 79 196 196 42-105 93-196 236-196" id="bW"></path><path fill="#c92d39" d="M-5 220v-96h1238v96H-5" id="bX"></path><path fill="#c92d39" d="M1109-360C1066-122 902 20 624 20c-347 0-514-209-514-555 0-353 168-567 518-567 270 0 425 136 473 361l-283 14c-16-106-75-183-196-182-75 0-130 31-165 93s-52 152-52 270c0 249 74 374 221 374 120 0 188-82 201-201" id="bY"></path><path fill="#c92d39" d="M794-190h353V0H118v-190h395v-1104H223v-190h571v1294" id="bZ"></path><path fill="#c92d39" d="M864 0L575-490l-121 84V0H173v-1484h281v850l386-448h302L762-660 1171 0H864" id="ca"></path><path fill="#c92d39" d="M622-916c-112 2-200 14-200 111 0 90 89 101 168 121 234 58 514 77 514 368C1104-4 751 54 434 5 267-21 161-112 121-270l247-37c24 111 113 145 252 141 114-3 226-12 226-124 0-101-103-113-192-134-225-54-490-76-490-351 0-247 201-328 458-328 245 0 413 88 457 292l-249 26c-16-98-92-133-208-131" id="cb"></path><path fill="#c92d39" d="M1092-1126C914-878 744-630 663-296c-23 96-34 194-34 296H336c7-366 145-620 298-854 59-90 126-177 197-264H131v-231h961v223" id="cc"></path><path fill="#c92d39" d="M802-909c-3-189-2-383-2-575h281v1248c-1 83 4 168 8 236H817c-9-50-14-117-15-176h-4C735-49 651 20 482 20 191 20 97-238 97-539c0-243 66-432 221-519 50-28 108-42 175-42 162 2 253 78 309 191zm-70 658c91-113 93-462 2-584-46-61-145-100-224-53-96 56-119 190-120 349 0 123 17 214 52 275 46 82 130 115 222 74 25-12 46-33 68-61" id="cd"></path><path fill="#c92d39" d="M258 363l169-662h315L431 363H258" id="ce"></path><g id="s"><use transform="matrix(0.010850694444444444,0,0,0.010850694444444444,0,0)" xlink:href="#bN"></use><use transform="matrix(0.010850694444444444,0,0,0.010850694444444444,13.335503472222221,0)" xlink:href="#bE"></use><use transform="matrix(0.010850694444444444,0,0,0.010850694444444444,26.671006944444443,0)" xlink:href="#bI"></use><use transform="matrix(0.010850694444444444,0,0,0.010850694444444444,40.006510416666664,0)" xlink:href="#bF"></use><use transform="matrix(0.010850694444444444,0,0,0.010850694444444444,53.342013888888886,0)" xlink:href="#bO"></use><use transform="matrix(0.010850694444444444,0,0,0.010850694444444444,66.67751736111111,0)" xlink:href="#bH"></use><use transform="matrix(0.010850694444444444,0,0,0.010850694444444444,80.01302083333334,0)" xlink:href="#bE"></use><use transform="matrix(0.010850694444444444,0,0,0.010850694444444444,93.34852430555557,0)" xlink:href="#bP"></use><use transform="matrix(0.010850694444444444,0,0,0.010850694444444444,106.6840277777778,0)" xlink:href="#bQ"></use><use transform="matrix(0.010850694444444444,0,0,0.010850694444444444,120.01953125000003,0)" xlink:href="#bR"></use><use transform="matrix(0.010850694444444444,0,0,0.010850694444444444,133.35503472222226,0)" xlink:href="#bS"></use><use transform="matrix(0.010850694444444444,0,0,0.010850694444444444,146.69053819444449,0)" xlink:href="#bT"></use><use transform="matrix(0.010850694444444444,0,0,0.010850694444444444,160.0260416666667,0)" xlink:href="#bU"></use><use transform="matrix(0.010850694444444444,0,0,0.010850694444444444,173.36154513888894,0)" xlink:href="#bV"></use><use transform="matrix(0.010850694444444444,0,0,0.010850694444444444,186.69704861111117,0)" xlink:href="#bW"></use><use transform="matrix(0.010850694444444444,0,0,0.010850694444444444,200.0325520833334,0)" xlink:href="#bX"></use><use transform="matrix(0.010850694444444444,0,0,0.010850694444444444,213.36805555555563,0)" xlink:href="#bY"></use><use transform="matrix(0.010850694444444444,0,0,0.010850694444444444,226.70355902777786,0)" xlink:href="#bZ"></use><use transform="matrix(0.010850694444444444,0,0,0.010850694444444444,240.03906250000006,0)" xlink:href="#bT"></use><use transform="matrix(0.010850694444444444,0,0,0.010850694444444444,253.37456597222234,0)" xlink:href="#bY"></use><use transform="matrix(0.010850694444444444,0,0,0.010850694444444444,266.7100694444445,0)" xlink:href="#ca"></use><use transform="matrix(0.010850694444444444,0,0,0.010850694444444444,280.04557291666674,0)" xlink:href="#cb"></use><use transform="matrix(0.010850694444444444,0,0,0.010850694444444444,293.38107638888897,0)" xlink:href="#bX"></use><use transform="matrix(0.010850694444444444,0,0,0.010850694444444444,306.7165798611112,0)" xlink:href="#bZ"></use><use transform="matrix(0.010850694444444444,0,0,0.010850694444444444,320.0520833333334,0)" xlink:href="#cc"></use><use transform="matrix(0.010850694444444444,0,0,0.010850694444444444,333.38758680555566,0)" xlink:href="#cd"></use><use transform="matrix(0.010850694444444444,0,0,0.010850694444444444,346.7230902777779,0)" xlink:href="#bS"></use><use transform="matrix(0.010850694444444444,0,0,0.010850694444444444,360.05859375000017,0)" xlink:href="#ce"></use></g><path fill="#c92d39" d="M427-171c3 195 2 397 2 596H148V-846c1-83-4-168-8-236h272c10 49 14 118 15 176h4c59-114 151-197 316-197 291 0 385 259 385 560 0 243-65 433-220 521-50 28-109 42-176 42-162-2-253-78-309-191zm69-661c-91 113-92 463-1 586 46 62 145 101 225 54 96-57 118-191 119-351 0-123-18-215-53-276-46-82-128-115-220-74-25 12-48 33-70 61" id="cf"></path><path fill="#c92d39" d="M875-1102c70 0 148 7 206 17v237c-110-17-267-37-359 15-123 69-192 207-192 395V0H250c-10-367 32-789-52-1082h271c19 69 36 149 46 228h4c52-151 151-250 356-248" id="cg"></path><g id="w"><use transform="matrix(0.010850694444444444,0,0,0.010850694444444444,0,0)" xlink:href="#bS"></use><use transform="matrix(0.010850694444444444,0,0,0.010850694444444444,13.335503472222221,0)" xlink:href="#bT"></use><use transform="matrix(0.010850694444444444,0,0,0.010850694444444444,26.671006944444443,0)" xlink:href="#bU"></use><use transform="matrix(0.010850694444444444,0,0,0.010850694444444444,40.006510416666664,0)" xlink:href="#bV"></use><use transform="matrix(0.010850694444444444,0,0,0.010850694444444444,53.342013888888886,0)" xlink:href="#bW"></use><use transform="matrix(0.010850694444444444,0,0,0.010850694444444444,66.67751736111111,0)" xlink:href="#bX"></use><use transform="matrix(0.010850694444444444,0,0,0.010850694444444444,80.01302083333334,0)" xlink:href="#cf"></use><use transform="matrix(0.010850694444444444,0,0,0.010850694444444444,93.34852430555557,0)" xlink:href="#cg"></use><use transform="matrix(0.010850694444444444,0,0,0.010850694444444444,106.6840277777778,0)" xlink:href="#bT"></use><use transform="matrix(0.010850694444444444,0,0,0.010850694444444444,120.01953125000003,0)" xlink:href="#bY"></use><use transform="matrix(0.010850694444444444,0,0,0.010850694444444444,133.35503472222226,0)" xlink:href="#bV"></use><use transform="matrix(0.010850694444444444,0,0,0.010850694444444444,146.69053819444449,0)" xlink:href="#bS"></use><use transform="matrix(0.010850694444444444,0,0,0.010850694444444444,160.0260416666667,0)" xlink:href="#ce"></use></g><path fill="#c92d39" d="M471 20c-247 0-336-169-336-415v-687h281v607c4 148 31 285 172 285 152 0 207-150 207-312v-580h281c4 359-9 736 8 1082H816c-7-63-11-146-12-215h-5C736-76 644 20 471 20" id="ch"></path><path fill="#c92d39" d="M768-1103c247 0 336 167 336 416V0H824v-619c-3-164-24-273-171-273-164 0-229 142-229 312V0H143c-4-359 9-736-8-1082h268c7 63 12 146 13 215h4c67-145 160-236 348-236" id="ci"></path><path fill="#c92d39" d="M788-691c191 26 337 112 337 315 0 286-214 399-510 399-306 0-483-128-522-391l286-25c18 124 91 190 235 188 132-2 223-58 223-188 0-176-191-182-378-179v-227c176 5 345-9 345-176 0-115-82-171-200-171s-198 55-206 169l-281-20c34-252 213-373 492-373 224 0 381 74 451 224 20 43 29 89 29 136 0 195-130 279-301 315v4" id="cj"></path><path fill="#c92d39" d="M117-675c0-408 109-695 502-695 384 0 492 295 492 695 0 326-84 561-303 658-117 51-277 52-394 1-217-95-297-335-297-659zm591 451c148-93 132-449 108-680-15-138-53-246-199-246-150 0-193 107-207 248-22 230-40 585 106 678 50 32 141 32 192 0zM506-555v-249h215v249H506" id="ck"></path><path fill="#c92d39" d="M254 425V234h336v-1528H254v-190h602V425H254" id="cl"></path><g id="z"><use transform="matrix(0.010850694444444444,0,0,0.010850694444444444,0,0)" xlink:href="#bS"></use><use transform="matrix(0.010850694444444444,0,0,0.010850694444444444,13.335503472222221,0)" xlink:href="#ch"></use><use transform="matrix(0.010850694444444444,0,0,0.010850694444444444,26.671006944444443,0)" xlink:href="#cb"></use><use transform="matrix(0.010850694444444444,0,0,0.010850694444444444,40.006510416666664,0)" xlink:href="#bV"></use><use transform="matrix(0.010850694444444444,0,0,0.010850694444444444,53.342013888888886,0)" xlink:href="#cg"></use><use transform="matrix(0.010850694444444444,0,0,0.010850694444444444,66.67751736111111,0)" xlink:href="#bX"></use><use transform="matrix(0.010850694444444444,0,0,0.010850694444444444,80.01302083333334,0)" xlink:href="#cb"></use><use transform="matrix(0.010850694444444444,0,0,0.010850694444444444,93.34852430555557,0)" xlink:href="#cf"></use><use transform="matrix(0.010850694444444444,0,0,0.010850694444444444,106.6840277777778,0)" xlink:href="#bV"></use><use transform="matrix(0.010850694444444444,0,0,0.010850694444444444,120.01953125000003,0)" xlink:href="#ci"></use><use transform="matrix(0.010850694444444444,0,0,0.010850694444444444,133.35503472222226,0)" xlink:href="#cd"></use><use transform="matrix(0.010850694444444444,0,0,0.010850694444444444,146.69053819444449,0)" xlink:href="#bX"></use><use transform="matrix(0.010850694444444444,0,0,0.010850694444444444,160.0260416666667,0)" xlink:href="#bZ"></use><use transform="matrix(0.010850694444444444,0,0,0.010850694444444444,173.36154513888894,0)" xlink:href="#cj"></use><use transform="matrix(0.010850694444444444,0,0,0.010850694444444444,186.69704861111117,0)" xlink:href="#ck"></use><use transform="matrix(0.010850694444444444,0,0,0.010850694444444444,200.0325520833334,0)" xlink:href="#cd"></use><use transform="matrix(0.010850694444444444,0,0,0.010850694444444444,213.36805555555563,0)" xlink:href="#bS"></use><use transform="matrix(0.010850694444444444,0,0,0.010850694444444444,226.70355902777786,0)" xlink:href="#cl"></use><use transform="matrix(0.010850694444444444,0,0,0.010850694444444444,240.03906250000006,0)" xlink:href="#bf"></use></g><g id="A"><use transform="matrix(0.010850694444444444,0,0,0.010850694444444444,0,0)" xlink:href="#bE"></use><use transform="matrix(0.010850694444444444,0,0,0.010850694444444444,13.335503472222221,0)" xlink:href="#bK"></use><use transform="matrix(0.010850694444444444,0,0,0.010850694444444444,26.671006944444443,0)" xlink:href="#bF"></use><use transform="matrix(0.010850694444444444,0,0,0.010850694444444444,40.006510416666664,0)" xlink:href="#bJ"></use><use transform="matrix(0.010850694444444444,0,0,0.010850694444444444,53.342013888888886,0)" xlink:href="#bF"></use><use transform="matrix(0.010850694444444444,0,0,0.010850694444444444,66.67751736111111,0)" xlink:href="#bJ"></use><use transform="matrix(0.010850694444444444,0,0,0.010850694444444444,80.01302083333334,0)" xlink:href="#bE"></use><use transform="matrix(0.010850694444444444,0,0,0.010850694444444444,93.34852430555557,0)" xlink:href="#bP"></use><use transform="matrix(0.010850694444444444,0,0,0.010850694444444444,106.6840277777778,0)" xlink:href="#bQ"></use><use transform="matrix(0.010850694444444444,0,0,0.010850694444444444,120.01953125000003,0)" xlink:href="#bE"></use><use transform="matrix(0.010850694444444444,0,0,0.010850694444444444,133.35503472222226,0)" xlink:href="#bK"></use><use transform="matrix(0.010850694444444444,0,0,0.010850694444444444,146.69053819444449,0)" xlink:href="#bF"></use><use transform="matrix(0.010850694444444444,0,0,0.010850694444444444,160.0260416666667,0)" xlink:href="#bJ"></use><use transform="matrix(0.010850694444444444,0,0,0.010850694444444444,173.36154513888894,0)" xlink:href="#bF"></use><use transform="matrix(0.010850694444444444,0,0,0.010850694444444444,186.69704861111117,0)" xlink:href="#bJ"></use><use transform="matrix(0.010850694444444444,0,0,0.010850694444444444,200.0325520833334,0)" xlink:href="#bE"></use><use transform="matrix(0.010850694444444444,0,0,0.010850694444444444,213.36805555555563,0)" xlink:href="#bP"></use><use transform="matrix(0.010850694444444444,0,0,0.010850694444444444,226.70355902777786,0)" xlink:href="#bG"></use><use transform="matrix(0.010850694444444444,0,0,0.010850694444444444,240.03906250000006,0)" xlink:href="#bL"></use><use transform="matrix(0.010850694444444444,0,0,0.010850694444444444,253.37456597222234,0)" xlink:href="#bN"></use></g><path fill="#333" d="M528-1484c201 248 357 511 357 952 0 442-156 709-357 957H336C537 174 700-89 700-530c0-440-163-703-364-954h192" id="cm"></path><use transform="matrix(0.010850694444444444,0,0,0.010850694444444444,0,0)" xlink:href="#cm" id="B"></use><path fill="#333" d="M715 0H502L69-1082h202c94 253 197 500 285 758 19 57 36 126 52 183 96-335 234-626 350-941h201" id="cn"></path><path fill="#333" d="M631 20c-350 0-501-215-501-562 0-355 162-560 502-560 250 0 399 118 446 323l-192 14c-23-124-109-196-262-196-242 0-305 171-305 415 1 245 61 427 304 427 151 0 248-77 267-215l190 12C1039-107 883 20 631 20" id="co"></path><path fill="#333" d="M615-1102c343 0 484 203 482 560-1 347-147 562-488 562-336 0-475-219-479-562-4-349 156-560 485-560zm-8 989c240 0 301-180 301-429 0-245-55-427-290-427-236 0-299 181-299 427 0 243 61 429 288 429" id="cp"></path><g id="C"><use transform="matrix(0.011935763888888888,0,0,0.011935763888888888,0,0)" xlink:href="#bC"></use><use transform="matrix(0.010850694444444444,0,0,0.010850694444444444,14.669053819444443,0)" xlink:href="#bD"></use><use transform="matrix(0.010850694444444444,0,0,0.010850694444444444,28.004557291666668,0)" xlink:href="#bE"></use><use transform="matrix(0.010850694444444444,0,0,0.010850694444444444,41.340060763888886,0)" xlink:href="#bF"></use><use transform="matrix(0.010850694444444444,0,0,0.010850694444444444,54.67556423611111,0)" xlink:href="#bG"></use><use transform="matrix(0.010850694444444444,0,0,0.010850694444444444,68.01106770833333,0)" xlink:href="#bN"></use><use transform="matrix(0.010850694444444444,0,0,0.010850694444444444,81.34657118055554,0)" xlink:href="#bE"></use><use transform="matrix(0.010850694444444444,0,0,0.010850694444444444,94.68207465277777,0)" xlink:href="#bI"></use><use transform="matrix(0.010850694444444444,0,0,0.010850694444444444,108.01757812499999,0)" xlink:href="#bF"></use><use transform="matrix(0.010850694444444444,0,0,0.010850694444444444,121.35308159722223,0)" xlink:href="#bO"></use><use transform="matrix(0.010850694444444444,0,0,0.010850694444444444,134.68858506944446,0)" xlink:href="#bH"></use><use transform="matrix(0.010850694444444444,0,0,0.010850694444444444,148.02408854166669,0)" xlink:href="#bE"></use><use transform="matrix(0.010850694444444444,0,0,0.010850694444444444,161.3595920138889,0)" xlink:href="#bG"></use><use transform="matrix(0.010850694444444444,0,0,0.010850694444444444,174.69509548611114,0)" xlink:href="#cn"></use><use transform="matrix(0.010850694444444444,0,0,0.010850694444444444,188.03059895833337,0)" xlink:href="#bE"></use><use transform="matrix(0.010850694444444444,0,0,0.010850694444444444,201.3661024305556,0)" xlink:href="#co"></use><use transform="matrix(0.010850694444444444,0,0,0.010850694444444444,214.70160590277783,0)" xlink:href="#bF"></use><use transform="matrix(0.010850694444444444,0,0,0.010850694444444444,228.03710937500006,0)" xlink:href="#cp"></use><use transform="matrix(0.010850694444444444,0,0,0.010850694444444444,241.37261284722226,0)" xlink:href="#bH"></use></g><g id="D"><use transform="matrix(0.010850694444444444,0,0,0.010850694444444444,0,0)" xlink:href="#bS"></use><use transform="matrix(0.010850694444444444,0,0,0.010850694444444444,13.335503472222221,0)" xlink:href="#ch"></use><use transform="matrix(0.010850694444444444,0,0,0.010850694444444444,26.671006944444443,0)" xlink:href="#cb"></use><use transform="matrix(0.010850694444444444,0,0,0.010850694444444444,40.006510416666664,0)" xlink:href="#bV"></use><use transform="matrix(0.010850694444444444,0,0,0.010850694444444444,53.342013888888886,0)" xlink:href="#cg"></use><use transform="matrix(0.010850694444444444,0,0,0.010850694444444444,66.67751736111111,0)" xlink:href="#bX"></use><use transform="matrix(0.010850694444444444,0,0,0.010850694444444444,80.01302083333334,0)" xlink:href="#cb"></use><use transform="matrix(0.010850694444444444,0,0,0.010850694444444444,93.34852430555557,0)" xlink:href="#cf"></use><use transform="matrix(0.010850694444444444,0,0,0.010850694444444444,106.6840277777778,0)" xlink:href="#bV"></use><use transform="matrix(0.010850694444444444,0,0,0.010850694444444444,120.01953125000003,0)" xlink:href="#ci"></use><use transform="matrix(0.010850694444444444,0,0,0.010850694444444444,133.35503472222226,0)" xlink:href="#cd"></use><use transform="matrix(0.010850694444444444,0,0,0.010850694444444444,146.69053819444449,0)" xlink:href="#bX"></use><use transform="matrix(0.010850694444444444,0,0,0.010850694444444444,160.0260416666667,0)" xlink:href="#bZ"></use><use transform="matrix(0.010850694444444444,0,0,0.010850694444444444,173.36154513888894,0)" xlink:href="#cj"></use><use transform="matrix(0.010850694444444444,0,0,0.010850694444444444,186.69704861111117,0)" xlink:href="#ck"></use><use transform="matrix(0.010850694444444444,0,0,0.010850694444444444,200.0325520833334,0)" xlink:href="#cd"></use><use transform="matrix(0.010850694444444444,0,0,0.010850694444444444,213.36805555555563,0)" xlink:href="#bS"></use><use transform="matrix(0.010850694444444444,0,0,0.010850694444444444,226.70355902777786,0)" xlink:href="#cl"></use><use transform="matrix(0.010850694444444444,0,0,0.010850694444444444,240.03906250000006,0)" xlink:href="#bf"></use></g><path d="M116-856v-148h995v148H116zm0 512v-148h995v148H116" id="cq"></path><path fill="#333" d="M677 91c1 136 41 195 171 195h213v139H796c-186-8-294-116-294-303v-351c-3-164-120-222-275-232v-137c155-10 275-69 275-231v-352c6-189 106-303 294-303h265v139H848c-126-3-171 67-171 195v346c-5 158-108 234-231 274 128 36 231 115 231 274V91" id="cr"></path><path fill="#333" d="M908-845H766l-40-639h224zm-449 0H318l-41-639h224" id="cs"></path><path fill="#333" d="M496 0v-299h235V0H496zm0-783v-299h235v299H496" id="ct"></path><path fill="#333" d="M1060-1016c0 191-128 285-295 323v4c154 18 262 91 313 209 14 35 21 72 21 110 0 277-194 390-478 390-292 0-457-129-493-382l186-17c24 161 121 250 307 250 172 1 298-80 291-247-8-208-220-239-446-233v-156c217 9 409-34 409-232 0-152-102-225-264-225-159 0-264 88-278 233l-181-14c33-239 196-367 461-367 264 0 447 102 447 354" id="cu"></path><path fill="#333" d="M259 363l169-662h265L382 363H259" id="cv"></path><g id="E"><use transform="matrix(0.010850694444444444,0,0,0.010850694444444444,0,0)" xlink:href="#aU"></use><use transform="matrix(0.010850694444444444,0,0,0.010850694444444444,13.335503472222221,0)" xlink:href="#bo"></use><use transform="matrix(0.010850694444444444,0,0,0.010850694444444444,26.671006944444443,0)" xlink:href="#aT"></use><use transform="matrix(0.010850694444444444,0,0,0.010850694444444444,40.006510416666664,0)" xlink:href="#aS"></use><use transform="matrix(0.010850694444444444,0,0,0.010850694444444444,53.342013888888886,0)" xlink:href="#aT"></use><use transform="matrix(0.010850694444444444,0,0,0.010850694444444444,66.67751736111111,0)" xlink:href="#aS"></use><use transform="matrix(0.010850694444444444,0,0,0.010850694444444444,80.01302083333334,0)" xlink:href="#aU"></use><use transform="matrix(0.010850694444444444,0,0,0.010850694444444444,93.34852430555557,0)" xlink:href="#ba"></use><use transform="matrix(0.010850694444444444,0,0,0.010850694444444444,106.6840277777778,0)" xlink:href="#cq"></use><use transform="matrix(0.010850694444444444,0,0,0.010850694444444444,120.01953125000003,0)" xlink:href="#cr"></use><use transform="matrix(0.010850694444444444,0,0,0.010850694444444444,133.35503472222226,0)" xlink:href="#cs"></use><use transform="matrix(0.010850694444444444,0,0,0.010850694444444444,146.69053819444449,0)" xlink:href="#bO"></use><use transform="matrix(0.010850694444444444,0,0,0.010850694444444444,160.0260416666667,0)" xlink:href="#bP"></use><use transform="matrix(0.010850694444444444,0,0,0.010850694444444444,173.36154513888894,0)" xlink:href="#bE"></use><use transform="matrix(0.010850694444444444,0,0,0.010850694444444444,186.69704861111117,0)" xlink:href="#bH"></use><use transform="matrix(0.010850694444444444,0,0,0.010850694444444444,200.0325520833334,0)" xlink:href="#bG"></use><use transform="matrix(0.010850694444444444,0,0,0.010850694444444444,213.36805555555563,0)" xlink:href="#bJ"></use><use transform="matrix(0.010850694444444444,0,0,0.010850694444444444,226.70355902777786,0)" xlink:href="#bL"></use><use transform="matrix(0.010850694444444444,0,0,0.010850694444444444,240.03906250000006,0)" xlink:href="#cs"></use><use transform="matrix(0.010850694444444444,0,0,0.010850694444444444,253.37456597222234,0)" xlink:href="#ct"></use><use transform="matrix(0.010850694444444444,0,0,0.010850694444444444,266.7100694444445,0)" xlink:href="#cu"></use><use transform="matrix(0.010850694444444444,0,0,0.010850694444444444,280.04557291666674,0)" xlink:href="#cv"></use></g><path fill="#333" d="M904-1102c199 0 220 177 220 381V0H956v-686c-3-114 0-215-60-264-70-33-125-4-158 71-26 56-39 140-39 252V0H531v-686c-3-114-1-215-61-264-78-41-136 24-157 84-24 69-39 159-39 259V0H105c-3-360 6-732-6-1082h149c6 50 3 123 8 175 36-100 83-195 216-195 135 0 166 79 196 196 42-105 93-196 236-196" id="cw"></path><path fill="#333" d="M672-881c271 0 424 163 424 435 0 291-160 466-455 466-367 0-490-287-490-662 0-324 85-568 293-680 129-70 351-59 460 16 73 50 125 123 153 223l-172 31c-31-108-107-172-232-172-259 0-316 252-323 529 59-113 178-186 342-186zm-37 756c186 0 278-124 278-313s-96-304-284-304c-163 0-281 93-281 261 0 157 65 270 168 327 35 19 75 29 119 29" id="cx"></path><path fill="#333" d="M611-1370c266 0 451 106 451 368 0 147-77 243-154 327-132 144-316 255-451 395-42 44-75 87-96 134h723V0H144v-117c124-264 387-411 582-603 73-72 151-147 151-271 0-161-104-231-266-231-163 0-249 90-268 238l-184-17c35-233 185-369 452-369" id="cy"></path><path fill="#333" d="M726 122c-7 187-108 303-294 303H167V286h213c129-2 172-59 172-195v-347c5-160 106-236 230-276-125-36-230-116-230-272v-346c2-128-45-195-172-195H167v-139h265c187 7 294 114 294 303v352c4 162 120 221 275 231v137c-155 10-275 68-275 232v351" id="cz"></path><g id="I"><use transform="matrix(0.010850694444444444,0,0,0.010850694444444444,0,0)" xlink:href="#cs"></use><use transform="matrix(0.010850694444444444,0,0,0.010850694444444444,13.335503472222221,0)" xlink:href="#bJ"></use><use transform="matrix(0.010850694444444444,0,0,0.010850694444444444,26.671006944444443,0)" xlink:href="#bF"></use><use transform="matrix(0.010850694444444444,0,0,0.010850694444444444,40.006510416666664,0)" xlink:href="#bE"></use><use transform="matrix(0.010850694444444444,0,0,0.010850694444444444,53.342013888888886,0)" xlink:href="#cw"></use><use transform="matrix(0.010850694444444444,0,0,0.010850694444444444,66.67751736111111,0)" xlink:href="#bG"></use><use transform="matrix(0.010850694444444444,0,0,0.010850694444444444,80.01302083333334,0)" xlink:href="#bJ"></use><use transform="matrix(0.010850694444444444,0,0,0.010850694444444444,93.34852430555557,0)" xlink:href="#bL"></use><use transform="matrix(0.010850694444444444,0,0,0.010850694444444444,106.6840277777778,0)" xlink:href="#cs"></use><use transform="matrix(0.010850694444444444,0,0,0.010850694444444444,120.01953125000003,0)" xlink:href="#ct"></use><use transform="matrix(0.010850694444444444,0,0,0.010850694444444444,133.35503472222226,0)" xlink:href="#cx"></use><use transform="matrix(0.010850694444444444,0,0,0.010850694444444444,146.69053819444449,0)" xlink:href="#cy"></use><use transform="matrix(0.010850694444444444,0,0,0.010850694444444444,160.0260416666667,0)" xlink:href="#cz"></use></g><path d="M84 4C-5 8 30-112 23-190h32v120c0 31 7 50 39 49 72-2 45-101 50-169h31l1 190h-30c-1-10 1-25-2-33-11 22-28 36-60 37" id="cA"></path><path d="M135-143c-3-34-86-38-87 0 15 53 115 12 119 90S17 21 10-45l28-5c4 36 97 45 98 0-10-56-113-15-118-90-4-57 82-63 122-42 12 7 21 19 24 35" id="cB"></path><path d="M100-194c63 0 86 42 84 106H49c0 40 14 67 53 68 26 1 43-12 49-29l28 8c-11 28-37 45-77 45C44 4 14-33 15-96c1-61 26-98 85-98zm52 81c6-60-76-77-97-28-3 7-6 17-6 28h103" id="cC"></path><path d="M114-163C36-179 61-72 57 0H25l-1-190h30c1 12-1 29 2 39 6-27 23-49 58-41v29" id="cD"></path><path d="M-5 72V49h209v23H-5" id="cE"></path><path d="M24-231v-30h32v30H24zM24 0v-190h32V0H24" id="cF"></path><path d="M85-194c31 0 48 13 60 33l-1-100h32l1 261h-30c-2-10 0-23-3-31C134-8 116 4 85 4 32 4 16-35 15-94c0-66 23-100 70-100zm9 24c-40 0-46 34-46 75 0 40 6 74 45 74 42 0 51-32 51-76 0-42-9-74-50-73" id="cG"></path><g id="J"><use transform="matrix(0.06172839506172839,0,0,0.06172839506172839,0,0)" xlink:href="#cA"></use><use transform="matrix(0.06172839506172839,0,0,0.06172839506172839,12.345679012345679,0)" xlink:href="#cB"></use><use transform="matrix(0.06172839506172839,0,0,0.06172839506172839,23.45679012345679,0)" xlink:href="#cC"></use><use transform="matrix(0.06172839506172839,0,0,0.06172839506172839,35.80246913580247,0)" xlink:href="#cD"></use><use transform="matrix(0.06172839506172839,0,0,0.06172839506172839,43.148148148148145,0)" xlink:href="#cE"></use><use transform="matrix(0.06172839506172839,0,0,0.06172839506172839,55.49382716049382,0)" xlink:href="#cF"></use><use transform="matrix(0.06172839506172839,0,0,0.06172839506172839,60.37037037037037,0)" xlink:href="#cG"></use></g><path d="M59-47c-2 24 18 29 38 22v24C64 9 27 4 27-40v-127H5v-23h24l9-43h21v43h35v23H59v120" id="cH"></path><path d="M210-169c-67 3-38 105-44 169h-31v-121c0-29-5-50-35-48C34-165 62-65 56 0H25l-1-190h30c1 10-1 24 2 32 10-44 99-50 107 0 11-21 27-35 58-36 85-2 47 119 55 194h-31v-121c0-29-5-49-35-48" id="cI"></path><g id="K"><use transform="matrix(0.06172839506172839,0,0,0.06172839506172839,0,0)" xlink:href="#cF"></use><use transform="matrix(0.06172839506172839,0,0,0.06172839506172839,4.876543209876543,0)" xlink:href="#cH"></use><use transform="matrix(0.06172839506172839,0,0,0.06172839506172839,11.049382716049383,0)" xlink:href="#cC"></use><use transform="matrix(0.06172839506172839,0,0,0.06172839506172839,23.395061728395063,0)" xlink:href="#cI"></use><use transform="matrix(0.06172839506172839,0,0,0.06172839506172839,41.85185185185185,0)" xlink:href="#cE"></use><use transform="matrix(0.06172839506172839,0,0,0.06172839506172839,54.197530864197525,0)" xlink:href="#cF"></use><use transform="matrix(0.06172839506172839,0,0,0.06172839506172839,59.07407407407407,0)" xlink:href="#cG"></use></g><g id="L"><use transform="matrix(0.06172839506172839,0,0,0.06172839506172839,0,0)" xlink:href="#cH"></use><use transform="matrix(0.06172839506172839,0,0,0.06172839506172839,6.172839506172839,0)" xlink:href="#cF"></use><use transform="matrix(0.06172839506172839,0,0,0.06172839506172839,11.049382716049383,0)" xlink:href="#cI"></use><use transform="matrix(0.06172839506172839,0,0,0.06172839506172839,29.50617283950617,0)" xlink:href="#cC"></use></g><path d="M96-169c-40 0-48 33-48 73s9 75 48 75c24 0 41-14 43-38l32 2c-6 37-31 61-74 61-59 0-76-41-82-99-10-93 101-131 147-64 4 7 5 14 7 22l-32 3c-4-21-16-35-41-35" id="cJ"></path><path d="M24 0v-261h32V0H24" id="cK"></path><path d="M143 0L79-87 56-68V0H24v-261h32v163l83-92h37l-77 82L181 0h-38" id="cL"></path><path d="M64 0c3-98 48-159 88-221H18v-27h164v26C143-157 98-101 97 0H64" id="cM"></path><g id="M"><use transform="matrix(0.05555555555555555,0,0,0.05555555555555555,0,0)" xlink:href="#cF"></use><use transform="matrix(0.05555555555555555,0,0,0.05555555555555555,4.388888888888888,0)" xlink:href="#cH"></use><use transform="matrix(0.05555555555555555,0,0,0.05555555555555555,9.944444444444443,0)" xlink:href="#cC"></use><use transform="matrix(0.05555555555555555,0,0,0.05555555555555555,21.055555555555554,0)" xlink:href="#cI"></use><use transform="matrix(0.05555555555555555,0,0,0.05555555555555555,37.666666666666664,0)" xlink:href="#cE"></use><use transform="matrix(0.05555555555555555,0,0,0.05555555555555555,48.77777777777777,0)" xlink:href="#cJ"></use><use transform="matrix(0.05555555555555555,0,0,0.05555555555555555,58.77777777777777,0)" xlink:href="#cK"></use><use transform="matrix(0.05555555555555555,0,0,0.05555555555555555,63.166666666666664,0)" xlink:href="#cF"></use><use transform="matrix(0.05555555555555555,0,0,0.05555555555555555,67.55555555555554,0)" xlink:href="#cJ"></use><use transform="matrix(0.05555555555555555,0,0,0.05555555555555555,77.55555555555554,0)" xlink:href="#cL"></use><use transform="matrix(0.05555555555555555,0,0,0.05555555555555555,87.55555555555554,0)" xlink:href="#cB"></use><use transform="matrix(0.05555555555555555,0,0,0.05555555555555555,97.55555555555554,0)" xlink:href="#cE"></use><use transform="matrix(0.05555555555555555,0,0,0.05555555555555555,108.66666666666666,0)" xlink:href="#cK"></use><use transform="matrix(0.05555555555555555,0,0,0.05555555555555555,113.05555555555554,0)" xlink:href="#cM"></use><use transform="matrix(0.05555555555555555,0,0,0.05555555555555555,124.16666666666666,0)" xlink:href="#cG"></use></g><path d="M115-194c55 1 70 41 70 98S169 2 115 4C84 4 66-9 55-30l1 105H24l-1-265h31l2 30c10-21 28-34 59-34zm-8 174c40 0 45-34 45-75s-6-73-45-74c-42 0-51 32-51 76 0 43 10 73 51 73" id="cN"></path><g id="N"><use transform="matrix(0.05555555555555555,0,0,0.05555555555555555,0,0)" xlink:href="#cF"></use><use transform="matrix(0.05555555555555555,0,0,0.05555555555555555,4.388888888888888,0)" xlink:href="#cH"></use><use transform="matrix(0.05555555555555555,0,0,0.05555555555555555,9.944444444444443,0)" xlink:href="#cC"></use><use transform="matrix(0.05555555555555555,0,0,0.05555555555555555,21.055555555555554,0)" xlink:href="#cI"></use><use transform="matrix(0.05555555555555555,0,0,0.05555555555555555,37.666666666666664,0)" xlink:href="#cE"></use><use transform="matrix(0.05555555555555555,0,0,0.05555555555555555,48.77777777777777,0)" xlink:href="#cN"></use><use transform="matrix(0.05555555555555555,0,0,0.05555555555555555,59.888888888888886,0)" xlink:href="#cD"></use><use transform="matrix(0.05555555555555555,0,0,0.05555555555555555,66.5,0)" xlink:href="#cF"></use><use transform="matrix(0.05555555555555555,0,0,0.05555555555555555,70.88888888888889,0)" xlink:href="#cJ"></use><use transform="matrix(0.05555555555555555,0,0,0.05555555555555555,80.88888888888889,0)" xlink:href="#cC"></use></g><path d="M117-194c89-4 53 116 60 194h-32v-121c0-31-8-49-39-48C34-167 62-67 57 0H25l-1-190h30c1 10-1 24 2 32 11-22 29-35 61-36" id="cO"></path><path d="M126-127c33 6 58 20 58 59 0 88-139 92-164 29-3-8-5-16-6-25l32-3c6 27 21 44 54 44 32 0 52-15 52-46 0-38-36-46-79-43v-28c39 1 72-4 72-42 0-27-17-43-46-43-28 0-47 15-49 41l-32-3c6-42 35-63 81-64 48-1 79 21 79 65 0 36-21 52-52 59" id="cP"></path><path d="M101-251c68 0 85 55 85 127S166 4 100 4C33 4 14-52 14-124c0-73 17-127 87-127zm-1 229c47 0 54-49 54-102s-4-102-53-102c-51 0-55 48-55 102 0 53 5 102 54 102" id="cQ"></path><g id="O"><use transform="matrix(0.05555555555555555,0,0,0.05555555555555555,0,0)" xlink:href="#cA"></use><use transform="matrix(0.05555555555555555,0,0,0.05555555555555555,11.11111111111111,0)" xlink:href="#cB"></use><use transform="matrix(0.05555555555555555,0,0,0.05555555555555555,21.11111111111111,0)" xlink:href="#cC"></use><use transform="matrix(0.05555555555555555,0,0,0.05555555555555555,32.22222222222222,0)" xlink:href="#cD"></use><use transform="matrix(0.05555555555555555,0,0,0.05555555555555555,38.83333333333333,0)" xlink:href="#cE"></use><use transform="matrix(0.05555555555555555,0,0,0.05555555555555555,49.94444444444444,0)" xlink:href="#cB"></use><use transform="matrix(0.05555555555555555,0,0,0.05555555555555555,59.94444444444444,0)" xlink:href="#cN"></use><use transform="matrix(0.05555555555555555,0,0,0.05555555555555555,71.05555555555556,0)" xlink:href="#cC"></use><use transform="matrix(0.05555555555555555,0,0,0.05555555555555555,82.16666666666667,0)" xlink:href="#cO"></use><use transform="matrix(0.05555555555555555,0,0,0.05555555555555555,93.27777777777779,0)" xlink:href="#cG"></use><use transform="matrix(0.05555555555555555,0,0,0.05555555555555555,104.3888888888889,0)" xlink:href="#cE"></use><use transform="matrix(0.05555555555555555,0,0,0.05555555555555555,115.50000000000001,0)" xlink:href="#cK"></use><use transform="matrix(0.05555555555555555,0,0,0.05555555555555555,119.88888888888891,0)" xlink:href="#cP"></use><use transform="matrix(0.05555555555555555,0,0,0.05555555555555555,131,0)" xlink:href="#cQ"></use><use transform="matrix(0.05555555555555555,0,0,0.05555555555555555,142.11111111111111,0)" xlink:href="#cG"></use></g><path d="M27 0v-27h64v-190l-56 39v-29l58-41h29v221h61V0H27" id="cR"></path><use transform="matrix(0.06172839506172839,0,0,0.06172839506172839,0,0)" xlink:href="#cR" id="P"></use><path d="M54-142c48-35 137-8 131 61C196 18 31 33 14-55l32-4c7 23 22 37 52 37 35-1 51-22 54-58 4-55-73-65-99-34H22l8-134h141v27H59" id="cS"></path><path d="M155-56V0h-30v-56H8v-25l114-167h33v167h35v25h-35zm-30-156c-27 46-58 90-88 131h88v-131" id="cT"></path><g id="Q"><use transform="matrix(0.06172839506172839,0,0,0.06172839506172839,0,0)" xlink:href="#cS"></use><use transform="matrix(0.06172839506172839,0,0,0.06172839506172839,12.345679012345679,0)" xlink:href="#cT"></use></g><path d="M134-131c28 9 52 24 51 62-1 50-34 73-85 73S17-19 16-69c0-36 21-54 49-61-75-25-45-126 34-121 46 3 78 18 79 63 0 33-17 51-44 57zm-34-11c31 1 46-15 46-44 0-28-17-43-47-42-29 0-46 13-45 42 1 28 16 44 46 44zm1 122c35 0 51-18 51-52 0-30-18-46-53-46-33 0-51 17-51 47 0 34 19 51 53 51" id="cU"></path><g id="R"><use transform="matrix(0.06172839506172839,0,0,0.06172839506172839,0,0)" xlink:href="#cM"></use><use transform="matrix(0.06172839506172839,0,0,0.06172839506172839,12.345679012345679,0)" xlink:href="#cT"></use><use transform="matrix(0.06172839506172839,0,0,0.06172839506172839,24.691358024691358,0)" xlink:href="#cU"></use><use transform="matrix(0.06172839506172839,0,0,0.06172839506172839,37.03703703703704,0)" xlink:href="#cS"></use></g><path d="M110-160c48 1 74 30 74 79 0 53-28 85-80 85-65 0-83-55-86-122-5-90 50-162 133-122 14 7 22 21 27 39l-31 6c-5-40-67-38-82-6-9 19-15 44-15 74 11-20 30-34 60-33zm-7 138c34 0 49-23 49-58s-16-56-50-56c-29 0-50 16-49 49 1 36 15 65 50 65" id="cV"></path><use transform="matrix(0.06172839506172839,0,0,0.06172839506172839,0,0)" xlink:href="#cV" id="S"></use><path d="M194-70c0 46-34 64-81 66v29H91V-4C42-5 12-27 4-67l30-6c5 28 25 41 57 43v-87c-38-9-76-20-76-67 1-42 33-58 76-59v-23h22v23c45 0 67 20 76 56l-31 6c-5-23-18-35-45-37v78c41 10 81 20 81 70zm-81 41c51 7 71-66 19-77-6-2-12-4-19-6v83zM91-219c-47-6-63 57-18 69 6 2 12 3 18 5v-74" id="cW"></path><path d="M101-251c82-7 93 87 43 132L82-64C71-53 59-42 53-27h129V0H18c2-99 128-94 128-182 0-28-16-43-45-43s-46 15-49 41l-32-3c6-41 34-60 81-64" id="cX"></path><path d="M33 0v-38h34V0H33" id="cY"></path><g id="T"><use transform="matrix(0.06172839506172839,0,0,0.06172839506172839,0,0)" xlink:href="#cW"></use><use transform="matrix(0.06172839506172839,0,0,0.06172839506172839,12.345679012345679,0)" xlink:href="#cX"></use><use transform="matrix(0.06172839506172839,0,0,0.06172839506172839,24.691358024691358,0)" xlink:href="#cP"></use><use transform="matrix(0.06172839506172839,0,0,0.06172839506172839,37.03703703703704,0)" xlink:href="#cY"></use><use transform="matrix(0.06172839506172839,0,0,0.06172839506172839,43.20987654320988,0)" xlink:href="#cX"></use></g><g id="U"><use transform="matrix(0.06172839506172839,0,0,0.06172839506172839,0,0)" xlink:href="#cW"></use><use transform="matrix(0.06172839506172839,0,0,0.06172839506172839,12.345679012345679,0)" xlink:href="#cQ"></use></g><use transform="matrix(0.06172839506172839,0,0,0.06172839506172839,0,0)" xlink:href="#cX" id="V"></use><g id="W"><use transform="matrix(0.06172839506172839,0,0,0.06172839506172839,0,0)" xlink:href="#cP"></use><use transform="matrix(0.06172839506172839,0,0,0.06172839506172839,12.345679012345679,0)" xlink:href="#cS"></use></g><g id="X"><use transform="matrix(0.06172839506172839,0,0,0.06172839506172839,0,0)" xlink:href="#cT"></use><use transform="matrix(0.06172839506172839,0,0,0.06172839506172839,12.345679012345679,0)" xlink:href="#cV"></use><use transform="matrix(0.06172839506172839,0,0,0.06172839506172839,24.691358024691358,0)" xlink:href="#cU"></use><use transform="matrix(0.06172839506172839,0,0,0.06172839506172839,37.03703703703704,0)" xlink:href="#cS"></use><use transform="matrix(0.06172839506172839,0,0,0.06172839506172839,49.382716049382715,0)" xlink:href="#cT"></use></g><use transform="matrix(0.06172839506172839,0,0,0.06172839506172839,0,0)" xlink:href="#cS" id="Y"></use><g id="Z"><use transform="matrix(0.06172839506172839,0,0,0.06172839506172839,0,0)" xlink:href="#cW"></use><use transform="matrix(0.06172839506172839,0,0,0.06172839506172839,12.345679012345679,0)" xlink:href="#cT"></use><use transform="matrix(0.06172839506172839,0,0,0.06172839506172839,24.691358024691358,0)" xlink:href="#cR"></use><use transform="matrix(0.06172839506172839,0,0,0.06172839506172839,37.03703703703704,0)" xlink:href="#cY"></use><use transform="matrix(0.06172839506172839,0,0,0.06172839506172839,43.20987654320988,0)" xlink:href="#cS"></use><use transform="matrix(0.06172839506172839,0,0,0.06172839506172839,55.55555555555556,0)" xlink:href="#cT"></use></g><g id="aa"><use transform="matrix(0.06172839506172839,0,0,0.06172839506172839,0,0)" xlink:href="#cW"></use><use transform="matrix(0.06172839506172839,0,0,0.06172839506172839,12.345679012345679,0)" xlink:href="#cU"></use><use transform="matrix(0.06172839506172839,0,0,0.06172839506172839,24.691358024691358,0)" xlink:href="#cY"></use><use transform="matrix(0.06172839506172839,0,0,0.06172839506172839,30.864197530864196,0)" xlink:href="#cT"></use><use transform="matrix(0.06172839506172839,0,0,0.06172839506172839,43.20987654320987,0)" xlink:href="#cR"></use></g><path fill="#333" d="M76-208v77h127v40H76V0H24v-248h183v40H76" id="cZ"></path><path fill="#333" d="M85 4C-2 5 27-109 22-190h50c7 57-23 150 33 157 60-5 35-97 40-157h50l1 190h-47c-2-12 1-28-3-38-12 25-28 42-61 42" id="da"></path><g id="ab"><use transform="matrix(0.06790123456790123,0,0,0.06790123456790123,0,0)" xlink:href="#cZ"></use><use transform="matrix(0.06790123456790123,0,0,0.06790123456790123,14.87037037037037,0)" xlink:href="#aw"></use><use transform="matrix(0.06790123456790123,0,0,0.06790123456790123,28.450617283950617,0)" xlink:href="#ao"></use><use transform="matrix(0.06790123456790123,0,0,0.06790123456790123,42.03086419753086,0)" xlink:href="#at"></use><use transform="matrix(0.06790123456790123,0,0,0.06790123456790123,50.11111111111111,0)" xlink:href="#da"></use><use transform="matrix(0.06790123456790123,0,0,0.06790123456790123,64.98148148148148,0)" xlink:href="#an"></use><use transform="matrix(0.06790123456790123,0,0,0.06790123456790123,74.48765432098766,0)" xlink:href="#aw"></use></g><path fill="#333" d="M147 0H94L2-248h55l64 206c17-72 42-137 63-206h54" id="db"></path><path fill="#333" d="M190-63c-7 42-38 67-86 67-59 0-84-38-90-98-12-110 154-137 174-36l-49 2c-2-19-15-32-35-32-30 0-35 28-38 64-6 74 65 87 74 30" id="dc"></path><g id="ac"><use transform="matrix(0.06790123456790123,0,0,0.06790123456790123,0,0)" xlink:href="#db"></use><use transform="matrix(0.06790123456790123,0,0,0.06790123456790123,14.938271604938269,0)" xlink:href="#aw"></use><use transform="matrix(0.06790123456790123,0,0,0.06790123456790123,28.518518518518515,0)" xlink:href="#dc"></use><use transform="matrix(0.06790123456790123,0,0,0.06790123456790123,42.09876543209876,0)" xlink:href="#at"></use><use transform="matrix(0.06790123456790123,0,0,0.06790123456790123,50.179012345679,0)" xlink:href="#bv"></use><use transform="matrix(0.06790123456790123,0,0,0.06790123456790123,65.04938271604938,0)" xlink:href="#an"></use></g><g id="ad"><use transform="matrix(0.06790123456790123,0,0,0.06790123456790123,0,0)" xlink:href="#ax"></use><use transform="matrix(0.06790123456790123,0,0,0.06790123456790123,8.080246913580247,0)" xlink:href="#aG"></use><use transform="matrix(0.06790123456790123,0,0,0.06790123456790123,13.444444444444443,0)" xlink:href="#aF"></use><use transform="matrix(0.06790123456790123,0,0,0.06790123456790123,27.02469135802469,0)" xlink:href="#aB"></use><use transform="matrix(0.06790123456790123,0,0,0.06790123456790123,33.81481481481481,0)" xlink:href="#aJ"></use><use transform="matrix(0.06790123456790123,0,0,0.06790123456790123,47.395061728395056,0)" xlink:href="#aA"></use><use transform="matrix(0.06790123456790123,0,0,0.06790123456790123,59.61728395061728,0)" xlink:href="#aB"></use></g><path fill="#333" d="M68-38c1 34 0 65-14 84H32c9-13 17-26 17-46H33v-38h35" id="dd"></path><g id="ae"><use transform="matrix(0.06790123456790123,0,0,0.06790123456790123,0,0)" xlink:href="#aH"></use><use transform="matrix(0.06790123456790123,0,0,0.06790123456790123,12.222222222222221,0)" xlink:href="#aF"></use><use transform="matrix(0.06790123456790123,0,0,0.06790123456790123,25.80246913580247,0)" xlink:href="#aG"></use><use transform="matrix(0.06790123456790123,0,0,0.06790123456790123,31.166666666666664,0)" xlink:href="#aI"></use><use transform="matrix(0.06790123456790123,0,0,0.06790123456790123,44.74691358024691,0)" xlink:href="#aJ"></use><use transform="matrix(0.06790123456790123,0,0,0.06790123456790123,58.32716049382716,0)" xlink:href="#aA"></use><use transform="matrix(0.06790123456790123,0,0,0.06790123456790123,70.54938271604938,0)" xlink:href="#dd"></use></g><path fill="#333" d="M206 0h-36l-40-164L89 0H53L-1-190h32L70-26l43-164h34l41 164 42-164h31" id="de"></path><path fill="#333" d="M16-82v-28h88v28H16" id="df"></path><path fill="#333" d="M179-190L93 31C79 59 56 82 12 73V49c39 6 53-20 64-50L1-190h34L92-34l54-156h33" id="dg"></path><g id="af"><use transform="matrix(0.06790123456790123,0,0,0.06790123456790123,0,0)" xlink:href="#aG"></use><use transform="matrix(0.06790123456790123,0,0,0.06790123456790123,5.364197530864197,0)" xlink:href="#aC"></use><use transform="matrix(0.06790123456790123,0,0,0.06790123456790123,18.944444444444443,0)" xlink:href="#de"></use><use transform="matrix(0.06790123456790123,0,0,0.06790123456790123,36.53086419753086,0)" xlink:href="#df"></use><use transform="matrix(0.06790123456790123,0,0,0.06790123456790123,44.61111111111111,0)" xlink:href="#aG"></use><use transform="matrix(0.06790123456790123,0,0,0.06790123456790123,49.9753086419753,0)" xlink:href="#aF"></use><use transform="matrix(0.06790123456790123,0,0,0.06790123456790123,63.55555555555555,0)" xlink:href="#aB"></use><use transform="matrix(0.06790123456790123,0,0,0.06790123456790123,70.34567901234567,0)" xlink:href="#aJ"></use><use transform="matrix(0.06790123456790123,0,0,0.06790123456790123,83.92592592592592,0)" xlink:href="#aN"></use><use transform="matrix(0.06790123456790123,0,0,0.06790123456790123,97.50617283950618,0)" xlink:href="#aE"></use><use transform="matrix(0.06790123456790123,0,0,0.06790123456790123,109.7283950617284,0)" xlink:href="#dg"></use><use transform="matrix(0.06790123456790123,0,0,0.06790123456790123,121.95061728395063,0)" xlink:href="#aK"></use></g><path fill="#333" d="M101-234c-31-9-42 10-38 44h38v23H63V0H32v-167H5v-23h27c-7-52 17-82 69-68v24" id="dh"></path><g id="ah"><use transform="matrix(0.06790123456790123,0,0,0.06790123456790123,0,0)" xlink:href="#dh"></use><use transform="matrix(0.06790123456790123,0,0,0.06790123456790123,6.790123456790123,0)" xlink:href="#aJ"></use><use transform="matrix(0.06790123456790123,0,0,0.06790123456790123,20.37037037037037,0)" xlink:href="#aF"></use><use transform="matrix(0.06790123456790123,0,0,0.06790123456790123,33.95061728395062,0)" xlink:href="#aB"></use><use transform="matrix(0.06790123456790123,0,0,0.06790123456790123,40.74074074074075,0)" xlink:href="#aI"></use><use transform="matrix(0.06790123456790123,0,0,0.06790123456790123,54.320987654320994,0)" xlink:href="#aD"></use><use transform="matrix(0.06790123456790123,0,0,0.06790123456790123,62.40123456790124,0)" xlink:href="#aJ"></use></g><g id="ai"><use transform="matrix(0.06790123456790123,0,0,0.06790123456790123,0,0)" xlink:href="#aH"></use><use transform="matrix(0.06790123456790123,0,0,0.06790123456790123,12.222222222222221,0)" xlink:href="#aJ"></use><use transform="matrix(0.06790123456790123,0,0,0.06790123456790123,25.80246913580247,0)" xlink:href="#aE"></use><use transform="matrix(0.06790123456790123,0,0,0.06790123456790123,38.02469135802469,0)" xlink:href="#aB"></use><use transform="matrix(0.06790123456790123,0,0,0.06790123456790123,44.81481481481481,0)" xlink:href="#aC"></use><use transform="matrix(0.06790123456790123,0,0,0.06790123456790123,58.395061728395056,0)" xlink:href="#aD"></use></g><g id="aj"><use transform="matrix(0.06790123456790123,0,0,0.06790123456790123,0,0)" xlink:href="#dh"></use><use transform="matrix(0.06790123456790123,0,0,0.06790123456790123,6.790123456790123,0)" xlink:href="#aC"></use><use transform="matrix(0.06790123456790123,0,0,0.06790123456790123,20.37037037037037,0)" xlink:href="#aD"></use></g><g id="ak"><use transform="matrix(0.06790123456790123,0,0,0.06790123456790123,0,0)" xlink:href="#az"></use><use transform="matrix(0.06790123456790123,0,0,0.06790123456790123,5.364197530864197,0)" xlink:href="#aN"></use><use transform="matrix(0.06790123456790123,0,0,0.06790123456790123,18.944444444444443,0)" xlink:href="#dh"></use><use transform="matrix(0.06790123456790123,0,0,0.06790123456790123,25.734567901234566,0)" xlink:href="#aJ"></use><use transform="matrix(0.06790123456790123,0,0,0.06790123456790123,39.31481481481481,0)" xlink:href="#aD"></use><use transform="matrix(0.06790123456790123,0,0,0.06790123456790123,47.395061728395056,0)" xlink:href="#aJ"></use><use transform="matrix(0.06790123456790123,0,0,0.06790123456790123,60.9753086419753,0)" xlink:href="#aN"></use><use transform="matrix(0.06790123456790123,0,0,0.06790123456790123,74.55555555555554,0)" xlink:href="#aE"></use><use transform="matrix(0.06790123456790123,0,0,0.06790123456790123,86.77777777777777,0)" xlink:href="#aJ"></use></g><path fill="#333" d="M128 0H69L1-190h53L99-40l48-150h52" id="di"></path><g id="al"><use transform="matrix(0.07407407407407406,0,0,0.07407407407407406,0,0)" xlink:href="#bw"></use><use transform="matrix(0.07407407407407406,0,0,0.07407407407407406,17.777777777777775,0)" xlink:href="#aw"></use><use transform="matrix(0.07407407407407406,0,0,0.07407407407407406,32.59259259259259,0)" xlink:href="#an"></use><use transform="matrix(0.07407407407407406,0,0,0.07407407407407406,42.962962962962955,0)" xlink:href="#di"></use><use transform="matrix(0.07407407407407406,0,0,0.07407407407407406,57.777777777777764,0)" xlink:href="#ap"></use><use transform="matrix(0.07407407407407406,0,0,0.07407407407407406,65.18518518518518,0)" xlink:href="#aq"></use><use transform="matrix(0.07407407407407406,0,0,0.07407407407407406,81.40740740740739,0)" xlink:href="#ar"></use></g></defs></g></svg> 