<?xml version="1.0" encoding="UTF-8"?> <svg xmlns="http://www.w3.org/2000/svg" xmlns:xlink="http://www.w3.org/1999/xlink" xmlns:lucid="lucid" width="1000" height="500"><g transform="translate(-340 -340)" lucid:page-tab-id="6kjyz7awOMIW"><path d="M560 364c0-2.2 1.8-4 4-4h512c2.2 0 4 1.8 4 4v452c0 2.2-1.8 4-4 4H564c-2.2 0-4-1.8-4-4z" stroke="#5e5e5e" stroke-width="3" fill="#ec3b26" fill-opacity=".05"></path><use xlink:href="#a" transform="matrix(1,0,0,1,572,372) translate(177.04938271604937 17.77777777777778)"></use><use xlink:href="#b" transform="matrix(1,0,0,1,572,372) translate(263.28395061728395 17.77777777777778)"></use><path d="M900 504c0-2.2 1.8-4 4-4h152c2.2 0 4 1.8 4 4v212c0 2.2-1.8 4-4 4H904c-2.2 0-4-1.8-4-4z" stroke="#5e5e5e" stroke-width="2" fill="#ec3b26" fill-opacity=".47"></path><use xlink:href="#c" transform="matrix(1,0,0,1,912,512) translate(30.407407407407412 103.96527777777777)"></use><path d="M1160 506c0-3.3 2.7-6 6-6h148c3.3 0 6 2.7 6 6v68c0 3.3-2.7 6-6 6h-148c-3.3 0-6-2.7-6-6z" stroke="#5e5e5e" stroke-width="2" fill="#fff"></path><use xlink:href="#d" transform="matrix(1,0,0,1,1172,512) translate(37.81481481481482 17.77777777777778)"></use><use xlink:href="#e" transform="matrix(1,0,0,1,1172,512) translate(30.407407407407412 44.44444444444444)"></use><path d="M1160 646c0-3.3 2.7-6 6-6h148c3.3 0 6 2.7 6 6v68c0 3.3-2.7 6-6 6h-148c-3.3 0-6-2.7-6-6z" stroke="#5e5e5e" stroke-width="2" fill="#fff"></path><use xlink:href="#d" transform="matrix(1,0,0,1,1172,652) translate(37.81481481481482 17.77777777777778)"></use><use xlink:href="#f" transform="matrix(1,0,0,1,1172,652) translate(28.401234567901234 44.44444444444444)"></use><path d="M1082.5 538.67h58" stroke="#5e5e5e" stroke-width="2" fill="none"></path><path d="M1082.53 537.67v2h-1.03v-2z" fill="#5e5e5e"></path><path d="M1155.76 538.67l-14.26 4.64v-9.26z" stroke="#5e5e5e" stroke-width="2" fill="#5e5e5e"></path><path d="M1140.5 680h-58" stroke="#5e5e5e" stroke-width="2" fill="none"></path><path d="M1155.76 680l-14.26 4.64v-9.28z" stroke="#5e5e5e" stroke-width="2" fill="#5e5e5e"></path><path d="M1082.53 681h-1.03v-2h1.03z" fill="#5e5e5e"></path><path d="M468 480c6.63 0 12 26.86 12 60s-5.37 60-12 60h-96c-6.63 0-12-26.86-12-60s5.37-60 12-60z" stroke="#5e5e5e" stroke-width="2" fill="#fff"></path><path d="M468 600c-6.63 0-12-26.86-12-60s5.37-60 12-60" stroke="#5e5e5e" stroke-width="2" fill="none"></path><use xlink:href="#g" transform="matrix(1,0,0,1,365,485) translate(7.259259259259267 45.27777777777778)"></use><use xlink:href="#h" transform="matrix(1,0,0,1,365,485) translate(7.845679012345677 71.94444444444446)"></use><path d="M480 728c0 6.63-26.86 12-60 12s-60-5.37-60-12v-96c0-6.63 26.86-12 60-12s60 5.37 60 12z" stroke="#5e5e5e" stroke-width="2" fill="#fff"></path><path d="M480 632c0 6.63-26.86 12-60 12s-60-5.37-60-12" stroke="#5e5e5e" stroke-width="2" fill="none"></path><use xlink:href="#i" transform="matrix(1,0,0,1,365,649) translate(26.60493827160494 33.90277777777778)"></use><use xlink:href="#j" transform="matrix(1,0,0,1,365,649) translate(19.845679012345677 60.56944444444445)"></use><path d="M482 680h58" stroke="#5e5e5e" stroke-width="2" fill="none"></path><path d="M482.03 681H481v-2h1.03z" fill="#5e5e5e"></path><path d="M555.26 680L541 684.64v-9.28z" stroke="#5e5e5e" stroke-width="2" fill="#5e5e5e"></path><path d="M482 540h58" stroke="#5e5e5e" stroke-width="2" fill="none"></path><path d="M482.03 541h-1.07l.04-1-.03-1h1.06z" fill="#5e5e5e"></path><path d="M555.26 540L541 544.64v-9.28z" stroke="#5e5e5e" stroke-width="2" fill="#5e5e5e"></path><path d="M580 424c0-2.2 1.8-4 4-4h472c2.2 0 4 1.8 4 4v72c0 2.2-1.8 4-4 4H584c-2.2 0-4-1.8-4-4z" fill-opacity="0"></path><path d="M591.03 420h6.03m4 0h6.04m4 0h6.04m4.02 0h6.02m4.02 0h6.03m4 0h6.04m4.02 0h6m4.03 0h6.02m4.02 0h6.03m4 0h6.04m4.02 0h6.02m4.02 0h6.02m4.02 0h6.03m4 0h6.04m4.03 0h6.02m4.02 0h6.02m4 0h6.04m4 0h6.04m4.02 0h6.02m4.02 0h6.02m4.02 0h6.03m4.02 0h6.03m4.02 0H818m4 0h6.03m4.02 0h6.03m4 0h6.04m4.02 0h6.02m4.02 0h6.02m4.02 0h6.03m4 0h6.04m4 0h6.03m4.02 0h6.02m4.02 0h6.02m4 0h6.04m4.02 0h6.02m4.02 0h6.02m4.02 0h6.03m4 0h6.03m4.02 0h6.02m4.02 0h6m4.03 0h6.03m4 0h6.04m4.02 0h6.02m4.02 0h6.03m4 0h6.03m4 0h6.04m4.02 0h3l2.83 1.17L1060 424v3.1m0 4.1v6.17m0 4.12v6.16m0 4.1v6.18m0 4.12v6.17m0 4.1v6.18m0 4.13v6.17m0 4.1v3.1l-1.17 2.83L1056 500h-3m-4.03 0h-6.03m-4 0h-6.04m-4 0h-6.04m-4.02 0h-6.02m-4.02 0h-6.03m-4 0h-6.04m-4.02 0h-6m-4.03 0h-6.02m-4.02 0h-6.03m-4 0h-6.04m-4.02 0h-6.02m-4.02 0h-6.02m-4.02 0h-6.03m-4 0h-6.04m-4.03 0h-6.02m-4.02 0h-6.02m-4 0h-6.04m-4 0h-6.04m-4.02 0h-6.02m-4.02 0h-6.02m-4.02 0h-6.03m-4.02 0h-6.03m-4.02 0H822m-4 0h-6.03m-4.02 0h-6.03m-4 0h-6.04m-4.02 0h-6.02m-4.02 0h-6.02m-4.02 0h-6.03m-4 0h-6.04m-4 0h-6.03m-4.02 0h-6.02m-4.02 0h-6.02m-4 0h-6.04m-4.02 0h-6.02m-4.02 0h-6.02m-4.02 0h-6.03m-4 0h-6.03m-4.02 0h-6.02m-4.02 0h-6m-4.03 0h-6.03m-4 0h-6.04m-4.02 0h-6.02m-4.02 0h-6.03m-4 0h-6.03m-4 0h-6.04m-4.02 0h-3l-2.83-1.17L580 496v-3.1m0-4.1v-6.17m0-4.12v-6.16m0-4.1v-6.18m0-4.12v-6.17m0-4.1v-6.18m0-4.13v-6.17m0-4.1V424l1.17-2.83L584 420h3" stroke="#5e5e5e" stroke-width="2" fill="none"></path><path d="M580 504c0-2.2 1.8-4 4-4h152c2.2 0 4 1.8 4 4v212c0 2.2-1.8 4-4 4H584c-2.2 0-4-1.8-4-4z" fill-opacity="0"></path><path d="M591.1 500h6.07m4.06 0h6.08m4.06 0h6.08m4.05 0h6.07m4.06 0h6.08m4.06 0h6.08m4.05 0h6.07m4.06 0h6.08m4.06 0h6.08m4.05 0h6.07m4.06 0h6.08m4.06 0h6.08m4.05 0h6.07m4.06 0h6.08m4.06 0H736l2.83 1.17L740 504v3.03m0 4.04v6.05m0 4.04v6.06m0 4.04v6.05m0 4.05v6.06m0 4.05v6.05m0 4.04v6.06m0 4.04v6.06m0 4.03v6.06m0 4.03v6.06m0 4.02v6.06m0 4.04v6.06m0 4.03v6.07m0 4.04v6.07m0 4.03v6.06m0 4.04v6.06m0 4.04v6.05m0 4.04v6.05m0 4.04v6.04m0 4.04v6.06m0 4.04v6.05m0 4.04V716l-1.17 2.83L736 720h-3.04m-4.05 0h-6.07m-4.06 0h-6.08m-4.06 0h-6.08m-4.05 0h-6.07m-4.06 0h-6.08m-4.06 0h-6.08m-4.05 0h-6.07m-4.06 0h-6.08m-4.06 0h-6.08m-4.05 0h-6.07m-4.06 0h-6.08m-4.06 0h-6.08m-4.05 0h-6.07m-4.06 0h-6.08m-4.06 0H584l-2.83-1.17L580 716v-3.03m0-4.04v-6.05m0-4.04v-6.06m0-4.04v-6.05m0-4.05v-6.06m0-4.05v-6.05m0-4.04v-6.06m0-4.04v-6.06m0-4.03v-6.06m0-4.03v-6.06m0-4.02v-6.06m0-4.04v-6.06m0-4.03v-6.07m0-4.04v-6.07m0-4.03v-6.06m0-4.04v-6.06m0-4.04v-6.05m0-4.04v-6.05m0-4.04v-6.04m0-4.04v-6.06m0-4.04v-6.05m0-4.04V504l1.17-2.83L584 500h3.04" stroke="#5e5e5e" stroke-width="2" fill="none"></path><path d="M580 724c0-2.2 1.8-4 4-4h472c2.2 0 4 1.8 4 4v72c0 2.2-1.8 4-4 4H584c-2.2 0-4-1.8-4-4z" fill-opacity="0"></path><path d="M591.03 720h6.03m4 0h6.04m4 0h6.04m4.02 0h6.02m4.02 0h6.03m4 0h6.04m4.02 0h6m4.03 0h6.02m4.02 0h6.03m4 0h6.04m4.02 0h6.02m4.02 0h6.02m4.02 0h6.03m4 0h6.04m4.03 0h6.02m4.02 0h6.02m4 0h6.04m4 0h6.04m4.02 0h6.02m4.02 0h6.02m4.02 0h6.03m4.02 0h6.03m4.02 0H818m4 0h6.03m4.02 0h6.03m4 0h6.04m4.02 0h6.02m4.02 0h6.02m4.02 0h6.03m4 0h6.04m4 0h6.03m4.02 0h6.02m4.02 0h6.02m4 0h6.04m4.02 0h6.02m4.02 0h6.02m4.02 0h6.03m4 0h6.03m4.02 0h6.02m4.02 0h6m4.03 0h6.03m4 0h6.04m4.02 0h6.02m4.02 0h6.03m4 0h6.03m4 0h6.04m4.02 0h3l2.83 1.17L1060 724v3.1m0 4.1v6.17m0 4.12v6.16m0 4.1v6.18m0 4.12v6.17m0 4.1v6.18m0 4.13v6.17m0 4.1v3.1l-1.17 2.83L1056 800h-3m-4.03 0h-6.03m-4 0h-6.04m-4 0h-6.04m-4.02 0h-6.02m-4.02 0h-6.03m-4 0h-6.04m-4.02 0h-6m-4.03 0h-6.02m-4.02 0h-6.03m-4 0h-6.04m-4.02 0h-6.02m-4.02 0h-6.02m-4.02 0h-6.03m-4 0h-6.04m-4.03 0h-6.02m-4.02 0h-6.02m-4 0h-6.04m-4 0h-6.04m-4.02 0h-6.02m-4.02 0h-6.02m-4.02 0h-6.03m-4.02 0h-6.03m-4.02 0H822m-4 0h-6.03m-4.02 0h-6.03m-4 0h-6.04m-4.02 0h-6.02m-4.02 0h-6.02m-4.02 0h-6.03m-4 0h-6.04m-4 0h-6.03m-4.02 0h-6.02m-4.02 0h-6.02m-4 0h-6.04m-4.02 0h-6.02m-4.02 0h-6.02m-4.02 0h-6.03m-4 0h-6.03m-4.02 0h-6.02m-4.02 0h-6m-4.03 0h-6.03m-4 0h-6.04m-4.02 0h-6.02m-4.02 0h-6.03m-4 0h-6.03m-4 0h-6.04m-4.02 0h-3l-2.83-1.17L580 796v-3.1m0-4.1v-6.17m0-4.12v-6.16m0-4.1v-6.18m0-4.12v-6.17m0-4.1v-6.18m0-4.13v-6.17m0-4.1V724l1.17-2.83L584 720h3" stroke="#5e5e5e" stroke-width="2" fill="none"></path><g class="lucid-layer" lucid:layer-id="S.aGL9Y~wklK" display="none"><path d="M580 424c0-2.2 1.8-4 4-4h472c2.2 0 4 1.8 4 4v372c0 2.2-1.8 4-4 4H584c-2.2 0-4-1.8-4-4z" stroke="#5e5e5e" stroke-width="2" fill-opacity="0"></path><path d="M580 724c0-2.2 1.8-4 4-4h472c2.2 0 4 1.8 4 4v72c0 2.2-1.8 4-4 4H584c-2.2 0-4-1.8-4-4z" stroke="#5e5e5e" stroke-width="2" fill="#ec3b26" fill-opacity=".47"></path><use xlink:href="#k" transform="matrix(1,0,0,1,592,732) translate(187.85185185185185 31.77777777777778)"></use></g><g class="lucid-layer" lucid:layer-id="icbG0g0X70Se" display="none"><path d="M580 424c0-2.2 1.8-4 4-4h472c2.2 0 4 1.8 4 4v72c0 2.2-1.8 4-4 4H584c-2.2 0-4-1.8-4-4z" stroke="#5e5e5e" stroke-width="2" fill="#ec3b26" fill-opacity=".47"></path><use xlink:href="#l" transform="matrix(1,0,0,1,592,432) translate(116.37037037037035 31.77777777777778)"></use><use xlink:href="#m" transform="matrix(1,0,0,1,592,432) translate(237.1728395061728 31.77777777777778)"></use><path d="M580 424c0-2.2 1.8-4 4-4h472c2.2 0 4 1.8 4 4v292c0 2.2-1.8 4-4 4H584c-2.2 0-4-1.8-4-4z" stroke="#5e5e5e" stroke-width="2" fill-opacity="0"></path></g><g class="lucid-layer" lucid:layer-id="XdbGHgOjcuCT" display="none"><path d="M580 504c0-2.2 1.8-4 4-4h472c2.2 0 4 1.8 4 4v212c0 2.2-1.8 4-4 4H584c-2.2 0-4-1.8-4-4z" stroke="#5e5e5e" stroke-width="2" fill-opacity="0"></path><path d="M912 635.33c0-2.2 1.8-4 4-4h128c2.2 0 4 1.8 4 4v69.34c0 2.2-1.8 4-4 4H916c-2.2 0-4-1.8-4-4z" stroke="#5e5e5e" stroke-width="2" fill-opacity="0"></path><use xlink:href="#n" transform="matrix(1,0,0,1,924,643.3333333333334) translate(3.2777777777777715 16)"></use><use xlink:href="#o" transform="matrix(1,0,0,1,924,643.3333333333334) translate(13.861111111111107 40)"></use><path d="M580 504c0-2.2 1.8-4 4-4h152c2.2 0 4 1.8 4 4v212c0 2.2-1.8 4-4 4H584c-2.2 0-4-1.8-4-4z" stroke="#5e5e5e" stroke-width="2" fill="#ec3b26" fill-opacity=".47"></path><g><use xlink:href="#p" transform="matrix(1,0,0,1,592.0000000000003,512) translate(17.907407407407412 103.96527777777777)"></use></g></g><g class="lucid-layer" lucid:layer-id="XfbGKvYcVPP5" display="block"><path d="M740 504c0-2.2 1.8-4 4-4h152c2.2 0 4 1.8 4 4v212c0 2.2-1.8 4-4 4H744c-2.2 0-4-1.8-4-4z" stroke="#5e5e5e" stroke-width="2" fill="#ec3b26" fill-opacity=".47"></path><use xlink:href="#q" transform="matrix(1,0,0,1,752,512) translate(29.141975308641975 103.96527777777777)"></use></g><g class="lucid-layer" lucid:layer-id="XrbG-km8EOsL" display="none"><path d="M740 504c0-2.2 1.8-4 4-4h312c2.2 0 4 1.8 4 4v212c0 2.2-1.8 4-4 4H744c-2.2 0-4-1.8-4-4z" stroke="#5e5e5e" stroke-width="2" fill-opacity="0"></path></g><defs><path fill="#333" d="M76-208v77h127v40H76V0H24v-248h183v40H76" id="r"></path><path fill="#333" d="M185-48c-13 30-37 53-82 52C43 2 14-33 14-96s30-98 90-98c62 0 83 45 84 108H66c0 31 8 55 39 56 18 0 30-7 34-22zm-45-69c5-46-57-63-70-21-2 6-4 13-4 21h74" id="s"></path><path fill="#333" d="M133-34C117-15 103 5 69 4 32 3 11-16 11-54c-1-60 55-63 116-61 1-26-3-47-28-47-18 1-26 9-28 27l-52-2c7-38 36-58 82-57s74 22 75 68l1 82c-1 14 12 18 25 15v27c-30 8-71 5-69-32zm-48 3c29 0 43-24 42-57-32 0-66-3-65 30 0 17 8 27 23 27" id="t"></path><path fill="#333" d="M115-3C79 11 28 4 28-45v-112H4v-33h27l15-45h31v45h36v33H77v99c-1 23 16 31 38 25v30" id="u"></path><path fill="#333" d="M85 4C-2 5 27-109 22-190h50c7 57-23 150 33 157 60-5 35-97 40-157h50l1 190h-47c-2-12 1-28-3-38-12 25-28 42-61 42" id="v"></path><path fill="#333" d="M135-150c-39-12-60 13-60 57V0H25l-1-190h47c2 13-1 29 3 40 6-28 27-53 61-41v41" id="w"></path><g id="a"><use transform="matrix(0.06172839506172839,0,0,0.06172839506172839,0,0)" xlink:href="#r"></use><use transform="matrix(0.06172839506172839,0,0,0.06172839506172839,13.518518518518517,0)" xlink:href="#s"></use><use transform="matrix(0.06172839506172839,0,0,0.06172839506172839,25.864197530864196,0)" xlink:href="#t"></use><use transform="matrix(0.06172839506172839,0,0,0.06172839506172839,38.20987654320987,0)" xlink:href="#u"></use><use transform="matrix(0.06172839506172839,0,0,0.06172839506172839,45.55555555555555,0)" xlink:href="#v"></use><use transform="matrix(0.06172839506172839,0,0,0.06172839506172839,59.07407407407407,0)" xlink:href="#w"></use><use transform="matrix(0.06172839506172839,0,0,0.06172839506172839,67.71604938271605,0)" xlink:href="#s"></use></g><path fill="#333" d="M169-182c-1-43-94-46-97-3 18 66 151 10 154 114 3 95-165 93-204 36-6-8-10-19-12-30l50-8c3 46 112 56 116 5-17-69-150-10-154-114-4-87 153-88 188-35 5 8 8 18 10 28" id="x"></path><path fill="#333" d="M110-194c64 0 96 36 96 99 0 64-35 99-97 99-61 0-95-36-95-99 0-62 34-99 96-99zm-1 164c35 0 45-28 45-65 0-40-10-65-43-65-34 0-45 26-45 65 0 36 10 65 43 65" id="y"></path><g id="b"><use transform="matrix(0.06172839506172839,0,0,0.06172839506172839,0,0)" xlink:href="#x"></use><use transform="matrix(0.06172839506172839,0,0,0.06172839506172839,14.814814814814813,0)" xlink:href="#u"></use><use transform="matrix(0.06172839506172839,0,0,0.06172839506172839,22.160493827160494,0)" xlink:href="#y"></use><use transform="matrix(0.06172839506172839,0,0,0.06172839506172839,35.67901234567901,0)" xlink:href="#w"></use><use transform="matrix(0.06172839506172839,0,0,0.06172839506172839,44.32098765432099,0)" xlink:href="#s"></use></g><path fill="#333" d="M185-189c-5-48-123-54-124 2 14 75 158 14 163 119 3 78-121 87-175 55-17-10-28-26-33-46l33-7c5 56 141 63 141-1 0-78-155-14-162-118-5-82 145-84 179-34 5 7 8 16 11 25" id="z"></path><path fill="#333" d="M100-194c63 0 86 42 84 106H49c0 40 14 67 53 68 26 1 43-12 49-29l28 8c-11 28-37 45-77 45C44 4 14-33 15-96c1-61 26-98 85-98zm52 81c6-60-76-77-97-28-3 7-6 17-6 28h103" id="A"></path><path fill="#333" d="M114-163C36-179 61-72 57 0H25l-1-190h30c1 12-1 29 2 39 6-27 23-49 58-41v29" id="B"></path><path fill="#333" d="M108 0H70L1-190h34L89-25l56-165h34" id="C"></path><path fill="#333" d="M24-231v-30h32v30H24zM24 0v-190h32V0H24" id="D"></path><path fill="#333" d="M117-194c89-4 53 116 60 194h-32v-121c0-31-8-49-39-48C34-167 62-67 57 0H25l-1-190h30c1 10-1 24 2 32 11-22 29-35 61-36" id="E"></path><path fill="#333" d="M177-190C167-65 218 103 67 71c-23-6-38-20-44-43l32-5c15 47 100 32 89-28v-30C133-14 115 1 83 1 29 1 15-40 15-95c0-56 16-97 71-98 29-1 48 16 59 35 1-10 0-23 2-32h30zM94-22c36 0 50-32 50-73 0-42-14-75-50-75-39 0-46 34-46 75s6 73 46 73" id="F"></path><g id="c"><use transform="matrix(0.06172839506172839,0,0,0.06172839506172839,0,0)" xlink:href="#z"></use><use transform="matrix(0.06172839506172839,0,0,0.06172839506172839,14.814814814814813,0)" xlink:href="#A"></use><use transform="matrix(0.06172839506172839,0,0,0.06172839506172839,27.160493827160494,0)" xlink:href="#B"></use><use transform="matrix(0.06172839506172839,0,0,0.06172839506172839,34.50617283950617,0)" xlink:href="#C"></use><use transform="matrix(0.06172839506172839,0,0,0.06172839506172839,45.61728395061728,0)" xlink:href="#D"></use><use transform="matrix(0.06172839506172839,0,0,0.06172839506172839,50.49382716049382,0)" xlink:href="#E"></use><use transform="matrix(0.06172839506172839,0,0,0.06172839506172839,62.8395061728395,0)" xlink:href="#F"></use></g><path fill="#333" d="M240 0l2-218c-23 76-54 145-80 218h-23L58-218 59 0H30v-248h44l77 211c21-75 51-140 76-211h43V0h-30" id="G"></path><path fill="#333" d="M100-194c62-1 85 37 85 99 1 63-27 99-86 99S16-35 15-95c0-66 28-99 85-99zM99-20c44 1 53-31 53-75 0-43-8-75-51-75s-53 32-53 75 10 74 51 75" id="H"></path><path fill="#333" d="M85-194c31 0 48 13 60 33l-1-100h32l1 261h-30c-2-10 0-23-3-31C134-8 116 4 85 4 32 4 16-35 15-94c0-66 23-100 70-100zm9 24c-40 0-46 34-46 75 0 40 6 74 45 74 42 0 51-32 51-76 0-42-9-74-50-73" id="I"></path><path fill="#333" d="M24 0v-261h32V0H24" id="J"></path><g id="d"><use transform="matrix(0.06172839506172839,0,0,0.06172839506172839,0,0)" xlink:href="#G"></use><use transform="matrix(0.06172839506172839,0,0,0.06172839506172839,18.456790123456788,0)" xlink:href="#H"></use><use transform="matrix(0.06172839506172839,0,0,0.06172839506172839,30.80246913580247,0)" xlink:href="#I"></use><use transform="matrix(0.06172839506172839,0,0,0.06172839506172839,43.148148148148145,0)" xlink:href="#A"></use><use transform="matrix(0.06172839506172839,0,0,0.06172839506172839,55.49382716049382,0)" xlink:href="#J"></use></g><g id="e"><use transform="matrix(0.06172839506172839,0,0,0.06172839506172839,0,0)" xlink:href="#z"></use><use transform="matrix(0.06172839506172839,0,0,0.06172839506172839,14.814814814814813,0)" xlink:href="#A"></use><use transform="matrix(0.06172839506172839,0,0,0.06172839506172839,27.160493827160494,0)" xlink:href="#B"></use><use transform="matrix(0.06172839506172839,0,0,0.06172839506172839,34.50617283950617,0)" xlink:href="#C"></use><use transform="matrix(0.06172839506172839,0,0,0.06172839506172839,45.61728395061728,0)" xlink:href="#D"></use><use transform="matrix(0.06172839506172839,0,0,0.06172839506172839,50.49382716049382,0)" xlink:href="#E"></use><use transform="matrix(0.06172839506172839,0,0,0.06172839506172839,62.8395061728395,0)" xlink:href="#F"></use></g><path fill="#333" d="M127-220V0H93v-220H8v-28h204v28h-85" id="K"></path><path fill="#333" d="M141-36C126-15 110 5 73 4 37 3 15-17 15-53c-1-64 63-63 125-63 3-35-9-54-41-54-24 1-41 7-42 31l-33-3c5-37 33-52 76-52 45 0 72 20 72 64v82c-1 20 7 32 28 27v20c-31 9-61-2-59-35zM48-53c0 20 12 33 32 33 41-3 63-29 60-74-43 2-92-5-92 41" id="L"></path><g id="f"><use transform="matrix(0.06172839506172839,0,0,0.06172839506172839,0,0)" xlink:href="#K"></use><use transform="matrix(0.06172839506172839,0,0,0.06172839506172839,12.716049382716047,0)" xlink:href="#B"></use><use transform="matrix(0.06172839506172839,0,0,0.06172839506172839,20.061728395061728,0)" xlink:href="#L"></use><use transform="matrix(0.06172839506172839,0,0,0.06172839506172839,32.407407407407405,0)" xlink:href="#D"></use><use transform="matrix(0.06172839506172839,0,0,0.06172839506172839,37.28395061728395,0)" xlink:href="#E"></use><use transform="matrix(0.06172839506172839,0,0,0.06172839506172839,49.629629629629626,0)" xlink:href="#D"></use><use transform="matrix(0.06172839506172839,0,0,0.06172839506172839,54.50617283950617,0)" xlink:href="#E"></use><use transform="matrix(0.06172839506172839,0,0,0.06172839506172839,66.85185185185185,0)" xlink:href="#F"></use></g><path fill="#333" d="M59-47c-2 24 18 29 38 22v24C64 9 27 4 27-40v-127H5v-23h24l9-43h21v43h35v23H59v120" id="M"></path><path fill="#333" d="M210-169c-67 3-38 105-44 169h-31v-121c0-29-5-50-35-48C34-165 62-65 56 0H25l-1-190h30c1 10-1 24 2 32 10-44 99-50 107 0 11-21 27-35 58-36 85-2 47 119 55 194h-31v-121c0-29-5-49-35-48" id="N"></path><g id="g"><use transform="matrix(0.06172839506172839,0,0,0.06172839506172839,0,0)" xlink:href="#z"></use><use transform="matrix(0.06172839506172839,0,0,0.06172839506172839,14.814814814814813,0)" xlink:href="#M"></use><use transform="matrix(0.06172839506172839,0,0,0.06172839506172839,20.98765432098765,0)" xlink:href="#B"></use><use transform="matrix(0.06172839506172839,0,0,0.06172839506172839,28.33333333333333,0)" xlink:href="#A"></use><use transform="matrix(0.06172839506172839,0,0,0.06172839506172839,40.679012345679006,0)" xlink:href="#L"></use><use transform="matrix(0.06172839506172839,0,0,0.06172839506172839,53.02469135802468,0)" xlink:href="#N"></use></g><path fill="#333" d="M84 4C-5 8 30-112 23-190h32v120c0 31 7 50 39 49 72-2 45-101 50-169h31l1 190h-30c-1-10 1-25-2-33-11 22-28 36-60 37" id="O"></path><path fill="#333" d="M96-169c-40 0-48 33-48 73s9 75 48 75c24 0 41-14 43-38l32 2c-6 37-31 61-74 61-59 0-76-41-82-99-10-93 101-131 147-64 4 7 5 14 7 22l-32 3c-4-21-16-35-41-35" id="P"></path><g id="h"><use transform="matrix(0.06172839506172839,0,0,0.06172839506172839,0,0)" xlink:href="#z"></use><use transform="matrix(0.06172839506172839,0,0,0.06172839506172839,14.814814814814813,0)" xlink:href="#H"></use><use transform="matrix(0.06172839506172839,0,0,0.06172839506172839,27.160493827160494,0)" xlink:href="#O"></use><use transform="matrix(0.06172839506172839,0,0,0.06172839506172839,39.50617283950617,0)" xlink:href="#B"></use><use transform="matrix(0.06172839506172839,0,0,0.06172839506172839,46.85185185185185,0)" xlink:href="#P"></use><use transform="matrix(0.06172839506172839,0,0,0.06172839506172839,57.96296296296296,0)" xlink:href="#A"></use></g><path fill="#333" d="M160-131c35 5 61 23 61 61C221 17 115-2 30 0v-248c76 3 177-17 177 60 0 33-19 50-47 57zm-97-11c50-1 110 9 110-42 0-47-63-36-110-37v79zm0 115c55-2 124 14 124-45 0-56-70-42-124-44v89" id="Q"></path><path fill="#333" d="M106-169C34-169 62-67 57 0H25v-261h32l-1 103c12-21 28-36 61-36 89 0 53 116 60 194h-32v-121c2-32-8-49-39-48" id="R"></path><g id="i"><use transform="matrix(0.06172839506172839,0,0,0.06172839506172839,0,0)" xlink:href="#Q"></use><use transform="matrix(0.06172839506172839,0,0,0.06172839506172839,14.814814814814813,0)" xlink:href="#L"></use><use transform="matrix(0.06172839506172839,0,0,0.06172839506172839,27.160493827160494,0)" xlink:href="#M"></use><use transform="matrix(0.06172839506172839,0,0,0.06172839506172839,33.333333333333336,0)" xlink:href="#P"></use><use transform="matrix(0.06172839506172839,0,0,0.06172839506172839,44.44444444444444,0)" xlink:href="#R"></use></g><g id="j"><use transform="matrix(0.06172839506172839,0,0,0.06172839506172839,0,0)" xlink:href="#z"></use><use transform="matrix(0.06172839506172839,0,0,0.06172839506172839,14.814814814814813,0)" xlink:href="#H"></use><use transform="matrix(0.06172839506172839,0,0,0.06172839506172839,27.160493827160494,0)" xlink:href="#O"></use><use transform="matrix(0.06172839506172839,0,0,0.06172839506172839,39.50617283950617,0)" xlink:href="#B"></use><use transform="matrix(0.06172839506172839,0,0,0.06172839506172839,46.85185185185185,0)" xlink:href="#P"></use><use transform="matrix(0.06172839506172839,0,0,0.06172839506172839,57.96296296296296,0)" xlink:href="#A"></use></g><path fill="#333" d="M233-177c-1 41-23 64-60 70L243 0h-38l-65-103H63V0H30v-248c88 3 205-21 203 71zM63-129c60-2 137 13 137-47 0-61-80-42-137-45v92" id="S"></path><path fill="#333" d="M135-143c-3-34-86-38-87 0 15 53 115 12 119 90S17 21 10-45l28-5c4 36 97 45 98 0-10-56-113-15-118-90-4-57 82-63 122-42 12 7 21 19 24 35" id="T"></path><path fill="#333" d="M179-190L93 31C79 59 56 82 12 73V49c39 6 53-20 64-50L1-190h34L92-34l54-156h33" id="U"></path><g id="k"><use transform="matrix(0.06172839506172839,0,0,0.06172839506172839,0,0)" xlink:href="#S"></use><use transform="matrix(0.06172839506172839,0,0,0.06172839506172839,15.987654320987653,0)" xlink:href="#A"></use><use transform="matrix(0.06172839506172839,0,0,0.06172839506172839,28.333333333333332,0)" xlink:href="#F"></use><use transform="matrix(0.06172839506172839,0,0,0.06172839506172839,40.67901234567901,0)" xlink:href="#D"></use><use transform="matrix(0.06172839506172839,0,0,0.06172839506172839,45.55555555555556,0)" xlink:href="#T"></use><use transform="matrix(0.06172839506172839,0,0,0.06172839506172839,56.66666666666667,0)" xlink:href="#M"></use><use transform="matrix(0.06172839506172839,0,0,0.06172839506172839,62.83950617283951,0)" xlink:href="#B"></use><use transform="matrix(0.06172839506172839,0,0,0.06172839506172839,70.18518518518519,0)" xlink:href="#U"></use></g><path fill="#333" d="M140-251c81 0 123 46 123 126C263-46 219 4 140 4 59 4 17-45 17-125s42-126 123-126zm0 227c63 0 89-41 89-101s-29-99-89-99c-61 0-89 39-89 99S79-25 140-24" id="V"></path><path fill="#333" d="M115-194c55 1 70 41 70 98S169 2 115 4C84 4 66-9 55-30l1 105H24l-1-265h31l2 30c10-21 28-34 59-34zm-8 174c40 0 45-34 45-75s-6-73-45-74c-42 0-51 32-51 76 0 43 10 73 51 73" id="W"></path><g id="l"><use transform="matrix(0.06172839506172839,0,0,0.06172839506172839,0,0)" xlink:href="#V"></use><use transform="matrix(0.06172839506172839,0,0,0.06172839506172839,17.28395061728395,0)" xlink:href="#W"></use><use transform="matrix(0.06172839506172839,0,0,0.06172839506172839,29.629629629629626,0)" xlink:href="#A"></use><use transform="matrix(0.06172839506172839,0,0,0.06172839506172839,41.9753086419753,0)" xlink:href="#B"></use><use transform="matrix(0.06172839506172839,0,0,0.06172839506172839,49.32098765432098,0)" xlink:href="#L"></use><use transform="matrix(0.06172839506172839,0,0,0.06172839506172839,61.66666666666666,0)" xlink:href="#M"></use><use transform="matrix(0.06172839506172839,0,0,0.06172839506172839,67.83950617283949,0)" xlink:href="#D"></use><use transform="matrix(0.06172839506172839,0,0,0.06172839506172839,72.71604938271604,0)" xlink:href="#H"></use><use transform="matrix(0.06172839506172839,0,0,0.06172839506172839,85.06172839506172,0)" xlink:href="#E"></use><use transform="matrix(0.06172839506172839,0,0,0.06172839506172839,97.4074074074074,0)" xlink:href="#L"></use><use transform="matrix(0.06172839506172839,0,0,0.06172839506172839,109.75308641975309,0)" xlink:href="#J"></use></g><g id="m"><use transform="matrix(0.06172839506172839,0,0,0.06172839506172839,0,0)" xlink:href="#G"></use><use transform="matrix(0.06172839506172839,0,0,0.06172839506172839,18.456790123456788,0)" xlink:href="#H"></use><use transform="matrix(0.06172839506172839,0,0,0.06172839506172839,30.80246913580247,0)" xlink:href="#E"></use><use transform="matrix(0.06172839506172839,0,0,0.06172839506172839,43.148148148148145,0)" xlink:href="#D"></use><use transform="matrix(0.06172839506172839,0,0,0.06172839506172839,48.02469135802469,0)" xlink:href="#M"></use><use transform="matrix(0.06172839506172839,0,0,0.06172839506172839,54.19753086419753,0)" xlink:href="#H"></use><use transform="matrix(0.06172839506172839,0,0,0.06172839506172839,66.54320987654322,0)" xlink:href="#B"></use><use transform="matrix(0.06172839506172839,0,0,0.06172839506172839,73.8888888888889,0)" xlink:href="#D"></use><use transform="matrix(0.06172839506172839,0,0,0.06172839506172839,78.76543209876544,0)" xlink:href="#E"></use><use transform="matrix(0.06172839506172839,0,0,0.06172839506172839,91.11111111111113,0)" xlink:href="#F"></use></g><path fill="#333" d="M16-82v-28h88v28H16" id="X"></path><g id="n"><use transform="matrix(0.05555555555555555,0,0,0.05555555555555555,0,0)" xlink:href="#V"></use><use transform="matrix(0.05555555555555555,0,0,0.05555555555555555,15.555555555555555,0)" xlink:href="#E"></use><use transform="matrix(0.05555555555555555,0,0,0.05555555555555555,26.666666666666664,0)" xlink:href="#X"></use><use transform="matrix(0.05555555555555555,0,0,0.05555555555555555,33.27777777777777,0)" xlink:href="#I"></use><use transform="matrix(0.05555555555555555,0,0,0.05555555555555555,44.388888888888886,0)" xlink:href="#A"></use><use transform="matrix(0.05555555555555555,0,0,0.05555555555555555,55.5,0)" xlink:href="#N"></use><use transform="matrix(0.05555555555555555,0,0,0.05555555555555555,72.11111111111111,0)" xlink:href="#L"></use><use transform="matrix(0.05555555555555555,0,0,0.05555555555555555,83.22222222222223,0)" xlink:href="#E"></use><use transform="matrix(0.05555555555555555,0,0,0.05555555555555555,94.33333333333334,0)" xlink:href="#I"></use></g><path fill="#333" d="M101-234c-31-9-42 10-38 44h38v23H63V0H32v-167H5v-23h27c-7-52 17-82 69-68v24" id="Y"></path><g id="o"><use transform="matrix(0.05555555555555555,0,0,0.05555555555555555,0,0)" xlink:href="#M"></use><use transform="matrix(0.05555555555555555,0,0,0.05555555555555555,5.555555555555555,0)" xlink:href="#B"></use><use transform="matrix(0.05555555555555555,0,0,0.05555555555555555,12.166666666666666,0)" xlink:href="#L"></use><use transform="matrix(0.05555555555555555,0,0,0.05555555555555555,23.27777777777778,0)" xlink:href="#E"></use><use transform="matrix(0.05555555555555555,0,0,0.05555555555555555,34.388888888888886,0)" xlink:href="#T"></use><use transform="matrix(0.05555555555555555,0,0,0.05555555555555555,44.388888888888886,0)" xlink:href="#Y"></use><use transform="matrix(0.05555555555555555,0,0,0.05555555555555555,49.94444444444444,0)" xlink:href="#H"></use><use transform="matrix(0.05555555555555555,0,0,0.05555555555555555,61.05555555555555,0)" xlink:href="#B"></use><use transform="matrix(0.05555555555555555,0,0,0.05555555555555555,67.66666666666667,0)" xlink:href="#N"></use></g><g id="p"><use transform="matrix(0.06172839506172839,0,0,0.06172839506172839,0,0)" xlink:href="#K"></use><use transform="matrix(0.06172839506172839,0,0,0.06172839506172839,12.716049382716047,0)" xlink:href="#B"></use><use transform="matrix(0.06172839506172839,0,0,0.06172839506172839,20.061728395061728,0)" xlink:href="#L"></use><use transform="matrix(0.06172839506172839,0,0,0.06172839506172839,32.407407407407405,0)" xlink:href="#E"></use><use transform="matrix(0.06172839506172839,0,0,0.06172839506172839,44.75308641975308,0)" xlink:href="#T"></use><use transform="matrix(0.06172839506172839,0,0,0.06172839506172839,55.86419753086419,0)" xlink:href="#Y"></use><use transform="matrix(0.06172839506172839,0,0,0.06172839506172839,62.03703703703703,0)" xlink:href="#H"></use><use transform="matrix(0.06172839506172839,0,0,0.06172839506172839,74.38271604938271,0)" xlink:href="#B"></use><use transform="matrix(0.06172839506172839,0,0,0.06172839506172839,81.72839506172839,0)" xlink:href="#N"></use></g><g id="q"><use transform="matrix(0.06172839506172839,0,0,0.06172839506172839,0,0)" xlink:href="#z"></use><use transform="matrix(0.06172839506172839,0,0,0.06172839506172839,14.814814814814813,0)" xlink:href="#M"></use><use transform="matrix(0.06172839506172839,0,0,0.06172839506172839,20.98765432098765,0)" xlink:href="#H"></use><use transform="matrix(0.06172839506172839,0,0,0.06172839506172839,33.33333333333333,0)" xlink:href="#B"></use><use transform="matrix(0.06172839506172839,0,0,0.06172839506172839,40.679012345679006,0)" xlink:href="#L"></use><use transform="matrix(0.06172839506172839,0,0,0.06172839506172839,53.02469135802468,0)" xlink:href="#F"></use><use transform="matrix(0.06172839506172839,0,0,0.06172839506172839,65.37037037037037,0)" xlink:href="#A"></use></g></defs></g></svg> 